<svg width="180" height="31" viewBox="0 0 180 31" fill="none" xmlns="http://www.w3.org/2000/svg">
<g clip-path="url(#clip0_519_1769)">
<path d="M70.6 3.23999C70.602 2.69808 70.7646 2.16892 71.0673 1.71943C71.3701 1.26995 71.7993 0.920321 72.3007 0.714768C72.8021 0.509214 73.3532 0.456966 73.8843 0.564629C74.4155 0.672292 74.9027 0.935032 75.2845 1.31962C75.6663 1.70421 75.9255 2.19338 76.0293 2.72527C76.133 3.25716 76.0768 3.80788 75.8676 4.30779C75.6584 4.8077 75.3056 5.23434 74.8539 5.53377C74.4022 5.8332 73.8719 5.99197 73.33 5.98999C72.9702 5.98868 72.6141 5.91651 72.2822 5.7776C71.9503 5.63869 71.649 5.43576 71.3955 5.1804C71.1419 4.92504 70.9412 4.62225 70.8047 4.28931C70.6683 3.95637 70.5987 3.59982 70.6 3.23999ZM116.5 24.27C117.044 24.272 117.577 24.1124 118.031 23.8114C118.484 23.5104 118.838 23.0816 119.048 22.5793C119.257 22.077 119.313 21.5238 119.208 20.9897C119.103 20.4555 118.842 19.9646 118.458 19.579C118.074 19.1934 117.584 18.9305 117.05 18.8236C116.516 18.7167 115.963 18.7705 115.46 18.9784C114.957 19.1862 114.527 19.5387 114.224 19.9911C113.922 20.4436 113.76 20.9757 113.76 21.52C113.76 22.2476 114.048 22.9456 114.562 23.461C115.075 23.9764 115.772 24.2673 116.5 24.27ZM25.7 7.22999C24.0129 7.24775 22.3688 7.76426 20.9746 8.71447C19.5805 9.66469 18.4986 11.0061 17.8653 12.5699C17.2319 14.1337 17.0754 15.8499 17.4154 17.5025C17.7554 19.1551 18.5767 20.6701 19.776 21.8569C20.9752 23.0436 22.4988 23.849 24.1548 24.1717C25.8108 24.4944 27.5253 24.3199 29.0824 23.6702C30.6395 23.0205 31.9695 21.9247 32.9051 20.5206C33.8406 19.1166 34.3399 17.4672 34.34 15.78C34.3768 14.6396 34.1778 13.5038 33.7555 12.4438C33.3331 11.3839 32.6965 10.4225 31.8855 9.61989C31.0744 8.8173 30.1064 8.19078 29.0421 7.77955C27.9778 7.36831 26.84 7.18122 25.7 7.22999ZM25.7 20.33C23.35 20.33 21.7 18.46 21.7 15.78C21.7 13.1 23.34 11.23 25.7 11.23C28.06 11.23 29.7 13.1 29.7 15.78C29.7 18.46 28.11 20.33 25.7 20.33ZM65.3 16.21C65.1321 15.8716 64.9128 15.5613 64.65 15.29L64.5 15.13L64.66 14.98C64.9116 14.7078 65.1423 14.417 65.35 14.11L69.74 7.55999H64.41L61.1 12.69C60.9586 12.8442 60.782 12.9621 60.5852 13.0334C60.3885 13.1048 60.1774 13.1277 59.97 13.1H59.22V3.40999C59.22 1.47999 58.01 1.20999 56.71 1.20999H54.48V24.08H59.21V17.22H59.65C60.19 17.22 60.56 17.28 60.73 17.58L63.35 22.47C63.5773 23.0089 63.9785 23.4563 64.4895 23.7408C65.0006 24.0253 65.5922 24.1306 66.17 24.04H69.8L67.09 19.57L65.3 16.21ZM88.27 7.18999C87.3747 7.17014 86.4851 7.33782 85.6584 7.68226C84.8318 8.0267 84.0863 8.54028 83.47 9.18999L83.18 9.47999L83.08 9.07999C82.9261 8.58803 82.6021 8.16692 82.166 7.89207C81.7299 7.61723 81.2102 7.5066 80.7 7.57999H78.57V24.07H83.29V16.47C83.275 15.7919 83.373 15.1159 83.58 14.47C83.7979 13.6302 84.2923 12.8883 84.9836 12.3639C85.6748 11.8396 86.5225 11.5634 87.39 11.58C88.85 11.58 89.39 12.35 89.39 14.36V21.55C89.335 21.8921 89.3619 22.2424 89.4686 22.572C89.5753 22.9017 89.7586 23.2013 90.0036 23.4463C90.2487 23.6914 90.5483 23.8747 90.878 23.9814C91.2076 24.0881 91.5579 24.115 91.9 24.06H94.12V13.57C94.15 9.39999 92.12 7.18999 88.27 7.18999ZM73.39 7.55999H71.17V24.08H75.87V10.08C75.9234 9.74041 75.8964 9.39304 75.7913 9.06576C75.6862 8.73848 75.5058 8.44038 75.2647 8.19537C75.0236 7.95037 74.7284 7.76527 74.4028 7.65493C74.0773 7.54459 73.7304 7.51208 73.39 7.55999ZM44.16 7.22999C42.4729 7.24775 40.8288 7.76426 39.4346 8.71447C38.0405 9.66469 36.9586 11.0061 36.3253 12.5699C35.6919 14.1337 35.5354 15.8499 35.8754 17.5025C36.2154 19.1551 37.0367 20.6701 38.236 21.8569C39.4352 23.0436 40.9588 23.849 42.6148 24.1717C44.2708 24.4944 45.9853 24.3199 47.5424 23.6702C49.0995 23.0205 50.4295 21.9247 51.3651 20.5206C52.3006 19.1166 52.7999 17.4672 52.8 15.78C52.8368 14.6396 52.6378 13.5038 52.2155 12.4438C51.7931 11.3839 51.1565 10.4225 50.3455 9.61989C49.5344 8.8173 48.5664 8.19078 47.5021 7.77955C46.4378 7.36831 45.3 7.18122 44.16 7.22999ZM44.16 20.33C41.81 20.33 40.16 18.46 40.16 15.78C40.16 13.1 41.8 11.23 44.16 11.23C46.52 11.23 48.16 13.1 48.16 15.78C48.16 18.46 46.57 20.33 44.16 20.33ZM144.89 7.22999C143.203 7.24775 141.559 7.76426 140.165 8.71447C138.77 9.66469 137.689 11.0061 137.055 12.5699C136.422 14.1337 136.265 15.8499 136.605 17.5025C136.945 19.1551 137.767 20.6701 138.966 21.8569C140.165 23.0436 141.689 23.849 143.345 24.1717C145.001 24.4944 146.715 24.3199 148.272 23.6702C149.829 23.0205 151.16 21.9247 152.095 20.5206C153.031 19.1166 153.53 17.4672 153.53 15.78C153.567 14.6396 153.368 13.5038 152.945 12.4438C152.523 11.3839 151.887 10.4225 151.075 9.61989C150.264 8.8173 149.296 8.19078 148.232 7.77955C147.168 7.36831 146.03 7.18122 144.89 7.22999ZM144.89 20.33C142.54 20.33 140.89 18.46 140.89 15.78C140.89 13.1 142.53 11.23 144.89 11.23C147.25 11.23 148.89 13.1 148.89 15.78C148.89 18.46 147.3 20.33 144.89 20.33ZM109.74 7.51999C109.356 7.48285 108.97 7.55749 108.627 7.73491C108.285 7.91233 108.001 8.18497 107.81 8.51999L107.69 8.76999L107.47 8.57999C106.253 7.58344 104.711 7.07072 103.14 7.13999C98.75 7.13999 95.78 10.45 95.78 15.37C95.78 20.29 98.85 23.72 103.23 23.72C104.521 23.7791 105.795 23.4061 106.85 22.66L107.21 22.38V22.84C107.21 25.05 105.78 26.27 103.21 26.27C102.131 26.255 101.062 26.0555 100.05 25.68C99.8562 25.5813 99.6419 25.5295 99.4244 25.5287C99.2069 25.5279 98.9923 25.5782 98.7977 25.6754C98.6032 25.7727 98.4342 25.9143 98.3043 26.0887C98.1745 26.2632 98.0874 26.4657 98.05 26.68L97.14 28.96L97.47 29.13C99.2593 30.0195 101.232 30.4783 103.23 30.47C107.23 30.47 111.9 28.41 111.9 22.64V7.51999H109.74ZM104.06 19.61C101.5 19.61 100.58 17.36 100.58 15.26C100.58 14.33 100.81 11.26 103.81 11.26C105.3 11.26 107.3 11.68 107.3 15.36C107.3 18.88 105.54 19.61 104.06 19.61ZM13.09 12.35L12.4 11.97L13 11.47C13.6103 10.9334 14.0951 10.2692 14.42 9.52435C14.7449 8.77951 14.9019 7.97231 14.88 7.15999C14.88 3.55999 12.09 1.23999 7.79 1.23999H2.31C1.69606 1.26295 1.11431 1.52048 0.684566 1.95953C0.254821 2.39857 0.00981021 2.98571 0 3.59999V24H7.88C12.67 24 15.77 21.39 15.77 17.34C15.8104 16.3446 15.583 15.3566 15.1116 14.4789C14.6403 13.6012 13.9421 12.8661 13.09 12.35ZM4.37 6.57999C4.37 5.51999 4.82 5.01999 5.8 4.95999H7.8C8.16093 4.92761 8.52456 4.97504 8.8651 5.09892C9.20565 5.2228 9.51476 5.4201 9.77052 5.67681C10.0263 5.93353 10.2224 6.24338 10.345 6.58438C10.4676 6.92538 10.5137 7.28919 10.48 7.64999C10.5194 8.01629 10.4791 8.38679 10.3616 8.73598C10.2442 9.08517 10.0524 9.40477 9.79964 9.67277C9.54684 9.94077 9.23898 10.1508 8.89723 10.2884C8.55549 10.4261 8.18798 10.488 7.82 10.47H4.37V6.57999ZM8.2 20.14H4.37V15.56C4.37 14.56 4.76 14.07 5.59 13.95H8.2C8.99043 13.9949 9.7337 14.3406 10.2774 14.9161C10.8211 15.4916 11.124 16.2533 11.124 17.045C11.124 17.8367 10.8211 18.5984 10.2774 19.1739C9.7337 19.7494 8.99043 20.095 8.2 20.14ZM174.53 7.23999C173.558 7.24366 172.6 7.46575 171.726 7.88984C170.852 8.31393 170.084 8.92915 169.48 9.68999L169.14 10.13L168.87 9.63999C168.437 8.855 167.787 8.21128 166.998 7.7857C166.209 7.36012 165.314 7.17067 164.42 7.23999C163.604 7.25328 162.798 7.43308 162.054 7.76838C161.309 8.10368 160.641 8.58742 160.09 9.18999L159.65 9.66999L159.48 9.03999C159.323 8.57152 159.008 8.17282 158.587 7.91334C158.167 7.65386 157.669 7.55005 157.18 7.61999H155.18V24.07H159.64V16.81C159.646 16.1629 159.727 15.5187 159.88 14.89C160.31 13.13 161.49 11.24 163.47 11.43C164.69 11.55 165.29 12.49 165.29 14.32V24.07H169.81V16.81C169.791 16.1345 169.875 15.4601 170.06 14.81C170.42 13.14 171.65 11.42 173.56 11.42C174.94 11.42 175.45 12.2 175.45 14.31V21.67C175.45 23.33 176.19 24.07 177.85 24.07H180V13.57C180 9.36999 178.15 7.23999 174.53 7.23999ZM133.69 18.36C132.51 19.595 130.913 20.3471 129.21 20.47C128.593 20.5073 127.974 20.414 127.395 20.1962C126.816 19.9784 126.29 19.641 125.85 19.206C125.41 18.771 125.067 18.2482 124.843 17.6716C124.619 17.0951 124.519 16.4778 124.55 15.86C124.498 15.2504 124.575 14.6365 124.776 14.0588C124.978 13.481 125.299 12.9524 125.719 12.5076C126.14 12.0629 126.649 11.712 127.215 11.478C127.78 11.244 128.388 11.1322 129 11.15C129.84 11.15 130.8 11.45 130.95 11.96V12.05C131.048 12.3986 131.258 12.7056 131.547 12.924C131.835 13.1425 132.188 13.2605 132.55 13.26H135V11.11C135 8.26999 131.39 7.23999 129 7.23999C123.81 7.23999 120 10.87 120 15.85C120 20.83 123.73 24.47 128.86 24.47C130.178 24.4562 131.479 24.1722 132.683 23.6355C133.887 23.0989 134.969 22.321 135.86 21.35L134 18.08L133.69 18.36Z" fill="#F6F6F6"/>
</g>
<defs>
<clipPath id="clip0_519_1769">
<rect width="180" height="30" fill="white" transform="translate(0 0.5)"/>
</clipPath>
</defs>
</svg>
