<svg width="300" height="47" viewBox="0 0 300 47" fill="none" xmlns="http://www.w3.org/2000/svg">
<path fill-rule="evenodd" clip-rule="evenodd" d="M7.64583 10.6114C7.02457 14.0068 6.62944 17.5917 6.66898 21.0436C6.67273 21.3502 6.90447 21.5993 7.20979 21.6258L8.3495 21.7249C8.66227 21.7509 8.94148 21.528 8.9843 21.2172C9.43715 17.9976 10.9441 15.1057 13.1435 12.9062C13.5349 12.5172 13.9728 12.1313 14.428 11.7683C14.6207 11.6166 14.6974 11.3751 14.6281 11.1396C14.5583 10.9036 14.3638 10.7408 14.119 10.7166C12.1834 10.5253 10.2516 10.3759 8.30113 10.1325C7.98884 10.0929 7.70218 10.3023 7.64583 10.6114ZM28.7508 17.5019C26.4038 15.1545 22.9144 14.6417 20.0713 15.967L20.1555 16.0476C21.52 17.4121 21.52 19.6246 20.1555 20.9891C18.9651 22.1778 17.1286 22.3294 15.7734 21.4438C15.2965 23.8736 15.9963 26.4905 17.8794 28.3721C20.8816 31.3739 25.7487 31.3739 28.7508 28.3721C31.7517 25.3708 31.7517 20.5041 28.7508 17.5019ZM0.469069 5.50509C0.443007 5.64935 0.471396 5.78805 0.548184 5.91513C0.635678 6.05938 0.763197 6.14919 0.92608 6.18693C2.24547 6.48057 3.64582 6.74815 5.11136 6.98972C5.42037 7.03998 5.71264 6.84356 5.78336 6.54014C6.2646 4.49055 6.80536 2.55685 7.3578 0.816294C7.41965 0.619899 7.38196 0.421178 7.24933 0.260153C7.12183 0.106575 6.94216 0.0321118 6.74393 0.0488658C3.71703 0.393255 1.23138 2.60014 0.475121 5.48649L0.469069 5.50509L0.467673 5.5144L0.465812 5.52L0.469069 5.50509ZM0.237305 20.5135C0.252197 20.8094 0.482564 21.0487 0.779949 21.0752L3.36845 21.2977C3.54111 21.313 3.69283 21.2604 3.81987 21.1422C3.94554 21.0263 4.01069 20.8788 4.01069 20.7062C3.99951 17.2306 4.3965 13.6551 5.00849 10.267C5.03873 10.1045 5.00474 9.95468 4.91123 9.82158C4.81582 9.6871 4.68644 9.60427 4.52401 9.57821C3.2884 9.37248 2.09421 9.14772 0.95261 8.9043C0.772501 8.86476 0.600309 8.9062 0.4579 9.02255C0.323402 9.13097 0.246612 9.27707 0.237305 9.44929V20.5135ZM0.237305 36.7012C0.237305 36.9017 0.328987 37.0758 0.493733 37.1899C0.658482 37.302 0.851156 37.3266 1.0401 37.255C3.34472 36.379 5.80615 35.7019 8.36859 35.1849C8.64737 35.1291 8.84374 34.8908 8.84374 34.6064V24.9799C8.84374 24.6707 8.61015 24.4163 8.30298 24.3901L0.879077 23.7559C0.709211 23.7405 0.555632 23.793 0.429975 23.9094C0.31037 24.0174 0.246612 24.1542 0.237305 24.3134V36.7012ZM8.28253 45.821C8.59477 45.8042 8.84374 45.5454 8.84374 45.2289V38.5185C8.84374 38.3356 8.76746 38.176 8.62316 38.0601C8.4789 37.9442 8.30854 37.9028 8.12707 37.9423C5.59999 38.4887 3.19299 39.2077 0.971222 40.1344C0.690594 40.2502 0.545858 40.5573 0.630561 40.8454L0.594722 40.7407C1.55157 43.6811 4.32158 45.821 7.56908 45.821H8.28253ZM15.9568 45.821C16.116 45.8112 16.2528 45.7479 16.3612 45.6283C16.477 45.5025 16.5301 45.349 16.5147 45.1787L15.8824 37.7515C15.8558 37.4462 15.6049 37.2145 15.3002 37.2103C14.233 37.1954 13.0914 37.1544 12.041 37.255C11.7357 37.2834 11.5058 37.5379 11.5058 37.8428V45.2289C11.5058 45.5454 11.7548 45.8042 12.0675 45.821H15.9568ZM24.0317 45.821C24.3314 45.8056 24.573 45.5682 24.5935 45.2666L25.0673 37.7515C25.0784 37.5714 25.0165 37.4104 24.8858 37.2871C24.7546 37.1615 24.5917 37.1075 24.412 37.126C23.8862 37.1843 23.3509 37.2145 22.8078 37.2145H19.1503C18.9781 37.2145 18.832 37.2797 18.7142 37.4053C18.5978 37.5323 18.5476 37.686 18.5607 37.8562L19.1936 45.2778C19.2196 45.5753 19.4612 45.8056 19.7548 45.821H24.0317ZM35.6581 45.821C35.9598 45.8056 36.2008 45.5664 36.2194 45.2635L36.6671 37.6203C36.6858 37.302 36.446 37.0251 36.1282 36.9971C33.6235 36.7798 31.0233 36.6076 28.3841 36.516C28.0639 36.5048 27.7944 36.7515 27.774 37.0698L27.2611 45.1917C27.2499 45.3607 27.304 45.5101 27.4203 45.6334C27.5287 45.7493 27.6614 45.8136 27.8191 45.821H35.6581ZM46.0578 38.4887L46.0563 38.6218C46.0489 38.3319 45.8334 38.0885 45.5435 38.0503C43.789 37.8172 41.9196 37.5844 39.9634 37.3732C39.7969 37.3541 39.647 37.4011 39.5181 37.5095C39.3906 37.6184 39.3194 37.7589 39.3101 37.9275L38.8851 45.1503C38.8758 45.3323 38.9378 45.4914 39.0704 45.6148C39.1942 45.7306 39.3417 45.7874 39.5084 45.7776L39.4599 45.7837C43.151 45.4129 46.0578 42.2737 46.0578 38.4887ZM46.0578 22.3573C46.0489 22.1963 45.9834 22.0581 45.8614 21.9492C45.7343 21.8334 45.5789 21.7827 45.4049 21.7994L37.9716 22.5594C37.6761 22.5896 37.4514 22.8289 37.4401 23.1247C37.2977 26.9344 35.6823 30.3839 33.1521 32.9143C33.0882 32.9761 33.0264 33.0381 32.9626 33.0999C32.7905 33.2666 32.7341 33.504 32.8165 33.7287C32.8989 33.9535 33.0934 34.0992 33.3336 34.1159C37.657 34.41 41.7622 34.8703 45.388 35.3478C45.5636 35.3707 45.7232 35.3217 45.8557 35.2053C45.981 35.0975 46.0489 34.9568 46.0578 34.7935V22.3573ZM46.0578 11.3341C46.0489 11.175 45.9852 11.0381 45.8652 10.9302C45.7381 10.8138 45.5845 10.7612 45.4142 10.7761C43.1714 10.9767 40.7626 11.1303 38.2466 11.2369C37.9511 11.248 37.7114 11.4742 37.6836 11.7702L37.4514 14.1679V19.2877C37.4514 19.4616 37.5169 19.611 37.6463 19.7274C37.7752 19.8434 37.9306 19.894 38.1028 19.8773L45.5263 19.1186C45.8205 19.0894 46.0429 18.8497 46.0578 18.5593V11.3341ZM31.1602 0C30.8624 0.0148923 30.6207 0.250846 30.5984 0.552418L30.093 7.97587C30.0819 8.14434 30.1363 8.29419 30.2521 8.41937C30.3681 8.54316 30.5142 8.60692 30.6846 8.60692H34.7855C35.0927 8.60692 35.3454 8.37655 35.3751 8.07128L36.0943 0.649685C36.111 0.477489 36.0589 0.322051 35.9425 0.194998C35.8341 0.0749283 35.6973 0.00930769 35.5368 0H31.1602ZM18.7929 0C18.4802 0.0167538 18.2311 0.275045 18.2311 0.591513V7.83579C18.2311 8.14994 18.4746 8.40821 18.7868 8.42729C19.0921 8.44405 19.3992 8.46081 19.7064 8.47756C20.7601 8.53386 21.8179 8.58043 22.879 8.61997C23.0791 8.61067 23.2834 8.60692 23.4873 8.60692H26.8344C27.1447 8.60692 27.4031 8.36725 27.424 8.05453L27.9294 0.632929C27.9424 0.462599 27.888 0.312742 27.7722 0.188949C27.6632 0.0712054 27.5287 0.00744612 27.3715 0H18.7929ZM10.8152 0C10.568 0.00930769 10.36 0.166609 10.2795 0.402563C9.64705 2.27995 9.00851 4.46076 8.44539 6.81935C8.40628 6.98782 8.43609 7.1484 8.5352 7.29266C8.63431 7.43506 8.77487 7.52117 8.94708 7.54163C10.8747 7.78505 12.8778 7.98888 14.9297 8.15782C15.0996 8.17087 15.2512 8.11828 15.3789 8.00193C15.5039 7.88649 15.5678 7.73805 15.5678 7.56774V0.591513C15.5678 0.275045 15.3187 0.0167538 15.006 0H10.8152ZM39.3552 0.0283887L39.3775 0.0302503L39.3999 0.0321118L39.3812 0.0302503L39.4315 0.0353691L39.458 0.0376964L39.4916 0.0414195L39.5107 0.0428153L39.5343 0.0470041L39.5608 0.0488658C43.2054 0.473768 46.0578 3.59188 46.0578 7.3322V7.53978C46.0429 7.83394 45.8162 8.07313 45.5188 8.10104C43.3813 8.29604 41.079 8.4515 38.6715 8.55992C38.4939 8.56737 38.3389 8.50595 38.2169 8.37655C38.0936 8.2472 38.0392 8.08847 38.0559 7.9126L38.8214 0.00186153H38.915H38.8684L38.915 0.00372307H38.9378L38.9619 0.0055846H38.9843L39.0089 0.00744612H39.0313L39.1997 0.0167538L39.2259 0.019081L39.3287 0.0260615L39.3552 0.0283887Z" fill="#F6F6F6"/>
<path d="M76.2017 35.9178C73.5649 35.9178 71.3096 35.3971 69.4361 34.3556C67.5625 33.3142 66.1228 31.8504 65.1164 29.9643C64.1106 28.0781 63.6074 25.8506 63.6074 23.2817C63.6074 20.736 64.1106 18.5201 65.1164 16.6339C66.1228 14.7478 67.5625 13.284 69.4361 12.2426C71.3096 11.2011 73.5649 10.6804 76.2017 10.6804C77.8204 10.6804 79.3702 10.935 80.8508 11.4441C82.3308 11.9533 83.5451 12.6476 84.4935 13.527L82.8283 17.7969C81.7873 16.9869 80.7407 16.3909 79.6883 16.0091C78.6359 15.6272 77.5313 15.4363 76.375 15.4363C74.0391 15.4363 72.2751 16.1132 71.0842 17.4671C69.8927 18.821 69.2975 20.7591 69.2975 23.2817C69.2975 25.8043 69.8927 27.7483 71.0842 29.1138C72.2751 30.4792 74.0391 31.1619 76.375 31.1619C77.5313 31.1619 78.6359 30.971 79.6883 30.5891C80.7407 30.2072 81.7873 29.6113 82.8283 28.8013L84.4935 33.0712C83.5451 33.9275 82.3308 34.616 80.8508 35.1367C79.3702 35.6574 77.8204 35.9178 76.2017 35.9178Z" fill="#F6F6F6"/>
<path fill-rule="evenodd" clip-rule="evenodd" d="M88.5717 15.7677C89.0958 16.2547 89.8463 16.4982 90.8241 16.4982C92.8263 16.4982 93.8274 15.5617 93.8274 13.6886C93.8274 11.7905 92.8263 10.8416 90.8241 10.8416C89.8463 10.8416 89.0958 11.085 88.5717 11.572C88.0477 12.059 87.7861 12.7645 87.7861 13.6886C87.7861 14.5877 88.0477 15.2807 88.5717 15.7677ZM88.183 18.438V35.4827H93.423V18.438H88.183Z" fill="#F6F6F6"/>
<path d="M106.505 35.9178C101.784 35.9178 99.4235 33.6162 99.4235 29.013V22.5548H96.2417V18.673H99.4235V13.7263H104.589V18.673H109.55V22.5548H104.589V28.8069C104.589 29.7687 104.812 30.4901 105.256 30.971C105.701 31.452 106.414 31.6925 107.394 31.6925C107.691 31.6925 108.005 31.6581 108.335 31.5894C108.666 31.5207 109.025 31.4291 109.413 31.3146L110.166 35.0933C109.687 35.3452 109.117 35.5456 108.455 35.6945C107.794 35.8433 107.144 35.9178 106.505 35.9178Z" fill="#F6F6F6"/>
<path d="M114.3 41.5744L117.52 34.46L110.601 18.5127H116.047L120.259 29.2359L124.609 18.5127H129.746L119.574 41.5744H114.3Z" fill="#F6F6F6"/>
<path d="M145.387 35.9178C142.75 35.9178 140.495 35.3971 138.621 34.3556C136.748 33.3142 135.308 31.8504 134.301 29.9643C133.296 28.0781 132.792 25.8506 132.792 23.2817C132.792 20.736 133.296 18.5201 134.301 16.6339C135.308 14.7478 136.748 13.284 138.621 12.2426C140.495 11.2011 142.75 10.6804 145.387 10.6804C147.005 10.6804 148.555 10.935 150.036 11.4441C151.516 11.9533 152.73 12.6476 153.679 13.527L152.013 17.7969C150.972 16.9869 149.926 16.391 148.873 16.0091C147.821 15.6272 146.716 15.4363 145.56 15.4363C143.224 15.4363 141.46 16.1132 140.269 17.4671C139.078 18.821 138.483 20.7592 138.483 23.2817C138.483 25.8043 139.078 27.7483 140.269 29.1138C141.46 30.4792 143.224 31.1619 145.56 31.1619C146.716 31.1619 147.821 30.971 148.873 30.5891C149.926 30.2073 150.972 29.6113 152.013 28.8013L153.679 33.0712C152.73 33.9275 151.516 34.616 150.036 35.1367C148.555 35.6574 147.005 35.9178 145.387 35.9178Z" fill="#F6F6F6"/>
<path d="M157.595 35.4825V11.1155H162.775V20.8277C163.369 19.9521 164.135 19.2897 165.073 18.8403C166.011 18.391 167.051 18.1664 168.195 18.1664C172.151 18.1664 174.129 20.5397 174.129 25.2864V35.4825H168.95V25.5283C168.95 24.3532 168.732 23.5064 168.298 22.9879C167.863 22.4695 167.223 22.2103 166.377 22.2103C165.279 22.2103 164.404 22.5559 163.752 23.2472C163.101 23.9384 162.775 24.8601 162.775 26.0122V35.4825H157.595Z" fill="#F6F6F6"/>
<path fill-rule="evenodd" clip-rule="evenodd" d="M180.755 35.1861C181.722 35.6739 182.839 35.9179 184.106 35.9179C185.28 35.9179 186.277 35.6507 187.094 35.1164C187.912 34.5821 188.493 33.862 188.839 32.9561V35.5345H193.71V25.4298C193.71 22.921 193.066 21.0684 191.776 19.8721C190.486 18.6758 188.528 18.0776 185.902 18.0776C185.05 18.0776 184.152 18.1648 183.207 18.339C182.263 18.5132 181.359 18.7629 180.495 19.0881C179.632 19.4133 178.901 19.7734 178.302 20.1683L179.718 23.6875C180.731 23.1068 181.751 22.6713 182.776 22.3809C183.801 22.0905 184.774 21.9454 185.695 21.9454C186.801 21.9454 187.584 22.1602 188.044 22.59C188.505 23.0197 188.736 23.7456 188.736 24.7677V25.3601H187.491C185.096 25.3601 183.173 25.5169 181.722 25.8305C180.271 26.1441 179.223 26.6725 178.578 27.4159C177.933 28.1592 177.611 29.1464 177.611 30.3776C177.611 31.4229 177.893 32.3638 178.457 33.2C179.022 34.0363 179.787 34.6983 180.755 35.1861ZM187.733 31.3881C187.066 32.0618 186.248 32.3986 185.28 32.3986C184.428 32.3986 183.777 32.1895 183.328 31.7714C182.879 31.3533 182.655 30.819 182.655 30.1686C182.655 29.402 183.023 28.8619 183.76 28.5483C184.498 28.2347 185.753 28.0779 187.526 28.0779H188.736V28.7748C188.736 29.8433 188.401 30.7145 187.733 31.3881Z" fill="#F6F6F6"/>
<path d="M204.396 35.9177C202.204 35.9177 200.6 35.3461 199.584 34.203C198.569 33.0599 198.062 31.3567 198.062 29.0936V11.1155H203.288V28.8858C203.288 30.7332 204.107 31.657 205.745 31.657C205.999 31.657 206.247 31.6454 206.49 31.6223C206.732 31.5993 206.968 31.5531 207.199 31.4838L207.13 35.5367C206.253 35.7907 205.342 35.9177 204.396 35.9177Z" fill="#F6F6F6"/>
<path d="M216.144 35.9177C213.952 35.9177 212.348 35.3461 211.333 34.203C210.317 33.0599 209.81 31.3567 209.81 29.0936V11.1155H215.036V28.8858C215.036 30.7332 215.856 31.657 217.494 31.657C217.748 31.657 217.996 31.6454 218.238 31.6223C218.481 31.5993 218.717 31.5531 218.948 31.4838L218.878 35.5367C218.002 35.7907 217.09 35.9177 216.144 35.9177Z" fill="#F6F6F6"/>
<path fill-rule="evenodd" clip-rule="evenodd" d="M225.219 34.8202C226.678 35.552 228.421 35.9179 230.45 35.9179C231.71 35.9179 232.964 35.7262 234.212 35.3429C235.46 34.9596 236.515 34.4428 237.378 33.7924L235.979 30.2731C235.209 30.8538 234.346 31.2836 233.39 31.5623C232.433 31.8411 231.488 31.9805 230.555 31.9805C229.133 31.9805 228.019 31.6727 227.214 31.0571C226.409 30.4415 225.913 29.4601 225.727 28.1128H237.658V26.7887C237.658 24.1173 236.924 21.9976 235.454 20.4296C233.984 18.8617 232.002 18.0776 229.506 18.0776C227.779 18.0776 226.257 18.4552 224.94 19.2101C223.622 19.965 222.583 21.0104 221.825 22.346C221.067 23.6818 220.688 25.2323 220.688 26.9977C220.688 28.8097 221.079 30.3834 221.86 31.7191C222.642 33.0548 223.762 34.0885 225.219 34.8202ZM227.004 22.5726C227.692 21.8989 228.596 21.5621 229.716 21.5621C231.955 21.5621 233.145 22.8397 233.285 25.3949H225.727C225.89 24.187 226.316 23.2462 227.004 22.5726Z" fill="#F6F6F6"/>
<path d="M241.139 35.4827V18.4251H246.216V20.9264C246.788 20 247.554 19.2936 248.515 18.8072C249.475 18.3209 250.55 18.0776 251.739 18.0776C253.729 18.0776 255.215 18.6624 256.199 19.8321C257.182 21.0016 257.674 22.8024 257.674 25.2343V35.4827H252.494V25.4774C252.494 24.2962 252.277 23.4451 251.842 22.924C251.408 22.4029 250.767 22.1423 249.921 22.1423C248.823 22.1423 247.948 22.4897 247.297 23.1845C246.645 23.8794 246.319 24.8058 246.319 25.9638V35.4827H241.139Z" fill="#F6F6F6"/>
<path fill-rule="evenodd" clip-rule="evenodd" d="M265.619 41.4909C267.054 41.8367 268.601 42.0096 270.258 42.0096C273.245 42.0096 275.521 41.2949 277.085 39.8654C278.648 38.436 279.431 36.2918 279.431 33.4328V18.4235H274.284V20.9827C273.817 20.1066 273.094 19.4034 272.113 18.8731C271.133 18.3428 270.024 18.0776 268.787 18.0776C267.247 18.0776 265.905 18.4293 264.761 19.1325C263.617 19.8357 262.731 20.8213 262.1 22.0894C261.47 23.3574 261.155 24.833 261.155 26.5161C261.155 28.2222 261.47 29.7093 262.1 30.9774C262.731 32.2455 263.617 33.2311 264.761 33.9343C265.905 34.6375 267.247 34.9891 268.787 34.9891C269.978 34.9891 271.075 34.724 272.078 34.1937C273.082 33.6634 273.817 32.9602 274.284 32.0841V34.0208C274.284 36.7413 272.79 38.1016 269.803 38.1016C268.752 38.1016 267.638 37.946 266.459 37.6348C265.28 37.3235 264.224 36.8797 263.291 36.3033L261.855 39.8654C262.929 40.6032 264.183 41.145 265.619 41.4909ZM273.181 29.8707C272.469 30.6777 271.53 31.0812 270.363 31.0812C269.173 31.0812 268.227 30.6777 267.527 29.8707C266.827 29.0638 266.476 27.9455 266.476 26.5161C266.476 25.0866 266.827 23.9742 267.527 23.1788C268.227 22.3833 269.173 21.9856 270.363 21.9856C271.53 21.9856 272.469 22.3833 273.181 23.1788C273.893 23.9742 274.249 25.0866 274.249 26.5161C274.249 27.9455 273.893 29.0638 273.181 29.8707Z" fill="#F6F6F6"/>
<path fill-rule="evenodd" clip-rule="evenodd" d="M287.442 34.8202C288.9 35.552 290.644 35.9179 292.673 35.9179C293.933 35.9179 295.186 35.7262 296.434 35.3429C297.682 34.9596 298.738 34.4428 299.601 33.7924L298.202 30.2731C297.432 30.8538 296.569 31.2836 295.612 31.5623C294.656 31.8411 293.711 31.9805 292.778 31.9805C291.355 31.9805 290.242 31.6727 289.437 31.0571C288.632 30.4415 288.136 29.4601 287.949 28.1128H299.881V26.7887C299.881 24.1173 299.146 21.9976 297.677 20.4296C296.207 18.8617 294.224 18.0776 291.728 18.0776C290.002 18.0776 288.48 18.4552 287.162 19.2101C285.844 19.965 284.807 21.0104 284.048 22.346C283.29 23.6818 282.911 25.2323 282.911 26.9977C282.911 28.8097 283.302 30.3834 284.083 31.7191C284.865 33.0548 285.984 34.0885 287.442 34.8202ZM289.227 22.5726C289.915 21.8989 290.819 21.5621 291.938 21.5621C294.178 21.5621 295.367 22.8397 295.507 25.3949H287.949C288.113 24.187 288.539 23.2462 289.227 22.5726Z" fill="#F6F6F6"/>
</svg>
