<svg width="100" height="68" viewBox="0 0 100 68" fill="none" xmlns="http://www.w3.org/2000/svg">
<path d="M27.2648 1.14082C35.7761 -2.0305 45.2406 1.631 49.8354 9.38479C53.2716 15.1853 53.2691 22.3127 50.135 28.0959C49.365 29.5218 48.3698 30.9181 47.5603 32.2674C43.279 39.3808 38.9474 46.4628 34.5655 53.5135C34.2668 53.9938 33.9623 54.4567 33.652 54.9024C33.6408 54.919 33.6257 54.9325 33.6079 54.9417C33.5902 54.9509 33.5704 54.9555 33.5504 54.955C33.5304 54.9545 33.5108 54.9489 33.4935 54.9389C33.4762 54.9288 33.4618 54.9145 33.4514 54.8974C28.378 46.5561 23.2187 38.1149 17.9736 29.5738C16.4288 27.0586 15.2603 24.4443 14.9137 21.5997C13.8145 12.5784 18.8178 4.28987 27.2648 1.14082ZM20.8256 24.4715C21.0418 24.9798 21.2943 25.4708 21.5831 25.9445C25.6548 32.6024 29.6249 39.1249 33.4935 45.5122C33.5074 45.5342 33.5265 45.5523 33.5493 45.5648C33.572 45.5774 33.5975 45.584 33.6235 45.584C33.6495 45.584 33.675 45.5774 33.6978 45.5648C33.7205 45.5523 33.7397 45.5342 33.7535 45.5122C37.2706 39.8396 40.8941 33.9533 44.6241 27.8532C45.6028 26.2507 46.3167 24.8676 46.7656 23.704C47.8697 20.8389 47.9547 17.9506 47.0206 15.0392C45.9379 11.6723 44.0176 9.058 41.2597 7.1963C37.2788 4.51268 32.1171 4.20817 27.8267 6.24564C20.9122 9.5259 17.8226 17.3787 20.8256 24.4715Z" fill="#F6F6F6"/>
<path d="M33.9271 20.5253C33.9386 20.5195 33.9482 20.5106 33.9549 20.4997C33.9616 20.4888 33.9652 20.4762 33.9652 20.4634C33.9652 20.4505 33.9616 20.438 33.9549 20.427C33.9482 20.4161 33.9386 20.4073 33.9271 20.4015L29.3224 17.8887C29.2885 17.87 29.2603 17.8425 29.2407 17.8089C29.2211 17.7754 29.2109 17.7371 29.211 17.6981V13.2839C29.2111 13.2631 29.2166 13.2426 29.2269 13.2244C29.2373 13.2063 29.2521 13.1912 29.2701 13.1805C29.288 13.1698 29.3084 13.1639 29.3293 13.1633C29.3501 13.1628 29.3708 13.1677 29.3892 13.1775L42.6959 20.3916C42.7102 20.399 42.7214 20.4114 42.7273 20.4264C42.7332 20.4414 42.7335 20.4581 42.7281 20.4733C42.7132 20.5129 42.6885 20.5426 42.6538 20.5624C38.2108 22.982 33.8 25.3842 29.4214 27.7691C29.4033 27.7789 29.383 27.7839 29.3624 27.7836C29.3418 27.7832 29.3217 27.7775 29.304 27.767C29.2862 27.7566 29.2715 27.7416 29.2613 27.7238C29.2511 27.7059 29.2457 27.6857 29.2456 27.6651L29.211 23.3797C29.2093 23.2097 29.2828 23.0843 29.4313 23.0034L33.9271 20.5253Z" fill="#F6F6F6"/>
<path d="M73.6916 41.6897C73.5753 43.4846 75.4394 44.205 76.7194 43.0464C76.8332 42.9441 76.9471 42.9433 77.061 43.0439L77.873 43.747C78.0018 43.8576 78.0059 43.9731 77.8854 44.0936C77.2302 44.7439 76.4462 45.074 75.5335 45.0839C73.5843 45.1037 72.3919 44.2603 71.9562 42.5537C71.768 41.8193 71.8555 41.0725 72.2186 40.3133C73.2188 38.2164 76.2119 38.0159 77.8235 39.4592C77.982 39.6011 77.9844 39.7455 77.8309 39.8924L77.1378 40.5608C76.9843 40.7077 76.8332 40.7053 76.6847 40.5534C75.6251 39.4691 73.7956 40.0632 73.6916 41.6897Z" fill="#F6F6F6"/>
<path d="M80.4894 38.6719H78.9198C78.8651 38.6719 78.8208 38.7162 78.8208 38.7709V44.8908C78.8208 44.9455 78.8651 44.9898 78.9198 44.9898H80.4894C80.5441 44.9898 80.5884 44.9455 80.5884 44.8908V38.7709C80.5884 38.7162 80.5441 38.6719 80.4894 38.6719Z" fill="#F6F6F6"/>
<path d="M85.1588 40.2118L85.1563 44.8586C85.1563 44.8901 85.1438 44.9203 85.1215 44.9426C85.0992 44.9649 85.069 44.9774 85.0375 44.9774L83.5249 44.9898C83.4934 44.9898 83.4631 44.9773 83.4408 44.955C83.4186 44.9327 83.406 44.9025 83.406 44.871L83.4036 40.2043C83.4036 40.1885 83.4004 40.1729 83.3943 40.1583C83.3882 40.1437 83.3792 40.1305 83.3679 40.1194C83.3566 40.1084 83.3432 40.0997 83.3285 40.0938C83.3138 40.088 83.2981 40.0852 83.2823 40.0855L81.5641 40.1152C81.5326 40.1152 81.5024 40.1027 81.4801 40.0804C81.4578 40.0581 81.4453 40.0279 81.4453 39.9964L81.4577 38.7932C81.4583 38.7621 81.4711 38.7325 81.4934 38.7108C81.5156 38.689 81.5454 38.6769 81.5765 38.6769L86.9883 38.6719C87.0039 38.6719 87.0194 38.675 87.0338 38.681C87.0482 38.6869 87.0613 38.6957 87.0723 38.7067C87.0834 38.7177 87.0921 38.7308 87.0981 38.7453C87.1041 38.7597 87.1072 38.7751 87.1072 38.7907L87.1146 39.9766C87.1146 40.0081 87.1021 40.0383 87.0798 40.0606C87.0575 40.0829 87.0273 40.0954 86.9958 40.0954L85.2776 40.0929C85.2461 40.0929 85.2159 40.1055 85.1936 40.1277C85.1713 40.15 85.1588 40.1803 85.1588 40.2118Z" fill="#F6F6F6"/>
<path d="M91.154 40.9743L92.377 38.9195C92.4214 38.8441 92.485 38.7816 92.5614 38.7382C92.6378 38.6947 92.7244 38.6719 92.8127 38.6719L93.9465 38.6694C94.1743 38.6694 94.2288 38.7676 94.1099 38.964C93.2104 40.4461 92.49 41.6617 91.9487 42.6107C91.6986 43.0489 91.8521 44.3214 91.8497 44.8388C91.8497 44.9345 91.801 44.9824 91.7036 44.9824L90.2157 44.9873C90.1117 44.9873 90.0606 44.9353 90.0622 44.8314C90.0771 44.101 90.2553 42.9845 89.8617 42.3334C89.1801 41.2078 88.4935 40.0558 87.8019 38.8774C87.7211 38.7388 87.7607 38.6694 87.9208 38.6694H89.3047C89.4796 38.6694 89.6117 38.7454 89.7008 38.8972L90.9386 40.9743C90.95 40.993 90.9661 41.0085 90.9852 41.0193C91.0043 41.0301 91.0258 41.0358 91.0475 41.0358C91.0693 41.0358 91.0905 41.0301 91.1092 41.0193C91.1279 41.0085 91.1433 40.993 91.154 40.9743Z" fill="#F6F6F6"/>
<path d="M57.5326 58.9996C57.7208 59.0326 57.7794 58.96 57.7084 58.7817L53.5245 48.2502C53.4899 48.1595 53.4255 48.1 53.3314 48.072L44.7186 45.4775C44.5684 45.4313 44.5346 45.3422 44.6171 45.2101L47.0408 41.2614C47.0697 41.2139 47.1136 41.1774 47.1656 41.1577C47.2177 41.138 47.2748 41.1361 47.3279 41.1525L56.8691 44.0144C57.0573 44.0705 57.1869 44.1893 57.2578 44.3709L65.5439 65.2011C65.5526 65.2237 65.5552 65.2483 65.5515 65.2723C65.5478 65.2962 65.5378 65.3187 65.5227 65.3374C65.5075 65.3561 65.4877 65.3703 65.4653 65.3785C65.4429 65.3868 65.4188 65.3888 65.3953 65.3843L42.4855 61.3391C42.1458 61.2806 41.7971 61.307 41.4705 61.4158C35.8342 63.3006 30.0593 65.2242 24.1458 67.1866C23.7646 67.3137 23.3808 67.3368 22.9946 67.2559C15.3696 65.655 7.7305 64.0557 0.0773929 62.4581C0.0612469 62.455 0.0462168 62.4478 0.0337214 62.4371C0.0212261 62.4264 0.0116778 62.4126 0.00597899 62.397C0.000280174 62.3814 -0.00138119 62.3645 0.00115126 62.3479C0.00368372 62.3313 0.0103266 62.3155 0.0204527 62.3021L16.907 40.8282C16.9293 40.8002 16.9597 40.7799 16.9939 40.7701C17.0281 40.7603 17.0644 40.7616 17.0976 40.7737L20.2986 41.9348C20.5421 42.0229 20.7475 42.1916 20.8804 42.4126L24.7424 48.7701C24.9157 49.0573 24.8464 49.1382 24.5345 49.0127L18.781 46.7252C18.7232 46.7022 18.6594 46.6984 18.5992 46.7144C18.539 46.7305 18.4855 46.7655 18.4468 46.8143L8.81154 59.0714C8.79752 59.089 8.78825 59.1098 8.78463 59.132C8.78101 59.1542 8.78316 59.177 8.79087 59.1981C8.79857 59.2192 8.81158 59.238 8.82864 59.2527C8.8457 59.2673 8.86624 59.2774 8.88828 59.2818L23.0045 62.2452C23.1663 62.2782 23.3264 62.2691 23.4848 62.2179C29.2531 60.3133 35.0816 58.3724 40.9704 56.3952C41.3542 56.2664 41.7626 56.2095 42.1612 56.2813C47.3816 57.2105 52.5054 58.1166 57.5326 58.9996Z" fill="#F6F6F6"/>
<path d="M76.4192 53.4689L76.4167 52.038C76.4167 51.9555 76.4579 51.9142 76.5405 51.9142H77.8476C77.9351 51.9142 77.9788 51.958 77.9788 52.0454L77.9615 54.3255C77.9607 54.4041 77.9387 54.4811 77.8977 54.5482C77.8567 54.6153 77.7984 54.6701 77.7288 54.7068C75.4883 55.8901 72.2848 55.4024 71.9085 52.4712C71.4579 48.9929 75.7309 47.6165 78.0159 49.753C78.11 49.8421 78.1092 49.9296 78.0135 50.0154L77.1594 50.7903C77.1154 50.8294 77.0589 50.8515 77.0006 50.8524C76.9423 50.8534 76.8861 50.833 76.8425 50.7952C76.2137 50.2522 75.532 50.1086 74.7976 50.3645C73.6885 50.7482 73.3419 52.2063 74.0029 53.1075C74.4947 53.7776 75.2465 53.9698 76.2582 53.6843C76.3655 53.653 76.4192 53.5812 76.4192 53.4689Z" fill="#F6F6F6"/>
<path d="M80.7843 54.125L80.455 54.9667C80.3956 55.1202 80.2834 55.1969 80.1184 55.1969L78.8162 55.192C78.6264 55.192 78.5694 55.1053 78.6453 54.9321L81.2349 49.0647C81.2811 48.9591 81.362 48.9055 81.4775 48.9038C81.9033 48.8989 82.3167 48.8906 82.7178 48.8791C82.9522 48.8724 83.1164 48.9756 83.2105 49.1885C84.0736 51.1476 84.9286 53.0852 85.7752 55.0014C85.7846 55.0227 85.7885 55.0461 85.7865 55.0694C85.7844 55.0927 85.7765 55.1151 85.7635 55.1348C85.7505 55.1544 85.7328 55.1706 85.712 55.1819C85.6911 55.1931 85.6678 55.1992 85.644 55.1994L84.1537 55.187C84.0921 55.1863 84.0324 55.1666 83.9827 55.1307C83.9331 55.0947 83.8959 55.0444 83.8764 54.9865L83.6165 54.2042C83.5935 54.1359 83.5495 54.0766 83.4908 54.0348C83.4321 53.993 83.3617 53.9709 83.2897 53.9715L80.9923 53.9814C80.8899 53.9814 80.8206 54.0293 80.7843 54.125ZM81.4527 52.4886C81.4451 52.5077 81.4422 52.5283 81.4443 52.5488C81.4465 52.5693 81.4536 52.5889 81.4651 52.606C81.4765 52.6231 81.492 52.6371 81.5102 52.6468C81.5283 52.6566 81.5485 52.6617 81.5691 52.6619L82.7921 52.6668C82.8129 52.6671 82.8334 52.6622 82.8518 52.6527C82.8703 52.6431 82.8861 52.6291 82.8979 52.612C82.9096 52.5948 82.917 52.575 82.9192 52.5544C82.9215 52.5337 82.9186 52.5128 82.9109 52.4935L82.3044 50.9537C82.2951 50.93 82.2789 50.9097 82.258 50.8954C82.237 50.881 82.2122 50.8734 82.1868 50.8734C82.1614 50.8734 82.1366 50.881 82.1156 50.8954C82.0946 50.9097 82.0784 50.93 82.0692 50.9537L81.4527 52.4886Z" fill="#F6F6F6"/>
<path d="M92.0587 52.1073L90.754 54.2785C90.6955 54.3759 90.6127 54.4565 90.5138 54.5124C90.4149 54.5684 90.3032 54.5978 90.1895 54.5978C90.0759 54.5978 89.9642 54.5684 89.8653 54.5124C89.7664 54.4565 89.6836 54.3759 89.6251 54.2785L88.365 52.194C88.2511 52.0058 88.1942 52.0215 88.1942 52.241L88.1892 55.0633C88.1876 55.1474 88.1446 55.1895 88.0605 55.1895L86.6419 55.1969C86.566 55.1969 86.528 55.159 86.528 55.0831L86.5157 49.0325C86.514 48.9335 86.5635 48.884 86.6642 48.884H87.8104C87.9507 48.884 88.0572 48.9434 88.1298 49.0623L90.1895 52.449C90.1931 52.4557 90.1985 52.4613 90.205 52.4652C90.2116 52.4692 90.2191 52.4712 90.2267 52.4712C90.2343 52.4712 90.2418 52.4692 90.2483 52.4652C90.2549 52.4613 90.2602 52.4557 90.2638 52.449L92.2815 49.0152C92.331 48.9294 92.4053 48.8865 92.5043 48.8865L93.6258 48.8815C93.7529 48.8815 93.8164 48.9442 93.8164 49.0697L93.856 55.0138C93.8577 55.1342 93.7991 55.1945 93.6802 55.1945L92.383 55.192C92.3337 55.192 92.2865 55.1724 92.2517 55.1376C92.2169 55.1028 92.1973 55.0556 92.1973 55.0063L92.2146 52.1519C92.2146 51.9472 92.1627 51.9324 92.0587 52.1073Z" fill="#F6F6F6"/>
<path d="M96.6655 52.8154L96.6803 53.6571C96.681 53.6967 96.6972 53.7345 96.7254 53.7623C96.7537 53.7901 96.7917 53.8056 96.8313 53.8056L99.8195 53.8007C99.8587 53.8007 99.8964 53.8159 99.9245 53.8431C99.9527 53.8704 99.9692 53.9076 99.9705 53.9467L100 55.0336C100.001 55.0538 99.9974 55.074 99.9901 55.0929C99.9829 55.1118 99.9718 55.129 99.9578 55.1436C99.9437 55.1581 99.9268 55.1697 99.9081 55.1776C99.8895 55.1855 99.8694 55.1895 99.8492 55.1895L95.0736 55.1945C95.0336 55.1945 94.9952 55.1786 94.9668 55.1502C94.9385 55.1219 94.9226 55.0835 94.9226 55.0435L94.9053 49.0325C94.9053 48.9925 94.9212 48.9541 94.9495 48.9258C94.9778 48.8974 95.0162 48.8815 95.0563 48.8815L99.713 48.884C99.7331 48.884 99.7529 48.888 99.7714 48.8957C99.7899 48.9035 99.8066 48.9148 99.8207 48.9291C99.8347 48.9434 99.8458 48.9603 99.8533 48.9789C99.8607 48.9976 99.8644 49.0175 99.864 49.0375L99.8492 50.1243C99.8485 50.1639 99.8323 50.2017 99.8041 50.2295C99.7758 50.2573 99.7378 50.2729 99.6982 50.2729H96.8264C96.7872 50.2728 96.7495 50.2881 96.7213 50.3153C96.6931 50.3426 96.6767 50.3797 96.6754 50.4189L96.6531 51.169C96.6524 51.1893 96.6558 51.2095 96.6631 51.2284C96.6704 51.2473 96.6814 51.2645 96.6955 51.279C96.7096 51.2936 96.7265 51.3052 96.7452 51.3131C96.7638 51.321 96.7839 51.325 96.8041 51.325H99.312C99.3516 51.325 99.3896 51.3406 99.4179 51.3684C99.4461 51.3962 99.4623 51.4339 99.463 51.4736L99.4704 52.5059C99.4704 52.5455 99.4548 52.5836 99.427 52.6118C99.3993 52.6401 99.3615 52.6563 99.3219 52.6569L96.8165 52.6619C96.7964 52.6619 96.7766 52.6659 96.7581 52.6736C96.7396 52.6813 96.7229 52.6927 96.7088 52.707C96.6948 52.7213 96.6837 52.7382 96.6762 52.7568C96.6688 52.7754 96.6651 52.7953 96.6655 52.8154Z" fill="#F6F6F6"/>
<path d="M74.7529 60.5692C73.2279 61.1534 73.3145 63.6588 74.9807 64.0054C75.6623 64.1457 76.2399 63.9707 76.7136 63.4805C76.8424 63.3469 76.9727 63.3444 77.1048 63.4731L77.8821 64.2282C78.0109 64.352 78.0067 64.4708 77.8697 64.5847C77.0049 65.3092 76.0559 65.6253 75.0227 65.5329C71.2424 65.1937 70.6755 60.126 74.2528 59.1184C75.5831 58.7438 76.7846 59.0078 77.8574 59.9106C78.0076 60.0377 78.01 60.1681 77.8648 60.3018L77.0973 61.0197C77.0427 61.0699 76.9709 61.0971 76.8971 61.0957C76.8233 61.0943 76.7531 61.0644 76.7012 61.0123C76.1318 60.4396 75.4824 60.2919 74.7529 60.5692Z" fill="#F6F6F6"/>
<path d="M85.3736 62.3031C85.3629 63.1776 84.9813 64.0117 84.3127 64.622C83.644 65.2323 82.7432 65.5688 81.8083 65.5573C81.3453 65.5517 80.888 65.4608 80.4623 65.2899C80.0367 65.1189 79.651 64.8713 79.3275 64.5611C79.0039 64.2509 78.7486 63.8843 78.5764 63.482C78.4041 63.0798 78.3182 62.6499 78.3235 62.2169C78.3342 61.3424 78.7158 60.5083 79.3844 59.898C80.0531 59.2877 80.9539 58.9513 81.8888 58.9627C82.3517 58.9683 82.8091 59.0592 83.2348 59.2301C83.6604 59.4011 84.046 59.6487 84.3696 59.9589C84.6932 60.2691 84.9484 60.6357 85.1207 61.038C85.293 61.4402 85.3789 61.8701 85.3736 62.3031ZM81.8201 64.0596C82.0437 64.0631 82.2659 64.0197 82.474 63.9319C82.682 63.8441 82.8719 63.7136 83.0327 63.5478C83.1934 63.382 83.322 63.1843 83.4111 62.9658C83.5001 62.7473 83.5479 62.5123 83.5516 62.2744C83.5553 62.0364 83.515 61.8001 83.4329 61.5789C83.3507 61.3578 83.2284 61.156 83.0729 60.9853C82.9174 60.8145 82.7318 60.6781 82.5266 60.5838C82.3214 60.4895 82.1007 60.4392 81.877 60.4357C81.6534 60.4321 81.4312 60.4755 81.2231 60.5633C81.0151 60.6512 80.8252 60.7817 80.6644 60.9474C80.5036 61.1132 80.3751 61.311 80.286 61.5295C80.197 61.748 80.1492 61.9829 80.1455 62.2209C80.1417 62.4588 80.1821 62.6951 80.2642 62.9163C80.3464 63.1375 80.4687 63.3392 80.6242 63.51C80.7797 63.6807 80.9653 63.8171 81.1705 63.9114C81.3757 64.0057 81.5964 64.0561 81.8201 64.0596Z" fill="#F6F6F6"/>
<path d="M91.6375 62.369L90.37 64.5302C90.3132 64.6266 90.2324 64.7067 90.1355 64.7626C90.0386 64.8185 89.9289 64.8484 89.817 64.8494C89.7051 64.8504 89.5949 64.8225 89.497 64.7683C89.3991 64.7141 89.3169 64.6355 89.2584 64.5401L87.981 62.4457C87.8605 62.2477 87.8002 62.2642 87.8002 62.4952L87.8077 65.2061C87.8077 65.3233 87.7499 65.3819 87.6344 65.3819L86.3223 65.3868C86.2783 65.3868 86.2361 65.3693 86.205 65.3382C86.1739 65.3071 86.1564 65.2649 86.1564 65.2209L86.1465 59.2769C86.1465 59.158 86.2051 59.0994 86.3223 59.1011L87.4858 59.106C87.5947 59.106 87.6773 59.1523 87.7334 59.2447L89.7337 62.5472C89.8113 62.676 89.888 62.676 89.964 62.5472L91.8876 59.2595C91.9148 59.2128 91.9536 59.174 92.0001 59.1471C92.0466 59.1201 92.0991 59.106 92.1524 59.106L93.321 59.0986C93.4068 59.0986 93.4497 59.1407 93.4497 59.2249L93.4695 65.216C93.4712 65.3183 93.4208 65.3703 93.3185 65.372L91.9891 65.3744C91.8686 65.3761 91.8075 65.3167 91.8059 65.1962L91.7984 62.4111C91.7984 62.2015 91.7448 62.1874 91.6375 62.369Z" fill="#F6F6F6"/>
<path d="M70.7719 63.6207L69.2519 63.6127C69.1767 63.6123 69.1154 63.673 69.115 63.7482L69.1071 65.2632C69.1067 65.3384 69.1673 65.3997 69.2425 65.4001L70.7626 65.4081C70.8378 65.4085 70.899 65.3478 70.8994 65.2726L70.9074 63.7575C70.9078 63.6823 70.8471 63.6211 70.7719 63.6207Z" fill="#F6F6F6"/>
</svg>
