<svg width="93" height="93" viewBox="0 0 93 93" fill="none" xmlns="http://www.w3.org/2000/svg">
<g clip-path="url(#clip0_519_1766)">
<path d="M21.3439 42.8821C21.3388 42.3692 21.4859 41.8664 21.7666 41.4371C22.0473 41.0078 22.449 40.6713 22.9209 40.4703C23.3928 40.2693 23.9137 40.2128 24.4177 40.3078C24.9217 40.4029 25.3863 40.6452 25.7526 41.0043C26.1189 41.3633 26.3705 41.8229 26.4756 42.3249C26.5807 42.827 26.5345 43.3489 26.343 43.8247C26.1515 44.3005 25.8232 44.7089 25.3996 44.9981C24.976 45.2873 24.4761 45.4445 23.9632 45.4496H23.9114C23.5776 45.453 23.2464 45.3907 22.9368 45.2661C22.6271 45.1415 22.345 44.9572 22.1066 44.7236C21.8682 44.49 21.6781 44.2117 21.5472 43.9047C21.4164 43.5976 21.3473 43.2678 21.3439 42.934V42.8821ZM25.9083 38.2658C25.9152 38.9376 26.1877 39.5794 26.6664 40.0508C27.145 40.5222 27.7909 40.7849 28.4627 40.7814C29.1345 40.778 29.7776 40.5087 30.2514 40.0325C30.7253 39.5562 30.9913 38.9117 30.9913 38.2399C30.9913 37.5681 30.7253 36.9236 30.2514 36.4474C29.7776 35.9711 29.1345 35.7018 28.4627 35.6984C27.7909 35.695 27.145 35.9577 26.6664 36.4291C26.1877 36.9005 25.9152 37.5422 25.9083 38.214V38.2658Z" fill="#F6F6F6"/>
<path d="M32.1584 35.1279V39.7182C35.7373 39.7182 38.5901 42.6747 38.5901 46.487C38.5901 50.2994 35.7373 53.2559 32.1584 53.2559C28.5795 53.2559 25.7267 50.3253 25.7267 46.487H20.6955C20.6955 52.8668 25.7786 57.8721 32.1584 57.8721C38.5382 57.8721 43.6213 52.8668 43.6213 46.487C43.6213 40.1072 38.5382 35.1279 32.1584 35.1279ZM83.8971 78.412V74.0291H91.9886V69.6722H83.8971V65.3412H92.8444V60.9583H78.9696V82.7949H93V78.412H83.8971ZM64.4724 60.9064H57.2627V82.7949H64.4724C71.2412 82.7949 76.039 78.1527 76.039 71.8766C76.039 65.6005 71.2412 60.9064 64.4724 60.9064ZM64.8614 78.412H62.1902V65.3153H64.8614C68.5181 65.3153 71.0078 68.1421 71.0078 71.8766C71.0078 75.6111 68.5181 78.412 64.8614 78.412ZM38.0973 74.3922C38.0973 76.9078 36.2819 78.7492 33.8441 78.7492C31.4063 78.7492 29.5909 76.9078 29.5909 74.3922V60.9583H24.6893V74.2885C24.6893 79.4494 28.5535 83.2617 33.8441 83.2617C39.1347 83.2617 42.9729 79.4494 42.9729 74.2885V60.9583H38.0973V74.3922ZM64.8873 48.9248V35.5687H60.0117V49.0026C60.0117 51.5183 58.1963 53.3855 55.7585 53.3855C53.3207 53.3855 51.5053 51.5183 51.5053 49.0026V35.5687H46.6297V48.9248C46.6297 54.0598 50.4679 57.8721 55.7585 57.8721C61.0491 57.8721 64.8873 54.0598 64.8873 48.9248ZM8.24707 57.4313H13.1486V49.1323L21.3698 35.5687H15.8458L10.659 44.516L5.54992 35.5687H0L8.24707 49.1842V57.4313ZM40.8982 10.1792H57.4961V14.588H40.8982V10.1792ZM38.7976 27.6329H29.6946V23.2759H37.812V18.8931H29.6946V14.588H38.6419V10.1792H24.7931V32.0417H38.7976V27.6329ZM76.065 51.9073L73.5234 49.2361L76.039 46.513L73.4975 43.8417L75.9872 41.1187L73.4456 38.4474L76.2465 35.5687H71.1634L68.3885 38.4734L70.93 41.1446L68.4403 43.8677L70.9559 46.5389L68.4663 49.262L71.0078 51.9591L68.4922 54.6563L71.1894 57.4572H76.2984L73.5494 54.6304L76.065 51.9073ZM52.2315 71.2282C52.9576 70.5799 54.1765 69.4907 54.1765 67.4678C54.1765 65.4449 52.9576 64.3816 52.2315 63.7333L52.1537 63.6295C51.8651 63.3098 51.7077 62.8931 51.7128 62.4625V60.9064H46.7853V62.9552H46.8112V63.033C46.8112 65.0559 48.0301 66.1451 48.7563 66.7935C49.4824 67.4419 49.275 67.2863 49.275 67.4678C49.275 67.6493 49.275 67.7012 48.7563 68.168C48.2376 68.6348 46.915 69.8278 46.8371 71.6951V72.0322C46.915 73.8995 48.0561 74.9368 48.7563 75.5593C49.4565 76.1817 49.275 76.052 49.275 76.2335C49.275 76.4151 49.275 76.4669 48.7563 76.9338C48.2376 77.4006 46.8112 78.6714 46.8112 80.6942V80.7461H46.7853V82.7949H51.7128V81.2648C51.7134 80.8274 51.8697 80.4045 52.1537 80.0718L52.2315 79.994C52.9576 79.3456 54.1765 78.2564 54.1765 76.2335C54.1765 74.2107 52.9576 73.1474 52.2315 72.4731C51.5053 71.7988 51.7128 72.0063 51.7128 71.8507C51.7128 71.6951 51.7906 71.6432 52.2574 71.2282H52.2315ZM46.7334 27.97H51.635V32.0417H46.7334V27.97ZM46.7334 22.1348H51.635V26.2065H46.7334V22.1348ZM46.7334 16.3256H51.635V20.3972H46.7334V16.3256ZM88.8246 57.4313L82.8597 49.0804C84.2802 48.6631 85.5286 47.7998 86.4206 46.6183C87.3126 45.4367 87.8009 43.9995 87.8132 42.5191C87.8132 38.5512 84.5455 35.5687 80.396 35.5687H77.5432V40.0035H80.2144C80.8675 40.0684 81.4731 40.3737 81.9137 40.8602C82.3542 41.3467 82.5981 41.9795 82.5981 42.6358C82.5981 43.2921 82.3542 43.9249 81.9137 44.4114C81.4731 44.8979 80.8675 45.2032 80.2144 45.2681H77.5432V49.4695L82.8597 57.4313H88.8246ZM20.5399 15.9625C19.295 12.1502 15.1974 9.73828 10.5033 9.73828C4.59035 9.73828 0.155605 13.7321 0.155605 19.5414V22.5498C0.155605 28.2812 4.33101 32.5085 9.51785 32.5085C10.9746 32.5136 12.412 32.1759 13.7141 31.5226C15.0161 30.8694 16.1461 29.9189 17.0128 28.748V32.0417H21.292V19.9823H9.72532V24.0799H16.0273C15.5086 26.3362 13.3561 28.0738 10.6071 28.0738C7.85806 28.0738 4.9275 25.8175 4.9275 22.5498V19.5414C4.9275 16.4552 7.23564 14.173 10.4774 14.173C12.993 14.173 15.2493 15.5475 16.0014 17.5704L20.5399 15.9625ZM20.5399 66.7157C19.295 62.9034 15.1974 60.4915 10.5033 60.4915C4.59035 60.4915 0.155605 64.4854 0.155605 70.2946V73.303C0.155605 79.0344 4.33101 83.2617 9.51785 83.2617C10.9746 83.2668 12.412 82.9291 13.7141 82.2758C15.0161 81.6226 16.1461 80.6721 17.0128 79.5013V82.7949H21.292V70.7355H9.72532V74.8331H16.0273C15.5086 77.0894 13.3561 78.827 10.6071 78.827C7.85806 78.827 4.9275 76.5707 4.9275 73.303V70.2946C4.9275 67.2084 7.23564 64.9262 10.4774 64.9262C12.993 64.9262 15.2493 66.3007 16.0014 68.3236L20.5399 66.7157Z" fill="#F6F6F6"/>
</g>
<defs>
<clipPath id="clip0_519_1766">
<rect width="93" height="93" fill="white"/>
</clipPath>
</defs>
</svg>
