<svg width="180" height="63" viewBox="0 0 180 63" fill="none" xmlns="http://www.w3.org/2000/svg">
<g clip-path="url(#clip0_519_1771)">
<path d="M169.281 16.7432C167.16 16.7432 165.087 17.3723 163.324 18.5508C161.561 19.7293 160.187 21.4043 159.377 23.3639C158.566 25.3235 158.354 27.4795 158.769 29.5592C159.184 31.6389 160.207 33.5488 161.707 35.0473C163.208 36.5457 165.12 37.5653 167.2 37.977C169.28 38.3888 171.436 38.1742 173.394 37.3604C175.353 36.5467 177.026 35.1703 178.201 33.4054C179.377 31.6406 180.003 29.5666 180 27.4459C179.991 24.6072 178.859 21.8874 176.85 19.8817C174.841 17.8759 172.12 16.7475 169.281 16.7432ZM169.281 32.5378C168.274 32.5378 167.29 32.2392 166.452 31.6796C165.615 31.1201 164.962 30.3249 164.577 29.3945C164.191 28.4641 164.091 27.4402 164.287 26.4525C164.484 25.4648 164.968 24.5575 165.681 23.8454C166.393 23.1333 167.3 22.6483 168.288 22.4518C169.275 22.2554 170.299 22.3562 171.23 22.7416C172.16 23.127 172.955 23.7796 173.515 24.617C174.074 25.4543 174.373 26.4388 174.373 27.4459C174.373 28.1138 174.241 28.7752 173.985 29.392C173.729 30.0089 173.354 30.5692 172.881 31.0407C172.408 31.5122 171.846 31.8857 171.228 32.1399C170.611 32.394 169.949 32.5237 169.281 32.5216V32.5378ZM157.719 18.1216V21.1864C157.728 21.3121 157.712 21.4383 157.672 21.5578C157.631 21.6773 157.568 21.7876 157.485 21.8826C157.402 21.9775 157.302 22.0551 157.189 22.111C157.076 22.1668 156.953 22.1998 156.827 22.2081H151.2V36.9162C151.218 37.1717 151.134 37.4241 150.967 37.6184C150.8 37.8127 150.564 37.9333 150.308 37.954H146.546C146.418 37.9628 146.29 37.9463 146.168 37.9054C146.047 37.8644 145.935 37.7999 145.838 37.7156C145.742 37.6312 145.663 37.5286 145.606 37.4137C145.55 37.2987 145.516 37.1738 145.508 37.0459V22.2081H140.043C139.788 22.226 139.535 22.1424 139.341 21.9754C139.147 21.8084 139.026 21.5715 139.005 21.3162V18.0729C138.997 17.9459 139.013 17.8185 139.054 17.698C139.096 17.5775 139.16 17.4664 139.245 17.3713C139.329 17.2762 139.432 17.1988 139.547 17.1439C139.662 17.0889 139.786 17.0575 139.914 17.0513H156.681C156.937 17.0334 157.189 17.117 157.383 17.284C157.578 17.4509 157.698 17.6878 157.719 17.9432V18.0729V18.1216ZM136.914 31.5648C136.914 35.6026 133.865 38.2135 129.178 38.2135C126.38 38.3302 123.621 37.5208 121.33 35.9108C121.095 35.7467 120.933 35.4974 120.878 35.2159C120.824 34.9343 120.881 34.6426 121.038 34.4027L122.659 31.6945C122.745 31.5499 122.865 31.4294 123.01 31.3443C123.155 31.2592 123.319 31.2123 123.487 31.2081C123.714 31.2114 123.935 31.285 124.119 31.4189C125.59 32.559 127.399 33.1754 129.259 33.1702C130.541 33.1702 131.189 32.7324 131.189 31.8567C131.189 30.981 130.573 30.527 127.768 29.6513C124.524 28.6459 121.427 27.3324 121.427 23.3756C121.427 19.4189 124.573 16.8891 129.438 16.8891C131.831 16.8202 134.19 17.4637 136.216 18.7378C136.332 18.8081 136.431 18.9017 136.509 19.0127C136.586 19.1237 136.639 19.2496 136.665 19.3824C136.691 19.5151 136.689 19.6518 136.659 19.7838C136.63 19.9157 136.573 20.04 136.492 20.1486L134.968 22.7108C134.878 22.8695 134.749 23.0022 134.592 23.096C134.436 23.1898 134.258 23.2414 134.076 23.2459C133.863 23.2438 133.655 23.182 133.476 23.0675C132.254 22.3063 130.845 21.8967 129.405 21.8837C127.605 21.8837 127.232 22.5162 127.232 23.0513C127.232 23.5864 127.962 24.0243 130.2 24.754L130.768 24.9324C133.865 25.9378 136.897 27.2999 136.897 31.5648H136.914ZM78.6325 27.4459C78.6381 25.2045 77.943 23.0174 76.6444 21.1904C75.3459 19.3635 73.5088 17.9881 71.3901 17.2565C69.2715 16.525 66.9771 16.4739 64.828 17.1104C62.6789 17.7469 60.7824 19.0392 59.4038 20.8065C58.0252 22.5739 57.2335 24.7279 57.1393 26.9673C57.0451 29.2067 57.6532 31.4196 58.8785 33.2965C60.1038 35.1733 61.885 36.6203 63.9731 37.435C66.0612 38.2498 68.3517 38.3915 70.5244 37.8405H70.6541L72.7135 41.5054C72.7943 41.6551 72.9134 41.7806 73.0588 41.869C73.2042 41.9574 73.3705 42.0054 73.5406 42.0081C73.7533 42.006 73.9613 41.9442 74.1406 41.8297L77.1892 39.8675C77.428 39.7286 77.6027 39.5015 77.6757 39.2351C77.7027 39.1037 77.7022 38.9682 77.6743 38.8371C77.6464 38.7059 77.5916 38.5819 77.5135 38.4729L75.5676 34.954L75.6649 34.8567C77.5815 32.8672 78.6462 30.2084 78.6325 27.4459ZM67.9136 32.5378C66.9051 32.5442 65.9175 32.251 65.0759 31.6955C64.2343 31.1399 63.5766 30.3469 63.1862 29.4171C62.7958 28.4872 62.6903 27.4624 62.8831 26.4725C63.0759 25.4827 63.5583 24.5724 64.2691 23.857C64.9799 23.1416 65.8871 22.6535 66.8758 22.4543C67.8644 22.2552 68.8898 22.3542 69.8221 22.7386C70.7544 23.123 71.5516 23.7756 72.1126 24.6136C72.6735 25.4517 72.973 26.4374 72.973 27.4459C72.973 28.7907 72.441 30.081 71.4931 31.035C70.5452 31.989 69.2584 32.5292 67.9136 32.5378ZM118.184 33.8837V36.9162C118.198 37.1708 118.112 37.4208 117.946 37.6142C117.78 37.8076 117.546 37.9293 117.292 37.954H104.173C104.046 37.9628 103.919 37.9461 103.798 37.905C103.678 37.8639 103.567 37.7992 103.471 37.7146C103.376 37.63 103.299 37.5273 103.244 37.4125C103.189 37.2977 103.158 37.173 103.151 37.0459C103.135 37.0042 103.135 36.9579 103.151 36.9162V18.1216C103.14 17.9954 103.155 17.8683 103.194 17.7479C103.233 17.6275 103.297 17.5163 103.38 17.4209C103.463 17.3255 103.565 17.2479 103.679 17.1927C103.793 17.1376 103.917 17.106 104.043 17.0999H117.016C117.142 17.0911 117.268 17.1072 117.388 17.1473C117.507 17.1874 117.617 17.2507 117.712 17.3336C117.807 17.4165 117.885 17.5173 117.941 17.6303C117.997 17.7432 118.03 17.8661 118.038 17.9918V21.2351C118.047 21.3608 118.031 21.487 117.99 21.6065C117.95 21.7259 117.887 21.8363 117.804 21.9312C117.721 22.0261 117.621 22.1038 117.508 22.1596C117.395 22.2155 117.272 22.2485 117.146 22.2567H108.827V24.9324H115.411C115.537 24.9236 115.663 24.9397 115.782 24.9798C115.902 25.0199 116.012 25.0832 116.107 25.1661C116.202 25.2489 116.28 25.3497 116.335 25.4627C116.391 25.5756 116.424 25.6985 116.432 25.8243C116.449 25.866 116.449 25.9123 116.432 25.954V29.0189C116.444 29.1459 116.429 29.2738 116.39 29.3951C116.351 29.5165 116.288 29.6288 116.205 29.7255C116.122 29.8222 116.02 29.9013 115.906 29.9582C115.792 30.015 115.668 30.0485 115.541 30.0567H108.827V32.8945H117.178C117.434 32.8766 117.686 32.9602 117.881 33.1272C118.075 33.2942 118.196 33.5311 118.216 33.7864L118.184 33.8837ZM100.103 18.1216V28.727C100.103 34.6621 96.5514 38.1972 90.6 38.1972C84.6487 38.1972 81.1622 34.6621 81.1622 28.727V18.1216C81.1511 17.9954 81.1657 17.8683 81.2049 17.7479C81.2442 17.6275 81.3073 17.5163 81.3906 17.4209C81.4739 17.3255 81.5756 17.2479 81.6896 17.1927C81.8036 17.1376 81.9276 17.106 82.0541 17.0999H85.8162C85.942 17.0911 86.0682 17.1072 86.1876 17.1473C86.3071 17.1874 86.4174 17.2507 86.5124 17.3336C86.6073 17.4165 86.6849 17.5173 86.7408 17.6303C86.7966 17.7432 86.8296 17.8661 86.8379 17.9918V29.0675C86.8379 30.0739 87.2377 31.0391 87.9493 31.7507C88.6609 32.4623 89.6261 32.8621 90.6325 32.8621C91.6389 32.8621 92.604 32.4623 93.3157 31.7507C94.0273 31.0391 94.4271 30.0739 94.4271 29.0675V18.1216C94.4183 17.9959 94.4344 17.8697 94.4745 17.7502C94.5146 17.6307 94.5779 17.5204 94.6607 17.4254C94.7436 17.3305 94.8444 17.2529 94.9574 17.197C95.0703 17.1412 95.1932 17.1082 95.319 17.0999H99.0811C99.2073 17.0889 99.3344 17.1034 99.4548 17.1427C99.5752 17.1819 99.6864 17.2451 99.7818 17.3284C99.8772 17.4117 99.9548 17.5134 100.01 17.6274C100.065 17.7414 100.097 17.8653 100.103 17.9918V18.1216ZM42.3244 25.1594V28.2729C42.3267 28.3097 42.3212 28.3466 42.3082 28.3812C42.2952 28.4157 42.275 28.4471 42.2489 28.4731C42.2228 28.4992 42.1915 28.5195 42.1569 28.5325C42.1224 28.5455 42.0855 28.551 42.0487 28.5486H41.0919V26.7486C41.0673 26.5921 40.9876 26.4496 40.8672 26.3467C40.7467 26.2438 40.5936 26.1872 40.4352 26.1872C40.2768 26.1872 40.1236 26.2438 40.0032 26.3467C39.8828 26.4496 39.8031 26.5921 39.7784 26.7486V28.5486H38.5946V26.7486C38.57 26.5921 38.4903 26.4496 38.3699 26.3467C38.2495 26.2438 38.0963 26.1872 37.9379 26.1872C37.7795 26.1872 37.6263 26.2438 37.5059 26.3467C37.3855 26.4496 37.3058 26.5921 37.2811 26.7486V28.5486H36.0973V26.7486C36.0727 26.5921 35.993 26.4496 35.8726 26.3467C35.7522 26.2438 35.599 26.1872 35.4406 26.1872C35.2822 26.1872 35.129 26.2438 35.0086 26.3467C34.8882 26.4496 34.8085 26.5921 34.7838 26.7486V28.5486H33.6V26.7486C33.5754 26.5921 33.4957 26.4496 33.3753 26.3467C33.2549 26.2438 33.1017 26.1872 32.9433 26.1872C32.7849 26.1872 32.6317 26.2438 32.5113 26.3467C32.3909 26.4496 32.3112 26.5921 32.2865 26.7486V28.5486H31.4433C31.4071 28.5486 31.3712 28.5415 31.3378 28.5276C31.3043 28.5138 31.2739 28.4935 31.2483 28.4679C31.2227 28.4423 31.2024 28.4119 31.1886 28.3784C31.1747 28.345 31.1676 28.3091 31.1676 28.2729V25.1594C31.1715 25.0876 31.2018 25.0197 31.2527 24.9688C31.3035 24.9179 31.3714 24.8876 31.4433 24.8837H42.0487C42.1205 24.8876 42.1884 24.9179 42.2393 24.9688C42.2902 25.0197 42.3205 25.0876 42.3244 25.1594ZM10.7676 33.9324C10.7433 33.9048 10.7133 33.8827 10.6798 33.8675C10.6462 33.8524 10.6098 33.8445 10.573 33.8445C10.5362 33.8445 10.4998 33.8524 10.4663 33.8675C10.4327 33.8827 10.4028 33.9048 10.3784 33.9324L7.23247 36.6081C7.21021 36.671 7.21021 36.7397 7.23247 36.8027V38.4243C7.23636 38.4961 7.26665 38.564 7.31753 38.6149C7.36841 38.6658 7.43629 38.6961 7.50814 38.6999H9.45409C9.52192 38.7004 9.58754 38.6759 9.6384 38.631C9.68926 38.5861 9.72179 38.5241 9.72976 38.4567V36.1378C9.72976 36.0647 9.75881 35.9946 9.81051 35.9429C9.86221 35.8912 9.93233 35.8621 10.0054 35.8621H11.3352C11.4083 35.8621 11.4784 35.8912 11.5301 35.9429C11.5818 35.9946 11.6108 36.0647 11.6108 36.1378V38.4567C11.6147 38.5286 11.645 38.5964 11.6959 38.6473C11.7468 38.6982 11.8147 38.7285 11.8865 38.7324H13.719C13.7936 38.7325 13.8655 38.704 13.9198 38.6527C13.9741 38.6014 14.0067 38.5313 14.0108 38.4567V36.8351C14.009 36.7624 13.9801 36.693 13.9298 36.6405L10.7676 33.9324ZM46.6865 29.5864C46.6865 44.3432 31.7838 48.527 23.7244 62.3918C23.5848 62.635 23.3554 62.8136 23.0856 62.8894C22.8157 62.9652 22.5268 62.9321 22.2811 62.7972C19.7272 60.7878 17.3755 58.5338 15.2595 56.0675C16.573 53.6027 19.573 49.9702 26.3838 45.7702C40.0541 37.3378 36.2595 33.2837 26.0433 29.6675C16.1027 26.1648 10.6054 23.0189 18.0973 18.3162C19.6145 17.4503 21.255 16.8214 22.9622 16.4513H31.8C31.8404 16.4515 31.8793 16.4367 31.9093 16.4097C31.9393 16.3827 31.9582 16.3455 31.9622 16.3054V15.2999C31.9582 15.2598 31.9393 15.2226 31.9093 15.1956C31.8793 15.1686 31.8404 15.1538 31.8 15.154H31.6217C31.5813 15.1542 31.5423 15.1394 31.5124 15.1124C31.4824 15.0854 31.4635 15.0482 31.4595 15.0081V10.0459C31.4635 10.0058 31.4824 9.96856 31.5124 9.94157C31.5423 9.91459 31.5813 9.89974 31.6217 9.89995H32.173C32.2131 9.89591 32.2503 9.87706 32.2773 9.84708C32.3043 9.81709 32.3192 9.77813 32.319 9.73778V8.50535V6.12157C32.319 6.08286 32.3036 6.04574 32.2762 6.01837C32.2488 5.991 32.2117 5.97562 32.173 5.97562H31.1027C31.0624 5.97542 31.0234 5.99026 30.9934 6.01725C30.9635 6.04424 30.9446 6.08143 30.9406 6.12157V7.59724C30.9408 7.63759 30.9259 7.67655 30.8989 7.70654C30.872 7.73652 30.8348 7.75537 30.7946 7.75941H30.4379V6.99724C30.4379 6.95854 30.4225 6.92141 30.3951 6.89404C30.3678 6.86667 30.3306 6.8513 30.2919 6.8513H29.1892C29.1419 6.8513 29.0965 6.87009 29.0631 6.90354C29.0296 6.937 29.0108 6.98237 29.0108 7.02968V7.74319H28.5244C28.4857 7.74319 28.4485 7.72781 28.4212 7.70044C28.3938 7.67307 28.3784 7.63595 28.3784 7.59724V6.67292C28.3786 6.63258 28.3638 6.59361 28.3368 6.56363C28.3098 6.53364 28.2726 6.51479 28.2325 6.51076H27.146C27.1254 6.51063 27.105 6.51487 27.0861 6.5232C27.0673 6.53152 27.0504 6.54375 27.0366 6.55907C27.0228 6.57439 27.0124 6.59245 27.0061 6.61208C26.9998 6.6317 26.9977 6.65244 27 6.67292V8.18103C27.0023 8.20151 27.0003 8.22225 26.9939 8.24187C26.9876 8.26149 26.9773 8.27956 26.9635 8.29488C26.9497 8.3102 26.9328 8.32243 26.914 8.33075C26.8951 8.33908 26.8747 8.34332 26.8541 8.34319C26.8335 8.34332 26.8131 8.33908 26.7942 8.33075C26.7754 8.32243 26.7585 8.3102 26.7447 8.29488C26.7309 8.27956 26.7205 8.26149 26.7142 8.24187C26.7079 8.22225 26.7059 8.20151 26.7081 8.18103V4.01346C26.7081 3.97475 26.6928 3.93763 26.6654 3.91026C26.638 3.88289 26.6009 3.86752 26.5622 3.86752H25.4757C25.437 3.86752 25.3999 3.88289 25.3725 3.91026C25.3451 3.93763 25.3298 3.97475 25.3298 4.01346V4.8567C25.3298 4.89541 25.3144 4.93253 25.287 4.9599C25.2596 4.98727 25.2225 5.00265 25.1838 5.00265H23.7406V2.554L25.8 2.01887C25.8361 2.01909 25.871 2.00596 25.8979 1.982C25.9248 1.95805 25.942 1.92497 25.946 1.88914C25.946 1.85043 25.9306 1.81331 25.9032 1.78594C25.8759 1.75857 25.8387 1.74319 25.8 1.74319L23.7406 1.20806V1.11076C23.7406 1.07205 23.7252 1.03493 23.6978 1.00756C23.6705 0.980189 23.6333 0.964812 23.5946 0.964812H23.0595C23.0208 0.964812 22.9837 0.980189 22.9563 1.00756C22.9289 1.03493 22.9135 1.07205 22.9135 1.11076V5.01887H21.519C21.4983 5.01899 21.4779 5.01475 21.4591 5.00643C21.4402 4.9981 21.4234 4.98588 21.4096 4.97056C21.3958 4.95524 21.3854 4.93717 21.3791 4.91755C21.3728 4.89792 21.3707 4.87719 21.373 4.8567V4.02968C21.373 3.99097 21.3576 3.95385 21.3303 3.92648C21.3029 3.89911 21.2658 3.88373 21.2271 3.88373H20.1406C20.1019 3.88373 20.0647 3.89911 20.0374 3.92648C20.01 3.95385 19.9946 3.99097 19.9946 4.02968V8.21346C19.9946 8.25217 19.9793 8.28929 19.9519 8.31666C19.9245 8.34403 19.8874 8.35941 19.8487 8.35941C19.81 8.35941 19.7729 8.34403 19.7455 8.31666C19.7181 8.28929 19.7027 8.25217 19.7027 8.21346V6.68914C19.6987 6.649 19.6799 6.6118 19.6499 6.58482C19.6199 6.55783 19.5809 6.54299 19.5406 6.54319H18.4703C18.4316 6.54319 18.3945 6.55857 18.3671 6.58594C18.3397 6.61331 18.3244 6.65043 18.3244 6.68914V7.61346C18.3203 7.6536 18.3015 7.69079 18.2715 7.71778C18.2415 7.74477 18.2025 7.75961 18.1622 7.75941H17.6919V6.99724C17.6919 6.95854 17.6765 6.92141 17.6492 6.89404C17.6218 6.86667 17.5847 6.8513 17.546 6.8513H16.4595C16.4122 6.8513 16.3668 6.87009 16.3334 6.90354C16.2999 6.937 16.2811 6.98237 16.2811 7.02968V7.74319H15.9406C15.9019 7.74319 15.8647 7.72781 15.8374 7.70044C15.81 7.67307 15.7946 7.63595 15.7946 7.59724V6.12157C15.7948 6.10096 15.7905 6.08056 15.7822 6.0617C15.7739 6.04285 15.7616 6.02597 15.7463 6.01218C15.731 5.9984 15.7129 5.98801 15.6933 5.98171C15.6737 5.97541 15.653 5.97333 15.6325 5.97562H14.5946C14.5473 5.97562 14.502 5.99442 14.4685 6.02787C14.435 6.06132 14.4163 6.10669 14.4163 6.154V8.50535V9.73778C14.4157 9.76001 14.4202 9.78207 14.4295 9.80228C14.4388 9.8225 14.4525 9.84032 14.4697 9.8544C14.4869 9.86848 14.5071 9.87844 14.5288 9.88352C14.5504 9.88861 14.573 9.88868 14.5946 9.88373H15.0811C15.1213 9.88776 15.1584 9.90661 15.1854 9.9366C15.2124 9.96659 15.2273 10.0056 15.2271 10.0459V15.0081C15.2271 15.0468 15.2117 15.0839 15.1843 15.1113C15.1569 15.1386 15.1198 15.154 15.0811 15.154H14.8217C14.783 15.154 14.7458 15.1694 14.7185 15.1967C14.6911 15.2241 14.6757 15.2612 14.6757 15.2999V16.3864C14.6757 16.4251 14.6911 16.4623 14.7185 16.4896C14.7458 16.517 14.783 16.5324 14.8217 16.5324H18.9244C18.0498 16.8443 17.1943 17.207 16.3622 17.6189C15.3081 18.1378 4.55679 23.0027 13.573 27.6081C24.2108 33.0405 30.7946 34.9864 25.6217 37.8567C21.0811 40.4189 11.6271 42.9324 6.48652 45.527C2.75679 40.4189 3.49318e-05 34.8081 3.49318e-05 29.6513C-0.00763916 25.1846 1.24926 20.807 3.62537 17.0247C6.00147 13.2425 9.39971 10.2101 13.4271 8.27833V6.12157C13.4312 5.9732 13.4649 5.82713 13.526 5.69189C13.5872 5.55664 13.6746 5.43492 13.7833 5.3338C13.892 5.23268 14.0197 5.1542 14.1589 5.10291C14.2982 5.05163 14.4463 5.02857 14.5946 5.03508H15.6811C15.9346 5.03637 16.1802 5.12371 16.3776 5.2828C16.575 5.44189 16.7125 5.6633 16.7676 5.91076H17.7081C17.811 5.8048 17.9348 5.72128 18.0715 5.66546C18.2083 5.60965 18.3551 5.58274 18.5027 5.58643H19.0865V3.96481C19.0865 3.67236 19.2027 3.39188 19.4095 3.18508C19.6163 2.97829 19.8968 2.86211 20.1892 2.86211H21.2595C21.5388 2.86353 21.8065 2.97411 22.0054 3.17022V1.09454C22.0054 0.950488 22.0341 0.807869 22.0897 0.674982C22.1453 0.542095 22.2268 0.421594 22.3294 0.32049C22.432 0.219385 22.5537 0.139696 22.6874 0.0860583C22.8211 0.0324207 22.9641 0.00590554 23.1081 0.0080556H23.6271C23.7873 0.00876937 23.9455 0.0438862 24.091 0.11103C24.2364 0.178175 24.3658 0.27578 24.4703 0.397245L26.0919 0.80265C26.3348 0.842596 26.5569 0.963821 26.7219 1.14648C26.8869 1.32913 26.9849 1.56239 27 1.80806V1.97022C26.9827 2.19471 26.895 2.40802 26.7494 2.57979C26.6039 2.75157 26.4078 2.87306 26.1892 2.92697H26.6757C26.9654 2.92694 27.2434 3.04089 27.4498 3.24419C27.6561 3.4475 27.7742 3.72383 27.7784 4.01346V5.63508H28.3622C28.5112 5.63245 28.659 5.66144 28.796 5.72014C28.933 5.77884 29.0559 5.86592 29.1568 5.97562H30.146C30.192 5.72665 30.3247 5.50205 30.5207 5.34173C30.7167 5.1814 30.9631 5.09573 31.2162 5.09995H32.2865C32.5747 5.09995 32.851 5.21442 33.0548 5.41817C33.2585 5.62193 33.373 5.89828 33.373 6.18643V8.26211C37.3841 10.2081 40.7627 13.2492 43.1186 17.0341C45.4744 20.819 46.7114 25.1932 46.6865 29.6513V29.5864ZM15.3892 36.2351C15.4145 36.1727 15.4145 36.1029 15.3892 36.0405L10.8487 32.0351C10.7952 31.9872 10.7259 31.9608 10.6541 31.9608C10.5823 31.9608 10.513 31.9872 10.4595 32.0351L5.83787 36.0405C5.78613 36.092 5.75697 36.162 5.75679 36.2351V40.1108H15.3892V36.2351ZM3.84328 35.1324C3.79541 35.1859 3.76895 35.2552 3.76895 35.327C3.76895 35.3988 3.79541 35.4681 3.84328 35.5216L4.44328 36.1054C4.46763 36.133 4.49757 36.1551 4.53112 36.1702C4.56467 36.1854 4.60106 36.1932 4.63787 36.1932C4.67468 36.1932 4.71107 36.1854 4.74462 36.1702C4.77817 36.1551 4.80812 36.133 4.83247 36.1054H4.8649L10.3784 31.1108C10.4028 31.0832 10.4327 31.061 10.4663 31.0459C10.4998 31.0307 10.5362 31.0229 10.573 31.0229C10.6098 31.0229 10.6462 31.0307 10.6798 31.0459C10.7133 31.061 10.7433 31.0832 10.7676 31.1108L16.3135 36.0891C16.3379 36.1167 16.3678 36.1389 16.4014 36.154C16.4349 36.1691 16.4713 36.177 16.5081 36.177C16.545 36.177 16.5813 36.1691 16.6149 36.154C16.6484 36.1389 16.6784 36.1167 16.7027 36.0891L17.2865 35.5054C17.3141 35.481 17.3362 35.4511 17.3514 35.4175C17.3665 35.384 17.3744 35.3476 17.3744 35.3108C17.3744 35.2739 17.3665 35.2376 17.3514 35.204C17.3362 35.1705 17.3141 35.1405 17.2865 35.1162L10.8 29.1486C10.7757 29.121 10.7457 29.0989 10.7122 29.0837C10.6786 29.0686 10.6423 29.0608 10.6054 29.0608C10.5686 29.0608 10.5322 29.0686 10.4987 29.0837C10.4651 29.0989 10.4352 29.121 10.4108 29.1486L3.84328 35.1324ZM32.4325 21.154H41.173C41.2005 21.1543 41.2272 21.1446 41.248 21.1267C41.2689 21.1088 41.2826 21.0839 41.2865 21.0567C41.0711 20.0291 40.5087 19.107 39.6937 18.4452C38.8787 17.7833 37.8607 17.422 36.8108 17.422C35.761 17.422 34.743 17.7833 33.928 18.4452C33.113 19.107 32.5506 20.0291 32.3352 21.0567V21.1864L32.4325 21.154ZM44.4325 29.6675V28.8243C44.4286 28.7524 44.3983 28.6845 44.3474 28.6337C44.2965 28.5828 44.2286 28.5525 44.1568 28.5486H43.9784C43.9422 28.5486 43.9064 28.5415 43.8729 28.5276C43.8395 28.5138 43.8091 28.4935 43.7835 28.4679C43.7579 28.4423 43.7376 28.4119 43.7237 28.3784C43.7099 28.345 43.7027 28.3091 43.7027 28.2729V23.781C43.7051 23.7442 43.6996 23.7073 43.6866 23.6728C43.6736 23.6382 43.6534 23.6069 43.6273 23.5808C43.6012 23.5547 43.5698 23.5345 43.5353 23.5215C43.5008 23.5085 43.4639 23.503 43.4271 23.5054H41.4811C41.4093 23.5015 41.3414 23.4712 41.2905 23.4203C41.2396 23.3694 41.2093 23.3015 41.2054 23.2297V21.9162C41.2054 21.8431 41.1764 21.7729 41.1247 21.7212C41.073 21.6695 41.0029 21.6405 40.9298 21.6405H40.1027C40.0665 21.6405 40.0307 21.6476 39.9972 21.6615C39.9638 21.6753 39.9334 21.6956 39.9078 21.7212C39.8822 21.7468 39.8619 21.7772 39.848 21.8107C39.8342 21.8441 39.8271 21.88 39.8271 21.9162V23.2297C39.8232 23.3015 39.7929 23.3694 39.742 23.4203C39.6911 23.4712 39.6232 23.5015 39.5514 23.5054H38.919C38.8471 23.5015 38.7792 23.4712 38.7283 23.4203C38.6775 23.3694 38.6472 23.3015 38.6433 23.2297V21.8999C38.6434 21.8296 38.6166 21.7618 38.5683 21.7105C38.5201 21.6593 38.4541 21.6284 38.3838 21.6243H37.5406C37.4687 21.6282 37.4008 21.6585 37.35 21.7093C37.2991 21.7602 37.2688 21.8281 37.2649 21.8999V23.2297C37.2649 23.3028 37.2359 23.3729 37.1842 23.4246C37.1325 23.4763 37.0623 23.5054 36.9892 23.5054H36.4054C36.3692 23.5054 36.3334 23.4982 36.2999 23.4844C36.2665 23.4705 36.2361 23.4502 36.2105 23.4246C36.1849 23.399 36.1646 23.3686 36.1507 23.3352C36.1369 23.3017 36.1298 23.2659 36.1298 23.2297V21.8999C36.1259 21.8281 36.0956 21.7602 36.0447 21.7093C35.9938 21.6585 35.9259 21.6282 35.8541 21.6243H35.0271C34.9539 21.6243 34.8838 21.6533 34.8321 21.705C34.7804 21.7567 34.7514 21.8268 34.7514 21.8999V23.2297C34.7475 23.3015 34.7172 23.3694 34.6663 23.4203C34.6154 23.4712 34.5476 23.5015 34.4757 23.5054H33.8595C33.7876 23.5015 33.7198 23.4712 33.6689 23.4203C33.618 23.3694 33.5877 23.3015 33.5838 23.2297V21.8999C33.5838 21.8268 33.5548 21.7567 33.5031 21.705C33.4514 21.6533 33.3813 21.6243 33.3081 21.6243H32.4325C32.3606 21.6282 32.2927 21.6585 32.2419 21.7093C32.191 21.7602 32.1607 21.8281 32.1568 21.8999V23.2297C32.1529 23.3015 32.1226 23.3694 32.0717 23.4203C32.0208 23.4712 31.953 23.5015 31.8811 23.5054H30.0649C30.0287 23.5054 29.9928 23.5125 29.9594 23.5263C29.926 23.5402 29.8956 23.5605 29.87 23.5861C29.8444 23.6117 29.8241 23.6421 29.8102 23.6755C29.7964 23.709 29.7892 23.7448 29.7892 23.781V28.2729C29.7916 28.3097 29.7861 28.3466 29.7731 28.3812C29.7601 28.4157 29.7399 28.4471 29.7138 28.4731C29.6877 28.4992 29.6563 28.5195 29.6218 28.5325C29.5873 28.5455 29.5504 28.551 29.5135 28.5486H29.4162C29.3431 28.5486 29.273 28.5776 29.2213 28.6293C29.1696 28.681 29.1406 28.7512 29.1406 28.8243V29.6513C29.1382 29.6881 29.1437 29.725 29.1567 29.7596C29.1697 29.7941 29.1899 29.8254 29.216 29.8515C29.2421 29.8776 29.2735 29.8978 29.308 29.9108C29.3425 29.9239 29.3794 29.9294 29.4162 29.927H44.1568C44.2272 29.9271 44.2949 29.9003 44.3462 29.852C44.3975 29.8038 44.4283 29.7378 44.4325 29.6675ZM18.2919 9.02427V9.28373C18.296 9.32387 18.3148 9.36106 18.3448 9.38805C18.3748 9.41504 18.4137 9.42988 18.4541 9.42968H21.2108C21.2496 9.42968 21.2867 9.4143 21.314 9.38693C21.3414 9.35956 21.3568 9.32244 21.3568 9.28373V6.52697C21.3567 6.50636 21.3609 6.48596 21.3692 6.46711C21.3776 6.44825 21.3898 6.43138 21.4051 6.41759C21.4204 6.4038 21.4385 6.39342 21.4581 6.38711C21.4777 6.38081 21.4985 6.37874 21.519 6.38103H25.1676C25.2063 6.38103 25.2434 6.3964 25.2708 6.42378C25.2982 6.45115 25.3135 6.48827 25.3135 6.52697V9.28373C25.3135 9.32244 25.3289 9.35956 25.3563 9.38693C25.3837 9.4143 25.4208 9.42968 25.4595 9.42968H28.2325C28.2712 9.42968 28.3083 9.4143 28.3357 9.38693C28.363 9.35956 28.3784 9.32244 28.3784 9.28373V9.02427C28.3784 8.98556 28.3938 8.94844 28.4212 8.92107C28.4485 8.8937 28.4857 8.87833 28.5244 8.87833H30.3568C30.3751 8.87601 30.3938 8.87765 30.4114 8.88313C30.4291 8.8886 30.4454 8.89779 30.4592 8.91008C30.473 8.92236 30.4841 8.93746 30.4916 8.95436C30.4991 8.97126 30.5029 8.98956 30.5027 9.00806C30.5113 9.02574 30.5158 9.04515 30.5158 9.06481C30.5158 9.08448 30.5113 9.10388 30.5027 9.12157C30.2608 9.42064 30.124 9.79106 30.1135 10.1756V15.0405C30.1135 15.0792 30.0982 15.1163 30.0708 15.1437C30.0434 15.1711 30.0063 15.1864 29.9676 15.1864H25.1027V13.4351C25.1102 13.2115 25.0735 12.9886 24.9948 12.7792C24.9162 12.5697 24.797 12.3778 24.6442 12.2145C24.4913 12.0511 24.3078 11.9194 24.1041 11.827C23.9003 11.7345 23.6804 11.6831 23.4568 11.6756C23.0052 11.6606 22.5661 11.8255 22.2362 12.1342C22.0728 12.287 21.9411 12.4706 21.8487 12.6743C21.7562 12.878 21.7048 13.098 21.6973 13.3216V15.154H16.8325C16.7938 15.154 16.7566 15.1386 16.7293 15.1113C16.7019 15.0839 16.6865 15.0468 16.6865 15.0081V10.1432C16.6567 9.75745 16.4899 9.39511 16.2163 9.12157C16.202 9.10794 16.1907 9.09158 16.183 9.07347C16.1752 9.05535 16.1712 9.03586 16.1712 9.01616C16.1712 8.99647 16.1752 8.97697 16.183 8.95886C16.1907 8.94074 16.202 8.92438 16.2163 8.91076C16.2315 8.90355 16.2481 8.89981 16.2649 8.89981C16.2817 8.89981 16.2983 8.90355 16.3135 8.91076H18.1298C18.1685 8.91076 18.2056 8.92613 18.233 8.9535C18.2603 8.98087 18.2757 9.018 18.2757 9.0567L18.2919 9.02427ZM26.6433 13.8891H28.1027V12.6081C28.1027 12.5122 28.0839 12.4173 28.0472 12.3288C28.0105 12.2403 27.9568 12.1598 27.889 12.0921C27.8212 12.0243 27.7408 11.9705 27.6523 11.9339C27.5637 11.8972 27.4688 11.8783 27.373 11.8783C27.2772 11.8783 27.1823 11.8972 27.0938 11.9339C27.0052 11.9705 26.9248 12.0243 26.857 12.0921C26.7892 12.1598 26.7355 12.2403 26.6988 12.3288C26.6622 12.4173 26.6433 12.5122 26.6433 12.6081V13.8891ZM22.573 9.23508H24.0487V7.98643C24.0487 7.79137 23.9724 7.60406 23.836 7.46462C23.6996 7.32519 23.514 7.24473 23.319 7.24049C23.1224 7.24463 22.9351 7.32455 22.7961 7.46355C22.6571 7.60256 22.5771 7.78989 22.573 7.98643V9.23508ZM18.1298 12.6081V13.8081H19.6054V12.6081C19.6212 12.502 19.6139 12.3938 19.5841 12.2908C19.5542 12.1878 19.5025 12.0924 19.4325 12.0112C19.3625 11.93 19.2758 11.8649 19.1783 11.8202C19.0808 11.7755 18.9748 11.7524 18.8676 11.7524C18.7604 11.7524 18.6544 11.7755 18.5569 11.8202C18.4594 11.8649 18.3727 11.93 18.3027 12.0112C18.2327 12.0924 18.181 12.1878 18.1511 12.2908C18.1213 12.3938 18.114 12.502 18.1298 12.6081Z" fill="#F6F6F6"/>
</g>
<defs>
<clipPath id="clip0_519_1771">
<rect width="180" height="62.9838" fill="white" transform="translate(0 0.00805664)"/>
</clipPath>
</defs>
</svg>
