<svg width="260" height="54" viewBox="0 0 260 54" fill="none" xmlns="http://www.w3.org/2000/svg">
<path d="M25.8353 0H27.9152C29.8478 0.257681 35.3695 0.165652 34.5505 3.46949C33.9921 5.75181 33.4338 7.96665 32.8755 10.114C32.7426 10.623 32.4192 11.0615 31.9722 11.339C31.5252 11.6164 30.9887 11.7116 30.4736 11.6049C25.0684 10.4821 20.4148 11.568 16.5128 14.8627C16.3102 15.0312 16.0707 15.1497 15.8134 15.2089C15.5561 15.268 15.2881 15.2661 15.0311 15.2032C13.9513 14.9332 13.3776 14.2492 13.3102 13.1509C13.2934 12.8915 13.338 12.632 13.4403 12.3937C13.5427 12.1553 13.6999 11.9449 13.8991 11.7797C18.3288 8.12923 23.3781 6.61075 29.0471 7.22428C29.1425 7.23491 29.2384 7.21207 29.3176 7.15981C29.3968 7.10756 29.4542 7.0293 29.4797 6.93899L30.1883 4.65667C30.1991 4.62298 30.2024 4.58733 30.1978 4.55209C30.1932 4.51686 30.1809 4.48286 30.1618 4.45236C30.1426 4.42187 30.117 4.39559 30.0866 4.37527C30.0563 4.35496 30.0219 4.34108 29.9858 4.33457C25.9918 3.6965 22.3167 4.05541 18.9607 5.41131C9.07682 9.40537 4.06431 16.9548 3.9232 28.0596C3.91724 28.3841 3.81807 28.6976 3.63791 28.9615C3.12868 29.7162 2.5581 30.0475 1.92617 29.9554C0.656168 29.7653 0.0150321 29.029 0.00276159 27.7468C-0.199702 12.5988 10.7518 0.85587 25.8353 0Z" fill="#F6F6F6"/>
<path d="M42.5849 15.4057C42.7996 16.0008 43.1401 16.0898 43.6064 15.6726C43.9807 15.3351 44.4132 15.0866 44.904 14.9271C45.536 14.7247 45.6587 14.3504 45.2721 13.8044C43.7445 11.657 41.7106 9.64772 39.1706 7.77646C38.0785 6.97888 37.9374 6.03711 38.7473 4.95117C39.0295 4.57692 39.413 4.3131 39.8976 4.15972C40.1263 4.08515 40.3691 4.06462 40.6071 4.09975C40.845 4.13488 41.0715 4.22471 41.2689 4.36218C59.371 17.053 56.5641 43.1156 36.2073 51.6375C35.0109 52.1406 34.0599 51.8461 33.3544 50.754C33.2439 50.5884 33.1795 50.4104 33.1611 50.2202C33.0446 49.1343 33.4924 48.3858 34.5047 47.9747C46.625 43.0604 51.9166 30.9862 47.8213 18.4794C47.717 18.1543 47.5115 18.0745 47.2048 18.2402L43.2567 20.3292C42.7883 20.5769 42.2421 20.6338 41.7327 20.488C41.2232 20.3422 40.7899 20.005 40.5234 19.547C39.1369 17.1849 37.3761 15.2032 35.241 13.6019C34.2103 12.8227 34.1121 11.9423 34.9465 10.9607L35.3054 10.5281C35.4459 10.3627 35.6177 10.2266 35.8109 10.1278C36.0041 10.0289 36.2149 9.96925 36.4313 9.95215C36.6477 9.93504 36.8653 9.96086 37.0716 10.0281C37.278 10.0954 37.469 10.2028 37.6337 10.3441C40.6462 12.9147 42.2965 14.6019 42.5849 15.4057Z" fill="#F6F6F6"/>
<path d="M14.6079 21.8385L12.9789 20.7433C12.8962 20.689 12.8019 20.6548 12.7035 20.6434C12.6052 20.632 12.5055 20.6438 12.4125 20.6777C12.3195 20.7117 12.2358 20.767 12.1679 20.8391C12.1001 20.9112 12.0501 20.9982 12.0218 21.093C9.80087 28.6456 11.6138 34.6919 17.4608 39.232C22.099 42.8395 29.3509 43.1708 34.4125 40.1707C39.6704 37.0662 42.2963 32.1335 42.2902 25.3724C42.2902 24.9217 42.4493 24.4858 42.7391 24.142C43.0289 23.7983 43.4307 23.569 43.8731 23.495C44.5848 23.3723 45.2903 23.8294 45.9898 24.8662C46.235 25.2246 46.3577 25.6508 46.3395 26.081C46.0143 34.5354 42.3209 40.5725 35.2592 44.1923C23.9488 49.9902 9.60148 42.9591 7.35597 30.2775C6.49089 25.4 7.24246 20.9581 9.61068 16.9517C10.4205 15.5836 11.5034 15.3075 12.8593 16.1235C14.0986 16.8658 15.3287 17.6266 16.5497 18.4058C16.8442 18.596 17.111 18.5622 17.3503 18.3046C23.9304 11.2735 34.4309 13.4914 38.3974 22.0133C38.8207 22.9152 38.698 23.7496 38.0292 24.5165C37.8397 24.7351 37.6011 24.9057 37.3329 25.0143C37.0647 25.1228 36.7747 25.1663 36.4864 25.1412C36.1982 25.1161 35.9201 25.023 35.6747 24.8696C35.4294 24.7162 35.2239 24.5069 35.0751 24.2588C34.2745 22.9152 33.8511 21.6268 32.6179 20.5409C25.7894 14.513 15.795 20.9734 18.7492 29.6517C21.0499 36.4159 30.17 37.1153 33.9616 31.2346C34.3788 30.5904 34.7407 29.9217 35.0475 29.2284C35.2307 28.8152 35.5692 28.4904 35.9905 28.3236C36.4119 28.1568 36.8827 28.1611 37.3022 28.3357C38.9495 29.0167 38.9311 30.48 38.2501 31.8236C31.624 44.8733 13.1354 39.4988 14.1937 24.8662C14.2305 24.4184 14.3348 23.9889 14.5066 23.5778L14.8747 22.7312C15.0281 22.363 14.9392 22.0655 14.6079 21.8385Z" fill="#F6F6F6"/>
<path d="M236.391 14.4056L234.624 14.418C234.182 14.4211 233.826 14.782 233.829 15.2242L233.85 18.1322C233.853 18.5744 234.214 18.9304 234.656 18.9273L236.423 18.9149C236.865 18.9119 237.221 18.5509 237.218 18.1087L237.198 15.2007C237.194 14.7585 236.833 14.4025 236.391 14.4056Z" fill="#F6F6F6"/>
<path d="M166.876 14.6502L165.974 14.6518C165.557 14.6525 165.22 14.991 165.221 15.4078L165.225 17.7085C165.225 18.1253 165.564 18.4625 165.981 18.4618L166.882 18.4602C167.299 18.4595 167.636 18.121 167.636 17.7043L167.632 15.4036C167.631 14.9868 167.293 14.6495 166.876 14.6502Z" fill="#F6F6F6"/>
<path d="M242.757 14.4117H241.119C240.652 14.4117 240.272 14.7908 240.272 15.2584V36.83C240.272 37.2976 240.652 37.6767 241.119 37.6767H242.757C243.225 37.6767 243.604 37.2976 243.604 36.83V15.2584C243.604 14.7908 243.225 14.4117 242.757 14.4117Z" fill="#F6F6F6"/>
<path d="M197.433 23.4398L196.025 23.4582C195.934 23.4594 195.845 23.4429 195.761 23.4097C195.678 23.3765 195.601 23.3272 195.537 23.2647C195.473 23.2022 195.422 23.1277 195.387 23.0456C195.352 22.9635 195.334 22.8754 195.334 22.7864V21.3875C195.341 20.7863 195.647 20.4887 196.255 20.4949L197.626 20.5225C197.97 20.5286 198.138 20.3599 198.132 20.0163L198.086 16.7033C198.08 16.0223 198.417 15.6879 199.098 15.7002L200.562 15.7186C201.224 15.7308 201.556 16.0713 201.556 16.7401L201.528 19.9519C201.528 20.0349 201.545 20.117 201.577 20.1932C201.609 20.2694 201.657 20.338 201.716 20.395C201.776 20.4519 201.846 20.4958 201.923 20.5241C202 20.5523 202.081 20.5643 202.163 20.5593L203.7 20.4581C204.363 20.4151 204.688 20.7249 204.675 21.3875L204.648 22.7496C204.647 22.8491 204.626 22.9473 204.586 23.0385C204.546 23.1297 204.489 23.2121 204.417 23.2807C204.344 23.3493 204.259 23.4028 204.166 23.438C204.073 23.4733 203.974 23.4895 203.875 23.4858L202.034 23.4122C201.703 23.3999 201.537 23.5594 201.537 23.8907V34.106C201.537 34.6029 201.786 34.833 202.283 34.7962L203.7 34.6949C204.289 34.652 204.596 34.925 204.62 35.514L204.675 36.692C204.706 37.4037 204.363 37.7718 203.645 37.7963C199.853 37.9068 197.957 37.2626 198.059 33.0108C198.132 29.8082 198.144 26.8295 198.095 24.0748C198.083 23.6453 197.862 23.4337 197.433 23.4398Z" fill="#F6F6F6"/>
<path d="M143.145 24.4613V34.7778C143.145 35.0968 143.304 35.2931 143.623 35.3667C144.206 35.4956 144.817 35.5048 145.455 35.3943C145.576 35.3732 145.7 35.3783 145.819 35.4094C145.938 35.4404 146.048 35.4967 146.144 35.5745C146.239 35.6522 146.316 35.7494 146.37 35.8597C146.424 35.97 146.454 36.0906 146.458 36.2134L146.495 37.465C146.513 38.0663 146.225 38.3853 145.63 38.4221C140.384 38.7718 139.712 37.419 139.74 32.6151C139.752 29.8726 139.776 27.1854 139.813 24.5533C139.816 24.3905 139.758 24.2323 139.649 24.1097C139.54 23.9872 139.388 23.9091 139.224 23.8907C138.918 23.86 138.617 23.8785 138.322 23.9459C137.562 24.1177 137.095 23.8263 136.924 23.0717C136.807 22.5747 136.81 22.0839 136.933 21.5992C136.98 21.3973 137.092 21.2164 137.252 21.0836C137.411 20.9508 137.609 20.8734 137.816 20.863L139.381 20.7985C139.445 20.795 139.508 20.7789 139.565 20.7511C139.623 20.7232 139.675 20.6843 139.718 20.6364C139.761 20.5885 139.793 20.5327 139.815 20.472C139.836 20.4114 139.845 20.3473 139.841 20.2832L139.712 17.4855C139.669 16.4855 140.148 15.9854 141.148 15.9854H141.737C142.749 15.9854 143.234 16.4916 143.191 17.5039L143.09 20.2372C143.071 20.6237 143.255 20.8262 143.642 20.8446L145.703 20.9274C145.899 20.9369 146.084 21.0225 146.22 21.1664C146.355 21.3104 146.431 21.5016 146.43 21.7004L146.439 23.2005C146.439 23.7159 146.182 23.9674 145.666 23.9551L143.715 23.8999C143.335 23.8877 143.145 24.0748 143.145 24.4613Z" fill="#F6F6F6"/>
<path d="M186.683 33.563L190.908 21.636C190.997 21.3853 191.16 21.1684 191.374 21.0152C191.588 20.8619 191.843 20.7798 192.104 20.7801L193.033 20.7709C193.635 20.7709 193.828 21.0532 193.613 21.6176C191.177 28.078 188.754 34.4741 186.343 40.8057C185.361 43.3763 183.502 44.3365 180.766 43.6862C180.33 43.5819 180.122 43.3027 180.14 42.8487L180.168 42.1493C180.186 41.6155 180.456 41.3977 180.978 41.4959C183.646 41.9744 184.337 39.8946 184.916 37.8791C185.002 37.5724 184.984 37.2687 184.861 36.9681L178.925 22.0686C178.594 21.2464 178.333 21.2679 178.143 22.133L178.033 22.6759C177.993 22.85 177.894 23.0042 177.752 23.1106C177.61 23.2169 177.435 23.2685 177.26 23.2557L175.355 23.0993C174.962 23.0686 174.766 23.2496 174.766 23.6422L174.793 34.5201C174.793 34.7329 174.854 34.9416 174.968 35.1223C175.082 35.303 175.244 35.4483 175.437 35.5416C175.965 35.7993 176.536 35.8422 177.149 35.6704C177.793 35.4802 178.149 35.7195 178.217 36.3883L178.263 36.8024C178.324 37.4466 178.036 37.8209 177.398 37.9252C176.109 38.1399 174.882 38.0417 173.717 37.6307C173.487 37.5497 173.277 37.422 173.1 37.2556C172.922 37.0893 172.781 36.888 172.686 36.6644C172.33 35.8361 172.152 34.9311 172.152 33.9495C172.146 30.434 172.161 26.986 172.198 23.6054C172.198 23.5208 172.181 23.437 172.148 23.3595C172.114 23.2819 172.065 23.2123 172.003 23.1552C171.942 23.098 171.869 23.0545 171.79 23.0274C171.711 23.0003 171.628 22.9903 171.545 22.998L170.155 23.0993C169.775 23.13 169.517 22.9674 169.382 22.6115L169.106 21.8845C169.071 21.7925 169.059 21.6938 169.069 21.5961C169.079 21.4983 169.112 21.4043 169.164 21.3214C169.217 21.2384 169.288 21.1688 169.372 21.118C169.456 21.0672 169.551 21.0366 169.649 21.0286L171.434 20.8998C171.669 20.8857 171.889 20.7826 172.05 20.6115C172.21 20.4404 172.3 20.2143 172.299 19.9795L172.281 16.8045C172.281 16.1726 172.597 15.8627 173.229 15.875L173.937 15.8934C174.533 15.8995 174.824 16.2032 174.812 16.8045L174.72 20.0991C174.714 20.2859 174.781 20.4675 174.906 20.6063C175.031 20.7451 175.205 20.8304 175.391 20.8446L178.189 21.0746C178.484 21.093 178.772 21.0532 179.054 20.955C179.655 20.7403 180.281 20.7403 180.932 20.955C181.183 21.0409 181.355 21.2065 181.447 21.452L186.131 33.5722C186.321 34.063 186.505 34.0599 186.683 33.563Z" fill="#F6F6F6"/>
<path d="M231.152 34.5201L231.695 34.5753C232.087 34.6182 232.29 34.836 232.302 35.2287L232.348 36.7564C232.36 37.1184 232.195 37.3546 231.851 37.465C230.189 37.9988 228.842 37.6245 227.811 36.3423C227.778 36.3042 227.739 36.2727 227.694 36.2497C227.65 36.2267 227.602 36.2127 227.553 36.2084C227.504 36.2041 227.455 36.2097 227.41 36.2247C227.364 36.2398 227.322 36.2641 227.287 36.2962C224.001 39.232 217.035 38.827 216.39 33.4065C215.7 27.6179 222.179 27.2958 226.053 26.9553C226.385 26.9246 226.661 26.7866 226.882 26.5412C227.636 25.7129 227.59 24.857 226.744 23.9736C224.958 22.1238 220.614 22.7496 220.32 25.8693C220.271 26.3724 219.992 26.6363 219.483 26.6608L218.157 26.7252C217.237 26.7682 216.857 26.3387 217.016 25.4368C217.599 22.1422 219.617 20.3476 223.072 20.0531C228.219 19.6114 230.725 21.7802 230.59 26.5596C230.517 29.0873 230.505 31.523 230.554 33.8667C230.56 34.2593 230.759 34.4771 231.152 34.5201ZM222.685 35.0538C225.673 34.8514 227.244 33.247 227.397 30.2407C227.401 30.1676 227.39 30.0943 227.363 30.026C227.337 29.9576 227.296 29.8957 227.244 29.8443C227.192 29.7929 227.129 29.7532 227.06 29.728C226.991 29.7027 226.918 29.6924 226.845 29.6978C224.569 29.8511 222.565 30.2469 220.835 30.8849C220.59 30.9766 220.367 31.1193 220.181 31.3036C219.995 31.4879 219.85 31.7097 219.756 31.9541C219.662 32.1986 219.621 32.4602 219.636 32.7217C219.651 32.9832 219.721 33.2386 219.841 33.4709C220.437 34.6182 221.384 35.1459 222.685 35.0538Z" fill="#F6F6F6"/>
<path d="M249.641 25.0595C249.911 26.0227 250.653 26.624 251.868 26.8633C253.647 27.213 255.252 27.6271 256.681 28.1057C261.679 29.7806 260.703 36.3515 255.954 37.6399C251.445 38.8547 245.969 37.4926 245.859 32.0077C245.846 31.3574 246.166 31.0414 246.816 31.0598L248.178 31.0874C248.404 31.0922 248.621 31.1783 248.789 31.3301C248.958 31.482 249.068 31.6896 249.098 31.9157C249.567 35.2747 253.773 35.9834 256.01 34.0783C256.258 33.8668 256.443 33.5905 256.544 33.2801C256.645 32.9697 256.659 32.6374 256.582 32.32C256.506 32.0026 256.343 31.7125 256.112 31.482C255.881 31.2514 255.591 31.0893 255.273 31.0138C252.494 30.3696 247.294 29.7806 246.494 26.4491C245.325 21.5992 250.285 19.4917 254.206 20.0715C257.132 20.5071 258.899 22.2557 259.507 25.3172C259.654 26.0964 259.332 26.4829 258.54 26.4768H257.188C256.488 26.4706 256.099 26.1178 256.019 25.4184C255.706 22.5195 251.804 22.6299 250.046 23.9091C249.868 24.0357 249.734 24.2142 249.661 24.4201C249.589 24.6261 249.582 24.8494 249.641 25.0595Z" fill="#F6F6F6"/>
<path d="M210.667 21.8385C211.636 20.8937 212.998 20.3446 214.753 20.1912C214.916 20.1773 215.081 20.1964 215.236 20.2473C215.392 20.2982 215.536 20.3798 215.658 20.4873C215.781 20.5948 215.881 20.7259 215.952 20.8727C216.022 21.0195 216.062 21.179 216.069 21.3415L216.096 22.0594C216.139 23.0349 215.673 23.5594 214.698 23.6331C211.654 23.8662 210.13 25.6822 210.124 29.0812C210.118 31.6519 210.118 34.1919 210.124 36.7012C210.13 37.4067 209.78 37.7442 209.075 37.7135L207.805 37.6583C207.111 37.6215 206.765 37.2564 206.765 36.5631L206.774 21.1943C206.78 20.9182 206.915 20.7403 207.179 20.6605C207.829 20.4765 208.504 20.4243 209.203 20.5041C209.621 20.5531 209.863 20.7832 209.93 21.1943L209.995 21.6084C210.075 22.1176 210.299 22.1943 210.667 21.8385Z" fill="#F6F6F6"/>
<path d="M65.6379 24.0932C65.3901 24.245 65.1898 24.4631 65.0597 24.7229C64.9295 24.9827 64.8748 25.2737 64.9016 25.563C64.9284 25.8524 65.0358 26.1284 65.2114 26.3598C65.3871 26.5913 65.6241 26.7688 65.8956 26.8725C69.2546 28.1425 73.9389 27.8756 75.2549 31.9157C77.8225 39.7934 61.2665 42.2505 60.9812 32.4494C60.9787 32.3573 60.9948 32.2655 61.0284 32.1796C61.0619 32.0938 61.1124 32.0155 61.1767 31.9494C61.2411 31.8834 61.318 31.8309 61.403 31.7951C61.4879 31.7592 61.5792 31.7408 61.6714 31.7408L63.6961 31.7316C64.0764 31.7316 64.2912 31.9187 64.3403 32.293C64.6838 34.9434 66.371 36.0631 69.4019 35.652C70.5798 35.4956 72.448 34.5753 72.0063 33.0936C70.9295 29.5137 61.4966 32.2102 61.515 25.7773C61.5242 21.3967 65.9324 19.9979 69.5859 20.5041C72.8499 20.9519 74.623 22.8845 74.9052 26.3019C74.942 26.7375 74.7395 26.9553 74.2978 26.9553H72.2272C71.7731 26.9553 71.5093 26.7314 71.4357 26.2835L71.2516 25.1975C71.2173 24.9745 71.1313 24.7622 71.0004 24.577C70.8695 24.3918 70.6972 24.2389 70.497 24.13C68.7791 23.1852 67.1594 23.1729 65.6379 24.0932Z" fill="#F6F6F6"/>
<path d="M81.6419 30.8757C80.3045 30.8819 79.9609 31.4678 80.6112 32.6335L81.1726 33.6274C81.8659 34.8667 82.9181 35.5662 84.3292 35.7257C85.7648 35.8852 86.9674 35.4925 87.9367 34.5477C88.6914 33.8023 88.7006 32.9648 89.2619 32.1733C89.4332 31.9372 89.6878 31.7785 89.9706 31.7316C90.762 31.615 91.489 31.704 92.1517 31.9985C92.5136 32.158 92.6394 32.428 92.529 32.8084C91.2099 37.3116 88.2005 39.2903 83.5009 38.7442C74.3808 37.6859 74.4821 21.3691 83.9703 20.4581C89.7865 19.8967 92.8603 24.5994 92.575 29.8634C92.5609 30.1198 92.449 30.361 92.2624 30.5373C92.0757 30.7136 91.8286 30.8117 91.5719 30.8113L81.6419 30.8757ZM80.5928 27.8388L88.9675 27.8204C88.9943 27.8204 89.02 27.8097 89.039 27.7907C89.058 27.7717 89.0687 27.746 89.0687 27.7191V27.6915C89.0663 26.585 88.6134 25.5245 87.8094 24.743C87.0054 23.9614 85.916 23.5225 84.7801 23.5226C84.2162 23.5227 83.6578 23.6311 83.1369 23.8416C82.616 24.0522 82.1428 24.3608 81.7445 24.7498C81.3461 25.1387 81.0304 25.6004 80.8154 26.1083C80.6004 26.6163 80.4904 27.1605 80.4916 27.7099V27.7376C80.4916 27.7644 80.5022 27.7901 80.5212 27.8091C80.5402 27.8281 80.566 27.8388 80.5928 27.8388Z" fill="#F6F6F6"/>
<path d="M102.763 23.4766C95.1335 23.0073 95.7777 36.2226 102.284 35.7257C104.517 35.56 105.821 34.1182 106.195 31.4003C106.208 31.3021 106.266 31.2408 106.37 31.2162C107.389 31.0138 108.419 31.069 109.462 31.3819C109.542 31.4064 109.576 31.4586 109.564 31.5384C108.766 36.649 106.085 39.0602 101.52 38.7718C94.1396 38.3025 92.0229 29.6149 95.2715 24.1944C98.7134 18.461 108.211 19.0132 109.426 26.5504C109.481 26.894 109.34 27.0995 109.002 27.167C108.113 27.3572 107.275 27.3694 106.49 27.2038C106.244 27.1547 106.091 27.0075 106.03 26.762C105.625 25.1975 104.53 23.587 102.763 23.4766Z" fill="#F6F6F6"/>
<path d="M124.353 31.2531C124.53 33.0568 125.368 34.379 126.865 35.2195C128.972 36.3975 132 35.6244 132.782 33.1305C133.212 31.7439 134.267 31.3144 135.948 31.842C136.159 31.9098 136.335 32.0577 136.439 32.2538C136.542 32.45 136.564 32.6788 136.5 32.8912C135.169 37.284 132.258 39.2412 127.767 38.7626C117.395 37.6491 118.757 18.4794 130.38 20.5317C134.835 21.3231 136.795 25.8141 136.602 30.0107C136.592 30.2296 136.499 30.4367 136.342 30.589C136.184 30.7414 135.974 30.8276 135.755 30.8297L124.711 30.8573C124.661 30.8571 124.611 30.8674 124.565 30.8877C124.519 30.908 124.478 30.9378 124.444 30.9751C124.41 31.0125 124.384 31.0565 124.369 31.1044C124.353 31.1523 124.347 31.2029 124.353 31.2531ZM124.61 27.8296L132.948 27.8112C132.961 27.8112 132.975 27.8086 132.987 27.8035C132.999 27.7984 133.01 27.7909 133.02 27.7815C133.029 27.7721 133.037 27.761 133.042 27.7487C133.047 27.7364 133.049 27.7232 133.049 27.7099V27.6731C133.047 26.569 132.596 25.5109 131.795 24.7311C130.995 23.9512 129.91 23.5133 128.779 23.5134C128.218 23.5135 127.662 23.6216 127.143 23.8317C126.624 24.0418 126.153 24.3498 125.756 24.7378C125.36 25.1259 125.045 25.5866 124.831 26.0934C124.617 26.6003 124.508 27.1433 124.509 27.6915V27.7284C124.509 27.7552 124.52 27.7809 124.539 27.7999C124.558 27.8189 124.583 27.8296 124.61 27.8296Z" fill="#F6F6F6"/>
<path d="M155.145 22.7588C149.458 23.992 149.099 32.0353 153.148 35.0815C156.185 37.3638 159.369 35.1459 160.547 32.0997C160.713 31.6703 161.011 31.385 161.44 31.2439C161.777 31.1334 162.106 31.1365 162.425 31.2531C162.588 31.3112 162.725 31.4266 162.812 31.5785C162.898 31.7304 162.927 31.9087 162.894 32.0813C162.164 36.1061 159.866 38.1583 156.001 38.2381C145.261 38.4589 144.939 20.6421 155.918 20.4304C159.188 20.363 161.394 21.8416 162.535 24.8662C162.738 25.3877 162.814 25.8203 162.765 26.1639C162.739 26.3563 162.655 26.5362 162.525 26.6803C162.395 26.8244 162.224 26.9259 162.035 26.9716C161.847 27.0173 161.648 27.0051 161.467 26.9365C161.285 26.8679 161.128 26.7462 161.017 26.5872C159.59 24.5441 158.127 22.1054 155.145 22.7588Z" fill="#F6F6F6"/>
<path d="M236.453 20.5133H234.613C234.196 20.5133 233.858 20.8511 233.858 21.2679V36.8944C233.858 37.3112 234.196 37.6491 234.613 37.6491H236.453C236.87 37.6491 237.208 37.3112 237.208 36.8944V21.2679C237.208 20.8511 236.87 20.5133 236.453 20.5133Z" fill="#F6F6F6"/>
<path d="M115.407 22.225C116.726 21.1023 118.297 20.5746 120.119 20.6421C120.239 20.6469 120.356 20.675 120.465 20.7248C120.574 20.7745 120.671 20.845 120.753 20.9322C120.834 21.0194 120.897 21.1216 120.938 21.2329C120.979 21.3441 120.998 21.4624 120.993 21.5808L120.929 23.0441C120.904 23.6821 120.573 24.0196 119.935 24.0564C116.714 24.2405 115.079 25.9982 115.03 29.3297C114.987 31.9985 114.99 34.7195 115.039 37.4926C115.051 38.0325 114.784 38.3148 114.238 38.3393L112.517 38.4129C111.898 38.4375 111.588 38.1399 111.588 37.5202V21.5716C111.588 21.0808 111.833 20.8385 112.324 20.8446L114.091 20.863C114.226 20.8629 114.359 20.9051 114.47 20.9841C114.582 21.063 114.668 21.1749 114.717 21.3047C114.784 21.5011 114.809 21.7035 114.79 21.9121C114.741 22.5134 114.947 22.6177 115.407 22.225Z" fill="#F6F6F6"/>
<path d="M167.054 20.8262H165.858C165.477 20.8262 165.167 21.1352 165.167 21.5164V37.2349C165.167 37.6161 165.477 37.9252 165.858 37.9252H167.054C167.435 37.9252 167.744 37.6161 167.744 37.2349V21.5164C167.744 21.1352 167.435 20.8262 167.054 20.8262Z" fill="#F6F6F6"/>
<path d="M26.719 31.4187C29.3365 31.4187 31.4585 29.2968 31.4585 26.6792C31.4585 24.0617 29.3365 21.9397 26.719 21.9397C24.1014 21.9397 21.9795 24.0617 21.9795 26.6792C21.9795 29.2968 24.1014 31.4187 26.719 31.4187Z" fill="#F6F6F6"/>
<path d="M26.6729 53.3768H25.5134C14.8994 52.5486 7.10451 47.2538 2.1288 37.4926C1.53368 36.3331 1.68706 35.2809 2.58895 34.336C3.26383 33.6305 4.18412 33.8421 5.34982 34.971C5.49006 35.1113 5.60815 35.276 5.69953 35.4588C9.97581 44.2813 16.9915 48.9073 26.7466 49.3368C27.0595 49.349 27.3417 49.4533 27.5932 49.6497C29.4584 51.073 29.1516 52.3154 26.6729 53.3768Z" fill="#F6F6F6"/>
</svg>
