<svg width="115" height="45" viewBox="0 0 115 45" fill="none" xmlns="http://www.w3.org/2000/svg">
<g clip-path="url(#clip0_519_1753)">
<path fill-rule="evenodd" clip-rule="evenodd" d="M31.5383 22.0852V11.0914H26.2603V22.0852C26.2603 27.9441 30.9954 32.6947 36.8226 32.6947V27.4001C33.9104 27.4001 31.5383 25.013 31.5383 22.0852Z" fill="#F6F6F6"/>
<path fill-rule="evenodd" clip-rule="evenodd" d="M48.3865 27.6228C48.3853 27.6228 48.3841 27.6229 48.3828 27.6229C48.3816 27.6229 48.3803 27.623 48.3791 27.623C45.4415 27.619 43.1985 25.2269 43.1985 22.2751V21.8475C43.1985 20.4286 43.6794 19.0802 44.6855 18.0763C45.6805 17.0736 46.9724 16.3502 48.3843 16.339H48.3857C49.7976 16.3502 51.0851 17.0736 52.0801 18.0763C53.0863 19.0802 53.5629 20.4286 53.5629 21.8475V22.2751C53.5629 25.2269 51.3241 27.6188 48.3865 27.6228ZM53.4365 11.0876V12.6812C51.9829 11.7265 50.3446 10.9606 48.3733 10.9606H48.3552H48.3221C45.4906 10.9606 42.8858 12.1871 40.8847 14.1805C38.8755 16.2066 37.8267 18.9916 37.8267 21.8475V22.2751C37.8267 28.1836 42.4133 32.9746 48.2967 32.9746C50.1959 32.9746 51.9829 32.4325 53.4365 31.5005V44.1039H58.5556H58.7168V28.2253V27.5322V19.6241V16.4209V11.0897L53.4365 11.0876Z" fill="#F6F6F6"/>
<path fill-rule="evenodd" clip-rule="evenodd" d="M28.9623 7.12655C30.7393 7.12655 32.2351 5.67968 32.2351 3.77356C32.2351 1.91632 30.7393 0.467285 28.9623 0.467285C27.1335 0.467285 25.6055 1.91632 25.6055 3.77356C25.6055 5.67968 27.1335 7.12655 28.9623 7.12655Z" fill="#F6F6F6"/>
<mask id="mask0_519_1753" style="mask-type:luminance" maskUnits="userSpaceOnUse" x="98" y="11" width="17" height="22">
<path fill-rule="evenodd" clip-rule="evenodd" d="M114.461 32.9927V11.01H98.0723V32.9927H114.461Z" fill="white"/>
</mask>
<g mask="url(#mask0_519_1753)">
<path fill-rule="evenodd" clip-rule="evenodd" d="M109.368 20.375L105.932 19.2915C104.739 18.8898 103.784 18.2552 103.837 17.406C103.937 15.8128 105.278 15.401 106.609 15.4853C107.416 15.5365 108.335 15.855 108.866 16.5193L113.584 14.9293L113.79 14.8291C112.496 12.3516 109.634 11.2102 106.759 11.0281C102.591 10.7646 98.8694 13.4183 98.6575 16.7922C98.5022 19.2683 98.8375 21.7811 104.176 23.604L107.002 24.5187C108.491 24.9714 109.272 25.5658 109.156 26.6428C109.079 27.861 107.817 28.6447 106.291 28.595C104.788 28.5623 103.509 27.8 102.93 26.801L98.0723 28.4377C99.3237 31.1523 102.379 32.7706 105.477 32.9671C109.818 33.2422 114.18 31.3045 114.448 27.0307C114.554 25.3553 114.139 21.9402 109.368 20.375Z" fill="#F6F6F6"/>
</g>
<path fill-rule="evenodd" clip-rule="evenodd" d="M66.4438 19.371C66.5697 17.3392 68.1682 15.2728 71.0694 15.2728C74.2658 15.2728 75.6116 17.3392 75.6958 19.371H66.4438ZM70.9855 10.9211C65.6867 10.9211 60.8081 15.2465 60.8081 21.88C60.8081 28.8937 65.8129 32.9997 71.4903 32.9997C74.5975 32.9997 77.0284 31.8822 78.6906 30.1944L75.2342 26.7218C74.4197 27.576 73.2253 28.0199 71.5321 28.0199C68.7784 28.0199 66.4807 26.3801 66.3216 23.1911H81.1136C81.1136 23.1911 81.2049 22.3584 81.2049 21.5557C81.2049 14.8802 77.3778 10.9211 70.9855 10.9211Z" fill="#F6F6F6"/>
<path fill-rule="evenodd" clip-rule="evenodd" d="M90.9709 22.0855V15.6593H96.2795V11.0878H90.9709V3.5321H85.6622V11.0878H82.0601V15.6593H85.6622V22.0855C85.6622 27.9444 90.4021 32.6951 96.2795 32.6951V27.4003C93.3092 27.4003 90.9709 25.0132 90.9709 22.0855Z" fill="#F6F6F6"/>
<path fill-rule="evenodd" clip-rule="evenodd" d="M0 11.7704H5.27005C5.27005 8.8447 7.64604 6.46143 10.5602 6.46143H11.785V22.0855C11.785 27.9444 16.5202 32.695 22.3474 32.695V27.4003C19.4353 27.4003 17.0631 25.0132 17.0631 22.0855V6.46143H23.5394V1.15869H10.5602C4.72852 1.15869 0 5.91596 0 11.7704Z" fill="#F6F6F6"/>
</g>
<defs>
<clipPath id="clip0_519_1753">
<rect width="115" height="44.0654" fill="white" transform="translate(0 0.467285)"/>
</clipPath>
</defs>
</svg>
