<svg width="155" height="65" viewBox="0 0 155 65" fill="none" xmlns="http://www.w3.org/2000/svg">
<path d="M69.1192 19.9329C69.1193 20.8361 68.8515 21.719 68.3498 22.47C67.8481 23.2209 67.135 23.8063 66.3006 24.1519C65.4662 24.4976 64.5481 24.5881 63.6623 24.4119C62.7765 24.2357 61.9628 23.8008 61.3242 23.1622C60.6856 22.5236 60.2507 21.7099 60.0745 20.8241C59.8983 19.9383 59.9888 19.0202 60.3344 18.1858C60.6801 17.3514 61.2654 16.6383 62.0164 16.1365C62.7674 15.6348 63.6503 15.3671 64.5534 15.3672C65.7644 15.3672 66.9257 15.8482 67.7819 16.7045C68.6382 17.5607 69.1192 18.722 69.1192 19.9329ZM90.2946 15.3672C89.3914 15.3671 88.5085 15.6348 87.7575 16.1365C87.0066 16.6383 86.4212 17.3514 86.0756 18.1858C85.7299 19.0202 85.6394 19.9383 85.8156 20.8241C85.9918 21.7099 86.4267 22.5236 87.0653 23.1622C87.7039 23.8008 88.5176 24.2357 89.4034 24.4119C90.2892 24.5881 91.2074 24.4976 92.0417 24.1519C92.8761 23.8063 93.5893 23.2209 94.091 22.47C94.5927 21.719 94.8604 20.8361 94.8603 19.9329C94.8603 18.722 94.3793 17.5607 93.523 16.7045C92.6668 15.8482 91.5055 15.3672 90.2946 15.3672ZM103.17 19.9329C103.17 27.0415 97.4026 32.8037 90.2946 32.8037C87.0511 32.8082 83.9266 31.5832 81.5503 29.3757L77.4265 33.8623L73.3004 29.373C70.9239 31.5821 67.7982 32.8081 64.5534 32.8037C57.4454 32.8037 51.6827 27.0415 51.6827 19.9329C51.6805 18.1423 52.0529 16.3711 52.7759 14.733C53.499 13.0948 54.5567 11.6261 55.8811 10.421L51.6695 5.83895H61.0304C65.8584 2.53558 71.5743 0.773467 77.4242 0.785091C83.5312 0.785091 89.1731 2.64749 93.8452 5.83895H103.181L98.9701 10.421C100.295 11.626 101.353 13.0947 102.076 14.7328C102.799 16.371 103.172 18.1423 103.17 19.9329ZM73.2633 19.9329C73.2633 15.1225 69.3639 11.223 64.5534 11.223C59.743 11.223 55.8431 15.1225 55.8431 19.9329C55.8431 24.7434 59.743 28.6451 64.5534 28.6451C69.3639 28.6451 73.2633 24.7434 73.2633 19.9329ZM87.0923 6.93142C84.0293 5.65542 80.744 4.99847 77.4258 4.99847C74.1077 4.99847 70.8224 5.65542 67.7594 6.93142C73.2575 9.03448 77.4265 13.9526 77.4265 19.6846C77.4265 13.9508 81.5946 9.03313 87.0923 6.93142ZM99.0045 19.9343C99.0045 15.1238 95.105 11.2244 90.2946 11.2244C85.4841 11.2244 81.5842 15.1238 81.5842 19.9343C81.5842 24.7448 85.4841 28.6451 90.2946 28.6451C95.105 28.6451 99.0045 24.7434 99.0045 19.9329V19.9343ZM18.1038 45.9907V43.2697H13.9302V59.4645H18.1038V49.7513C18.1038 47.9925 19.2324 47.1275 20.9913 47.1275H23.2739V43.2657H21.3228C19.7966 43.2679 18.4688 44.0641 18.1038 45.9889V45.9907ZM27.1842 36.8619C25.7574 36.8619 24.6622 37.9901 24.6622 39.4174C24.6622 40.0862 24.9279 40.7277 25.4009 41.2007C25.8738 41.6736 26.5153 41.9393 27.1842 41.9393C27.853 41.9393 28.4945 41.6736 28.9675 41.2007C29.4404 40.7277 29.7061 40.0862 29.7061 39.4174C29.7061 37.9901 28.611 36.8619 27.1842 36.8619ZM25.1033 59.4609H29.2651V43.2661H25.1033V59.4609ZM49.0996 51.3635C49.0996 55.9863 45.3522 59.7323 40.7308 59.7323C38.9567 59.7407 37.2294 59.1632 35.8172 58.0893V64.2148H31.6554V43.2702H35.8172V44.6395C37.2294 43.5657 38.9567 42.9881 40.7308 42.9965C45.3518 42.9942 49.0992 46.7398 49.0992 51.3644L49.0996 51.3635ZM44.9098 51.3635C44.9098 50.4642 44.6431 49.5852 44.1435 48.8375C43.6439 48.0898 42.9338 47.507 42.103 47.1629C41.2722 46.8187 40.358 46.7287 39.476 46.9041C38.594 47.0796 37.7839 47.5126 37.148 48.1485C36.5121 48.7843 36.0791 49.5945 35.9036 50.4765C35.7282 51.3585 35.8182 52.2727 36.1624 53.1035C36.5065 53.9343 37.0893 54.6444 37.837 55.144C38.5847 55.6436 39.4638 55.9103 40.363 55.9103C41.5687 55.9101 42.7249 55.4312 43.5775 54.5787C44.43 53.7262 44.9091 52.5701 44.9093 51.3644L44.9098 51.3635ZM121.467 49.944L119.038 49.2772C117.44 48.8615 116.817 48.3724 116.817 47.5265C116.817 46.7032 117.692 46.1283 118.944 46.1283C120.136 46.1283 121.07 46.9099 121.07 47.9074V47.9979H124.907V47.9074C124.907 44.967 122.509 42.9942 118.943 42.9942C115.408 42.9942 112.843 44.967 112.843 47.6853C112.843 49.8006 114.246 51.3947 116.688 52.0556L119.015 52.6889C120.782 53.178 121.439 53.7213 121.439 54.6934C121.439 55.7198 120.489 56.4092 119.076 56.4092C117.602 56.4092 116.612 55.4773 116.612 54.0908V54.0004H112.54V54.0908C112.54 57.413 115.215 59.7337 119.044 59.7337C122.734 59.7337 125.413 57.4673 125.413 54.3446C125.415 52.8179 124.73 50.8139 121.467 49.944ZM63.8699 43.2679H68.0317V59.4627H63.8699V58.0934C62.4576 59.1671 60.7304 59.7446 58.9563 59.7364C54.3335 59.7364 50.5875 55.989 50.5875 51.3676C50.5875 46.7462 54.3349 42.9988 58.9563 42.9988C60.7304 42.9905 62.4576 43.5681 63.8699 44.6418V43.2679ZM63.8699 51.3653C63.8698 50.4661 63.6031 49.5871 63.1034 48.8394C62.6038 48.0917 61.8936 47.509 61.0628 47.165C60.232 46.8209 59.3178 46.7309 58.4359 46.9064C57.5539 47.0819 56.7438 47.515 56.108 48.1509C55.4721 48.7868 55.0391 49.5969 54.8637 50.4789C54.6883 51.3609 54.7784 52.2751 55.1225 53.1058C55.4667 53.9366 56.0495 54.6467 56.7972 55.1463C57.5449 55.6459 58.4239 55.9125 59.3232 55.9125C59.9204 55.9125 60.5118 55.7949 61.0635 55.5663C61.6153 55.3376 62.1166 55.0026 62.5388 54.5802C62.9611 54.1578 63.2959 53.6563 63.5243 53.1045C63.7527 52.5526 63.8702 51.9612 63.8699 51.364V51.3653ZM83.0666 37.5043H87.2284V59.4614H83.0666V58.092C81.6545 59.1658 79.9274 59.7434 78.1535 59.735C73.5307 59.735 69.7846 55.9876 69.7846 51.3662C69.7846 46.7448 73.5321 42.9974 78.1535 42.9974C79.9274 42.9891 81.6545 43.5667 83.0666 44.6404V37.5043ZM83.0666 51.3649C83.0666 50.4656 82.8 49.5865 82.3004 48.8388C81.8008 48.0911 81.0906 47.5083 80.2598 47.1642C79.429 46.8201 78.5148 46.73 77.6328 46.9055C76.7509 47.0809 75.9407 47.514 75.3048 48.1498C74.669 48.7857 74.2359 49.5959 74.0605 50.4778C73.885 51.3598 73.9751 52.274 74.3192 53.1048C74.6633 53.9356 75.2461 54.6458 75.9938 55.1454C76.7415 55.645 77.6206 55.9116 78.5199 55.9116C79.117 55.9116 79.7083 55.794 80.2599 55.5655C80.8116 55.337 81.3129 55.002 81.7351 54.5797C82.1573 54.1575 82.4922 53.6562 82.7206 53.1045C82.9491 52.5528 83.0667 51.9615 83.0666 51.3644V51.3649ZM106.563 59.4623H110.725V43.2675H106.563V59.4623ZM108.644 36.8633C107.217 36.8633 106.122 37.9915 106.122 39.4187C106.131 40.0818 106.401 40.7147 106.873 41.1805C107.345 41.6462 107.981 41.9074 108.644 41.9074C109.307 41.9074 109.944 41.6462 110.416 41.1805C110.888 40.7147 111.158 40.0818 111.166 39.4187C111.166 37.9901 110.071 36.8619 108.644 36.8619V36.8633ZM143.412 51.3658C143.412 55.9885 139.664 59.7346 135.043 59.7346C130.421 59.7346 126.674 55.9872 126.674 51.3658C126.674 46.7444 130.421 42.997 135.043 42.997C139.664 42.997 143.412 46.7398 143.412 51.3644V51.3658ZM139.589 51.3658C139.589 50.4665 139.322 49.5874 138.822 48.8397C138.323 48.092 137.613 47.5093 136.782 47.1651C135.951 46.821 135.037 46.7309 134.155 46.9064C133.273 47.0818 132.463 47.5149 131.827 48.1507C131.191 48.7866 130.758 49.5968 130.583 50.4787C130.407 51.3607 130.497 52.2749 130.841 53.1057C131.185 53.9366 131.768 54.6467 132.516 55.1463C133.264 55.6459 134.143 55.9125 135.042 55.9125C135.639 55.9125 136.231 55.7949 136.782 55.5663C137.334 55.3377 137.835 55.0027 138.257 54.5803C138.68 54.158 139.015 53.6566 139.243 53.1048C139.471 52.553 139.589 51.9616 139.589 51.3644V51.3658ZM15.9718 37.5038H0V41.221H5.91155V59.4632H10.0602V41.221H15.9718V37.5038ZM96.7449 55.0263L93.0413 43.2679H88.6701L94.2252 59.4627H99.2352L104.823 43.2679H100.45L96.7449 55.0263ZM153.42 56.5499C153.107 56.5499 152.802 56.6426 152.542 56.8162C152.282 56.9898 152.08 57.2366 151.96 57.5253C151.84 57.8141 151.809 58.1318 151.87 58.4383C151.931 58.7448 152.082 59.0264 152.303 59.2474C152.524 59.4683 152.805 59.6188 153.112 59.6798C153.418 59.7408 153.736 59.7095 154.025 59.5899C154.313 59.4703 154.56 59.2678 154.734 59.0079C154.907 58.7481 155 58.4426 155 58.13C154.999 57.7112 154.832 57.3098 154.536 57.0136C154.24 56.7175 153.839 56.5508 153.42 56.5499ZM153.42 59.4618C153.156 59.4618 152.899 59.3837 152.68 59.2374C152.461 59.091 152.29 58.883 152.189 58.6397C152.089 58.3963 152.062 58.1286 152.114 57.8702C152.165 57.6119 152.292 57.3746 152.478 57.1883C152.664 57.0021 152.902 56.8752 153.16 56.8239C153.418 56.7725 153.686 56.7988 153.93 56.8996C154.173 57.0004 154.381 57.1711 154.527 57.3901C154.674 57.6091 154.752 57.8666 154.752 58.13C154.751 58.4831 154.611 58.8217 154.361 59.0714C154.112 59.321 153.773 59.4614 153.42 59.4618ZM153.933 57.8613C153.933 57.5736 153.727 57.4031 153.429 57.4031H152.924V58.8416H153.172V58.3205H153.442L153.703 58.8425H153.97L153.682 58.2671C153.837 58.1983 153.933 58.0586 153.933 57.8613ZM153.417 58.0997H153.172V57.6229H153.417C153.584 57.6229 153.685 57.7071 153.685 57.8613C153.685 58.0156 153.585 58.0997 153.417 58.0997Z" fill="#F6F6F6"/>
<path d="M149.514 45.9889V43.2679H145.34V59.4627H149.514V49.7512C149.514 47.9924 150.642 47.1275 152.401 47.1275H154.684V43.2656H152.732C151.206 43.2679 149.878 44.0641 149.514 45.9889Z" fill="#F6F6F6"/>
</svg>
