<svg width="180" height="41" viewBox="0 0 180 41" fill="none" xmlns="http://www.w3.org/2000/svg">
<path fill-rule="evenodd" clip-rule="evenodd" d="M49.1345 34.2131L41.019 10.7558H46.4064L51.3842 28.2808L55.9524 12.5294C56.2255 11.3463 56.9979 10.7558 58.271 10.7558H61.7482L53.7704 34.2131H49.1345ZM65.4696 20.5749C64.5151 21.6204 64.0823 23.1775 64.1733 25.2452C64.2643 27.3152 64.6505 28.7569 65.3331 29.576C65.6061 29.94 66.0834 30.2475 66.7649 30.4972C67.4322 30.7463 68.1628 30.7697 68.8448 30.5638C69.5484 30.3596 70.1744 29.8479 70.7205 29.0299C71.2643 28.212 71.5606 26.8945 71.6061 25.0754C71.6061 23.4384 71.3442 22.212 70.8226 21.3929C70.2987 20.5749 69.6971 20.0521 69.0146 19.8246C68.3534 19.5978 67.6373 19.5861 66.9691 19.7913C66.2876 19.9955 65.7871 20.2575 65.4696 20.5749ZM62.1955 32.576C61.241 31.758 60.5595 30.6559 60.1511 29.2686C59.7392 27.8628 59.5324 26.4049 59.5373 24.94C59.5373 23.7114 59.7071 22.4839 60.0479 21.2564C60.3897 20.0288 60.9236 19.0066 61.6505 18.1887C62.8326 16.8246 64.3553 16.0177 66.2188 15.768C68.0834 15.5183 69.7648 15.6648 71.2654 16.2109C72.9924 16.8923 74.2654 18.0754 75.0834 19.7558C75.857 21.2564 76.2432 23.0077 76.2432 25.0066C76.2432 26.4628 76.0834 27.7125 75.766 28.758C75.4474 29.8035 75.0379 30.6903 74.5384 31.4173C73.4474 32.9167 72.0601 33.849 70.3786 34.2119C68.8991 34.6208 67.3413 34.6563 65.8448 34.3152C64.3209 33.9733 63.1056 33.394 62.1966 32.576M78.2743 16.0743H80.7293C81.3653 16.0743 81.9113 16.3019 82.3664 16.7558C82.8192 17.2109 83.0479 17.7569 83.0479 18.3929V34.2119H78.2754L78.2743 16.0743ZM78.2743 10.7558H80.7293C81.3653 10.7558 81.9113 10.9833 82.3664 11.4373C82.8192 11.8923 83.0479 12.4384 83.0479 13.0743V14.5061H78.2754L78.2743 10.7558ZM97.8192 28.6215H101.229C100.727 30.5305 99.7726 31.9855 98.3642 32.9844C96.9546 34.031 95.181 34.5538 93.0445 34.5538C90.4541 34.5538 88.4308 33.7125 86.9768 32.031C85.5218 30.394 84.7948 28.0532 84.7948 25.0066C84.7948 22.0987 85.4985 19.8246 86.908 18.1887C88.3619 16.5072 90.3853 15.6648 92.9768 15.6648C95.7049 15.6648 97.8181 16.4839 99.3186 18.1198C100.137 19.1198 100.728 20.2797 101.091 21.5971H96.3186C96.09 21.1431 95.8636 20.8024 95.6372 20.576C95.0445 19.9389 94.2054 19.6204 93.1133 19.6204C92.1133 19.6204 91.2953 19.9389 90.6583 20.5749C89.8403 21.485 89.4308 22.9844 89.4308 25.0754C89.4308 27.1664 89.8414 28.6437 90.6583 29.5072C91.2487 30.2353 92.1355 30.5993 93.3175 30.5993C94.0911 30.5993 94.7493 30.4395 95.2965 30.1221C95.4384 30.073 95.5666 29.9908 95.6705 29.8823L96.0456 29.5072C96.1355 29.3707 96.3175 29.1898 96.5917 28.9633C96.8636 28.7358 97.2731 28.6215 97.8192 28.6215ZM107.283 23.303H114.239C114.147 22.0754 113.829 21.1665 113.284 20.5749C112.693 19.9389 111.852 19.6204 110.76 19.6204C109.76 19.6204 108.941 19.9389 108.306 20.5749C107.668 21.212 107.328 22.1209 107.283 23.303ZM115.465 28.6215H118.875C118.375 30.5305 117.421 31.9855 116.011 32.9844C114.602 34.031 112.829 34.5538 110.693 34.5538C108.102 34.5538 106.078 33.7125 104.624 32.031C103.168 30.394 102.442 28.0532 102.442 25.0066C102.442 22.0987 103.146 19.8246 104.555 18.1887C106.01 16.5072 108.033 15.6648 110.624 15.6648C113.352 15.6648 115.465 16.4839 116.966 18.1198C118.42 19.8024 119.148 22.1431 119.148 25.1431V25.8934C119.148 26.1209 119.124 26.2797 119.08 26.3707H107.281C107.326 27.7802 107.668 28.8257 108.305 29.5072C108.895 30.2353 109.781 30.5993 110.963 30.5993C111.737 30.5993 112.395 30.4395 112.941 30.1221C113.084 30.073 113.212 29.9908 113.316 29.8823L113.692 29.5072C113.736 29.3707 113.907 29.1898 114.202 28.9633C114.498 28.7358 114.92 28.6215 115.465 28.6215ZM120.77 34.2131V13.2109C120.77 12.5294 121.01 11.9489 121.487 11.4717C121.965 10.9944 122.544 10.7336 123.227 10.687H127.931L132.567 28.6215L137.204 10.687H144.363V34.2131H139.862V15.2564L135.09 34.2131H130.112L125.271 15.2564V34.2131H120.77ZM156.897 25.0754C156.26 25.394 155.373 25.6892 154.238 25.9611L152.669 26.3019C151.851 26.5305 151.26 26.8257 150.896 27.1898C150.578 27.6892 150.418 28.1898 150.418 28.6892C150.418 29.3707 150.624 29.9167 151.033 30.3252C151.442 30.6914 152.032 30.8712 152.806 30.8712C154.078 30.8712 155.079 30.5083 155.806 29.7802C156.533 29.0532 156.897 28.0532 156.897 26.7802V25.0754ZM157.988 33.4628C157.044 33.9598 156.014 34.2725 154.953 34.384C153.885 34.495 152.942 34.5538 152.123 34.5538C150.487 34.5538 149.056 34.1098 147.828 33.223C146.601 32.3374 145.987 30.8712 145.987 28.8257C145.987 26.9167 146.543 25.5527 147.657 24.7336C148.771 23.9156 150.192 23.3707 151.919 23.0976C152.147 23.0976 152.418 23.0643 152.737 22.9955C153.098 22.9204 153.462 22.8633 153.828 22.8246C155.828 22.5527 156.828 21.9622 156.828 21.0521C156.828 20.3707 156.476 19.9267 155.771 19.7225C155.067 19.5183 154.418 19.4151 153.829 19.4151C153.191 19.4151 152.624 19.5072 152.123 19.6881C151.881 19.7739 151.659 19.9092 151.471 20.0854C151.283 20.2615 151.134 20.4747 151.033 20.7114H146.464C146.645 19.3019 147.283 18.1431 148.373 17.2342C149.601 16.1887 151.35 15.6648 153.623 15.6648C156.169 15.6648 158.079 16.0976 159.352 16.96C160.669 17.8701 161.329 19.1431 161.329 20.7791V26.9844C161.329 28.8035 160.999 30.2242 160.341 31.2464C159.68 32.2685 158.897 33.0088 157.988 33.4628Z" fill="#F6F6F6"/>
<mask id="mask0_1394_1001" style="mask-type:luminance" maskUnits="userSpaceOnUse" x="162" y="15" width="18" height="26">
<path d="M162.885 15.6637H180V40.8945H162.885V15.6637Z" fill="white"/>
</mask>
<g mask="url(#mask0_1394_1001)">
<path fill-rule="evenodd" clip-rule="evenodd" d="M175.296 25.212C175.296 23.4384 174.954 22.0743 174.272 21.1187C173.591 20.1642 172.612 19.687 171.34 19.687C170.112 19.687 169.158 20.1642 168.476 21.1187C167.838 21.9844 167.522 23.3474 167.522 25.2109C167.522 26.9389 167.862 28.2342 168.544 29.0976C169.227 30.0521 170.203 30.5294 171.476 30.5294C172.658 30.5294 173.591 30.0521 174.273 29.0976C174.954 28.1431 175.296 26.8479 175.296 25.212ZM167.522 38.5749C167.522 39.2119 167.294 39.7569 166.84 40.2119C166.385 40.667 165.841 40.8945 165.205 40.8945H162.884V23.9156C162.884 20.7336 163.816 18.5627 165.681 17.4029C167.497 16.2571 169.602 15.6538 171.749 15.6637C172.885 15.6637 174.034 15.8801 175.193 16.3119C176.352 16.7447 177.272 17.3685 177.954 18.1876C179.319 19.96 180 22.2342 180 25.0066C180 27.8701 179.318 30.1887 177.954 31.9611C176.591 33.6892 174.839 34.5527 172.704 34.5527C171.567 34.5527 170.566 34.3474 169.704 33.9389C168.794 33.485 168.067 32.7791 167.521 31.8246V38.576L167.522 38.5749Z" fill="#F6F6F6"/>
</g>
<path fill-rule="evenodd" clip-rule="evenodd" d="M9.99241 5.04994C10.0368 5.00443 10.1045 4.78579 10.0757 4.69256C10.0457 4.60266 10.0168 4.42952 9.94802 4.44506C9.87921 4.45949 9.85479 4.58601 9.80595 4.495C9.75601 4.40399 9.68831 4.31298 9.65945 4.394C9.62948 4.47613 9.7327 4.64372 9.71273 4.66814C9.69275 4.69256 9.5418 4.68923 9.50185 4.62375C9.463 4.55715 9.45301 4.36848 9.38975 4.45949C9.32538 4.5516 9.37976 4.62708 9.40862 4.67258C9.43859 4.7192 9.57066 4.63929 9.55179 4.74361C9.53182 4.85127 9.51739 4.88679 9.54069 4.90677C9.56622 4.92785 9.66389 4.8202 9.70274 4.84017C9.74158 4.86015 9.78598 4.9223 9.766 4.97336C9.74713 5.0233 9.66833 5.11542 9.71827 5.16648C9.766 5.21642 9.84924 5.24195 9.89363 5.19644C9.93803 5.15205 9.99241 5.04994 9.99241 5.04994ZM9.08121 5.70921C9.08121 5.70921 9.12005 5.69478 9.18331 5.6748C9.24769 5.65371 9.2832 5.63817 9.33093 5.74139C9.37976 5.84239 9.33093 5.82685 9.30207 5.89789C9.2721 5.96892 9.07566 5.75582 9.0801 5.70921M12.7005 15.6049C12.7005 15.6049 12.7471 15.6359 12.776 15.5971C12.806 15.5594 12.8248 15.5671 12.9014 15.5671C12.9769 15.5671 13.1278 15.7003 13.1434 15.7192C13.1567 15.7369 12.9624 15.7702 12.9147 15.7603C12.8703 15.7514 12.867 15.808 12.8592 15.8302C12.8526 15.8546 12.7449 15.8191 12.6861 15.7924C12.6273 15.7669 12.554 15.8058 12.493 15.7314C12.4319 15.6581 12.6639 15.6337 12.7005 15.6049ZM11.4697 15.2908C11.4941 15.2664 11.7038 15.0932 11.7682 15.1598C11.8315 15.2253 11.988 15.2042 12.039 15.2209C12.0912 15.2375 12.332 15.3396 12.372 15.4029C12.4097 15.4661 12.503 15.5194 12.4341 15.5527C12.3676 15.586 12.1878 15.5993 12.1145 15.5272C12.0412 15.4528 11.9369 15.3696 11.8648 15.364C11.7949 15.3607 11.6339 15.3196 11.6139 15.3396C11.5951 15.3607 11.655 15.3951 11.5851 15.3851C11.5393 15.3804 11.495 15.3661 11.4552 15.3429C11.4408 15.3318 11.473 15.2985 11.4697 15.2908ZM20.544 13.0777C20.544 13.0777 20.433 13.1509 20.4264 13.1676C20.4186 13.1864 20.4441 13.2464 20.4608 13.232C20.4774 13.2164 20.5174 13.1487 20.5318 13.1432C20.5462 13.1387 20.5629 13.1254 20.6139 13.1409C20.6661 13.1565 20.6705 13.111 20.6983 13.0866C20.7238 13.0644 20.8226 13.0799 20.7615 13.0144C20.7005 12.9478 20.6617 12.9367 20.6395 12.9745L20.5684 13.0777H20.544ZM21.2321 12.596C21.1933 12.6593 21.1811 12.6959 21.2133 12.7503C21.2443 12.8035 21.2521 12.8524 21.2177 12.8724C21.1844 12.8923 21.0934 12.8823 21.12 12.9301C21.1467 12.9778 21.2088 13.0144 21.1866 13.0632C21.1644 13.111 21.2088 13.1942 21.2088 13.1942C21.2088 13.1942 21.3498 13.2675 21.3398 13.1665C21.3309 13.0644 21.3553 12.9445 21.3398 12.9223C21.3254 12.9001 21.281 12.8923 21.3109 12.7991C21.3398 12.7059 21.3309 12.647 21.3087 12.6193C21.2865 12.5904 21.2344 12.6004 21.2332 12.596M28.7704 16.7225C28.7549 16.7503 28.6761 16.8923 28.6927 16.9378C28.7094 16.9822 28.7482 17.1099 28.7993 17.1487C28.8503 17.1864 28.9236 17.0954 28.9269 17.0821C28.9291 17.0699 28.9868 17.0078 28.968 16.9756C28.9491 16.9423 28.9047 16.8746 28.8858 16.8391C28.8609 16.8025 28.833 16.768 28.8026 16.7358C28.8026 16.7358 28.7671 16.7147 28.7704 16.7225ZM1.79265 23.8046C1.70899 23.5744 1.5375 23.3867 1.31573 23.2827C1.09397 23.1787 0.84002 23.1668 0.609517 23.2497C0.379298 23.3334 0.191622 23.5048 0.0876055 23.7266C-0.0164111 23.9484 -0.0282876 24.2023 0.0545781 24.4328L3.14004 33.0521C3.22369 33.2823 3.39518 33.47 3.61695 33.574C3.83871 33.6781 4.09266 33.6899 4.32316 33.6071C4.55332 33.5227 4.7407 33.3507 4.84429 33.1285C4.94788 32.9064 4.95924 32.6522 4.87588 32.4217L1.79265 23.8046Z" fill="#F6F6F6"/>
<path fill-rule="evenodd" clip-rule="evenodd" d="M39.474 19.7047C39.4851 19.4273 39.4918 19.1476 39.4918 18.8657C39.4918 8.44616 31.221 0 21.0179 0C10.8148 0 2.54511 8.44616 2.54511 18.8657C2.54511 19.142 2.55066 19.4162 2.56287 19.6892C2.1984 20.0159 1.93978 20.4439 1.82015 20.9185C1.70051 21.393 1.72532 21.8925 1.89139 22.3529L5.66719 32.7014C5.88943 33.314 6.34591 33.8131 6.9362 34.0891C7.52649 34.3651 8.20225 34.3953 8.8148 34.1731C9.42736 33.9509 9.92655 33.4944 10.2025 32.9041C10.4785 32.3138 10.5087 31.6381 10.2865 31.0255L6.5107 20.6803C6.3493 20.2339 6.06185 19.844 5.6832 19.5577C5.30456 19.2715 4.85099 19.1013 4.37752 19.0677C4.37752 19.0011 4.37308 18.9345 4.37308 18.8657C4.37308 9.47613 11.827 1.86792 21.0179 1.86792C30.211 1.86792 37.6627 9.47724 37.6627 18.8657L37.6594 19.0655C36.7149 19.1265 35.8503 19.7314 35.5073 20.6803L31.7315 31.0266C31.6215 31.3298 31.5723 31.6518 31.5866 31.974C31.601 32.2963 31.6787 32.6126 31.8153 32.9048C32.0912 33.495 32.5903 33.9514 33.2027 34.1737C33.8151 34.3959 34.4907 34.3658 35.0809 34.0899C35.6711 33.814 36.1275 33.3149 36.3497 32.7025L40.1255 22.354C40.2914 21.8975 40.3181 21.4021 40.2021 20.9305C40.0861 20.4588 39.8327 20.0322 39.474 19.7047ZM41.4097 23.2497C41.1792 23.1665 40.9251 23.1783 40.7033 23.2823C40.4814 23.3864 40.3099 23.5742 40.2265 23.8046L37.1444 32.4217C37.0773 32.6476 37.099 32.8905 37.2051 33.1009C37.3111 33.3113 37.4935 33.4733 37.7149 33.5538C37.9364 33.6343 38.1802 33.6272 38.3966 33.5339C38.6129 33.4407 38.7856 33.2684 38.8791 33.0521L41.9624 24.4328C42.0457 24.2026 42.0343 23.9488 41.9306 23.727C41.827 23.5052 41.6397 23.3335 41.4097 23.2497Z" fill="#F6F6F6"/>
<path fill-rule="evenodd" clip-rule="evenodd" d="M31.465 18.5494C31.3119 18.5538 31.111 18.4717 31.0555 18.4628C31 18.4517 30.7947 18.3374 30.7947 18.3374C30.7947 18.3374 30.5028 18.0089 30.4328 17.9323C30.3629 17.8546 30.1443 17.5261 30.1776 17.657C30.2098 17.788 30.3907 17.9756 30.2797 17.889C30.1687 17.8024 30.0089 17.6903 30.0433 17.6137C30.0744 17.536 30.1021 17.4495 30.0433 17.4206C29.9822 17.3918 29.8934 17.4262 29.8879 17.354C29.8846 17.2808 29.899 17.1887 29.8435 17.1409C29.788 17.0932 29.7825 17.0588 29.8146 17.0588C29.8479 17.0588 30.0743 17.1254 30.0988 17.1509C30.121 17.1753 30.2653 17.3096 30.3352 17.3574C30.4051 17.4062 30.4839 17.5083 30.4517 17.4062C30.4184 17.3063 30.3585 17.2952 30.293 17.1454C30.2286 16.9966 30.1076 16.7935 30.1076 16.7935L30.0943 16.6825C30.0943 16.6825 30.172 16.5527 30.1076 16.5383C30.0433 16.5238 30.0854 16.3895 30.1165 16.374C30.1498 16.3596 30.0843 16.1909 30.061 16.1431C30.0388 16.0943 30.1676 15.8346 30.0388 15.9456C29.9079 16.0566 29.8391 16.2053 29.7725 16.0943C29.7081 15.9833 29.8524 15.8102 29.778 15.7702C29.7037 15.7325 29.5682 15.6459 29.5682 15.5982C29.5682 15.5494 29.5494 15.3562 29.5039 15.3562C29.4561 15.3562 29.2009 15.3562 29.1731 15.3807C29.1443 15.4051 28.8712 15.6359 28.8013 15.7181C28.7314 15.8002 28.4806 16.0566 28.4617 16.0843C28.4439 16.1143 28.3452 16.0899 28.3507 16.2097C28.3524 16.3018 28.3381 16.3934 28.3085 16.4806C28.2941 16.5238 28.313 16.7158 28.2386 16.7747C28.1643 16.8324 28.1088 16.8912 28.0621 16.8712C28.0155 16.8524 27.9778 16.6881 27.9223 16.5571C27.8668 16.4273 27.8302 16.2053 27.778 16.162C27.7281 16.1176 27.667 16.0999 27.6626 16.0266C27.657 15.9545 27.606 15.6692 27.606 15.6359C27.606 15.6026 27.6437 15.4251 27.606 15.4428C27.5694 15.4628 27.3651 15.4628 27.3651 15.4628C27.3651 15.4628 27.2397 15.3074 27.2253 15.2697C27.2109 15.2297 26.9789 15.0111 26.8812 15C26.7836 14.9889 26.5649 15.0488 26.5272 15.0333C26.4906 15.0188 26.1609 15.0288 26.1232 14.9756C26.0866 14.9223 25.9689 14.768 25.9423 14.798C25.9145 14.8257 25.859 14.879 25.798 14.8413C25.7381 14.8013 25.3097 14.5083 25.2875 14.4794C25.263 14.4506 25.1876 14.4206 25.1676 14.4373C25.1465 14.455 25.1465 14.4928 25.1565 14.5094C25.1654 14.5261 25.2098 14.596 25.2231 14.6248C25.2364 14.6537 25.3552 14.8335 25.3785 14.8635C25.4007 14.8923 25.4806 14.839 25.5061 14.9067C25.5316 14.9733 25.4706 15.0333 25.525 15.0999C25.5782 15.1642 25.6027 15.0832 25.6515 15.0865C25.7014 15.0888 25.7847 15.0621 25.8047 15.0388C25.8269 15.0144 25.9179 14.8779 25.9489 14.9056C25.9789 14.9356 26.0111 14.9234 26.02 14.9778C26.03 15.0333 26.0322 15.0832 26.0488 15.0888C26.1135 15.11 26.1745 15.1411 26.2297 15.1809C26.2741 15.2208 26.3385 15.243 26.3452 15.2719C26.3518 15.3008 26.2675 15.5682 26.2308 15.5682C26.1931 15.5682 26.0954 15.5405 26.1143 15.5926C26.1332 15.6459 26.1842 15.6748 26.1365 15.7136C26.091 15.7525 25.9978 15.7802 25.9556 15.8346C25.9145 15.8868 25.7281 15.94 25.5616 16.0499C25.394 16.1609 25.101 16.3019 25.0588 16.3107C25.0178 16.3218 24.7813 16.3973 24.7536 16.3196C24.7247 16.2419 24.576 15.9145 24.576 15.9145C24.576 15.9145 24.2597 15.6437 24.2786 15.5272C24.2974 15.4117 24.2974 15.3052 24.2231 15.2375C24.1487 15.1698 23.9722 14.8124 23.9445 14.7636C23.9156 14.717 23.8779 14.5238 23.8502 14.475C23.8224 14.4262 23.8091 14.5882 23.8135 14.6271C23.8191 14.6648 23.7536 14.6326 23.737 14.6004C23.7203 14.5693 23.6448 14.4928 23.6448 14.5083C23.6448 14.5205 23.707 14.6293 23.7192 14.647C23.7303 14.6637 23.7558 14.6748 23.7747 14.7336C23.7924 14.7935 23.8324 14.9112 23.8524 14.9534C23.8746 14.9978 23.9811 15.2541 23.9911 15.2675C24 15.2786 24.0355 15.3951 24.0588 15.4828C24.0821 15.5682 24.1654 15.7769 24.1942 15.8102C24.222 15.8435 24.4595 15.94 24.4495 15.9878C24.4406 16.0366 24.4217 16.0943 24.4728 16.1343C24.5239 16.1709 24.5616 16.3163 24.5982 16.3895C24.636 16.4617 24.6726 16.5571 24.7758 16.5416C24.8779 16.5283 25.5605 16.3696 25.5239 16.4861C25.4872 16.6015 25.3563 17.0211 25.2719 17.1165C25.1887 17.2142 24.97 17.3862 24.8635 17.4972C24.7558 17.6082 24.3996 17.9811 24.3441 18.0877C24.2886 18.1931 24.3585 18.3429 24.3374 18.4317C24.3174 18.5205 24.3008 18.5616 24.3174 18.586C24.333 18.6082 24.4439 18.7946 24.4395 18.8746C24.4351 18.9534 24.3707 19.3984 24.3285 19.4317C24.2863 19.465 24.0078 19.6537 23.97 19.707C23.9334 19.7602 23.8257 19.8179 23.8402 19.8812C23.8546 19.9434 23.9378 19.9622 23.9234 20.0299C23.9101 20.0965 23.8646 20.344 23.818 20.3773C23.7703 20.4106 23.6737 20.4306 23.6737 20.4983C23.6737 20.5649 23.6737 20.6037 23.6404 20.6615C23.6082 20.7192 23.5805 20.748 23.5239 20.8457C23.4684 20.9411 23.4084 21.071 23.3618 21.1454C23.2719 21.2664 23.1495 21.3595 23.0089 21.414C22.869 21.4528 22.6915 21.4428 22.5905 21.4916C22.4883 21.5405 22.3996 21.5405 22.3718 21.5582C22.3441 21.5782 22.2364 21.5582 22.2175 21.5161C22.1987 21.4717 22.1176 21.3707 22.1176 21.3707C22.1099 21.313 22.1465 21.1975 22.091 21.111C22.0355 21.0222 21.9423 20.7724 21.8757 20.667C21.8126 20.551 21.7779 20.4217 21.7747 20.2896C21.7747 20.1831 21.7969 20.1198 21.7814 20.0766C21.7647 20.0322 21.7037 19.9733 21.7014 19.9367C21.692 19.869 21.6694 19.8037 21.6348 19.7447C21.6016 19.7036 21.4795 19.6071 21.4939 19.5527C21.5072 19.4972 21.5649 19.1121 21.5794 19.0921C21.5949 19.0721 21.7625 18.9456 21.7458 18.8768C21.7292 18.8069 21.6815 18.7269 21.6693 18.7059C21.6582 18.6837 21.6293 18.6115 21.6393 18.5904C21.6493 18.5682 21.6693 18.5349 21.6504 18.5116C21.62 18.4661 21.5939 18.4178 21.5727 18.3673C21.5671 18.3451 21.5394 18.1676 21.4606 18.0865C21.3818 18.0044 21.1587 17.9312 21.2009 17.8257C21.242 17.7192 21.2786 17.5649 21.2786 17.5216C21.2786 17.4772 21.3629 17.3352 21.3019 17.2952C21.242 17.2564 21.1853 17.2042 21.1299 17.2142C21.0744 17.2231 21.0044 17.2475 20.9678 17.2142C20.9301 17.1809 20.838 17.0499 20.7913 17.0399C20.7447 17.0288 20.6093 17.0111 20.6093 17.0111C20.6093 17.0111 20.5083 17.0344 20.4517 17.0777C20.3962 17.1221 20.2797 17.2142 20.1876 17.1887C20.0943 17.1665 19.9689 17.1554 19.9123 17.1809C19.8568 17.2031 19.6659 17.2519 19.5827 17.2608C19.4983 17.2719 19.0155 16.8746 18.9689 16.7991C18.9223 16.7214 18.8302 16.5039 18.7869 16.465C18.7458 16.4273 18.5871 16.3696 18.6016 16.283C18.6247 16.1664 18.6555 16.0515 18.6937 15.9389C18.7092 15.9112 18.7547 15.5871 18.7359 15.5105C18.717 15.4328 18.6804 15.2697 18.7037 15.2508C18.727 15.2297 18.9323 14.8313 19.0144 14.7536C19.0988 14.677 19.3119 14.5116 19.3119 14.5116C19.3119 14.5116 19.2952 14.4683 19.3407 14.3784C19.3873 14.2863 19.3962 14.1842 19.4573 14.1221C19.5172 14.0588 19.6049 13.9922 19.6659 13.9178C19.7107 13.8701 19.7467 13.8149 19.7725 13.7547C19.778 13.7314 19.8013 13.6681 19.8335 13.717C19.8657 13.7647 19.9356 13.7602 19.9723 13.7602C20.01 13.7602 20.2242 13.7547 20.2841 13.7314C20.3441 13.707 20.4506 13.6104 20.5039 13.606C20.5538 13.6004 20.7447 13.5571 20.8923 13.5471C21.0422 13.5383 21.2741 13.4761 21.3441 13.5094C21.414 13.5427 21.4972 13.576 21.4739 13.6004C21.4517 13.6248 21.3862 13.6781 21.4373 13.7647C21.4883 13.8513 21.4972 13.9678 21.5261 14.02C21.5538 14.0743 21.5771 14.0932 21.6593 14.0976C21.7436 14.1032 21.8091 14.0588 21.8746 14.1409C21.939 14.2242 22.1299 14.2996 22.2686 14.3285C22.4084 14.3585 22.4695 13.9955 22.5993 14.0688C22.7303 14.1409 22.8235 14.2242 22.9578 14.253C23.0921 14.2808 23.3208 14.2663 23.3208 14.2663C23.3208 14.2663 23.3762 14.1609 23.4828 14.2419C23.5893 14.3241 23.6038 14.3429 23.6693 14.3085C23.7336 14.2752 23.818 14.2175 23.818 14.2175C23.818 14.2175 23.8035 14.0355 23.8402 13.9478C23.8779 13.8612 23.9201 13.7747 23.929 13.7514C23.939 13.7258 23.9667 13.606 23.8868 13.6204C23.8091 13.6348 23.7247 13.7225 23.6826 13.6925C23.6415 13.6637 23.5605 13.596 23.5017 13.6293C23.4406 13.6626 23.3574 13.6981 23.3241 13.6925C23.2314 13.7088 23.1398 13.731 23.0499 13.7591C23.0499 13.7591 22.9578 13.6592 22.9667 13.6004C22.9756 13.5438 23.0222 13.5094 23.0133 13.4517C23.0044 13.3929 22.9478 13.3318 22.98 13.273C23.0133 13.2153 23.0599 13.0899 23.0877 13.0754C23.1154 13.061 22.9012 13.1387 22.8779 13.1476C22.8557 13.1587 22.8602 13.283 22.8368 13.283C22.8135 13.283 22.6648 13.1387 22.6459 13.1764C22.6271 13.2153 22.6326 13.283 22.6604 13.3651C22.687 13.4461 22.5805 13.5338 22.5805 13.5338C22.5805 13.5338 22.4362 13.4373 22.4362 13.404C22.4362 13.3696 22.3163 13.0899 22.3208 13.0655C22.3252 13.041 22.2686 12.9545 22.242 12.9256C22.2131 12.8968 21.9068 12.7147 21.8457 12.6559C21.7858 12.5971 21.6748 12.3807 21.6515 12.4151L21.5816 12.515C21.5816 12.515 21.6193 12.5971 21.6515 12.6215C21.6848 12.6459 21.6792 12.7281 21.8135 12.8157C21.9489 12.9012 22.1953 13.081 22.2131 13.1043C22.2331 13.1287 22.2042 13.2397 22.2042 13.2397C22.2042 13.2397 22.0511 13.1232 22.0511 13.1665C22.0511 13.2109 22.1343 13.2919 22.1121 13.3163C22.0877 13.3407 21.939 13.5005 21.9156 13.4761C21.8935 13.4517 21.8679 13.4806 21.8735 13.4994C21.879 13.5183 21.8713 13.5771 21.8368 13.586C21.8013 13.5938 21.5538 13.4706 21.5838 13.4528C21.6508 13.4302 21.72 13.4146 21.7902 13.4062C21.8302 13.404 21.8824 13.4706 21.8879 13.4339C21.8943 13.3935 21.9055 13.354 21.9212 13.3163C21.9312 13.2996 21.9623 13.2663 21.9212 13.2275C21.8824 13.1887 21.5194 12.9445 21.4861 12.8968C21.4161 12.79 21.3405 12.687 21.2597 12.5882C21.2196 12.607 21.1822 12.6313 21.1487 12.6604C21.1221 12.6814 20.9933 12.8291 20.9267 12.8002C20.8635 12.7713 20.7381 12.6748 20.6981 12.7414C20.6593 12.8091 20.6537 12.8268 20.687 12.8546C20.7203 12.8846 20.7003 12.9223 20.6915 12.9345C20.6815 12.9456 20.6249 12.9478 20.5849 13.0089C20.545 13.0688 20.4761 13.0999 20.4495 13.1187C20.4251 13.1383 20.4049 13.1625 20.3901 13.1899C20.3752 13.2174 20.366 13.2475 20.3629 13.2786C20.3585 13.3607 20.3818 13.3163 20.3496 13.3751C20.3163 13.4328 20.2608 13.5383 20.1831 13.5716C20.1032 13.6049 19.9501 13.586 19.9168 13.6104C19.8835 13.6359 19.8191 13.6803 19.8091 13.6703C19.7738 13.6406 19.7405 13.6088 19.7092 13.5749C19.6981 13.5594 19.6204 13.5272 19.5982 13.5372C19.5738 13.5483 19.4628 13.4817 19.4606 13.4639C19.4584 13.4439 19.3674 13.2253 19.394 13.1598C19.4184 13.0954 19.4706 12.9733 19.4673 12.9267C19.465 12.8823 19.4317 12.8046 19.4317 12.8046C19.4317 12.8046 19.3907 12.7336 19.4395 12.7081C19.4872 12.6837 19.5172 12.6304 19.5549 12.6448C19.5901 12.6577 19.6275 12.663 19.6648 12.6604C19.7048 12.6604 19.7814 12.6348 19.8058 12.647C19.8471 12.6711 19.8945 12.6827 19.9423 12.6803C20.0033 12.6726 20.1809 12.6781 20.1909 12.6659C20.2009 12.6548 20.2764 12.4772 20.2486 12.3995C20.2209 12.323 20.2164 12.2275 20.1743 12.2031C20.1332 12.1798 19.8746 11.9256 19.8746 11.9256C19.8746 11.9256 19.9267 11.8879 19.9545 11.8834C19.9822 11.879 20.1987 11.9756 20.1709 11.9389C20.1421 11.9023 20.1265 11.8002 20.1487 11.7947C20.1709 11.7891 20.2675 11.7869 20.2875 11.7869C20.3097 11.7869 20.4495 11.7436 20.4684 11.7125C20.5017 11.6534 20.5408 11.5976 20.5849 11.546C20.6104 11.5283 20.6226 11.4717 20.6892 11.4284C20.7558 11.3862 20.8613 11.1043 20.8613 11.1043C20.8613 11.1043 20.9623 10.9123 20.9767 10.9334C20.9911 10.9556 20.9423 11.1165 20.9834 11.0965C21.0255 11.0788 21.0555 11.0299 21.0733 11.0055C21.0921 10.9811 21.1476 10.8357 21.1276 10.7558C21.1054 10.6759 21.1354 10.505 21.1676 10.4861C21.2009 10.465 21.3485 10.2974 21.3629 10.3452C21.3762 10.3929 21.4595 10.6026 21.5072 10.566C21.5527 10.5305 21.5427 10.515 21.5361 10.4928C21.5305 10.4717 21.4872 10.3929 21.4761 10.3518C21.465 10.3119 21.4373 10.0988 21.4295 10.0932C21.4218 10.0866 21.3851 10.0688 21.3563 10.0999C21.3285 10.1298 21.2564 10.2275 21.192 10.2708C21.1299 10.3119 21.0477 10.3041 21.0311 10.3041C21.0133 10.3019 20.7791 9.99332 20.7913 9.93561C20.8024 9.879 20.8468 9.88011 20.8235 9.85459C20.7989 9.82423 20.7842 9.78704 20.7814 9.74804C20.7847 9.72251 20.778 9.62595 20.7925 9.61485C20.8091 9.60154 20.8568 9.43949 20.8835 9.40398C20.9123 9.37068 21.0333 9.16868 21.0888 9.11985C21.1443 9.07212 21.2741 8.93117 21.3074 8.93117C21.3396 8.93117 21.354 8.92784 21.3862 8.84016C21.4195 8.75359 21.4883 8.81685 21.4883 8.72917C21.4883 8.64371 21.4883 8.5072 21.5117 8.49277C21.535 8.47945 21.5716 8.3396 21.6193 8.30631C21.6712 8.25514 21.7159 8.19729 21.7525 8.13428C21.7647 8.10986 21.8224 8.01996 21.8135 8.00331C21.8069 7.98777 21.7902 7.93228 21.7647 7.95226C21.7381 7.97113 21.697 7.99554 21.6826 8.00997C21.6681 8.0244 21.6271 7.99554 21.6204 8.04771C21.6149 8.09987 21.6493 8.11985 21.6371 8.12207C21.626 8.12207 21.5927 8.12762 21.5749 8.11097C21.556 8.09543 21.535 8.02995 21.5749 7.98444C21.616 7.94005 21.697 7.87124 21.7148 7.84904C21.7325 7.83017 21.7436 7.74693 21.7902 7.70476C21.8368 7.66036 21.9034 7.58489 21.9168 7.58933C21.9312 7.59044 21.9656 7.59821 22.0078 7.56935C22.0499 7.54049 22.1188 7.46058 22.1465 7.44726C22.1754 7.43284 22.1609 7.39843 22.1887 7.36069C22.2164 7.32185 22.2553 7.26413 22.2841 7.28078C22.3141 7.29743 22.3885 7.27079 22.4118 7.29299C22.4351 7.31519 22.4451 7.29965 22.4739 7.27634C22.4928 7.2597 22.5139 7.23195 22.535 7.20975C22.8202 7.2486 23.101 7.30187 23.3785 7.36513C23.323 7.42174 23.3341 7.44615 23.3341 7.44615C23.3341 7.44615 23.3762 7.53494 23.4506 7.47168C23.5239 7.40842 23.5616 7.43617 23.6126 7.47168C23.6648 7.50498 23.8269 7.51497 23.8823 7.56824C23.9378 7.62041 24.0932 7.69699 24.162 7.76802C24.2309 7.84238 24.2919 7.95892 24.3285 7.9911C24.3663 8.02551 24.4317 8.0355 24.4639 8.10209C24.4972 8.16868 24.4495 8.23195 24.4362 8.28633C24.3985 8.35525 24.3457 8.4148 24.2819 8.46058C24.2542 8.4739 24.1887 8.5072 24.1654 8.49943C24.1432 8.48833 24.0544 8.4739 24.0044 8.44393C23.902 8.40497 23.7975 8.37163 23.6915 8.34404C23.6915 8.34404 23.6082 8.33073 23.6459 8.39732C23.6826 8.46502 23.7802 8.49943 23.7802 8.49943C23.7802 8.49943 23.8868 8.47945 23.8402 8.56602C23.7947 8.6537 23.7802 8.64815 23.8035 8.69144C23.8257 8.73583 23.8213 8.79576 23.8302 8.82462C23.8402 8.85237 23.8602 8.87679 23.9012 8.90897C23.9434 8.94005 23.9967 8.94005 23.9967 8.98333C23.9967 9.02662 24.0344 9.03106 24.0511 9.03106C24.0666 9.03106 24.1265 8.91563 24.1032 8.90342L23.9811 8.8446C23.9301 8.81796 23.9456 8.78356 23.9501 8.74471C23.9556 8.70697 23.9689 8.63372 24.0533 8.70475C24.1365 8.7769 24.1698 8.77468 24.1942 8.80797C24.2164 8.84127 24.2275 8.93783 24.2708 8.89232C24.3119 8.84682 24.333 8.79576 24.3263 8.75026C24.3196 8.70475 24.2542 8.687 24.2653 8.64704C24.2764 8.60598 24.414 8.48944 24.4506 8.46169C24.5042 8.39805 24.549 8.3275 24.5838 8.25192C24.5893 8.22973 24.6482 8.20087 24.6415 8.29743C24.6348 8.39399 24.6249 8.39177 24.6548 8.41175C24.6859 8.43061 24.6992 8.49943 24.7136 8.49832C24.727 8.49499 24.7758 8.37845 24.7669 8.33406C24.7569 8.28966 24.7525 8.25636 24.7159 8.23084C24.6781 8.2042 24.6348 8.20087 24.6704 8.1365C24.7037 8.07212 24.7336 8.0244 24.7336 8.0244C24.7336 8.0244 24.7225 7.97335 24.7059 7.91785C24.6968 7.87564 24.6795 7.83564 24.6548 7.80021C24.6326 7.77135 24.7436 7.77135 24.7791 7.79577C24.8124 7.81907 24.9012 7.8335 24.9356 7.87346C24.97 7.91008 25.0022 7.95892 24.9911 7.99554C24.98 8.03106 24.9656 8.04105 24.9101 8.08211C24.8546 8.12207 24.8202 8.10431 24.8435 8.13872C24.8657 8.17201 24.8823 8.16757 24.9145 8.22085C24.9478 8.27301 25.0588 8.23528 25.1043 8.14649C25.1509 8.0577 25.1099 8.06436 25.2064 8.00553C25.2186 7.99776 25.2353 7.98333 25.2486 7.97224C26.7918 8.63967 28.1561 9.66103 29.2313 10.9537C30.3064 12.2463 31.0621 13.7739 31.4373 15.4128C31.3951 15.4239 31.3096 15.4228 31.3341 15.4572C31.3618 15.4983 31.4284 15.6604 31.3862 15.7158C31.344 15.7702 31.1753 15.7691 31.1776 15.7125C31.182 15.657 31.3463 15.5216 31.3185 15.4794C31.2919 15.4373 31.2874 15.4262 31.2775 15.4262C31.2686 15.4262 31.2109 15.4073 31.182 15.4084C31.1509 15.4106 31.1054 15.4683 31.071 15.5061C31.0377 15.546 30.9611 15.606 30.9456 15.6348C30.929 15.6637 30.8546 15.7436 30.8712 15.7625C30.8879 15.7847 31.0155 15.8657 31.0155 15.8657C31.0155 15.8657 31.0821 15.9178 31.0932 15.94C31.1065 15.9622 31.3729 16.3318 31.354 16.3596C31.3341 16.3895 31.2797 16.3818 31.232 16.4806C31.1864 16.5771 30.9489 16.7247 30.8701 16.7647C30.7902 16.8035 30.7258 16.8424 30.748 16.7891C30.7714 16.7358 30.8002 16.6925 30.7159 16.6248C30.6326 16.5582 30.4883 16.3651 30.424 16.3984C30.3585 16.4317 30.2464 16.354 30.2752 16.4373C30.3019 16.5205 30.2009 16.4373 30.2652 16.5416C30.3318 16.6493 30.4328 16.5915 30.3818 16.6692C30.3307 16.7469 30.2464 16.7613 30.3019 16.8424C30.3585 16.9245 30.3773 16.9722 30.4739 17.0555C30.5727 17.1354 30.7125 17.1554 30.6981 17.2852C30.6837 17.4162 30.7125 17.5649 30.7125 17.5649C30.7125 17.5649 30.5161 17.445 30.5538 17.5594C30.5916 17.677 30.6792 17.7092 30.7025 17.7436C30.7247 17.7791 30.8246 17.8601 30.8701 17.9178C30.9167 17.9756 31.0277 17.889 31.0699 17.94C31.1121 17.9955 31.2608 18.091 31.232 18.1287C31.2053 18.1687 31.1443 18.1209 31.0743 18.081C31.0044 18.0433 30.8601 18.0144 30.889 18.1054C30.9167 18.1975 31.0333 18.2785 31.0843 18.313C31.1354 18.3463 31.2242 18.3274 31.3496 18.3418C31.4373 18.3529 31.5716 18.384 31.6826 18.4106C31.6803 18.4639 31.6803 18.5183 31.677 18.5704C31.6071 18.5571 31.5362 18.55 31.465 18.5494ZM25.2719 19.606C25.2249 19.7554 25.1896 19.9083 25.1665 20.0632C25.1554 20.1509 25.0444 20.3851 25.0222 20.4106C24.9978 20.4362 24.8724 20.5416 24.8402 20.5416C24.8069 20.5416 24.6737 20.5272 24.7148 20.4783C24.7558 20.4306 24.7658 20.4162 24.7481 20.3729C24.7292 20.3285 24.7014 20.1598 24.6815 20.1265C24.6637 20.0932 24.6914 19.9201 24.7292 19.8812C24.7658 19.8424 24.7625 19.808 24.7625 19.808C24.7847 19.7358 24.7014 19.5582 24.8124 19.4661C24.9234 19.374 25.202 19.031 25.2264 18.9889C25.2486 18.9445 25.3152 18.8535 25.3418 18.9112C25.3707 18.9678 25.3707 19.1243 25.3707 19.2497C25.3594 19.3731 25.3259 19.4945 25.2719 19.606ZM18.2297 9.06657C18.2153 9.01885 18.0943 9.06213 18.071 9.0244C18.0488 8.98555 18.0766 8.97556 18.1132 8.90342C18.1509 8.83017 18.02 8.87457 17.96 8.83683C17.96 8.83683 17.899 8.86458 17.8812 8.82129C17.8624 8.77912 18.081 8.71585 18.081 8.71585C18.081 8.71585 17.9223 8.69144 17.9034 8.66258C17.8857 8.63261 17.9545 8.46946 18.0666 8.3729C18.1776 8.27634 18.1509 8.45503 18.1509 8.45503C18.1509 8.45503 18.2808 8.53272 18.3696 8.52274C18.4782 8.49676 18.5817 8.45287 18.6759 8.39288C18.7592 8.34404 18.8524 8.48389 18.9501 8.59488C19.0477 8.70586 18.9401 8.77246 18.899 8.83572C18.8579 8.89898 18.5738 9.09099 18.5738 9.09099C18.5738 9.09099 18.2442 9.11541 18.2297 9.06657ZM17.2586 7.9345C17.1931 7.95337 17.1343 7.8901 17.0977 7.84127C17.3196 7.7547 17.5438 7.67257 17.7736 7.59932C17.5683 7.74582 17.3163 7.91674 17.2586 7.9345ZM16.7836 8.40842C16.7281 8.44615 16.737 8.5638 16.6815 8.47501C16.626 8.38955 16.4673 8.65037 16.4118 8.66036C16.3563 8.66924 16.2897 8.87124 16.3086 8.9689C16.3274 9.06546 16.1865 9.17978 16.1132 9.27856C16.0389 9.37401 15.9356 9.93561 15.9356 9.93561C15.939 9.94005 15.8912 9.96003 15.8912 9.96003C15.8912 9.96003 15.8313 9.88233 15.8058 9.80353C15.7791 9.72473 15.7359 9.79909 15.7081 9.74138C15.6804 9.68367 15.5383 9.7891 15.515 9.72473C15.4928 9.65814 15.566 9.71363 15.5871 9.61818C15.6093 9.52162 15.2475 9.14316 15.2009 9.05548C15.1543 8.9689 15.1731 8.94005 15.3407 8.89232C15.4739 8.85348 15.3441 8.81463 15.2653 8.7769C15.8364 8.41188 16.441 8.1023 17.071 7.85237C17.0777 7.8883 17.0905 7.92283 17.1088 7.95448C17.1565 8.03217 16.8391 8.36957 16.7836 8.40842ZM16.8557 18.6526C16.8335 18.6748 16.7814 18.7136 16.7647 18.7303C16.7481 18.7458 16.7059 18.8091 16.6737 18.8113C16.6426 18.8146 16.6071 18.9145 16.5838 18.9489C16.5605 18.9822 16.5139 18.99 16.4861 19C16.4595 19.0089 16.4728 19.5183 16.4539 19.5549C16.436 19.62 16.4274 19.6872 16.4284 19.7547C16.4284 19.7958 16.384 19.8213 16.3274 19.8623C16.2686 19.9034 16.3074 20.0044 16.273 20.0577C16.2386 20.111 16.2453 20.0987 16.2087 20.1398C16.1709 20.1809 16.1554 20.1509 16.1088 20.1476C16.0354 20.1582 15.9647 20.1823 15.9001 20.2186C15.8413 20.2497 15.7858 20.2164 15.7347 20.2519C15.6848 20.2885 15.6215 20.3851 15.5616 20.4084C15.5017 20.4306 15.5216 20.6226 15.5194 20.6781C15.5172 20.7336 15.5172 20.7636 15.5105 20.798C15.5039 20.8313 15.4218 20.8579 15.4018 20.8945C15.3796 20.9312 15.3574 21.041 15.3197 21.0788C15.273 21.1291 15.2306 21.1833 15.1931 21.2408C15.1532 21.303 15.1165 21.3851 15.0655 21.4506C15.0144 21.5149 14.9012 21.5582 14.8879 21.5627C14.8724 21.5682 14.7092 21.5849 14.6693 21.6126C14.6293 21.6426 14.7525 21.7713 14.7525 21.7713C14.7525 21.7713 14.6526 21.9478 14.6371 22.0044C14.6215 22.0632 14.2686 22.0743 14.2175 22.0932C14.1665 22.1143 14.1876 22.2874 14.1587 22.3396C14.1321 22.3918 13.9434 22.3918 13.8923 22.4217C13.8413 22.4506 14.0455 22.4961 14.0533 22.5849C14.0588 22.6737 13.9645 22.6492 13.8923 22.7047C13.8202 22.7602 13.8813 22.9045 13.8657 22.9145C13.848 22.9234 13.7714 22.98 13.7148 22.9733C13.6559 22.97 13.6626 23.0211 13.6537 23.0743C13.6448 23.1298 13.7536 23.1909 13.7791 23.2253C13.8047 23.2586 13.8235 23.3618 13.8135 23.3862C13.781 23.4378 13.7355 23.4799 13.6815 23.5083C13.6149 23.5438 13.6604 23.5871 13.6593 23.6581C13.6559 23.7269 13.505 23.8068 13.4795 23.8379C13.4551 23.869 13.5794 23.9711 13.5816 24.0155C13.5838 24.0588 13.5771 24.1098 13.5982 24.1354C13.6182 24.162 13.5816 24.1909 13.5771 24.2375C13.5727 24.2819 13.6904 24.384 13.7236 24.4173C13.7569 24.4506 13.8235 24.4728 13.9079 24.4794C13.9945 24.4861 14.03 24.4894 14.0411 24.5272C14.0411 24.5272 14.0411 24.5383 14.0167 24.5482C13.9916 24.5573 13.9641 24.5573 13.939 24.5482C13.9179 24.5416 13.9134 24.526 13.8579 24.5227C13.8024 24.5205 13.737 24.667 13.7114 24.6848C13.6859 24.7003 13.6848 24.728 13.6604 24.7691C13.6382 24.8102 13.6127 24.738 13.5494 24.6914C13.4872 24.6459 13.4384 24.6626 13.3574 24.6259C13.2764 24.5904 13.242 24.6026 13.2275 24.5949C13.2142 24.5882 13.1976 24.5671 13.1976 24.5671C13.1976 24.5671 13.192 24.5671 13.1887 24.5494C13.1831 24.5327 13.1976 24.4916 13.1465 24.4539C13.0955 24.4151 12.8579 24.0388 12.8491 24.01C12.8402 23.9822 12.8102 23.9678 12.8124 23.9467C12.8147 23.9245 12.8457 23.8734 12.8424 23.8424C12.8402 23.8124 12.8169 23.7913 12.8169 23.7192C12.8169 23.647 12.8613 23.6526 12.8657 23.6071C12.8702 23.5616 12.8413 23.4495 12.8369 23.4017C12.8324 23.354 12.879 23.3485 12.8968 23.2619C12.9157 23.1753 12.8835 23.1653 12.8413 23.2364C12.8002 23.3096 12.8324 23.4395 12.7758 23.3096C12.7203 23.1798 12.8224 23.1653 12.8602 23.0921C12.8979 23.0211 12.8513 23.0544 12.8513 22.9811C12.8513 22.909 12.8735 22.9478 12.8924 22.9234C12.9112 22.9001 12.9068 22.8801 12.8646 22.7835C12.8224 22.6881 12.9023 22.6881 12.9401 22.6282C12.9756 22.5716 12.9623 22.475 12.9623 22.3696C12.9623 22.263 12.9667 22.243 12.9667 22.2042C12.9667 22.1664 13.0411 22.1332 13.0366 22.0932C13.0322 22.0555 13.0044 21.9977 12.9933 21.9622C12.9823 21.9245 13.0022 21.94 13.0211 21.9112C13.04 21.8812 13.0022 21.8779 12.9911 21.849C12.98 21.8202 13.0089 21.7835 13.0577 21.6881C13.1066 21.5915 13.1421 21.4717 13.1554 21.4306C13.1698 21.3895 13.1643 21.3252 13.1809 21.2963C13.1976 21.2674 13.1887 21.2475 13.1743 21.2075C13.1622 21.1503 13.1592 21.0915 13.1654 21.0333C13.1698 21.0222 13.2209 20.9756 13.2231 20.9556C13.2253 20.9367 13.2431 20.8512 13.2364 20.808C13.2298 20.7636 13.1476 20.7713 13.1343 20.7136C13.121 20.6548 13.2486 20.6892 13.2486 20.6892C13.2486 20.6892 13.2764 20.4162 13.2852 20.3962C13.2993 20.3429 13.3071 20.2881 13.3086 20.233C13.3135 20.1759 13.3254 20.1196 13.3441 20.0655C13.3529 20.0377 13.3496 20.0355 13.3341 19.9567C13.3184 19.8491 13.3203 19.7396 13.3396 19.6326C13.3574 19.5072 12.9012 19.3995 12.7714 19.2364C12.6404 19.0721 12.6304 19.0721 12.5561 18.7736C12.4817 18.4739 12.2675 18.3574 12.2309 18.2508C12.1931 18.1454 12.3419 17.99 12.3419 17.99C12.3419 17.99 12.2886 17.7625 12.3119 17.6859C12.3341 17.6082 12.545 17.3762 12.6504 17.2419C12.7581 17.1076 12.6371 17.0344 12.6371 16.9578C12.6371 16.8801 12.5816 16.9289 12.4983 16.8712C12.414 16.8135 12.404 16.899 12.3119 16.9378C12.2187 16.9767 12.0977 16.8857 12.0833 16.8601C12.0688 16.8379 11.8369 16.6925 11.7858 16.6193C11.7347 16.5483 11.7159 16.5338 11.6471 16.3696C11.5771 16.2053 11.5172 16.3363 11.4839 16.3107C11.4506 16.2874 11.2986 16.2242 11.2564 16.1853C11.2142 16.1476 11.1399 16.0466 11.0566 16.0466C10.9723 16.0466 10.9767 15.9744 10.9445 15.9545C10.9112 15.9356 10.8147 16.0266 10.778 16.081C10.7425 16.1309 10.5805 16.0022 10.4806 15.9511C10.5194 15.7281 10.5638 15.5072 10.616 15.2908C10.6193 15.3329 10.6215 15.3796 10.6271 15.4373C10.6571 15.8035 11.0655 15.7569 11.1399 15.7569C11.2142 15.7569 11.2786 15.5061 11.2886 15.4428C11.2986 15.3807 11.6282 15.3429 11.6837 15.3895C11.7392 15.4384 11.5771 15.7958 11.545 15.8057C11.5117 15.8146 11.5816 15.95 11.6604 16.0077C11.7403 16.0655 12.0555 16.1476 12.0644 16.1853C12.0744 16.2242 12.0189 16.5039 12.0189 16.566C12.0189 16.6304 12.1487 16.677 12.2786 16.7414C12.4084 16.8035 12.3574 16.6881 12.4184 16.697C12.4884 16.7084 12.5551 16.7349 12.6138 16.7747C12.636 16.8035 12.7536 16.7891 12.8091 16.6304C12.8646 16.4706 12.9712 16.4861 13.0278 16.4994C13.0832 16.5138 13.2364 16.364 13.2364 16.364C13.2364 16.364 13.283 16.4783 13.3019 16.5027C13.3208 16.5261 13.3407 16.414 13.3407 16.414C13.3407 16.414 13.6892 16.4284 13.707 16.4328C13.7259 16.4373 13.7736 16.5027 13.7492 16.5083C13.7236 16.5127 13.8535 16.5527 13.9001 16.5005C13.9467 16.4484 14.0133 16.5205 14.0777 16.5671C14.1432 16.6171 14.2642 16.5372 14.3185 16.5005C14.374 16.465 14.3418 16.6304 14.2775 16.6737C14.212 16.7181 14.5327 16.9267 14.5905 16.9955C14.6482 17.0655 14.616 17.1354 14.6104 17.2053C14.6071 17.2752 14.6737 17.5016 14.7225 17.5349C14.7714 17.5682 14.7736 17.4794 14.8113 17.4428C14.8524 17.4073 14.9423 17.4916 14.9889 17.515C15.0355 17.5394 15.091 17.3007 15.1476 17.2486C15.2031 17.1964 15.2531 17.4406 15.2697 17.4717C15.2864 17.5039 15.3663 17.5494 15.3652 17.5904C15.3629 17.6315 15.2841 17.7125 15.2508 17.7292C15.2198 17.7458 15.1765 17.818 15.1909 17.8379C15.2053 17.8568 15.3041 17.8291 15.3374 17.8024C15.3696 17.7758 15.4551 17.7225 15.4928 17.7602C15.5294 17.8002 15.4118 17.9145 15.4373 17.96C15.4617 18.0055 15.626 17.7691 15.6659 17.7391C15.7048 17.7092 15.8357 17.8235 15.8513 17.8313C15.8668 17.8379 15.8768 17.9145 15.8812 17.9511C15.8868 17.9867 15.909 17.9622 15.9301 17.9289C15.9512 17.8956 16.0089 17.9534 16.0511 17.9844C16.0921 18.0155 16.3174 17.9844 16.3907 17.9955C16.4662 18.0089 16.505 18.071 16.566 18.1332C16.626 18.1964 16.6393 18.182 16.6959 18.2153C16.7514 18.2486 16.8557 18.2863 16.8724 18.3229C16.8879 18.3585 16.8846 18.4362 16.8879 18.5427C16.8901 18.6492 16.8757 18.6315 16.8546 18.6526M12.3751 11.4905C12.3796 11.4928 12.3807 11.4972 12.3862 11.4983C12.4417 11.5127 12.4551 11.4362 12.4595 11.374C12.7814 10.9456 13.1365 10.5427 13.5161 10.1676C13.5421 10.1937 13.5703 10.2174 13.6005 10.2386C13.6837 10.2941 13.8668 9.9123 13.8946 9.8224C13.9223 9.73028 14.05 10.0222 14.05 10.0222C14.05 10.0222 14.1798 10.3607 14.2131 10.404C14.2464 10.4473 14.1898 10.5194 14.1898 10.5194C14.1898 10.5194 14.3197 10.7114 14.3529 10.7747C14.384 10.8368 14.4917 10.8268 14.566 10.9145C14.6404 11.0022 14.4218 11.0743 14.3618 11.1309C14.3019 11.1887 14.5438 11.0399 14.5949 11.0066C14.6448 10.9722 14.7381 11.0644 14.8036 11.1221C14.869 11.1798 14.778 11.3085 14.778 11.3207C14.778 11.3318 14.8446 11.4695 14.8357 11.4983C14.812 11.55 14.7818 11.5985 14.7458 11.6426C14.7181 11.6737 14.7569 11.7292 14.8258 11.7602C14.8957 11.7913 15.1054 11.9101 15.1276 12.0011C15.1509 12.0932 15.1354 12.1365 15.1066 12.1853C15.0799 12.2375 15.0233 12.2375 15.0233 12.2375C15.0233 12.2375 14.9656 12.2075 14.9434 12.1776C14.919 12.1443 14.8957 12.2075 14.8568 12.2752C14.818 12.3418 14.7736 12.3041 14.6859 12.2319C14.5971 12.1598 14.7714 12.1631 14.7869 12.1365C14.8036 12.1099 14.4861 12.0877 14.4517 12.0477C14.4162 12.0055 14.6293 11.5904 14.6138 11.5183C14.5971 11.4461 14.374 11.6937 14.3252 11.7336C14.2775 11.7758 14.1565 11.7225 14.0855 11.7025C14.0133 11.6837 14.1898 11.8113 14.212 11.8712C14.2353 11.9312 14.1154 11.8857 14.0755 11.8457C14.0366 11.8046 13.9989 11.7736 13.99 11.7414C13.9811 11.7103 13.6959 11.758 13.6793 11.8146C13.6626 11.869 14.0078 11.8457 14 11.8735C13.99 11.9034 13.9945 11.9711 13.99 12.0477C13.9845 12.1254 13.9245 12.0577 13.9245 12.0577C13.9245 12.0577 13.8779 12.1065 13.8779 12.192C13.8779 12.2808 13.9434 12.1975 13.9434 12.1975L14.1665 12.3085C14.1665 12.3085 14.2642 12.192 14.3063 12.1487C14.3474 12.1065 14.384 12.2697 14.4173 12.3329C14.4506 12.3951 14.3241 12.4051 14.273 12.4384C14.2231 12.4717 14.1476 12.505 14.0133 12.5782C13.8779 12.6504 13.8779 12.7047 13.8135 12.7225C13.747 12.7436 13.7581 12.6848 13.747 12.6115C13.7392 12.5394 13.828 12.4872 13.8502 12.4473C13.8724 12.4106 13.5161 12.6126 13.465 12.6748C13.4129 12.738 13.3341 12.8246 13.3019 12.8879C13.2686 12.95 13.4173 12.9256 13.4173 12.9778C13.4173 13.0311 13.2975 12.9989 13.2697 13.0366C13.242 13.0754 13.0644 13.1287 13.0278 13.1531C12.99 13.1764 12.9545 13.2952 12.9279 13.3385C12.9023 13.3818 12.8702 13.4239 12.8591 13.4739C12.848 13.5216 12.8036 13.5738 12.798 13.6182C12.7936 13.6604 12.8513 13.7225 12.8424 13.7591C12.8335 13.7946 12.7015 13.8746 12.6271 13.909C12.5527 13.9423 12.3552 14.1509 12.3163 14.1731C12.2775 14.1942 12.2608 14.3429 12.2586 14.4284C12.2564 14.5116 12.3441 14.5838 12.353 14.647C12.3618 14.7092 12.3862 14.7858 12.3862 14.8513C12.3862 14.9167 12.3674 15.0177 12.3485 15.0288C12.3308 15.0399 12.2719 15.0188 12.2597 15.0022C12.2178 14.9505 12.1807 14.8952 12.1487 14.8368C12.1099 14.7625 12.1265 14.7314 12.1221 14.6781C12.1165 14.6248 12.0588 14.596 12.0266 14.5571C11.9934 14.5183 11.9756 14.5405 11.929 14.5316C11.8835 14.5205 11.7492 14.5516 11.7048 14.4761C11.6604 14.4006 11.6415 14.4572 11.5716 14.4306C11.5028 14.404 11.4773 14.485 11.465 14.5027C11.454 14.5183 11.424 14.5471 11.3563 14.5627C11.2897 14.5771 11.2064 14.5172 11.1421 14.5005C11.0755 14.4828 11.0133 14.5227 10.9578 14.4972C10.9023 14.4717 10.8624 14.5627 10.8513 14.5638L10.8102 14.5816C11.1597 13.4727 11.6883 12.4286 12.3751 11.4905ZM19.2797 11.3429C19.3452 11.3252 19.4428 11.2963 19.4151 11.2231C19.3873 11.1498 19.2952 11.0788 19.3174 11.0344C19.3396 10.99 19.5361 10.9056 19.5361 10.9056C19.5361 10.9056 19.6804 10.8035 19.6837 10.8424C19.6892 10.8801 19.7503 10.8801 19.7503 10.9334C19.7503 10.9878 19.7125 11.1032 19.7125 11.1032C19.7125 11.1032 19.6992 11.1842 19.7026 11.2419C19.7081 11.3008 19.6804 11.3329 19.6804 11.3329C19.6615 11.3629 19.4384 11.5372 19.3962 11.4928C19.3552 11.4506 19.2153 11.3629 19.2797 11.3429ZM19.5827 10.2774C19.5827 10.2774 19.6615 10.2331 19.7026 10.2442C19.7447 10.2541 19.7725 10.2397 19.8058 10.2109C19.8462 10.1844 19.8899 10.1632 19.9356 10.1476L20.0333 10.1953C20.0333 10.1953 19.9723 10.263 19.9589 10.3063C19.9456 10.3507 20.0888 10.3507 20.172 10.4173C20.2564 10.4861 20.0522 10.5871 20.0244 10.6004C19.9956 10.616 20.2941 10.9778 20.3774 11.0266C20.4617 11.0743 20.4939 11.2608 20.4983 11.3041C20.5039 11.3485 20.4839 11.3818 20.4428 11.4262C20.4007 11.4695 20.4695 11.5372 20.4373 11.5904C20.404 11.6437 20.1354 11.6481 20.1354 11.6481C20.1354 11.6481 19.8147 11.7292 19.7358 11.6959C19.6559 11.6626 19.8713 11.556 19.9256 11.5028C19.9811 11.4506 19.8846 11.4639 19.8701 11.4306C19.8568 11.3973 19.8291 11.3873 19.8613 11.364C19.8946 11.3396 19.889 11.3329 19.9034 11.2131L19.9223 11.1565C19.9223 11.1565 20.0377 11.0455 20.0333 11.0011C20.0289 10.9567 19.889 11.0011 19.8613 10.9878C19.8335 10.9722 19.8613 10.9289 19.8801 10.8524C19.899 10.7747 19.8246 10.8413 19.8246 10.7969C19.8246 10.7558 19.6937 10.7847 19.7081 10.7558C19.7214 10.7258 19.6748 10.7258 19.6704 10.6781C19.6659 10.6304 19.7081 10.6692 19.7414 10.6115C19.7725 10.5527 19.6426 10.606 19.6426 10.606L19.6615 10.5527L19.5727 10.5094C19.5727 10.5094 19.6704 10.4173 19.6837 10.3929C19.6992 10.3707 19.5827 10.2786 19.5827 10.2786M21.0089 5.38844C14.3219 5.38844 8.90234 10.8091 8.90234 17.495C8.90234 19.7758 9.54274 21.9012 10.6393 23.7214H10.6338L21.0067 40.8956L31.0255 24.2941C32.3911 22.2899 33.1199 19.9202 33.1165 17.495C33.1165 10.8091 27.6959 5.38844 21.0078 5.38844" fill="#F6F6F6"/>
</svg>
