<svg width="180" height="45" viewBox="0 0 180 45" fill="none" xmlns="http://www.w3.org/2000/svg">
<path d="M18.0368 8.53287C18.0256 6.64601 18.0172 4.65837 18.0116 2.56995C18.0116 0.856662 18.8459 1.75965e-05 20.5144 1.75965e-05C26.4605 0.0168145 32.3954 0.0168145 38.3191 1.75965e-05C38.6124 -0.00115508 38.9029 0.0562956 39.1736 0.168993C39.4443 0.28169 39.6898 0.447361 39.8955 0.656269C40.1013 0.865178 40.2633 1.11311 40.3719 1.3855C40.4805 1.65788 40.5335 1.94923 40.5279 2.24241C40.4159 8.05415 40.4215 13.9667 40.5447 19.98C40.6511 25.2486 40.29 29.0223 39.4613 31.3011C34.5062 44.9403 18.6079 49.0891 7.44634 40.3379C1.37424 35.576 -0.213069 28.9328 0.0220885 21.0634C0.111672 17.872 0.131268 14.5882 0.0808775 11.212C0.0752921 10.9239 0.12743 10.6377 0.234241 10.3699C0.341052 10.1022 0.500391 9.85833 0.702936 9.65265C0.905481 9.44698 1.14717 9.2836 1.41385 9.17209C1.68053 9.06057 1.96686 9.00315 2.25608 9.00318H17.5749C17.8884 9.00318 18.0424 8.84641 18.0368 8.53287ZM32.7341 15.1425C33.5908 19.4173 30.3406 23.5157 25.9734 23.7593C21.9421 23.9861 18.2636 21.097 18.0536 16.8726C18.0032 15.8535 18.0032 14.8653 18.0536 13.9079C18.0648 13.5999 17.9164 13.446 17.6085 13.446H5.01918C4.67204 13.446 4.50407 13.6195 4.51527 13.9667C4.59926 17.1245 4.59646 20.2683 4.50687 23.3982C4.28011 31.3347 8.63052 37.9023 16.3991 40.002C26.3933 42.7147 35.9424 34.8369 36.0263 24.7923C36.0711 19.0981 36.0739 12.5053 36.0347 5.01391C36.0347 4.63318 35.8444 4.44281 35.4636 4.44281H22.8575C22.6 4.44281 22.474 4.57159 22.4796 4.82914L22.5132 8.60006C22.5137 8.66829 22.5288 8.73562 22.5575 8.79754C22.5862 8.85946 22.6277 8.91454 22.6794 8.95908C22.7311 9.00361 22.7918 9.03658 22.8572 9.05578C22.9227 9.07497 22.9915 9.07995 23.0591 9.07037C27.6111 8.41529 31.7599 10.3217 32.7341 15.1425ZM22.4964 13.8995C22.1521 16.4022 22.7064 20.0304 26.2001 19.1905C28.9884 18.5187 29.148 14.2438 26.2589 13.6055C25.2959 13.3928 24.1901 13.348 22.9415 13.4712C22.6784 13.4936 22.53 13.6363 22.4964 13.8995Z" fill="#F6F6F6"/>
<path d="M142.686 13.8996C144.584 13.8996 146.121 12.3617 146.121 10.4646C146.121 8.56751 144.584 7.02962 142.686 7.02962C140.789 7.02962 139.251 8.56751 139.251 10.4646C139.251 12.3617 140.789 13.8996 142.686 13.8996Z" fill="#F6F6F6"/>
<path d="M126.334 13.53C114.493 11.506 114.635 33.9635 126.754 31.3935C129.464 30.8169 131.091 29.0952 131.634 26.2285C131.656 26.1053 131.729 26.0437 131.852 26.0437H136.681C136.849 26.0437 136.922 26.1249 136.9 26.2873C136.051 33.2496 130.651 36.7686 124.084 36.2563C106.203 34.8705 108.832 5.49265 127.829 8.96962C133.199 9.94944 136.233 13.2304 136.933 18.8126C136.945 18.9246 136.894 18.9834 136.782 18.989L131.919 18.9974C131.746 18.9974 131.642 18.9162 131.609 18.7538C130.998 15.7696 129.24 14.0283 126.334 13.53Z" fill="#F6F6F6"/>
<path d="M62.3725 29.7476L69.2004 9.19649C69.2178 9.14551 69.2506 9.10117 69.2942 9.06958C69.3378 9.038 69.3901 9.02071 69.444 9.02012L74.2731 8.96973C74.3153 8.9697 74.3568 8.97992 74.3942 8.99951C74.4315 9.01909 74.4635 9.04745 74.4875 9.08215C74.5115 9.11685 74.5266 9.15685 74.5317 9.19871C74.5368 9.24057 74.5316 9.28304 74.5167 9.32246L65.0684 35.912C65.051 35.963 65.0183 36.0074 64.9746 36.0389C64.931 36.0705 64.8787 36.0878 64.8248 36.0884L59.3994 36.1052C59.3456 36.1046 59.2932 36.0873 59.2496 36.0557C59.206 36.0241 59.1732 35.9798 59.1559 35.9288L49.6824 9.33926C49.6691 9.3003 49.6652 9.25875 49.6711 9.21801C49.677 9.17728 49.6925 9.13852 49.7163 9.10491C49.74 9.07131 49.7714 9.04382 49.8079 9.0247C49.8443 9.00558 49.8848 8.99538 49.9259 8.99492L54.7719 8.98652C54.8257 8.98712 54.8781 9.0044 54.9217 9.03599C54.9653 9.06758 54.998 9.11191 55.0154 9.16289L61.8854 29.7476C61.9041 29.797 61.9374 29.8396 61.9809 29.8697C62.0244 29.8998 62.076 29.9159 62.1289 29.9159C62.1818 29.9159 62.2334 29.8998 62.277 29.8697C62.3205 29.8396 62.3538 29.797 62.3725 29.7476Z" fill="#F6F6F6"/>
<path d="M170.133 30.2262C170.217 30.5062 170.304 30.5062 170.393 30.2262L174.542 16.923C174.587 16.7718 174.688 16.6963 174.845 16.6963L179.808 16.7299C179.982 16.7299 180.038 16.811 179.976 16.9734C177.932 22.382 175.883 28.0118 173.828 33.8627C171.578 40.2792 169.948 45.5198 161.869 43.9493C161.707 43.9213 161.625 43.8233 161.625 43.6554L161.642 39.6913C161.642 39.6702 161.646 39.6493 161.655 39.6301C161.664 39.6108 161.677 39.5938 161.694 39.5801C161.711 39.5665 161.731 39.5566 161.752 39.5511C161.774 39.5456 161.797 39.5447 161.819 39.5485C164.831 40.2204 166.659 39.2966 167.303 36.777C167.374 36.5088 167.362 36.2248 167.269 35.9624L161.961 21.4078C161.866 21.1391 161.676 21.0047 161.39 21.0047H156.763C156.36 21.0047 156.164 21.209 156.175 21.6178C156.231 23.7174 156.225 25.9066 156.158 28.1854C156.099 30.1254 157.031 31.6707 159.114 31.7631C160.094 31.8079 160.819 31.7463 161.289 31.5784C161.771 31.4104 162.012 31.584 162.012 32.0991L162.003 35.3073C162.003 35.6936 161.816 35.9232 161.441 35.996C155.452 37.1046 150.581 34.5766 150.842 27.9166C150.926 25.677 150.931 23.4934 150.859 21.3658C150.847 21.1195 150.719 20.9963 150.472 20.9963L148.423 21.0131C148.312 21.0131 148.205 20.9697 148.126 20.8925C148.047 20.8154 148.003 20.7107 148.003 20.6015L147.995 17.0658C147.995 16.97 148.033 16.8782 148.1 16.8104C148.168 16.7427 148.26 16.7047 148.356 16.7047L150.749 16.7383C151.018 16.7438 151.152 16.6151 151.152 16.3519L151.161 11.38C151.161 11.2792 151.211 11.2289 151.312 11.2289L156.091 11.2372C156.158 11.2372 156.192 11.2708 156.192 11.338L156.2 16.142C156.2 16.5171 156.39 16.7047 156.771 16.7047L165.396 16.6963C165.749 16.6963 165.979 16.8642 166.085 17.2002L170.133 30.2262Z" fill="#F6F6F6"/>
<path d="M92.4303 26.388C92.4303 29.0387 91.3773 31.5807 89.503 33.455C87.6288 35.3293 85.0867 36.3822 82.4361 36.3822C79.7855 36.3822 77.2434 35.3293 75.3691 33.455C73.4948 31.5807 72.4419 29.0387 72.4419 26.388C72.4419 23.7374 73.4948 21.1953 75.3691 19.3211C77.2434 17.4468 79.7855 16.3938 82.4361 16.3938C85.0867 16.3938 87.6288 17.4468 89.503 19.3211C91.3773 21.1953 92.4303 23.7374 92.4303 26.388ZM82.4565 31.8805C83.6615 31.8742 84.8141 31.2886 85.6608 30.2525C86.5074 29.2165 86.9788 27.8148 86.9712 26.3559C86.9635 24.8969 86.4775 23.5003 85.6201 22.4731C84.7626 21.4459 83.6039 20.8724 82.3989 20.8787C81.1939 20.885 80.0412 21.4706 79.1946 22.5067C78.3479 23.5428 77.8766 24.9445 77.8842 26.4034C77.8918 27.8623 78.3778 29.259 79.2353 30.2862C80.0928 31.3133 81.2515 31.8869 82.4565 31.8805Z" fill="#F6F6F6"/>
<path d="M101.147 29.8735L97.4101 35.9792C97.385 36.021 97.3492 36.0555 97.3064 36.0791C97.2637 36.1027 97.2154 36.1146 97.1666 36.1135L92.1191 36.0547C92.0683 36.0548 92.0185 36.0409 91.9751 36.0145C91.9317 35.9881 91.8964 35.9504 91.873 35.9053C91.8496 35.8602 91.839 35.8096 91.8424 35.759C91.8458 35.7083 91.8631 35.6595 91.8923 35.618L98.1492 26.3377C98.1821 26.291 98.1998 26.2353 98.1998 26.1781C98.1998 26.121 98.1821 26.0653 98.1492 26.0186L92.0603 17.1498C92.0333 17.1083 92.0179 17.0605 92.0157 17.0111C92.0135 16.9617 92.0245 16.9126 92.0476 16.8689C92.0708 16.8252 92.1052 16.7885 92.1473 16.7625C92.1894 16.7366 92.2376 16.7224 92.2871 16.7215L97.4437 16.6879C97.4912 16.6883 97.5377 16.7008 97.5788 16.7244C97.62 16.7479 97.6545 16.7816 97.6789 16.8222L101.189 22.424C101.214 22.4658 101.249 22.5005 101.291 22.5247C101.333 22.5488 101.38 22.5615 101.429 22.5615C101.477 22.5615 101.525 22.5488 101.567 22.5247C101.609 22.5005 101.644 22.4658 101.668 22.424L105.028 16.8306C105.053 16.7888 105.088 16.7543 105.131 16.7307C105.174 16.7071 105.222 16.6952 105.271 16.6963L110.327 16.7383C110.376 16.7392 110.425 16.7534 110.467 16.7793C110.509 16.8053 110.543 16.842 110.566 16.8857C110.59 16.9294 110.601 16.9785 110.598 17.0279C110.596 17.0772 110.581 17.1251 110.554 17.1666L104.624 25.901C104.595 25.946 104.58 25.9985 104.58 26.0522C104.58 26.1058 104.595 26.1584 104.624 26.2033L110.89 35.618C110.917 35.6595 110.932 35.7074 110.934 35.7567C110.937 35.8061 110.926 35.8552 110.902 35.8989C110.879 35.9426 110.845 35.9793 110.803 36.0053C110.761 36.0312 110.712 36.0454 110.663 36.0464L105.54 36.1387C105.491 36.1398 105.443 36.1279 105.4 36.1043C105.357 36.0807 105.321 36.0462 105.296 36.0044L101.618 29.8819C101.594 29.8415 101.56 29.8079 101.519 29.7844C101.478 29.7608 101.432 29.748 101.385 29.7472C101.338 29.7463 101.291 29.7575 101.25 29.7796C101.208 29.8017 101.173 29.834 101.147 29.8735Z" fill="#F6F6F6"/>
<path d="M145.114 16.7133H140.327C140.146 16.7133 140 16.8599 140 17.0408V35.7694C140 35.9503 140.146 36.097 140.327 36.097H145.114C145.295 36.097 145.442 35.9503 145.442 35.7694V17.0408C145.442 16.8599 145.295 16.7133 145.114 16.7133Z" fill="#F6F6F6"/>
<path d="M22.1349 31.2004C24.2625 30.6573 25.7379 29.2855 26.5609 27.0851C26.7121 26.682 27.0032 26.4804 27.4343 26.4804H30.6594C31.1913 26.4804 31.3844 26.738 31.2389 27.2531C27.9131 38.9941 11.8804 38.7842 9.25165 26.9759C9.17886 26.6568 9.30764 26.4944 9.63798 26.4888L13.2241 26.472C13.4873 26.472 13.6776 26.5924 13.7952 26.8332C15.6317 30.6908 18.4116 32.1466 22.1349 31.2004Z" fill="#F6F6F6"/>
</svg>
