<svg width="180" height="90" viewBox="0 0 180 90" fill="none" xmlns="http://www.w3.org/2000/svg">
<path opacity="0.2" d="M52.8319 88.4626C52.7564 88.4626 52.6955 88.4626 52.62 88.4626C50.6195 88.4007 47.7404 87.4443 45.4219 83.2175C44.3915 81.3355 43.4367 78.7748 42.5125 75.4118C40.9214 69.6575 39.5727 62.145 38.2694 54.879C37.2543 49.233 36.2086 43.4018 35.1025 38.8047C34.86 37.8175 34.6478 36.9535 34.4356 36.1822C34.4054 36.2902 34.3751 36.3982 34.3448 36.5217C33.375 39.8536 32.4202 44.0035 31.4959 48.0297C30.3139 53.1976 29.0864 58.5352 27.7227 62.6078C26.8741 65.1224 26.0558 66.9581 25.1162 68.3774C22.7371 72.0025 19.8428 72.4036 18.3426 72.3109C13.0692 72.0025 10.4476 66.2485 8.58376 60.6641C7.08357 56.1286 5.59852 49.9271 4.14379 42.2449C1.70407 29.3329 0.143261 15.9427 0.0220328 14.616C-0.235577 11.793 1.79499 9.27845 4.58324 9.0162C7.35633 8.75395 9.82636 10.8211 10.084 13.6596C10.19 14.7394 11.4781 25.8156 13.5541 37.4782C15.5241 48.5234 17.2364 54.771 18.479 58.2884C18.6002 57.918 18.7063 57.5324 18.8427 57.1159C19.8125 53.8145 20.752 49.6803 21.6613 45.6848C22.8432 40.5325 24.0555 35.2105 25.4193 31.1378C26.4043 28.176 28.7228 21.2648 34.5115 21.2648H34.5265C40.8758 21.2803 43.1337 29.595 44.2249 33.606C45.6796 38.9744 46.9069 45.8084 48.2103 53.0433C49.2862 59.0444 50.4074 65.2456 51.6046 70.2131C52.1804 72.5577 52.6955 74.2857 53.1199 75.5506C53.9231 73.7457 54.9082 71.046 55.893 67.1894C57.6055 60.4634 58.6964 52.6424 58.8935 45.7467C59.2421 32.6804 56.5295 19.753 50.8317 7.31929C49.6497 4.74308 50.7409 1.68863 53.2715 0.485367C55.8022 -0.717898 58.8025 0.392806 59.9845 2.96902C66.3641 16.8683 69.3949 31.3691 68.9855 46.0396C68.7431 54.7249 67.2128 64.6595 64.8941 72.6196C63.6818 76.7539 62.3485 80.1169 60.9087 82.6004C58.6661 86.4878 55.9385 88.4626 52.8319 88.4626Z" fill="#F0F0EA"/>
<path d="M56.8473 57.6091C56.7109 57.347 56.5899 57.0693 56.4685 56.8225C56.3474 56.5602 56.2413 56.3133 56.1199 56.051L53.0136 48.8624L49.5887 56.9305C49.5584 56.9613 49.5281 57.023 49.4826 57.1463C49.4373 57.2698 49.3615 57.3931 49.2857 57.5166C49.2099 57.6399 49.1038 57.7634 48.9827 57.8714C48.8613 57.9794 48.7099 58.0258 48.528 58.0258C48.3159 58.0258 48.1492 57.9486 47.9976 57.8098C47.8462 57.671 47.7249 57.5011 47.6188 57.2851C47.5127 57.0846 47.4066 56.8686 47.331 56.6373C47.2552 56.4058 47.1641 56.2053 47.0886 56.0357L40.0119 40.4395C39.9966 40.3779 39.9816 40.316 39.9816 40.2543C39.9663 40.1927 39.9663 40.1311 39.9663 40.0847C39.9663 39.7299 40.2088 39.5603 40.6784 39.5603H44.1639C44.4063 39.5603 44.6185 39.6219 44.7851 39.7452C44.9518 39.8687 45.0881 40.0383 45.1639 40.2391L48.528 48.9857L51.771 40.208C51.9377 39.7452 52.2709 39.4983 52.7711 39.4983H55.9078C56.3777 39.4983 56.6201 39.6683 56.6201 40.0075C56.6201 40.1 56.6049 40.208 56.5593 40.3315C56.514 40.4548 56.4988 40.532 56.4988 40.5628L55.3623 43.2625L57.5597 48.9549L60.8024 40.1772C60.969 39.7143 61.3026 39.4675 61.8025 39.4675H65.2879C65.7576 39.4675 66 39.6374 66 39.9767C66 40.0692 65.985 40.1772 65.9395 40.3007C65.8939 40.424 65.8789 40.5012 65.8789 40.532L58.6356 56.8378C58.605 56.8686 58.5748 56.9305 58.5295 57.0538C58.4839 57.1773 58.4081 57.3006 58.3323 57.4242C58.2565 57.5474 58.1504 57.671 58.014 57.779C57.8929 57.8867 57.7413 57.9331 57.5597 57.9331C57.3778 57.9331 57.2261 57.9023 57.12 57.8251C56.9989 57.8406 56.9079 57.7326 56.8473 57.6091Z" fill="#F6F6F6"/>
<path d="M75.5463 53.0274C76.0465 53.0274 76.5617 52.9347 77.1071 52.7497C77.6526 52.5646 78.1681 52.2869 78.668 51.9166C78.8346 51.8241 78.971 51.7469 79.0923 51.6697C79.2134 51.5926 79.3498 51.5617 79.5014 51.5617C79.6228 51.5617 79.7439 51.5926 79.8652 51.6545C79.9863 51.7161 80.0924 51.8241 80.1985 51.9785L81.4713 53.7523C81.623 53.953 81.6988 54.1535 81.6988 54.3695C81.6988 54.5547 81.638 54.7396 81.5321 54.8939C81.4108 55.0636 81.2744 55.2024 81.1078 55.3259C80.744 55.6036 80.3501 55.8659 79.9105 56.0817C79.4711 56.2977 79.0165 56.4984 78.5316 56.6525C78.0467 56.8068 77.5618 56.9301 77.0616 57.0073C76.5617 57.0845 76.0768 57.1308 75.5919 57.1308C74.4099 57.1308 73.3187 56.8993 72.2883 56.4365C71.258 55.9739 70.364 55.3412 69.5911 54.5391C68.8181 53.737 68.2121 52.7958 67.7725 51.7161C67.3331 50.6364 67.106 49.4639 67.106 48.2143C67.106 47.011 67.3181 45.8694 67.7422 44.7741C68.1666 43.6944 68.7423 42.7379 69.485 41.9203C70.2276 41.1027 71.1063 40.4547 72.1064 39.9921C73.1068 39.5137 74.1977 39.2825 75.3797 39.2825C76.4859 39.2825 77.5162 39.4985 78.5013 39.9302C79.4711 40.3622 80.3349 40.9486 81.0622 41.6735C81.8049 42.4139 82.3806 43.2779 82.805 44.296C83.2293 45.2986 83.4412 46.3938 83.4412 47.551V47.659C83.4412 48.1063 83.396 48.4767 83.2899 48.7543C83.1838 49.0472 83.0321 49.2632 82.82 49.4331C82.6078 49.6027 82.335 49.7107 82.032 49.7724C81.7138 49.834 81.3502 49.8648 80.9259 49.8648H71.7429C71.864 50.3585 72.0459 50.806 72.3036 51.1917C72.561 51.5773 72.8643 51.9166 73.2129 52.1789C73.5611 52.441 73.9402 52.657 74.3493 52.7958C74.7129 52.9657 75.122 53.0274 75.5463 53.0274ZM79.0165 46.3786C78.9407 45.9621 78.7893 45.5765 78.5619 45.2217C78.3497 44.8513 78.077 44.5428 77.7437 44.2805C77.4254 44.0184 77.0616 43.8024 76.6525 43.6636C76.2434 43.5092 75.8191 43.432 75.3797 43.432C74.9706 43.432 74.5765 43.4939 74.1977 43.6327C73.8189 43.7716 73.4553 43.9565 73.1371 44.2188C72.8188 44.4657 72.5308 44.7741 72.3036 45.1445C72.0761 45.5146 71.9095 45.9313 71.8187 46.3938H79.0165V46.3786Z" fill="#F6F6F6"/>
<path d="M97.5787 57.162C97.624 57.0077 97.6695 56.8072 97.6998 56.5296C97.7301 56.2672 97.7603 55.9896 97.7756 55.6964C97.7906 55.4035 97.8059 55.1103 97.8059 54.8327C97.8059 54.5395 97.8212 54.3082 97.8212 54.1075C97.6392 54.4315 97.4118 54.7708 97.1693 55.0795C96.9119 55.4035 96.6239 55.6964 96.2753 55.9432C95.9268 56.19 95.548 56.406 95.1086 56.5448C94.6842 56.6992 94.1841 56.7764 93.6539 56.7764C92.4566 56.7764 91.3504 56.5604 90.3351 56.1284C89.32 55.6964 88.441 55.1103 87.6983 54.339C86.956 53.583 86.3802 52.6729 85.9709 51.6238C85.5618 50.5748 85.3496 49.4179 85.3496 48.1683C85.3496 46.9342 85.5618 45.7773 85.9709 44.7128C86.3802 43.6328 86.971 42.6919 87.6983 41.9051C88.441 41.103 89.32 40.4858 90.3351 40.0233C91.3504 39.5605 92.4566 39.3445 93.6539 39.3445C94.1993 39.3445 94.7298 39.4217 95.2297 39.5758C95.7299 39.7301 96.1692 39.9306 96.5783 40.1929C96.9877 40.455 97.321 40.7482 97.5937 41.103C97.8664 41.4423 98.0636 41.8127 98.1694 42.1983L98.6696 40.5786C98.7302 40.4242 98.7757 40.2854 98.8212 40.1621C98.8665 40.0386 98.9273 39.9306 98.9879 39.8381C99.0637 39.7454 99.1392 39.6838 99.2606 39.6374C99.3667 39.5913 99.5183 39.5605 99.685 39.5605H101.67C101.913 39.5605 102.155 39.6529 102.382 39.8226C102.609 39.9922 102.731 40.239 102.731 40.563V55.4188C102.731 56.8225 102.503 58.0721 102.064 59.1521C101.609 60.2318 101.003 61.1419 100.215 61.8824C99.4272 62.6228 98.503 63.1784 97.4271 63.564C96.3512 63.9497 95.1994 64.1501 93.9722 64.1501C93.5022 64.1501 92.9871 64.1193 92.4416 64.0421C91.8959 63.9649 91.3354 63.8569 90.7897 63.7028C90.2442 63.5485 89.7138 63.3325 89.2139 63.0857C88.7137 62.8388 88.2591 62.5304 87.8652 62.1756C87.7439 62.0831 87.6228 61.9596 87.5317 61.8052C87.4409 61.6511 87.3953 61.4815 87.3953 61.2963C87.3953 61.1883 87.4106 61.0803 87.4409 60.9568C87.4711 60.8335 87.5317 60.7099 87.6378 60.5867L89.032 58.6893C89.2744 58.4269 89.5016 58.2881 89.7291 58.2881C89.911 58.2881 90.1534 58.3961 90.4564 58.5966C90.6686 58.8126 90.9261 58.9822 91.2293 59.121C91.5171 59.2598 91.8203 59.3678 92.1233 59.4298C92.4263 59.5067 92.7293 59.553 93.0173 59.5838C93.3053 59.6147 93.5781 59.6147 93.8205 59.6147C94.2146 59.6147 94.6084 59.553 95.0175 59.445C95.4269 59.337 95.8057 59.1674 96.1542 58.9669C96.5028 58.7509 96.8058 58.5041 97.0632 58.1957C97.3057 57.9025 97.4876 57.5629 97.5787 57.162ZM90.1079 48.1683C90.1079 48.7699 90.1987 49.3252 90.3806 49.8499C90.5625 50.3744 90.82 50.8217 91.1535 51.2073C91.4868 51.5929 91.8959 51.8861 92.3658 52.1021C92.8354 52.3181 93.3659 52.4261 93.9416 52.4261C94.5023 52.4261 95.0478 52.3181 95.548 52.0866C96.0482 51.8706 96.5028 51.5621 96.8816 51.1765C97.2604 50.7908 97.5634 50.3436 97.7906 49.8344C98.0181 49.3252 98.1242 48.7855 98.1242 48.2299C98.1242 47.6747 98.0181 47.1194 97.7906 46.5949C97.5634 46.0702 97.2604 45.6077 96.8816 45.2065C96.5028 44.8053 96.0632 44.4968 95.548 44.25C95.0478 44.0032 94.5023 43.8952 93.9416 43.8952C93.3659 43.8952 92.8354 44.0032 92.3658 44.2345C91.8959 44.466 91.4868 44.7745 91.1535 45.1601C90.82 45.5458 90.5625 46.0086 90.3806 46.533C90.1987 47.0578 90.1079 47.5975 90.1079 48.1683Z" fill="#F6F6F6"/>
<path d="M105.975 48.1839C105.975 46.9346 106.202 45.7621 106.672 44.6668C107.142 43.5716 107.778 42.6304 108.566 41.8283C109.369 41.0262 110.309 40.3935 111.4 39.9309C112.491 39.4681 113.658 39.2366 114.9 39.2366C116.112 39.2366 117.264 39.4681 118.355 39.9309C119.431 40.3935 120.371 41.0262 121.174 41.8283C121.977 42.6304 122.613 43.5716 123.068 44.6668C123.538 45.7621 123.765 46.9346 123.765 48.1839C123.765 49.4336 123.538 50.606 123.068 51.7013C122.598 52.7966 121.962 53.753 121.174 54.5551C120.371 55.3572 119.431 56.0052 118.355 56.468C117.279 56.9308 116.127 57.1777 114.9 57.1777C113.658 57.1777 112.491 56.9461 111.4 56.468C110.309 56.0052 109.369 55.3572 108.566 54.5551C107.763 53.753 107.126 52.7966 106.672 51.7013C106.202 50.606 105.975 49.4336 105.975 48.1839ZM110.763 48.1839C110.763 48.8011 110.869 49.3719 111.066 49.9117C111.263 50.4517 111.551 50.93 111.9 51.3309C112.263 51.7474 112.688 52.0714 113.188 52.3029C113.688 52.5498 114.249 52.6578 114.855 52.6578C115.446 52.6578 115.991 52.5342 116.491 52.3029C116.976 52.0561 117.401 51.7321 117.749 51.3309C118.098 50.9145 118.37 50.4517 118.567 49.9117C118.764 49.3719 118.855 48.8011 118.855 48.1839C118.855 47.5978 118.764 47.0423 118.567 46.5178C118.37 45.9934 118.098 45.5306 117.749 45.1449C117.401 44.7593 116.976 44.4353 116.491 44.204C116.006 43.9725 115.461 43.8492 114.855 43.8492C114.249 43.8492 113.688 43.9725 113.188 44.204C112.688 44.4353 112.263 44.7438 111.9 45.1449C111.536 45.5306 111.263 45.9934 111.066 46.5178C110.854 47.0423 110.763 47.5978 110.763 48.1839Z" fill="#F6F6F6"/>
<path d="M126.674 34.8091C126.674 34.5314 126.765 34.3001 126.932 34.115C127.099 33.9298 127.371 33.8218 127.72 33.7757L130.372 33.3901C130.417 33.3745 130.463 33.3745 130.508 33.3745C130.554 33.3745 130.584 33.3745 130.614 33.3745C130.948 33.3745 131.175 33.467 131.281 33.6677C131.387 33.8681 131.448 34.115 131.448 34.4234V39.5452H133.524C133.812 39.5452 134.039 39.6377 134.221 39.8073C134.388 39.977 134.478 40.2393 134.478 40.5786V42.5071C134.478 42.8771 134.388 43.1548 134.221 43.34C134.054 43.5096 133.812 43.6023 133.524 43.6023H131.448V55.7891C131.448 56.1284 131.357 56.3908 131.16 56.5604C130.963 56.7301 130.69 56.8228 130.342 56.8228H127.69C127.008 56.8228 126.674 56.4832 126.674 55.7891V43.6023H125.735C125.053 43.6023 124.72 43.232 124.72 42.5071V40.5786C124.72 39.8845 125.053 39.5452 125.735 39.5452H126.674V34.8091Z" fill="#F6F6F6"/>
<path d="M137.463 40.6401C137.463 40.2853 137.584 40.0384 137.811 39.8685C138.054 39.7144 138.281 39.6373 138.524 39.6373H140.402C140.63 39.6373 140.812 39.6989 140.948 39.8377C141.085 39.9765 141.206 40.1464 141.312 40.3622C141.418 40.5782 141.509 40.825 141.615 41.1182C141.706 41.4113 141.827 41.7045 141.963 42.013C142.145 41.6582 142.342 41.3342 142.554 41.0102C142.766 40.7017 143.009 40.4085 143.282 40.1617C143.554 39.9149 143.873 39.7297 144.221 39.5756C144.57 39.4368 144.964 39.3596 145.433 39.3596C145.918 39.3596 146.343 39.3904 146.691 39.4521C147.055 39.5137 147.388 39.6064 147.707 39.7297C148.025 39.8533 148.343 40.0229 148.646 40.2233C148.949 40.4241 149.313 40.6709 149.692 40.9638C150.055 41.1645 150.237 41.4266 150.237 41.7662C150.237 41.9822 150.161 42.1982 150.025 42.445L148.813 44.3732C148.646 44.6663 148.434 44.8668 148.146 44.9595C147.858 45.052 147.585 44.9903 147.328 44.7588C147.116 44.5736 146.934 44.4195 146.752 44.296C146.57 44.1727 146.388 44.0955 146.222 44.0183C146.04 43.9567 145.858 43.9103 145.661 43.8951C145.464 43.8795 145.252 43.864 145.009 43.864C144.661 43.864 144.358 43.9103 144.1 44.0183C143.842 44.1108 143.6 44.2652 143.388 44.4348C143.176 44.62 142.964 44.836 142.782 45.0828C142.6 45.3296 142.418 45.6073 142.236 45.9157V55.7115C142.236 56.0511 142.145 56.3132 141.979 56.4831C141.812 56.6527 141.539 56.7452 141.16 56.7452H138.493C138.16 56.7452 137.902 56.6527 137.72 56.4831C137.539 56.3132 137.448 56.0511 137.448 55.7115V40.6401H137.463Z" fill="#F6F6F6"/>
<path d="M152.725 34.6856C152.725 34.2997 152.8 33.9296 152.937 33.5904C153.073 33.2508 153.27 32.9424 153.528 32.68C153.77 32.4179 154.073 32.2172 154.407 32.0631C154.74 31.9087 155.119 31.8315 155.498 31.8315C155.892 31.8315 156.255 31.9087 156.589 32.0631C156.922 32.2172 157.225 32.4179 157.468 32.68C157.71 32.9424 157.907 33.2355 158.044 33.5904C158.18 33.9296 158.256 34.2997 158.256 34.6856C158.256 35.0713 158.18 35.4414 158.044 35.7809C157.907 36.1202 157.71 36.4134 157.468 36.6754C157.225 36.9223 156.922 37.123 156.589 37.2771C156.255 37.4159 155.877 37.4931 155.498 37.4931C155.104 37.4931 154.74 37.4159 154.407 37.2771C154.073 37.1383 153.77 36.9378 153.528 36.6754C153.285 36.4286 153.088 36.1357 152.937 35.7809C152.8 35.4414 152.725 35.0713 152.725 34.6856ZM157.953 55.8506C157.953 56.1591 157.862 56.3906 157.68 56.5603C157.498 56.7299 157.256 56.8224 156.952 56.8224H154.104C153.467 56.8224 153.149 56.4986 153.149 55.8506V40.5321C153.149 40.27 153.225 40.0385 153.407 39.838C153.573 39.6375 153.801 39.5448 154.104 39.5448H156.952C157.18 39.5448 157.407 39.6375 157.619 39.8225C157.831 40.0076 157.953 40.2392 157.953 40.5321V55.8506Z" fill="#F6F6F6"/>
<path d="M163.042 40.517C163.042 40.2085 163.134 39.977 163.3 39.792C163.467 39.6069 163.709 39.5141 164.012 39.4833H165.709C165.891 39.4833 166.058 39.4833 166.225 39.4989C166.376 39.5141 166.528 39.545 166.649 39.6069C166.785 39.6685 166.891 39.761 166.998 39.869C167.089 39.9925 167.179 40.1621 167.225 40.3781L167.452 41.5506C168.028 40.8101 168.664 40.2238 169.362 39.792C170.059 39.36 170.922 39.144 171.953 39.144C173.089 39.144 174.15 39.3753 175.135 39.8381C176.12 40.301 176.968 40.9334 177.696 41.751C178.423 42.5531 178.984 43.5096 179.393 44.574C179.802 45.654 179.999 46.811 179.999 48.0298C179.999 49.2791 179.802 50.436 179.393 51.516C178.984 52.5958 178.423 53.5369 177.696 54.339C176.968 55.1411 176.105 55.7739 175.12 56.2364C174.12 56.6992 173.044 56.9308 171.862 56.9308C171.422 56.9308 171.013 56.8844 170.619 56.7919C170.225 56.6992 169.862 56.576 169.528 56.4063C169.195 56.2364 168.877 56.0515 168.589 55.8355C168.301 55.6195 168.043 55.3879 167.831 55.1411V62.4996C167.831 62.8083 167.74 63.0551 167.558 63.24C167.376 63.4408 167.104 63.5332 166.77 63.5332H164.164C163.861 63.5332 163.603 63.4408 163.376 63.24C163.149 63.0396 163.042 62.7928 163.042 62.4996V40.517ZM167.376 47.9526C167.376 48.5695 167.482 49.1559 167.679 49.6956C167.892 50.2356 168.164 50.7139 168.528 51.1149C168.892 51.516 169.301 51.84 169.771 52.0713C170.241 52.3029 170.756 52.4261 171.286 52.4261C171.816 52.4261 172.317 52.3029 172.786 52.0713C173.256 51.84 173.665 51.516 174.014 51.1304C174.362 50.7292 174.635 50.2664 174.847 49.7267C175.044 49.1867 175.15 48.6159 175.15 48.0142C175.15 47.4126 175.044 46.8573 174.847 46.3173C174.65 45.7773 174.362 45.3145 174.014 44.9289C173.665 44.5432 173.256 44.2192 172.786 44.0032C172.317 43.772 171.816 43.6639 171.286 43.6639C170.756 43.6639 170.256 43.772 169.786 44.0032C169.316 44.2348 168.907 44.5432 168.543 44.9289C168.18 45.3145 167.907 45.762 167.695 46.2865C167.482 46.7954 167.376 47.3509 167.376 47.9526Z" fill="#F6F6F6"/>
</svg>
