<svg width="96" height="96" viewBox="0 0 96 96" fill="none" xmlns="http://www.w3.org/2000/svg">
<path d="M88 48C88 70.0914 70.0914 88 48 88C25.9086 88 8 70.0914 8 48C8 25.9086 25.9086 8 48 8C70.0914 8 88 25.9086 88 48Z" fill="#F7BC9C"/>
<path fill-rule="evenodd" clip-rule="evenodd" d="M96 48C96 74.5097 74.5097 96 48 96C21.4903 96 0 74.5097 0 48C0 21.4903 21.4903 0 48 0C74.5097 0 96 21.4903 96 48ZM48 88C70.0914 88 88 70.0914 88 48C88 25.9086 70.0914 8 48 8C25.9086 8 8 25.9086 8 48C8 70.0914 25.9086 88 48 88Z" fill="#FFA78A"/>
<path fill-rule="evenodd" clip-rule="evenodd" d="M96 48C96 74.5097 74.5097 96 48 96C21.4903 96 0 74.5097 0 48C0 21.4903 21.4903 0 48 0C74.5097 0 96 21.4903 96 48ZM48 88C70.0914 88 88 70.0914 88 48C88 25.9086 70.0914 8 48 8C25.9086 8 8 25.9086 8 48C8 70.0914 25.9086 88 48 88Z" fill="#FFA78A"/>
<mask id="path-4-outside-1_1710_3092" maskUnits="userSpaceOnUse" x="17" y="17" width="65" height="65" fill="black">
<rect fill="white" x="17" y="17" width="65" height="65"/>
<path fill-rule="evenodd" clip-rule="evenodd" d="M76.0856 19.6667C76.1582 18.9098 75.88 18.3607 75.2171 18H74.4787C74.0198 18.2924 73.6172 18.6231 73.6193 19.2363C73.6201 19.427 73.6182 19.6177 73.6163 19.8084V19.8086C73.6125 20.19 73.6087 20.5714 73.6258 20.9521C73.6571 21.6414 74.2027 22.1614 74.8479 22.1614C75.4973 22.1614 76.0315 21.6478 76.0707 20.9528C76.0816 20.7603 76.0775 20.5667 76.0733 20.3731C76.0683 20.1368 76.0633 19.9006 76.0856 19.6667ZM79.3328 25.3908C80.0904 25.4634 80.6381 25.1831 81.0002 24.5223V23.7839C80.7057 23.3279 80.3771 22.9225 79.7632 22.9246C79.5722 22.9253 79.3813 22.9234 79.1905 22.9215C78.8088 22.9177 78.4274 22.9139 78.0467 22.931C77.3545 22.9623 76.8374 23.5043 76.8374 24.1524C76.8374 24.7976 77.3567 25.3375 78.046 25.3759C78.2388 25.3868 78.4326 25.3827 78.6263 25.3786C78.8628 25.3736 79.099 25.3686 79.3328 25.3908ZM18 74.4791C18.3599 73.8147 18.9098 73.5379 19.666 73.6105C19.9009 73.6329 20.1381 73.6277 20.3755 73.6226C20.568 73.6184 20.7606 73.6142 20.9521 73.6247C21.6436 73.6624 22.1614 74.1995 22.1607 74.8468C22.1607 75.4956 21.645 76.0376 20.9528 76.0696C20.5662 76.0875 20.179 76.0834 19.7918 76.0794C19.6068 76.0775 19.4219 76.0756 19.237 76.076C18.6246 76.0775 18.2931 75.6741 18 75.2167V74.4791ZM22.9147 79.333C22.8415 80.0906 23.1203 80.6383 23.7833 80.9997C24.0294 80.9997 24.2756 80.9997 24.521 81.0004C24.9755 80.7052 25.3824 80.3773 25.3803 79.7634C25.3796 79.5724 25.3816 79.3815 25.3835 79.1907C25.3875 78.809 25.3914 78.4276 25.3739 78.0469C25.3419 77.3519 24.802 76.8383 24.1518 76.8383C23.5059 76.8383 22.966 77.3583 22.929 78.0469C22.9189 78.2365 22.923 78.4272 22.9272 78.6179C22.9325 78.8571 22.9377 79.0963 22.9147 79.333ZM40.1707 38.5808C38.0253 36.025 37.6426 33.2201 38.4407 30.2537C39.4089 26.66 43.0894 24.2385 46.7052 24.6796C50.6511 25.1605 53.552 28.2961 53.7156 32.173C53.8145 34.5176 53.3414 36.6509 51.6825 38.5175C53.8194 38.7587 55.6981 38.4528 57.197 36.875C58.2334 35.7838 58.7249 34.4699 58.7249 32.9683C58.7254 32.1113 58.724 31.2543 58.7227 30.3973C58.7197 28.4857 58.7168 26.5741 58.7335 24.6625C58.752 22.5284 60.3433 20.807 62.4766 20.5466C64.5459 20.2941 66.4943 21.6186 67.0335 23.6602C67.1168 23.9753 67.1808 24.3068 67.1794 24.6298C67.1755 25.568 67.1817 26.5067 67.1879 27.4455C67.2032 29.7483 67.2185 32.0512 67.0841 34.3454C66.7277 40.414 61.8535 45.7214 55.8589 46.7941C55.5436 46.8507 55.2269 46.9009 54.9185 46.9497C54.7768 46.9722 54.6368 46.9944 54.4995 47.0168V65.9288L54.5654 65.9486L54.5659 65.9487L54.5661 65.9488C54.5945 65.9574 54.623 65.966 54.6517 65.9743C54.6798 65.9254 54.7084 65.8768 54.737 65.8282L54.737 65.8282C54.8028 65.7164 54.8685 65.6047 54.927 65.4892C55.1962 64.9584 55.4749 64.4316 55.7536 63.9047L55.7539 63.9042L55.7539 63.9041L55.7539 63.9041L55.7539 63.904L55.754 63.904L55.754 63.9039C56.386 62.7091 57.0181 61.5143 57.5398 60.2728C59.0443 56.694 63.1745 55.8383 65.8804 58.4866C66.6501 57.729 67.5471 57.1749 68.6341 57.0099C70.5626 56.7168 72.1795 57.3158 73.3525 58.8736C74.5561 60.472 74.6906 62.2376 73.8071 64.0302C72.6305 66.4182 71.4311 68.7956 70.1884 71.1494C69.7424 71.9952 69.2245 72.8311 68.6007 73.551C65.0823 77.6064 60.6541 79.1806 55.373 78.1591C54.7137 78.0315 54.1177 78.1369 53.5181 78.243C53.3324 78.2758 53.1464 78.3087 52.958 78.3348C49.1736 78.8598 45.7634 77.9727 42.7166 75.6729C42.2713 75.3365 41.9576 74.8783 42.1725 74.3548C42.324 73.9856 42.6974 73.5567 43.0531 73.4628C43.4131 73.3681 43.9473 73.5503 44.2766 73.7886C45.8018 74.8912 47.4671 75.621 49.3258 75.9048C49.513 75.9334 49.7029 75.9453 49.886 75.9567C49.9674 75.9618 50.0475 75.9668 50.1254 75.9731C49.8457 75.68 49.5608 75.3954 49.2777 75.1124L49.2777 75.1124L49.2775 75.1122C48.6557 74.4907 48.042 73.8774 47.5083 73.201C45.4902 70.6415 44.6003 67.6873 44.6928 64.4335C44.7148 63.6553 45.1722 63.151 45.8701 63.1296C46.5999 63.1076 47.073 63.6141 47.1583 64.4037C47.1944 64.7379 47.2228 65.0749 47.2513 65.4123L47.2513 65.4125C47.3332 66.3847 47.4154 67.3597 47.6826 68.2791C48.8919 72.4384 52.7695 75.5911 56.9252 75.9568C61.6401 76.3715 65.8804 74.1414 67.9683 70.1151C69.0099 68.1055 70.0255 66.0824 71.0409 64.0595L71.0411 64.059L71.0415 64.0582L71.5499 63.0457C72.2321 61.6877 71.7968 60.2487 70.5377 59.6348C69.2985 59.0308 67.927 59.5444 67.2469 60.8818C66.8569 61.649 66.4729 62.4194 66.089 63.1899L66.0887 63.1904L66.0885 63.1907L66.0884 63.191L66.0882 63.1913L66.0881 63.1916L66.0879 63.1919C65.3028 64.7673 64.5177 66.3426 63.6809 67.89C62.4759 70.1187 60.5368 71.2611 57.9908 71.1786C55.4428 71.0961 53.5819 69.8242 52.5468 67.5144C52.1741 66.6828 52.0254 65.7012 51.9891 64.7793C51.9322 63.3292 51.9434 61.8767 51.9548 60.4055L51.9548 60.4046C51.9595 59.7997 51.9642 59.1915 51.9642 58.5791H39.9395C39.9363 58.6424 39.9323 58.7049 39.9283 58.7668L39.9283 58.7669C39.9194 58.9079 39.9106 59.0456 39.9111 59.183C39.916 61.3569 39.9217 63.5301 39.931 65.704C39.9345 66.5477 39.5248 67.0741 38.8163 67.1239C38.0658 67.1765 37.5529 66.6971 37.4782 65.842C37.4484 65.5035 37.449 65.1617 37.4496 64.8204V64.8203V64.8203V64.8203V64.8202V64.8202L37.4498 64.674C37.4476 59.055 37.4476 53.436 37.4476 47.8171V47.0509C37.2354 47.0121 37.0256 46.9761 36.8177 46.9405C36.3714 46.8641 35.9343 46.7893 35.5028 46.6903C29.1554 45.2292 24.686 39.6514 24.6483 33.1376C24.6326 30.3896 24.6397 27.6417 24.6468 24.8937C24.654 22.4189 26.4679 20.5317 28.8445 20.5082C31.2311 20.4847 33.0949 22.3862 33.1098 24.8951C33.1197 26.4839 33.1176 28.0726 33.1155 29.6614V29.6623C33.1142 30.6981 33.1128 31.734 33.1148 32.7698C33.1219 36.2796 35.421 38.5723 38.9358 38.5816C39.1426 38.582 39.3494 38.5817 39.5817 38.5814H39.5826H39.5837H39.5848C39.7616 38.5811 39.9531 38.5808 40.1707 38.5808ZM51.9785 56.0453V55.3254C51.9785 54.5045 51.9783 53.6836 51.9781 52.8627V52.8565V52.8565V52.8564V52.8564V52.8564C51.9775 50.6035 51.9769 48.3508 51.9806 46.0984C51.982 45.0513 52.4309 44.616 53.4773 44.5783C53.9475 44.5612 54.4177 44.5185 54.8843 44.4609C59.9278 43.8413 64.3055 39.3754 64.6178 34.2942C64.7607 31.9725 64.7461 29.6408 64.7314 27.3098C64.7261 26.4612 64.7208 25.6128 64.7231 24.7649C64.7252 23.9547 64.2145 23.2974 63.5244 23.0684C62.3422 22.6764 61.1997 23.5251 61.1926 24.8361C61.1837 26.5077 61.1851 28.1796 61.1866 29.8515C61.1874 30.8454 61.1883 31.8393 61.1869 32.8331C61.1805 37.575 57.7404 41.0329 53.0121 41.04C48.2759 41.0471 43.5404 41.0478 38.8042 41.04C34.0979 41.0322 30.6663 37.5935 30.6542 32.8829C30.6514 31.7222 30.6523 30.5613 30.6531 29.4004V29.4004V29.4004V29.4004V29.4004V29.4004C30.6543 27.8955 30.6554 26.3906 30.6485 24.8859C30.6436 23.7776 29.9016 22.9894 28.8986 22.9723C27.8721 22.9553 27.1117 23.7591 27.1088 24.8987C27.1075 25.4052 27.1059 25.9118 27.1043 26.4184V26.4186V26.4188V26.4191V26.4193V26.4195V26.4197C27.097 28.7014 27.0897 30.9834 27.1124 33.2649C27.1736 39.4145 32.2071 44.4673 38.361 44.5818C39.502 44.6032 39.9068 45.0129 39.9075 46.1589C39.909 48.3565 39.9087 50.5541 39.9085 52.7515L39.9082 55.3858V56.0446C43.9658 56.0453 47.9216 56.0453 51.9785 56.0453ZM51.246 32.6749V32.6748V32.6746V32.6745V32.6744V32.6743V32.6742C51.2479 32.5481 51.2497 32.4219 51.2429 32.296C51.1234 30.0297 50.0166 28.3928 47.9444 27.53C45.8381 26.6529 43.869 27.0669 42.203 28.624C40.6537 30.0716 40.3855 31.9432 40.6203 33.9435C40.9845 37.0507 44.0497 39.1734 47.0986 38.4813C49.1074 38.026 51.408 36.116 51.2443 32.8495C51.2443 32.7915 51.2452 32.7334 51.246 32.6752V32.6752V32.6751V32.675V32.6749ZM56.3163 68.2059C58.2206 69.2949 60.5268 68.6291 61.5341 66.7134C62.4859 64.9023 63.3971 63.0699 64.2927 61.2303C64.3916 61.0276 64.3596 60.6627 64.2372 60.4678C63.3025 58.9853 61.0994 59.0507 60.1875 60.5759C60.0024 60.8857 59.8421 61.2109 59.682 61.5357C59.6249 61.6516 59.5678 61.7675 59.5096 61.8826C58.5812 63.7194 57.654 65.5561 56.7159 67.4144L56.714 67.4181L56.3163 68.2059ZM70.4861 25.3825C70.5818 25.3805 70.6776 25.3784 70.7732 25.3784C70.8697 25.3784 70.9663 25.3804 71.0629 25.3824C71.2732 25.3867 71.4834 25.391 71.6915 25.3749C72.3495 25.3223 72.8454 24.7987 72.856 24.1713C72.8667 23.5481 72.3766 22.9798 71.7257 22.9399C71.0947 22.9015 70.4581 22.9015 69.8271 22.9392C69.1691 22.9783 68.6925 23.5325 68.6996 24.167C68.7074 24.803 69.1897 25.3194 69.8541 25.3742C70.0636 25.3913 70.2748 25.3869 70.4861 25.3825ZM76.0757 28.5238L76.0757 28.5243V28.5243V28.5244V28.5244C76.0804 28.7352 76.0852 28.946 76.0671 29.1551C76.0102 29.8159 75.4852 30.2982 74.8507 30.3003C74.2154 30.3025 73.6691 29.8216 73.6314 29.1622C73.5959 28.5312 73.5937 27.8938 73.6336 27.2636C73.6748 26.6184 74.2546 26.1275 74.8749 26.1432C75.4788 26.1588 76.0017 26.6319 76.0635 27.2565C76.0856 27.4795 76.08 27.7052 76.0743 27.931C76.0718 28.033 76.0692 28.1349 76.0692 28.2367L76.0698 28.2363L76.0702 28.2361L76.0714 28.236C76.0714 28.3318 76.0735 28.4278 76.0757 28.5238ZM25.3802 71.0713V71.0713V71.0712C25.3781 70.9753 25.3761 70.8794 25.3761 70.7836L25.3751 70.7836C25.3747 70.7837 25.3743 70.7839 25.3739 70.7843C25.3739 70.6823 25.3765 70.5802 25.3792 70.4781C25.385 70.2524 25.3908 70.0269 25.3682 69.804C25.3042 69.1745 24.7871 68.7121 24.1767 68.6993C23.5422 68.6865 22.9795 69.161 22.9383 69.8161C22.8984 70.4464 22.9005 71.0838 22.9368 71.7147C22.9738 72.3656 23.5365 72.8607 24.1582 72.8565C24.7863 72.8522 25.3156 72.3606 25.3718 71.7026C25.3894 71.4933 25.3848 71.2824 25.3802 71.0713ZM27.9236 76.0761L27.9231 76.0761H27.9231C27.7123 76.0809 27.5015 76.0856 27.2924 76.0675C26.6386 76.0113 26.145 75.4743 26.1428 74.8497C26.1414 74.2251 26.6344 73.6689 27.2881 73.6319C27.9191 73.5963 28.5565 73.5942 29.1867 73.634C29.817 73.6738 30.2829 74.2052 30.3 74.8149C30.3171 75.448 29.8447 75.9978 29.191 76.064C28.9682 76.0865 28.7426 76.0807 28.517 76.0749C28.4148 76.0723 28.3127 76.0697 28.2107 76.0697C28.2114 76.0704 28.2114 76.0711 28.2114 76.0718C28.1156 76.0718 28.0196 76.074 27.9236 76.0761ZM41.3722 70.8126C41.3872 70.1305 40.8224 69.5543 40.1395 69.555C39.4694 69.555 38.9295 70.0849 38.9167 70.7522C38.9039 71.4415 39.463 72.0163 40.1437 72.0141C40.8046 72.012 41.358 71.4699 41.3722 70.8126Z"/>
</mask>
<path fill-rule="evenodd" clip-rule="evenodd" d="M76.0856 19.6667C76.1582 18.9098 75.88 18.3607 75.2171 18H74.4787C74.0198 18.2924 73.6172 18.6231 73.6193 19.2363C73.6201 19.427 73.6182 19.6177 73.6163 19.8084V19.8086C73.6125 20.19 73.6087 20.5714 73.6258 20.9521C73.6571 21.6414 74.2027 22.1614 74.8479 22.1614C75.4973 22.1614 76.0315 21.6478 76.0707 20.9528C76.0816 20.7603 76.0775 20.5667 76.0733 20.3731C76.0683 20.1368 76.0633 19.9006 76.0856 19.6667ZM79.3328 25.3908C80.0904 25.4634 80.6381 25.1831 81.0002 24.5223V23.7839C80.7057 23.3279 80.3771 22.9225 79.7632 22.9246C79.5722 22.9253 79.3813 22.9234 79.1905 22.9215C78.8088 22.9177 78.4274 22.9139 78.0467 22.931C77.3545 22.9623 76.8374 23.5043 76.8374 24.1524C76.8374 24.7976 77.3567 25.3375 78.046 25.3759C78.2388 25.3868 78.4326 25.3827 78.6263 25.3786C78.8628 25.3736 79.099 25.3686 79.3328 25.3908ZM18 74.4791C18.3599 73.8147 18.9098 73.5379 19.666 73.6105C19.9009 73.6329 20.1381 73.6277 20.3755 73.6226C20.568 73.6184 20.7606 73.6142 20.9521 73.6247C21.6436 73.6624 22.1614 74.1995 22.1607 74.8468C22.1607 75.4956 21.645 76.0376 20.9528 76.0696C20.5662 76.0875 20.179 76.0834 19.7918 76.0794C19.6068 76.0775 19.4219 76.0756 19.237 76.076C18.6246 76.0775 18.2931 75.6741 18 75.2167V74.4791ZM22.9147 79.333C22.8415 80.0906 23.1203 80.6383 23.7833 80.9997C24.0294 80.9997 24.2756 80.9997 24.521 81.0004C24.9755 80.7052 25.3824 80.3773 25.3803 79.7634C25.3796 79.5724 25.3816 79.3815 25.3835 79.1907C25.3875 78.809 25.3914 78.4276 25.3739 78.0469C25.3419 77.3519 24.802 76.8383 24.1518 76.8383C23.5059 76.8383 22.966 77.3583 22.929 78.0469C22.9189 78.2365 22.923 78.4272 22.9272 78.6179C22.9325 78.8571 22.9377 79.0963 22.9147 79.333ZM40.1707 38.5808C38.0253 36.025 37.6426 33.2201 38.4407 30.2537C39.4089 26.66 43.0894 24.2385 46.7052 24.6796C50.6511 25.1605 53.552 28.2961 53.7156 32.173C53.8145 34.5176 53.3414 36.6509 51.6825 38.5175C53.8194 38.7587 55.6981 38.4528 57.197 36.875C58.2334 35.7838 58.7249 34.4699 58.7249 32.9683C58.7254 32.1113 58.724 31.2543 58.7227 30.3973C58.7197 28.4857 58.7168 26.5741 58.7335 24.6625C58.752 22.5284 60.3433 20.807 62.4766 20.5466C64.5459 20.2941 66.4943 21.6186 67.0335 23.6602C67.1168 23.9753 67.1808 24.3068 67.1794 24.6298C67.1755 25.568 67.1817 26.5067 67.1879 27.4455C67.2032 29.7483 67.2185 32.0512 67.0841 34.3454C66.7277 40.414 61.8535 45.7214 55.8589 46.7941C55.5436 46.8507 55.2269 46.9009 54.9185 46.9497C54.7768 46.9722 54.6368 46.9944 54.4995 47.0168V65.9288L54.5654 65.9486L54.5659 65.9487L54.5661 65.9488C54.5945 65.9574 54.623 65.966 54.6517 65.9743C54.6798 65.9254 54.7084 65.8768 54.737 65.8282L54.737 65.8282C54.8028 65.7164 54.8685 65.6047 54.927 65.4892C55.1962 64.9584 55.4749 64.4316 55.7536 63.9047L55.7539 63.9042L55.7539 63.9041L55.7539 63.9041L55.7539 63.904L55.754 63.904L55.754 63.9039C56.386 62.7091 57.0181 61.5143 57.5398 60.2728C59.0443 56.694 63.1745 55.8383 65.8804 58.4866C66.6501 57.729 67.5471 57.1749 68.6341 57.0099C70.5626 56.7168 72.1795 57.3158 73.3525 58.8736C74.5561 60.472 74.6906 62.2376 73.8071 64.0302C72.6305 66.4182 71.4311 68.7956 70.1884 71.1494C69.7424 71.9952 69.2245 72.8311 68.6007 73.551C65.0823 77.6064 60.6541 79.1806 55.373 78.1591C54.7137 78.0315 54.1177 78.1369 53.5181 78.243C53.3324 78.2758 53.1464 78.3087 52.958 78.3348C49.1736 78.8598 45.7634 77.9727 42.7166 75.6729C42.2713 75.3365 41.9576 74.8783 42.1725 74.3548C42.324 73.9856 42.6974 73.5567 43.0531 73.4628C43.4131 73.3681 43.9473 73.5503 44.2766 73.7886C45.8018 74.8912 47.4671 75.621 49.3258 75.9048C49.513 75.9334 49.7029 75.9453 49.886 75.9567C49.9674 75.9618 50.0475 75.9668 50.1254 75.9731C49.8457 75.68 49.5608 75.3954 49.2777 75.1124L49.2777 75.1124L49.2775 75.1122C48.6557 74.4907 48.042 73.8774 47.5083 73.201C45.4902 70.6415 44.6003 67.6873 44.6928 64.4335C44.7148 63.6553 45.1722 63.151 45.8701 63.1296C46.5999 63.1076 47.073 63.6141 47.1583 64.4037C47.1944 64.7379 47.2228 65.0749 47.2513 65.4123L47.2513 65.4125C47.3332 66.3847 47.4154 67.3597 47.6826 68.2791C48.8919 72.4384 52.7695 75.5911 56.9252 75.9568C61.6401 76.3715 65.8804 74.1414 67.9683 70.1151C69.0099 68.1055 70.0255 66.0824 71.0409 64.0595L71.0411 64.059L71.0415 64.0582L71.5499 63.0457C72.2321 61.6877 71.7968 60.2487 70.5377 59.6348C69.2985 59.0308 67.927 59.5444 67.2469 60.8818C66.8569 61.649 66.4729 62.4194 66.089 63.1899L66.0887 63.1904L66.0885 63.1907L66.0884 63.191L66.0882 63.1913L66.0881 63.1916L66.0879 63.1919C65.3028 64.7673 64.5177 66.3426 63.6809 67.89C62.4759 70.1187 60.5368 71.2611 57.9908 71.1786C55.4428 71.0961 53.5819 69.8242 52.5468 67.5144C52.1741 66.6828 52.0254 65.7012 51.9891 64.7793C51.9322 63.3292 51.9434 61.8767 51.9548 60.4055L51.9548 60.4046C51.9595 59.7997 51.9642 59.1915 51.9642 58.5791H39.9395C39.9363 58.6424 39.9323 58.7049 39.9283 58.7668L39.9283 58.7669C39.9194 58.9079 39.9106 59.0456 39.9111 59.183C39.916 61.3569 39.9217 63.5301 39.931 65.704C39.9345 66.5477 39.5248 67.0741 38.8163 67.1239C38.0658 67.1765 37.5529 66.6971 37.4782 65.842C37.4484 65.5035 37.449 65.1617 37.4496 64.8204V64.8203V64.8203V64.8203V64.8202V64.8202L37.4498 64.674C37.4476 59.055 37.4476 53.436 37.4476 47.8171V47.0509C37.2354 47.0121 37.0256 46.9761 36.8177 46.9405C36.3714 46.8641 35.9343 46.7893 35.5028 46.6903C29.1554 45.2292 24.686 39.6514 24.6483 33.1376C24.6326 30.3896 24.6397 27.6417 24.6468 24.8937C24.654 22.4189 26.4679 20.5317 28.8445 20.5082C31.2311 20.4847 33.0949 22.3862 33.1098 24.8951C33.1197 26.4839 33.1176 28.0726 33.1155 29.6614V29.6623C33.1142 30.6981 33.1128 31.734 33.1148 32.7698C33.1219 36.2796 35.421 38.5723 38.9358 38.5816C39.1426 38.582 39.3494 38.5817 39.5817 38.5814H39.5826H39.5837H39.5848C39.7616 38.5811 39.9531 38.5808 40.1707 38.5808ZM51.9785 56.0453V55.3254C51.9785 54.5045 51.9783 53.6836 51.9781 52.8627V52.8565V52.8565V52.8564V52.8564V52.8564C51.9775 50.6035 51.9769 48.3508 51.9806 46.0984C51.982 45.0513 52.4309 44.616 53.4773 44.5783C53.9475 44.5612 54.4177 44.5185 54.8843 44.4609C59.9278 43.8413 64.3055 39.3754 64.6178 34.2942C64.7607 31.9725 64.7461 29.6408 64.7314 27.3098C64.7261 26.4612 64.7208 25.6128 64.7231 24.7649C64.7252 23.9547 64.2145 23.2974 63.5244 23.0684C62.3422 22.6764 61.1997 23.5251 61.1926 24.8361C61.1837 26.5077 61.1851 28.1796 61.1866 29.8515C61.1874 30.8454 61.1883 31.8393 61.1869 32.8331C61.1805 37.575 57.7404 41.0329 53.0121 41.04C48.2759 41.0471 43.5404 41.0478 38.8042 41.04C34.0979 41.0322 30.6663 37.5935 30.6542 32.8829C30.6514 31.7222 30.6523 30.5613 30.6531 29.4004V29.4004V29.4004V29.4004V29.4004V29.4004C30.6543 27.8955 30.6554 26.3906 30.6485 24.8859C30.6436 23.7776 29.9016 22.9894 28.8986 22.9723C27.8721 22.9553 27.1117 23.7591 27.1088 24.8987C27.1075 25.4052 27.1059 25.9118 27.1043 26.4184V26.4186V26.4188V26.4191V26.4193V26.4195V26.4197C27.097 28.7014 27.0897 30.9834 27.1124 33.2649C27.1736 39.4145 32.2071 44.4673 38.361 44.5818C39.502 44.6032 39.9068 45.0129 39.9075 46.1589C39.909 48.3565 39.9087 50.5541 39.9085 52.7515L39.9082 55.3858V56.0446C43.9658 56.0453 47.9216 56.0453 51.9785 56.0453ZM51.246 32.6749V32.6748V32.6746V32.6745V32.6744V32.6743V32.6742C51.2479 32.5481 51.2497 32.4219 51.2429 32.296C51.1234 30.0297 50.0166 28.3928 47.9444 27.53C45.8381 26.6529 43.869 27.0669 42.203 28.624C40.6537 30.0716 40.3855 31.9432 40.6203 33.9435C40.9845 37.0507 44.0497 39.1734 47.0986 38.4813C49.1074 38.026 51.408 36.116 51.2443 32.8495C51.2443 32.7915 51.2452 32.7334 51.246 32.6752V32.6752V32.6751V32.675V32.6749ZM56.3163 68.2059C58.2206 69.2949 60.5268 68.6291 61.5341 66.7134C62.4859 64.9023 63.3971 63.0699 64.2927 61.2303C64.3916 61.0276 64.3596 60.6627 64.2372 60.4678C63.3025 58.9853 61.0994 59.0507 60.1875 60.5759C60.0024 60.8857 59.8421 61.2109 59.682 61.5357C59.6249 61.6516 59.5678 61.7675 59.5096 61.8826C58.5812 63.7194 57.654 65.5561 56.7159 67.4144L56.714 67.4181L56.3163 68.2059ZM70.4861 25.3825C70.5818 25.3805 70.6776 25.3784 70.7732 25.3784C70.8697 25.3784 70.9663 25.3804 71.0629 25.3824C71.2732 25.3867 71.4834 25.391 71.6915 25.3749C72.3495 25.3223 72.8454 24.7987 72.856 24.1713C72.8667 23.5481 72.3766 22.9798 71.7257 22.9399C71.0947 22.9015 70.4581 22.9015 69.8271 22.9392C69.1691 22.9783 68.6925 23.5325 68.6996 24.167C68.7074 24.803 69.1897 25.3194 69.8541 25.3742C70.0636 25.3913 70.2748 25.3869 70.4861 25.3825ZM76.0757 28.5238L76.0757 28.5243V28.5243V28.5244V28.5244C76.0804 28.7352 76.0852 28.946 76.0671 29.1551C76.0102 29.8159 75.4852 30.2982 74.8507 30.3003C74.2154 30.3025 73.6691 29.8216 73.6314 29.1622C73.5959 28.5312 73.5937 27.8938 73.6336 27.2636C73.6748 26.6184 74.2546 26.1275 74.8749 26.1432C75.4788 26.1588 76.0017 26.6319 76.0635 27.2565C76.0856 27.4795 76.08 27.7052 76.0743 27.931C76.0718 28.033 76.0692 28.1349 76.0692 28.2367L76.0698 28.2363L76.0702 28.2361L76.0714 28.236C76.0714 28.3318 76.0735 28.4278 76.0757 28.5238ZM25.3802 71.0713V71.0713V71.0712C25.3781 70.9753 25.3761 70.8794 25.3761 70.7836L25.3751 70.7836C25.3747 70.7837 25.3743 70.7839 25.3739 70.7843C25.3739 70.6823 25.3765 70.5802 25.3792 70.4781C25.385 70.2524 25.3908 70.0269 25.3682 69.804C25.3042 69.1745 24.7871 68.7121 24.1767 68.6993C23.5422 68.6865 22.9795 69.161 22.9383 69.8161C22.8984 70.4464 22.9005 71.0838 22.9368 71.7147C22.9738 72.3656 23.5365 72.8607 24.1582 72.8565C24.7863 72.8522 25.3156 72.3606 25.3718 71.7026C25.3894 71.4933 25.3848 71.2824 25.3802 71.0713ZM27.9236 76.0761L27.9231 76.0761H27.9231C27.7123 76.0809 27.5015 76.0856 27.2924 76.0675C26.6386 76.0113 26.145 75.4743 26.1428 74.8497C26.1414 74.2251 26.6344 73.6689 27.2881 73.6319C27.9191 73.5963 28.5565 73.5942 29.1867 73.634C29.817 73.6738 30.2829 74.2052 30.3 74.8149C30.3171 75.448 29.8447 75.9978 29.191 76.064C28.9682 76.0865 28.7426 76.0807 28.517 76.0749C28.4148 76.0723 28.3127 76.0697 28.2107 76.0697C28.2114 76.0704 28.2114 76.0711 28.2114 76.0718C28.1156 76.0718 28.0196 76.074 27.9236 76.0761ZM41.3722 70.8126C41.3872 70.1305 40.8224 69.5543 40.1395 69.555C39.4694 69.555 38.9295 70.0849 38.9167 70.7522C38.9039 71.4415 39.463 72.0163 40.1437 72.0141C40.8046 72.012 41.358 71.4699 41.3722 70.8126Z" fill="#E16464"/>
<path d="M75.2171 18L75.2887 17.8682L75.2552 17.85H75.2171V18ZM76.0856 19.6667L75.9363 19.6524L75.9363 19.6525L76.0856 19.6667ZM74.4787 18V17.85H74.4349L74.3981 17.8735L74.4787 18ZM73.6193 19.2363L73.4693 19.2369L73.4694 19.2369L73.6193 19.2363ZM73.6163 19.8084L73.4663 19.8069V19.8084H73.6163ZM73.6163 19.8086L73.7663 19.8101V19.8086H73.6163ZM73.6258 20.9521L73.4759 20.9588L73.4759 20.9589L73.6258 20.9521ZM76.0707 20.9528L75.9209 20.9444L75.9209 20.9444L76.0707 20.9528ZM76.0733 20.3731L76.2233 20.3699L76.2233 20.3699L76.0733 20.3731ZM81.0002 24.5223L81.1318 24.5944L81.1502 24.5607V24.5223H81.0002ZM79.3328 25.3908L79.3471 25.2415L79.347 25.2415L79.3328 25.3908ZM81.0002 23.7839H81.1502V23.7397L81.1262 23.7025L81.0002 23.7839ZM79.7632 22.9246L79.7626 22.7746L79.7626 22.7746L79.7632 22.9246ZM79.1905 22.9215L79.189 23.0715L79.189 23.0715L79.1905 22.9215ZM78.0467 22.931L78.0399 22.7811L78.0399 22.7811L78.0467 22.931ZM78.046 25.3759L78.0544 25.2261L78.0543 25.2261L78.046 25.3759ZM78.6263 25.3786L78.6232 25.2286L78.6232 25.2286L78.6263 25.3786ZM19.666 73.6105L19.6517 73.7598L19.6518 73.7598L19.666 73.6105ZM18 74.4791L17.8681 74.4076L17.85 74.441V74.4791H18ZM20.3755 73.6226L20.3722 73.4726L20.3722 73.4726L20.3755 73.6226ZM20.9521 73.6247L20.9439 73.7745L20.9439 73.7745L20.9521 73.6247ZM22.1607 74.8468L22.0107 74.8467V74.8468H22.1607ZM20.9528 76.0696L20.9597 76.2195L20.9598 76.2195L20.9528 76.0696ZM19.7918 76.0794L19.7902 76.2294L19.7902 76.2294L19.7918 76.0794ZM19.237 76.076L19.2374 76.226L19.2374 76.226L19.237 76.076ZM18 75.2167H17.85V75.2607L17.8737 75.2977L18 75.2167ZM23.7833 80.9997L23.7115 81.1314L23.7451 81.1497H23.7833V80.9997ZM22.9147 79.333L22.7654 79.3185L22.7654 79.3185L22.9147 79.333ZM24.521 81.0004L24.5205 81.1504L24.5652 81.1505L24.6027 81.1262L24.521 81.0004ZM25.3803 79.7634L25.5303 79.7628L25.5303 79.7628L25.3803 79.7634ZM25.3835 79.1907L25.5335 79.1922L25.5335 79.1922L25.3835 79.1907ZM25.3739 78.0469L25.224 78.0538L25.224 78.0538L25.3739 78.0469ZM22.929 78.0469L22.7792 78.0388L22.7792 78.0389L22.929 78.0469ZM22.9272 78.6179L23.0772 78.6146L23.0772 78.6146L22.9272 78.6179ZM38.4407 30.2537L38.2959 30.2147L38.2959 30.2148L38.4407 30.2537ZM40.1707 38.5808V38.7308H40.4925L40.2856 38.4844L40.1707 38.5808ZM46.7052 24.6796L46.687 24.8285L46.6871 24.8285L46.7052 24.6796ZM53.7156 32.173L53.8655 32.1667L53.8655 32.1666L53.7156 32.173ZM51.6825 38.5175L51.5704 38.4179L51.3782 38.6341L51.6657 38.6666L51.6825 38.5175ZM57.197 36.875L57.3057 36.9783L57.3057 36.9783L57.197 36.875ZM58.7249 32.9683L58.5749 32.9682V32.9683H58.7249ZM58.7227 30.3973L58.8727 30.397L58.8727 30.397L58.7227 30.3973ZM58.7335 24.6625L58.8835 24.6638L58.8835 24.6638L58.7335 24.6625ZM62.4766 20.5466L62.4584 20.3977L62.4584 20.3977L62.4766 20.5466ZM67.0335 23.6602L67.1786 23.6219L67.1786 23.6219L67.0335 23.6602ZM67.1794 24.6298L67.0294 24.6291L67.0294 24.6292L67.1794 24.6298ZM67.1879 27.4455L67.3379 27.4445L67.3379 27.4445L67.1879 27.4455ZM67.0841 34.3454L67.2338 34.3542L67.2338 34.3542L67.0841 34.3454ZM55.8589 46.7941L55.8325 46.6465L55.8324 46.6465L55.8589 46.7941ZM54.9185 46.9497L54.8951 46.8016L54.8951 46.8016L54.9185 46.9497ZM54.4995 47.0168L54.4753 46.8687L54.3495 46.8893V47.0168H54.4995ZM54.4995 65.9288H54.3495V66.0404L54.4564 66.0725L54.4995 65.9288ZM54.5654 65.9486L54.6088 65.805L54.6085 65.8049L54.5654 65.9486ZM54.5659 65.9487L54.5225 66.0924L54.5273 66.0937L54.5659 65.9487ZM54.5661 65.9488L54.6095 65.8051L54.6048 65.8038L54.5661 65.9488ZM54.6517 65.9743L54.6097 66.1183L54.7232 66.1514L54.7819 66.0489L54.6517 65.9743ZM54.737 65.8282L54.612 65.7449L54.6077 65.7521L54.737 65.8282ZM54.737 65.8282L54.862 65.9115L54.8663 65.9042L54.737 65.8282ZM54.927 65.4892L54.7932 65.4213L54.7932 65.4214L54.927 65.4892ZM55.7536 63.9047L55.8862 63.9749L55.8866 63.9741L55.7536 63.9047ZM55.7539 63.9042L55.8869 63.9736L55.8903 63.9669L55.8931 63.9599L55.7539 63.9042ZM55.754 63.9039L55.6214 63.8338L55.6177 63.8408L55.6147 63.8482L55.754 63.9039ZM57.5398 60.2728L57.4015 60.2147L57.4015 60.2147L57.5398 60.2728ZM65.8804 58.4866L65.7755 58.5938L65.8807 58.6968L65.9857 58.5935L65.8804 58.4866ZM68.6341 57.0099L68.6566 57.1582L68.6566 57.1582L68.6341 57.0099ZM73.3525 58.8736L73.2327 58.9638L73.2327 58.9638L73.3525 58.8736ZM73.8071 64.0302L73.6725 63.9639L73.6725 63.9639L73.8071 64.0302ZM70.1884 71.1494L70.0558 71.0794L70.0557 71.0795L70.1884 71.1494ZM68.6007 73.551L68.714 73.6493L68.714 73.6492L68.6007 73.551ZM55.373 78.1591L55.3445 78.3064L55.3446 78.3064L55.373 78.1591ZM53.5181 78.243L53.5443 78.3907L53.5443 78.3907L53.5181 78.243ZM52.958 78.3348L52.9374 78.1862L52.9374 78.1862L52.958 78.3348ZM42.7166 75.6729L42.6262 75.7926L42.6263 75.7926L42.7166 75.6729ZM42.1725 74.3548L42.0337 74.2978L42.0337 74.2978L42.1725 74.3548ZM43.0531 73.4628L43.015 73.3177L43.0148 73.3177L43.0531 73.4628ZM44.2766 73.7886L44.1887 73.9101L44.1888 73.9101L44.2766 73.7886ZM49.3258 75.9048L49.3032 76.0531L49.3032 76.0531L49.3258 75.9048ZM49.886 75.9567L49.8767 76.1064L49.8767 76.1064L49.886 75.9567ZM50.1254 75.9731L50.1132 76.1226L50.506 76.1546L50.2339 75.8696L50.1254 75.9731ZM49.2777 75.1124L49.3839 75.0062L49.3786 75.0014L49.2777 75.1124ZM49.2777 75.1124L49.1715 75.2185L49.1768 75.2233L49.2777 75.1124ZM49.2775 75.1122L49.3835 75.0061L49.3835 75.0061L49.2775 75.1122ZM47.5083 73.201L47.3905 73.2938L47.3906 73.2939L47.5083 73.201ZM44.6928 64.4335L44.8427 64.4378L44.8427 64.4378L44.6928 64.4335ZM45.8701 63.1296L45.8655 62.9797L45.8655 62.9797L45.8701 63.1296ZM47.1583 64.4037L47.3075 64.3876L47.3075 64.3875L47.1583 64.4037ZM47.2513 65.4123L47.1018 65.4248L47.1019 65.4265L47.2513 65.4123ZM47.2513 65.4125L47.4008 65.3999L47.4006 65.3983L47.2513 65.4125ZM47.6826 68.2791L47.5386 68.321L47.5386 68.321L47.6826 68.2791ZM56.9252 75.9568L56.9121 76.1062L56.9121 76.1062L56.9252 75.9568ZM67.9683 70.1151L68.1014 70.1842L68.1014 70.1842L67.9683 70.1151ZM71.0409 64.0595L71.175 64.1268L71.1751 64.1266L71.0409 64.0595ZM71.0411 64.059L70.9073 63.9912L70.907 63.9919L71.0411 64.059ZM71.0415 64.0582L71.1753 64.126L71.1756 64.1255L71.0415 64.0582ZM71.5499 63.0457L71.4159 62.9784L71.4159 62.9784L71.5499 63.0457ZM70.5377 59.6348L70.6034 59.4999L70.6034 59.4999L70.5377 59.6348ZM67.2469 60.8818L67.1132 60.8138L67.1132 60.8138L67.2469 60.8818ZM66.089 63.1899L65.9547 63.123L65.9542 63.1239L66.089 63.1899ZM66.0887 63.1904L66.2218 63.2597L66.2234 63.2564L66.0887 63.1904ZM66.0879 63.1919L65.9548 63.1227L65.9537 63.125L66.0879 63.1919ZM63.6809 67.89L63.549 67.8187L63.549 67.8187L63.6809 67.89ZM57.9908 71.1786L57.9957 71.0287L57.9957 71.0287L57.9908 71.1786ZM52.5468 67.5144L52.6837 67.4531L52.6837 67.4531L52.5468 67.5144ZM51.9891 64.7793L51.8392 64.7852L51.8392 64.7852L51.9891 64.7793ZM51.9548 60.4055L51.8048 60.4034L51.8048 60.4043L51.9548 60.4055ZM51.9548 60.4046L52.1048 60.4066L52.1048 60.4058L51.9548 60.4046ZM51.9642 58.5791H52.1142V58.4291H51.9642V58.5791ZM39.9395 58.5791V58.4291H39.797L39.7897 58.5714L39.9395 58.5791ZM39.9283 58.7668L40.078 58.7775L40.078 58.7763L39.9283 58.7668ZM39.9283 58.7669L39.7787 58.7562L39.7786 58.7574L39.9283 58.7669ZM39.9111 59.183L40.0611 59.1827L40.0611 59.1825L39.9111 59.183ZM39.931 65.704L40.081 65.7034L40.081 65.7034L39.931 65.704ZM38.8163 67.1239L38.8268 67.2735L38.8268 67.2735L38.8163 67.1239ZM37.4782 65.842L37.6277 65.829L37.6277 65.8288L37.4782 65.842ZM37.4496 64.8204L37.5996 64.8207V64.8204H37.4496ZM37.4496 64.8202L37.2996 64.82V64.8202H37.4496ZM37.4498 64.674L37.5998 64.6742L37.5998 64.6739L37.4498 64.674ZM37.4476 47.0509H37.5976V46.9259L37.4747 46.9034L37.4476 47.0509ZM36.8177 46.9405L36.843 46.7927L36.843 46.7927L36.8177 46.9405ZM35.5028 46.6903L35.4692 46.8364L35.4693 46.8365L35.5028 46.6903ZM24.6483 33.1376L24.4983 33.1384L24.4983 33.1384L24.6483 33.1376ZM24.6468 24.8937L24.4968 24.8933L24.4968 24.8933L24.6468 24.8937ZM28.8445 20.5082L28.8431 20.3582L28.8431 20.3582L28.8445 20.5082ZM33.1098 24.8951L32.9598 24.896L32.9598 24.8961L33.1098 24.8951ZM33.1155 29.6614L32.9655 29.6612V29.6614H33.1155ZM33.1155 29.6623L33.2655 29.6625V29.6623H33.1155ZM33.1148 32.7698L32.9648 32.7701L32.9648 32.7701L33.1148 32.7698ZM38.9358 38.5816L38.9354 38.7316L38.9355 38.7316L38.9358 38.5816ZM39.5817 38.5814V38.4314L39.5815 38.4314L39.5817 38.5814ZM39.5848 38.5814L39.5848 38.7314L39.585 38.7314L39.5848 38.5814ZM51.9785 56.0453V56.1953H52.1285V56.0453H51.9785ZM51.9781 52.8627H51.8281L51.8281 52.8627L51.9781 52.8627ZM51.9781 52.8564L52.1281 52.8564L52.1281 52.8563L51.9781 52.8564ZM51.9806 46.0984L52.1306 46.0987L52.1306 46.0986L51.9806 46.0984ZM53.4773 44.5783L53.4827 44.7282L53.4827 44.7282L53.4773 44.5783ZM54.8843 44.4609L54.8661 44.312L54.866 44.312L54.8843 44.4609ZM64.6178 34.2942L64.4681 34.285L64.4681 34.285L64.6178 34.2942ZM64.7314 27.3098L64.8814 27.3089L64.8814 27.3089L64.7314 27.3098ZM64.7231 24.7649L64.8731 24.7653L64.8731 24.7653L64.7231 24.7649ZM63.5244 23.0684L63.5717 22.926L63.5716 22.926L63.5244 23.0684ZM61.1926 24.8361L61.0426 24.8353L61.0426 24.8353L61.1926 24.8361ZM61.1866 29.8515L61.0366 29.8516L61.0366 29.8516L61.1866 29.8515ZM61.1869 32.8331L61.3369 32.8333L61.3369 32.8333L61.1869 32.8331ZM53.0121 41.04L53.0123 41.19L53.0123 41.19L53.0121 41.04ZM38.8042 41.04L38.804 41.19L38.804 41.19L38.8042 41.04ZM30.6542 32.8829L30.5042 32.8833L30.5042 32.8833L30.6542 32.8829ZM30.6531 29.4004L30.8031 29.4005V29.4004H30.6531ZM30.6531 29.4004L30.5031 29.4002V29.4004H30.6531ZM30.6485 24.8859L30.4985 24.8865L30.4985 24.8866L30.6485 24.8859ZM28.8986 22.9723L28.9012 22.8224L28.9011 22.8224L28.8986 22.9723ZM27.1088 24.8987L27.2588 24.8991L27.2588 24.8991L27.1088 24.8987ZM27.1043 26.4184L26.9543 26.4179V26.4184H27.1043ZM27.1043 26.4197L27.2543 26.4202V26.4197H27.1043ZM27.1124 33.2649L27.2624 33.2634L27.2624 33.2634L27.1124 33.2649ZM38.361 44.5818L38.3638 44.4318L38.3638 44.4318L38.361 44.5818ZM39.9075 46.1589L39.7575 46.159L39.7575 46.159L39.9075 46.1589ZM39.9085 52.7515L39.7585 52.7514L39.7585 52.7515L39.9085 52.7515ZM39.9082 55.3858L39.7582 55.3858V55.3858H39.9082ZM39.9082 56.0446H39.7582V56.1945L39.9082 56.1946L39.9082 56.0446ZM51.246 32.6742L51.096 32.672V32.6742H51.246ZM51.2429 32.296L51.0931 32.3039L51.0931 32.3041L51.2429 32.296ZM47.9444 27.53L47.8867 27.6684L47.8867 27.6684L47.9444 27.53ZM42.203 28.624L42.3055 28.7336L42.3055 28.7336L42.203 28.624ZM40.6203 33.9435L40.7693 33.9261L40.7693 33.926L40.6203 33.9435ZM47.0986 38.4813L47.0654 38.335L47.0654 38.335L47.0986 38.4813ZM51.2443 32.8495H51.0942L51.0945 32.857L51.2443 32.8495ZM51.246 32.6752L51.396 32.6774V32.6752H51.246ZM61.5341 66.7134L61.6668 66.7832L61.6669 66.7832L61.5341 66.7134ZM56.3163 68.2059L56.1824 68.1383L56.1182 68.2654L56.2418 68.3361L56.3163 68.2059ZM64.2927 61.2303L64.1579 61.1646L64.1578 61.1647L64.2927 61.2303ZM64.2372 60.4678L64.3643 60.388L64.3641 60.3878L64.2372 60.4678ZM60.1875 60.5759L60.0587 60.4989L60.0587 60.499L60.1875 60.5759ZM59.682 61.5357L59.5475 61.4694L59.5475 61.4694L59.682 61.5357ZM59.5096 61.8826L59.3757 61.8149L59.3757 61.815L59.5096 61.8826ZM56.7159 67.4144L56.582 67.3468L56.5819 67.3468L56.7159 67.4144ZM56.714 67.4181L56.8479 67.4857L56.8479 67.4857L56.714 67.4181ZM70.4861 25.3825L70.4829 25.2325L70.4829 25.2325L70.4861 25.3825ZM71.0629 25.3824L71.0598 25.5324L71.0598 25.5324L71.0629 25.3824ZM71.6915 25.3749L71.7031 25.5244L71.7035 25.5244L71.6915 25.3749ZM72.856 24.1713L72.7061 24.1687L72.706 24.1687L72.856 24.1713ZM71.7257 22.9399L71.7349 22.7902L71.7348 22.7902L71.7257 22.9399ZM69.8271 22.9392L69.836 23.089L69.836 23.089L69.8271 22.9392ZM68.6996 24.167L68.5496 24.1687L68.5496 24.1689L68.6996 24.167ZM69.8541 25.3742L69.8418 25.5237L69.8419 25.5237L69.8541 25.3742ZM76.0757 28.5243H76.2257L76.2256 28.5206L76.0757 28.5243ZM76.0757 28.5238L75.9257 28.5272L75.9257 28.5275L76.0757 28.5238ZM76.0757 28.5244H75.9256L75.9257 28.5278L76.0757 28.5244ZM76.0671 29.1551L75.9176 29.1421L75.9176 29.1422L76.0671 29.1551ZM74.8507 30.3003L74.8512 30.4503L74.8512 30.4503L74.8507 30.3003ZM73.6314 29.1622L73.4817 29.1706L73.4817 29.1707L73.6314 29.1622ZM73.6336 27.2636L73.4839 27.254L73.4839 27.2541L73.6336 27.2636ZM74.8749 26.1432L74.8788 25.9932L74.8787 25.9932L74.8749 26.1432ZM76.0635 27.2565L76.2128 27.2417L76.2128 27.2417L76.0635 27.2565ZM76.0743 27.931L75.9244 27.9273L75.9244 27.9273L76.0743 27.931ZM76.0692 28.2367H75.9192V28.5352L76.1587 28.3571L76.0692 28.2367ZM76.0698 28.2363L76.0133 28.0973L75.9956 28.1045L75.9803 28.1159L76.0698 28.2363ZM76.0702 28.2361L76.0559 28.0868L76.034 28.0889L76.0137 28.0972L76.0702 28.2361ZM76.0714 28.236H76.2214V28.0709L76.057 28.0867L76.0714 28.236ZM25.3802 71.0713H25.2302L25.2303 71.0746L25.3802 71.0713ZM25.3802 71.0712H25.5303L25.5302 71.068L25.3802 71.0712ZM25.3761 70.7836H25.5261V70.6227L25.3656 70.6339L25.3761 70.7836ZM25.3751 70.7836L25.3646 70.634L25.3545 70.6347L25.3445 70.6368L25.3751 70.7836ZM25.3739 70.7843H25.2239V71.1464L25.48 70.8904L25.3739 70.7843ZM25.3792 70.4781L25.2292 70.4742L25.2292 70.4742L25.3792 70.4781ZM25.3682 69.804L25.5175 69.789L25.5175 69.7889L25.3682 69.804ZM24.1767 68.6993L24.1799 68.5493L24.1797 68.5493L24.1767 68.6993ZM22.9383 69.8161L23.088 69.8256L23.088 69.8256L22.9383 69.8161ZM22.9368 71.7147L23.0866 71.7062L23.0866 71.7061L22.9368 71.7147ZM24.1582 72.8565L24.1572 72.7065L24.1572 72.7065L24.1582 72.8565ZM25.3718 71.7026L25.5212 71.7154L25.5213 71.7152L25.3718 71.7026ZM27.9231 76.0761V76.2262L27.9268 76.2261L27.9231 76.0761ZM27.9236 76.0761L27.9203 75.9262L27.92 75.9262L27.9236 76.0761ZM27.9231 76.0761V75.9261L27.9197 75.9262L27.9231 76.0761ZM27.2924 76.0675L27.3053 75.9181L27.3052 75.9181L27.2924 76.0675ZM26.1428 74.8497L25.9928 74.8501L25.9928 74.8502L26.1428 74.8497ZM27.2881 73.6319L27.2797 73.4821L27.2796 73.4821L27.2881 73.6319ZM29.1867 73.634L29.1962 73.4843L29.1962 73.4843L29.1867 73.634ZM30.3 74.8149L30.4499 74.8108L30.4499 74.8107L30.3 74.8149ZM29.191 76.064L29.2061 76.2132L29.2061 76.2132L29.191 76.064ZM28.517 76.0749L28.5131 76.2249L28.5131 76.2249L28.517 76.0749ZM28.2107 76.0697V75.9197H27.8493L28.1045 76.1756L28.2107 76.0697ZM28.2114 76.0718V76.2218H28.3614V76.0718H28.2114ZM40.1395 69.555L40.1395 69.705L40.1396 69.705L40.1395 69.555ZM41.3722 70.8126L41.2223 70.8094L41.2223 70.8094L41.3722 70.8126ZM38.9167 70.7522L38.7667 70.7493L38.7667 70.7494L38.9167 70.7522ZM40.1437 72.0141L40.1442 72.1641L40.1442 72.1641L40.1437 72.0141ZM75.1454 18.1318C75.4559 18.3007 75.667 18.5083 75.7939 18.7537C75.9211 18.9995 75.9705 19.2957 75.9363 19.6524L76.2349 19.681C76.2733 19.2808 76.2199 18.924 76.0604 18.6158C75.9007 18.3072 75.6411 18.0599 75.2887 17.8682L75.1454 18.1318ZM74.4787 18.15H75.2171V17.85H74.4787V18.15ZM73.7693 19.2358C73.7675 18.7079 74.1042 18.4165 74.5593 18.1265L74.3981 17.8735C73.9355 18.1683 73.4669 18.5384 73.4693 19.2369L73.7693 19.2358ZM73.7663 19.8098C73.7682 19.6193 73.7701 19.4276 73.7693 19.2358L73.4694 19.2369C73.4701 19.4263 73.4682 19.616 73.4663 19.8069L73.7663 19.8098ZM73.7663 19.8086V19.8084H73.4663V19.8086H73.7663ZM73.7756 20.9454C73.7587 20.5694 73.7625 20.1921 73.7663 19.8101L73.4663 19.8071C73.4625 20.1878 73.4586 20.5733 73.4759 20.9588L73.7756 20.9454ZM74.8479 22.0114C74.2861 22.0114 73.8034 21.5578 73.7756 20.9453L73.4759 20.9589C73.5107 21.7251 74.1192 22.3114 74.8479 22.3114V22.0114ZM75.9209 20.9444C75.886 21.565 75.4128 22.0114 74.8479 22.0114V22.3114C75.5818 22.3114 76.1771 21.7307 76.2204 20.9613L75.9209 20.9444ZM75.9234 20.3763C75.9275 20.5709 75.9314 20.7587 75.9209 20.9444L76.2204 20.9613C76.2317 20.762 76.2274 20.5625 76.2233 20.3699L75.9234 20.3763ZM75.9363 19.6525C75.913 19.8965 75.9184 20.1415 75.9234 20.3763L76.2233 20.3699C76.2183 20.1321 76.2136 19.9046 76.2349 19.6809L75.9363 19.6525ZM80.8687 24.4502C80.6989 24.76 80.4912 24.9712 80.2458 25.0984C80 25.2259 79.704 25.2757 79.3471 25.2415L79.3185 25.5402C79.7192 25.5785 80.0758 25.5245 80.3839 25.3648C80.6922 25.2048 80.9394 24.9454 81.1318 24.5944L80.8687 24.4502ZM80.8502 23.7839V24.5223H81.1502V23.7839H80.8502ZM79.7637 23.0746C80.292 23.0727 80.5812 23.4117 80.8742 23.8653L81.1262 23.7025C80.8302 23.2442 80.4621 22.7722 79.7626 22.7746L79.7637 23.0746ZM79.189 23.0715C79.3797 23.0734 79.5716 23.0753 79.7637 23.0746L79.7626 22.7746C79.5729 22.7753 79.383 22.7734 79.1919 22.7715L79.189 23.0715ZM78.0534 23.0808C78.4294 23.064 78.8067 23.0677 79.189 23.0715L79.1919 22.7715C78.811 22.7677 78.4255 22.7639 78.0399 22.7811L78.0534 23.0808ZM76.9874 24.1524C76.9874 23.5878 77.4381 23.1087 78.0534 23.0808L78.0399 22.7811C77.271 22.8159 76.6874 23.4208 76.6874 24.1524H76.9874ZM78.0543 25.2261C77.4396 25.1919 76.9874 24.7132 76.9874 24.1524H76.6874C76.6874 24.882 77.2737 25.4831 78.0376 25.5257L78.0543 25.2261ZM78.6232 25.2286C78.4285 25.2327 78.2405 25.2367 78.0544 25.2261L78.0375 25.5257C78.2371 25.5369 78.4368 25.5326 78.6295 25.5285L78.6232 25.2286ZM79.347 25.2415C79.1031 25.2183 78.8581 25.2236 78.6232 25.2286L78.6295 25.5285C78.8675 25.5235 79.0949 25.5189 79.3186 25.5402L79.347 25.2415ZM19.6803 73.4612C19.2806 73.4228 18.9238 73.4758 18.6155 73.6352C18.3068 73.7947 18.0595 74.0544 17.8681 74.4076L18.1319 74.5505C18.3005 74.2394 18.508 74.0284 18.7533 73.9017C18.999 73.7747 19.2952 73.7256 19.6517 73.7598L19.6803 73.4612ZM20.3722 73.4726C20.1333 73.4778 19.9049 73.4826 19.6802 73.4612L19.6518 73.7598C19.8968 73.7832 20.1429 73.7777 20.3787 73.7725L20.3722 73.4726ZM20.9603 73.475C20.7622 73.4641 20.5638 73.4684 20.3722 73.4726L20.3787 73.7725C20.5723 73.7683 20.7591 73.7644 20.9439 73.7745L20.9603 73.475ZM22.3107 74.847C22.3115 74.1149 21.7262 73.5167 20.9603 73.4749L20.9439 73.7745C21.5609 73.8081 22.0113 74.2841 22.0107 74.8467L22.3107 74.847ZM20.9598 76.2195C21.7288 76.1839 22.3107 75.5788 22.3107 74.8468H22.0107C22.0107 75.4123 21.5611 75.8914 20.9459 75.9198L20.9598 76.2195ZM19.7902 76.2294C20.1767 76.2334 20.5682 76.2375 20.9597 76.2195L20.9459 75.9198C20.5643 75.9374 20.1813 75.9335 19.7933 75.9294L19.7902 76.2294ZM19.2374 76.226C19.4211 76.2256 19.6051 76.2275 19.7902 76.2294L19.7933 75.9294C19.6086 75.9275 19.4227 75.9256 19.2367 75.9261L19.2374 76.226ZM17.8737 75.2977C18.169 75.7585 18.5398 76.2277 19.2374 76.226L19.2367 75.9261C18.7093 75.9273 18.4171 75.5897 18.1263 75.1358L17.8737 75.2977ZM17.85 74.4791V75.2167H18.15V74.4791H17.85ZM23.8551 80.868C23.5443 80.6986 23.3331 80.4911 23.2061 80.2459C23.0789 80.0004 23.0295 79.7044 23.064 79.3474L22.7654 79.3185C22.7267 79.7191 22.7801 80.0758 22.9397 80.3839C23.0996 80.6924 23.3593 80.9394 23.7115 81.1314L23.8551 80.868ZM24.5214 80.8504C24.2757 80.8497 24.0294 80.8497 23.7833 80.8497V81.1497C24.0295 81.1497 24.2754 81.1497 24.5205 81.1504L24.5214 80.8504ZM25.2303 79.7639C25.2321 80.2921 24.8921 80.5805 24.4393 80.8746L24.6027 81.1262C25.059 80.8299 25.5327 80.4624 25.5303 79.7628L25.2303 79.7639ZM25.2335 79.1891C25.2316 79.3798 25.2296 79.5718 25.2303 79.7639L25.5303 79.7628C25.5296 79.5731 25.5315 79.3832 25.5335 79.1922L25.2335 79.1891ZM25.224 78.0538C25.2414 78.4296 25.2375 78.8068 25.2335 79.1891L25.5335 79.1922C25.5375 78.8113 25.5415 78.4257 25.5237 78.04L25.224 78.0538ZM24.1518 76.9883C24.7186 76.9883 25.1956 77.4356 25.224 78.0538L25.5237 78.04C25.4882 77.2681 24.8853 76.6883 24.1518 76.6883V76.9883ZM23.0788 78.0549C23.1117 77.4412 23.5902 76.9883 24.1518 76.9883V76.6883C23.4215 76.6883 22.8202 77.2754 22.7792 78.0388L23.0788 78.0549ZM23.0772 78.6146C23.073 78.423 23.069 78.2379 23.0788 78.0548L22.7792 78.0389C22.7687 78.2351 22.7731 78.4315 22.7773 78.6212L23.0772 78.6146ZM23.064 79.3475C23.088 79.1004 23.0824 78.8523 23.0772 78.6146L22.7773 78.6212C22.7825 78.8619 22.7874 79.0921 22.7654 79.3185L23.064 79.3475ZM38.2959 30.2148C37.4868 33.2217 37.8746 36.0788 40.0558 38.6773L40.2856 38.4844C38.1759 35.9711 37.7983 33.2185 38.5855 30.2927L38.2959 30.2148ZM46.7234 24.5307C43.0343 24.0807 39.2837 26.5481 38.2959 30.2147L38.5855 30.2928C39.534 26.7719 43.1445 24.3964 46.687 24.8285L46.7234 24.5307ZM53.8655 32.1666C53.6987 28.2152 50.7409 25.0203 46.7233 24.5307L46.6871 24.8285C50.5613 25.3006 53.4053 28.377 53.5657 32.1793L53.8655 32.1666ZM51.7947 38.6172C53.4867 36.7133 53.9654 34.5376 53.8655 32.1667L53.5657 32.1793C53.6635 34.4976 53.1961 36.5886 51.5704 38.4179L51.7947 38.6172ZM57.0882 36.7717C55.6345 38.302 53.8117 38.6069 51.6994 38.3685L51.6657 38.6666C53.8271 38.9105 55.7617 38.6037 57.3057 36.9783L57.0882 36.7717ZM58.5749 32.9683C58.5749 34.4338 58.0966 35.71 57.0882 36.7717L57.3057 36.9783C58.3702 35.8576 58.8749 34.506 58.8749 32.9683H58.5749ZM58.5727 30.3975C58.574 31.2545 58.5754 32.1114 58.5749 32.9682L58.8749 32.9683C58.8754 32.1112 58.874 31.254 58.8727 30.397L58.5727 30.3975ZM58.5835 24.6612C58.5668 26.5737 58.5697 28.486 58.5727 30.3975L58.8727 30.397C58.8697 28.4853 58.8668 26.5745 58.8835 24.6638L58.5835 24.6612ZM62.4584 20.3977C60.2534 20.6668 58.6027 22.4488 58.5835 24.6612L58.8835 24.6638C58.9013 22.6081 60.4332 20.9471 62.4948 20.6955L62.4584 20.3977ZM67.1786 23.6219C66.6204 21.5087 64.603 20.136 62.4584 20.3977L62.4948 20.6955C64.4889 20.4522 66.3682 21.7286 66.8885 23.6985L67.1786 23.6219ZM67.3294 24.6304C67.3309 24.2885 67.2632 23.9425 67.1786 23.6219L66.8885 23.6985C66.9703 24.0082 67.0307 24.3251 67.0294 24.6291L67.3294 24.6304ZM67.3379 27.4445C67.3317 26.5056 67.3255 25.5676 67.3294 24.6304L67.0294 24.6292C67.0255 25.5683 67.0317 26.5079 67.0379 27.4465L67.3379 27.4445ZM67.2338 34.3542C67.3686 32.0543 67.3532 29.7465 67.3379 27.4445L67.0379 27.4465C67.0532 29.7502 67.0684 32.0481 66.9343 34.3367L67.2338 34.3542ZM55.8853 46.9418C61.9456 45.8573 66.8732 40.4946 67.2338 34.3542L66.9343 34.3367C66.5821 40.3334 61.7614 45.5855 55.8325 46.6465L55.8853 46.9418ZM54.942 47.0979C55.2502 47.049 55.5683 46.9986 55.8854 46.9418L55.8324 46.6465C55.5188 46.7027 55.2037 46.7527 54.8951 46.8016L54.942 47.0979ZM54.5236 47.1648C54.6606 47.1425 54.8002 47.1204 54.942 47.0979L54.8951 46.8016C54.7534 46.824 54.6131 46.8463 54.4753 46.8687L54.5236 47.1648ZM54.6495 65.9288V47.0168H54.3495V65.9288H54.6495ZM54.6085 65.8049L54.5426 65.7851L54.4564 66.0725L54.5224 66.0923L54.6085 65.8049ZM54.6093 65.8052L54.6088 65.805L54.522 66.0922L54.5225 66.0923L54.6093 65.8052ZM54.6048 65.8038L54.6046 65.8038L54.5273 66.0937L54.5275 66.0937L54.6048 65.8038ZM54.6937 65.8303C54.6658 65.8222 54.638 65.8138 54.6095 65.8052L54.5227 66.0924C54.551 66.1009 54.5802 66.1097 54.6097 66.1183L54.6937 65.8303ZM54.6077 65.7521C54.5792 65.8006 54.5501 65.85 54.5216 65.8998L54.7819 66.0489C54.8094 66.0009 54.8376 65.953 54.8662 65.9043L54.6077 65.7521ZM54.6122 65.745L54.6122 65.745L54.8618 65.9114L54.8618 65.9114L54.6122 65.745ZM54.7932 65.4214C54.7372 65.532 54.6739 65.6396 54.6077 65.7521L54.8663 65.9042C54.9316 65.7932 54.9998 65.6774 55.0608 65.557L54.7932 65.4214ZM55.621 63.8346C55.3424 64.3612 55.0631 64.8892 54.7932 65.4213L55.0608 65.557C55.3293 65.0276 55.6074 64.5019 55.8862 63.9749L55.621 63.8346ZM55.6209 63.8348L55.6206 63.8353L55.8866 63.9741L55.8869 63.9736L55.6209 63.8348ZM55.6146 63.8484L55.6146 63.8485L55.8931 63.9599L55.8932 63.9599L55.6146 63.8484ZM55.6146 63.8484L55.6146 63.8484L55.8932 63.9599L55.8932 63.9598L55.6146 63.8484ZM55.6147 63.8483L55.6146 63.8484L55.8932 63.9598L55.8932 63.9597L55.6147 63.8483ZM55.6147 63.8483L55.6147 63.8483L55.8932 63.9597L55.8932 63.9597L55.6147 63.8483ZM55.6147 63.8482L55.6147 63.8483L55.8932 63.9597L55.8933 63.9596L55.6147 63.8482ZM57.4015 60.2147C56.8828 61.449 56.254 62.6379 55.6214 63.8338L55.8866 63.9741C56.5181 62.7802 57.1534 61.5795 57.6781 60.331L57.4015 60.2147ZM65.9854 58.3794C64.5977 57.0213 62.838 56.5568 61.2285 56.8978C59.6191 57.2388 58.1719 58.3823 57.4015 60.2147L57.6781 60.331C58.4123 58.5845 59.7824 57.5108 61.2907 57.1913C62.7988 56.8718 64.4572 57.3036 65.7755 58.5938L65.9854 58.3794ZM68.6116 56.8616C67.4849 57.0326 66.5605 57.6068 65.7752 58.3797L65.9857 58.5935C66.7398 57.8513 67.6093 57.3172 68.6566 57.1582L68.6116 56.8616ZM73.4723 58.7834C72.2638 57.1784 70.5907 56.5608 68.6116 56.8616L68.6566 57.1582C70.5344 56.8728 72.0951 57.4531 73.2327 58.9638L73.4723 58.7834ZM73.9416 64.0965C74.8492 62.255 74.7112 60.4287 73.4723 58.7834L73.2327 58.9638C74.401 60.5154 74.5319 62.2202 73.6725 63.9639L73.9416 64.0965ZM70.321 71.2195C71.5646 68.864 72.7646 66.4853 73.9416 64.0965L73.6725 63.9639C72.4963 66.3511 71.2976 68.7271 70.0558 71.0794L70.321 71.2195ZM68.714 73.6492C69.3481 72.9175 69.8721 72.0708 70.3211 71.2194L70.0557 71.0795C69.6127 71.9196 69.1009 72.7446 68.4873 73.4527L68.714 73.6492ZM55.3446 78.3064C60.6792 79.3382 65.1611 77.7444 68.714 73.6493L68.4874 73.4527C65.0035 77.4684 60.629 79.023 55.4015 78.0118L55.3446 78.3064ZM53.5443 78.3907C54.1467 78.2841 54.7163 78.1848 55.3445 78.3064L55.4015 78.0118C54.7111 77.8782 54.0887 77.9897 53.492 78.0953L53.5443 78.3907ZM52.9786 78.4834C53.1702 78.4569 53.359 78.4235 53.5443 78.3907L53.492 78.0953C53.3059 78.1282 53.1226 78.1606 52.9374 78.1862L52.9786 78.4834ZM42.6263 75.7926C45.7047 78.1164 49.1549 79.0138 52.9786 78.4834L52.9374 78.1862C49.1923 78.7058 45.822 77.8291 42.807 75.5532L42.6263 75.7926ZM42.0337 74.2978C41.9085 74.603 41.9381 74.8929 42.0619 75.1493C42.1833 75.4005 42.3929 75.6163 42.6262 75.7926L42.8071 75.5532C42.5951 75.3931 42.4252 75.2116 42.3321 75.0188C42.2414 74.831 42.2216 74.6301 42.3112 74.4117L42.0337 74.2978ZM43.0148 73.3177C42.7992 73.3747 42.5938 73.527 42.4274 73.7023C42.2593 73.8794 42.1172 74.0943 42.0337 74.2978L42.3112 74.4117C42.3792 74.2461 42.4996 74.062 42.645 73.9088C42.7922 73.7538 42.9513 73.6448 43.0914 73.6078L43.0148 73.3177ZM44.3646 73.667C44.185 73.5371 43.9533 73.4247 43.718 73.3567C43.4851 73.2894 43.2316 73.2607 43.015 73.3177L43.0912 73.6078C43.2345 73.5702 43.4281 73.5852 43.6347 73.6449C43.8388 73.7039 44.0389 73.8017 44.1887 73.9101L44.3646 73.667ZM49.3485 75.7565C47.5157 75.4767 45.8724 74.7571 44.3645 73.667L44.1888 73.9101C45.7311 75.0252 47.4184 75.7653 49.3032 76.0531L49.3485 75.7565ZM49.8954 75.807C49.7111 75.7955 49.5279 75.7839 49.3485 75.7565L49.3032 76.0531C49.498 76.0828 49.6946 76.095 49.8767 76.1064L49.8954 75.807ZM50.1376 75.8236C50.058 75.8171 49.9765 75.812 49.8954 75.807L49.8767 76.1064C49.9583 76.1115 50.037 76.1164 50.1132 76.1226L50.1376 75.8236ZM49.1717 75.2185C49.455 75.5017 49.7386 75.7851 50.0169 76.0767L50.2339 75.8696C49.9527 75.575 49.6667 75.2891 49.3838 75.0063L49.1717 75.2185ZM49.1768 75.2233L49.1768 75.2234L49.3786 75.0014L49.3786 75.0014L49.1768 75.2233ZM49.1714 75.2182L49.1716 75.2184L49.3837 75.0063L49.3835 75.0061L49.1714 75.2182ZM47.3906 73.2939C47.9307 73.9784 48.5507 74.5979 49.1714 75.2183L49.3835 75.0061C48.7606 74.3835 48.1534 73.7764 47.6261 73.1081L47.3906 73.2939ZM44.5428 64.4293C44.4495 67.7152 45.3489 70.7046 47.3905 73.2938L47.6261 73.1081C45.6315 70.5785 44.7512 67.6593 44.8427 64.4378L44.5428 64.4293ZM45.8655 62.9797C45.4796 62.9915 45.1509 63.1381 44.9167 63.3972C44.6838 63.6548 44.5547 64.0121 44.5428 64.4293L44.8427 64.4378C44.853 64.0768 44.9635 63.7927 45.1393 63.5984C45.3138 63.4053 45.5627 63.2891 45.8747 63.2796L45.8655 62.9797ZM47.3075 64.3875C47.2621 63.9677 47.1121 63.609 46.8625 63.3568C46.6108 63.1023 46.2687 62.9675 45.8655 62.9797L45.8746 63.2796C46.2012 63.2697 46.4606 63.3771 46.6492 63.5678C46.84 63.7607 46.9692 64.05 47.0092 64.4198L47.3075 64.3875ZM47.4007 65.3997C47.3723 65.0626 47.3438 64.7238 47.3075 64.3876L47.0092 64.4198C47.0451 64.752 47.0733 65.0872 47.1018 65.4248L47.4007 65.3997ZM47.4006 65.3983L47.4006 65.398L47.1019 65.4265L47.102 65.4267L47.4006 65.3983ZM47.8266 68.2373C47.5643 67.3347 47.4829 66.3749 47.4008 65.3999L47.1018 65.4251C47.1835 66.3945 47.2665 67.3848 47.5386 68.321L47.8266 68.2373ZM56.9384 75.8073C52.8448 75.4472 49.0188 72.3376 47.8266 68.2372L47.5386 68.321C48.765 72.5392 52.6942 75.7351 56.9121 76.1062L56.9384 75.8073ZM67.8351 70.0461C65.7771 74.0149 61.5966 76.2171 56.9384 75.8073L56.9121 76.1062C61.6835 76.5259 65.9838 74.2679 68.1014 70.1842L67.8351 70.0461ZM70.9068 63.9922C69.8914 66.0152 68.8762 68.0375 67.8351 70.0461L68.1014 70.1842C69.1436 68.1736 70.1596 66.1495 71.175 64.1268L70.9068 63.9922ZM70.907 63.9919L70.9067 63.9924L71.1751 64.1266L71.1753 64.1261L70.907 63.9919ZM70.9078 63.9904L70.9073 63.9912L71.1749 64.1269L71.1753 64.126L70.9078 63.9904ZM71.4159 62.9784L70.9075 63.9909L71.1756 64.1255L71.684 63.113L71.4159 62.9784ZM70.4719 59.7696C71.647 60.3425 72.0652 61.6858 71.4159 62.9784L71.684 63.113C72.399 61.6897 71.9466 60.1548 70.6034 59.4999L70.4719 59.7696ZM67.3807 60.9498C68.0285 59.6758 69.3157 59.2061 70.472 59.7696L70.6034 59.4999C69.2813 58.8556 67.8255 59.4131 67.1132 60.8138L67.3807 60.9498ZM66.2232 63.2568C66.6072 62.4863 66.9909 61.7163 67.3807 60.9497L67.1132 60.8138C66.7229 61.5816 66.3386 62.3526 65.9547 63.123L66.2232 63.2568ZM66.2234 63.2564L66.2237 63.2559L65.9542 63.1239L65.954 63.1245L66.2234 63.2564ZM66.2216 63.2599L66.2218 63.2596L65.9556 63.1212L65.9555 63.1215L66.2216 63.2599ZM66.2215 63.2602L66.2216 63.2599L65.9555 63.1215L65.9553 63.1218L66.2215 63.2602ZM66.2213 63.2605L66.2215 63.2602L65.9553 63.1218L65.9552 63.1221L66.2213 63.2605ZM66.2212 63.2608L66.2213 63.2605L65.9552 63.1221L65.955 63.1224L66.2212 63.2608ZM66.221 63.2611L66.2212 63.2608L65.955 63.1224L65.9549 63.1227L66.221 63.2611ZM63.8129 67.9614C64.651 66.4114 65.4372 64.8338 66.2222 63.2588L65.9537 63.125C65.1683 64.7008 64.3844 66.2738 63.549 67.8187L63.8129 67.9614ZM57.986 71.3285C60.5898 71.4129 62.5814 70.239 63.8129 67.9614L63.549 67.8187C62.3704 69.9983 60.4837 71.1093 57.9957 71.0287L57.986 71.3285ZM52.41 67.5758C53.4681 69.9371 55.3798 71.2441 57.986 71.3285L57.9957 71.0287C55.5057 70.948 53.6956 69.7112 52.6837 67.4531L52.41 67.5758ZM51.8392 64.7852C51.8759 65.7166 52.0262 66.7197 52.41 67.5758L52.6837 67.4531C52.322 66.646 52.1749 65.6858 52.139 64.7734L51.8392 64.7852ZM51.8048 60.4043C51.7934 61.8749 51.7821 63.331 51.8392 64.7852L52.139 64.7734C52.0822 63.3275 52.0934 61.8785 52.1048 60.4066L51.8048 60.4043ZM51.8049 60.4026L51.8048 60.4034L52.1048 60.4075L52.1048 60.4066L51.8049 60.4026ZM51.8142 58.5791C51.8142 59.1908 51.8095 59.7984 51.8048 60.4035L52.1048 60.4058C52.1095 59.8009 52.1142 59.1922 52.1142 58.5791H51.8142ZM39.9395 58.7291H51.9642V58.4291H39.9395V58.7291ZM40.078 58.7763C40.082 58.7146 40.086 58.6512 40.0893 58.5868L39.7897 58.5714C39.7865 58.6337 39.7826 58.6952 39.7787 58.7572L40.078 58.7763ZM40.078 58.7776L40.078 58.7775L39.7787 58.7561L39.7787 58.7562L40.078 58.7776ZM40.0611 59.1825C40.0606 59.051 40.069 58.9183 40.078 58.7765L39.7786 58.7574C39.7697 58.8975 39.7606 59.0403 39.7611 59.1836L40.0611 59.1825ZM40.081 65.7034C40.0717 63.5296 40.066 61.3566 40.0611 59.1827L39.7611 59.1834C39.766 61.3573 39.7717 63.5306 39.781 65.7047L40.081 65.7034ZM38.8268 67.2735C39.2186 67.246 39.5392 67.0844 39.7588 66.8042C39.9759 66.5269 40.0829 66.1482 40.081 65.7034L39.781 65.7047C39.7827 66.1035 39.6865 66.4098 39.5226 66.6192C39.361 66.8254 39.1225 66.952 38.8058 66.9743L38.8268 67.2735ZM37.3288 65.8551C37.3685 66.309 37.5261 66.6805 37.7904 66.932C38.0566 67.1852 38.4157 67.3024 38.8268 67.2735L38.8058 66.9743C38.4664 66.9981 38.1939 66.9018 37.9972 66.7147C37.7988 66.5259 37.6627 66.2301 37.6277 65.829L37.3288 65.8551ZM37.2996 64.8201C37.299 65.1602 37.2982 65.5088 37.3288 65.8552L37.6277 65.8288C37.5985 65.4981 37.599 65.1631 37.5996 64.8207L37.2996 64.8201ZM37.2996 64.8203V64.8204H37.5996V64.8203H37.2996ZM37.2996 64.8203V64.8203H37.5996V64.8203H37.2996ZM37.2996 64.8203V64.8203H37.5996V64.8203H37.2996ZM37.2996 64.8202V64.8203H37.5996V64.8202H37.2996ZM37.2996 64.8202V64.8202H37.5996V64.8202H37.2996ZM37.2998 64.6738L37.2996 64.82L37.5996 64.8204L37.5998 64.6742L37.2998 64.6738ZM37.2976 47.8171C37.2976 53.436 37.2976 59.055 37.2998 64.674L37.5998 64.6739C37.5976 59.055 37.5976 53.436 37.5976 47.8171H37.2976ZM37.2976 47.0509V47.8171H37.5976V47.0509H37.2976ZM36.7924 47.0884C37.0004 47.124 37.2094 47.1598 37.4206 47.1985L37.4747 46.9034C37.2615 46.8643 37.0507 46.8283 36.843 46.7927L36.7924 47.0884ZM35.4693 46.8365C35.9055 46.9366 36.3468 47.0121 36.7924 47.0884L36.843 46.7927C36.396 46.7161 35.963 46.642 35.5364 46.5441L35.4693 46.8365ZM24.4983 33.1384C24.5364 39.7219 29.054 45.3597 35.4692 46.8364L35.5365 46.5441C29.2568 45.0986 24.8356 39.581 24.7983 33.1367L24.4983 33.1384ZM24.4968 24.8933C24.4897 27.6412 24.4826 30.3897 24.4983 33.1384L24.7983 33.1367C24.7826 30.3895 24.7897 27.6421 24.7968 24.8941L24.4968 24.8933ZM28.8431 20.3582C26.3794 20.3825 24.5042 22.3414 24.4968 24.8933L24.7968 24.8941C24.8037 22.4964 26.5564 20.6808 28.846 20.6582L28.8431 20.3582ZM33.2598 24.8942C33.2444 22.3082 31.3185 20.3339 28.8431 20.3582L28.846 20.6582C31.1437 20.6356 32.9453 22.4642 32.9598 24.896L33.2598 24.8942ZM33.2655 29.6616C33.2676 28.0729 33.2697 26.4836 33.2598 24.8942L32.9598 24.8961C32.9697 26.4841 32.9676 28.0723 32.9655 29.6612L33.2655 29.6616ZM33.2655 29.6623V29.6614H32.9655V29.6623H33.2655ZM33.2648 32.7695C33.2628 31.734 33.2642 30.6984 33.2655 29.6625L32.9655 29.6621C32.9642 30.6979 32.9628 31.734 32.9648 32.7701L33.2648 32.7695ZM38.9362 38.4316C37.212 38.427 35.7986 37.8631 34.8159 36.8822C33.8332 35.9014 33.2683 34.491 33.2648 32.7695L32.9648 32.7701C32.9684 34.5584 33.5566 36.0493 34.604 37.0946C35.6512 38.1398 37.1449 38.7268 38.9354 38.7316L38.9362 38.4316ZM39.5815 38.4314C39.3491 38.4317 39.1426 38.432 38.9361 38.4316L38.9355 38.7316C39.1426 38.732 39.3497 38.7317 39.5819 38.7314L39.5815 38.4314ZM39.5826 38.4314H39.5817V38.7314H39.5826V38.4314ZM39.5837 38.4314H39.5826V38.7314H39.5837V38.4314ZM39.5848 38.4314H39.5837V38.7314H39.5848V38.4314ZM40.1707 38.4308C39.953 38.4308 39.7614 38.4311 39.5846 38.4314L39.585 38.7314C39.7618 38.7311 39.9532 38.7308 40.1707 38.7308V38.4308ZM51.8285 55.3254V56.0453H52.1285V55.3254H51.8285ZM51.8281 52.8627C51.8283 53.6836 51.8285 54.5045 51.8285 55.3254H52.1285C52.1285 54.5045 52.1283 53.6835 52.1281 52.8626L51.8281 52.8627ZM51.8281 52.8565V52.8627H52.1281V52.8565H51.8281ZM51.8281 52.8565V52.8565H52.1281V52.8565H51.8281ZM51.8281 52.8564V52.8565H52.1281V52.8564H51.8281ZM51.8281 52.8564V52.8564H52.1281V52.8564H51.8281ZM51.8281 52.8564V52.8564H52.1281V52.8564H51.8281ZM51.8306 46.0982C51.8269 48.3507 51.8275 50.6036 51.8281 52.8564L52.1281 52.8563C52.1275 50.6035 52.1269 48.3509 52.1306 46.0987L51.8306 46.0982ZM53.4719 44.4284C52.933 44.4478 52.5132 44.5701 52.2307 44.854C51.9473 45.1389 51.8313 45.5569 51.8306 46.0982L52.1306 46.0986C52.1313 45.5929 52.2404 45.2696 52.4434 45.0656C52.6473 44.8606 52.9752 44.7465 53.4827 44.7282L53.4719 44.4284ZM54.866 44.312C54.4024 44.3693 53.9367 44.4115 53.4718 44.4284L53.4827 44.7282C53.9583 44.7109 54.4329 44.6678 54.9027 44.6098L54.866 44.312ZM64.4681 34.285C64.1604 39.2909 59.841 43.7008 54.8661 44.312L54.9026 44.6098C60.0147 43.9818 64.4506 39.4599 64.7675 34.3034L64.4681 34.285ZM64.5814 27.3107C64.5961 29.6426 64.6106 31.9692 64.4681 34.285L64.7675 34.3034C64.9108 31.9758 64.896 29.639 64.8814 27.3089L64.5814 27.3107ZM64.5731 24.7645C64.5708 25.6132 64.5761 26.4623 64.5814 27.3107L64.8814 27.3089C64.8761 26.4602 64.8708 25.6124 64.8731 24.7653L64.5731 24.7645ZM63.4772 23.2107C64.1067 23.4197 64.575 24.0201 64.5731 24.7645L64.8731 24.7653C64.8754 23.8893 64.3222 23.1751 63.5717 22.926L63.4772 23.2107ZM61.3426 24.8369C61.3492 23.62 62.399 22.8533 63.4772 23.2107L63.5716 22.926C62.2853 22.4995 61.0502 23.4301 61.0426 24.8353L61.3426 24.8369ZM61.3366 29.8513C61.3351 28.1794 61.3337 26.508 61.3426 24.8369L61.0426 24.8353C61.0337 26.5075 61.0351 28.1798 61.0366 29.8516L61.3366 29.8513ZM61.3369 32.8333C61.3383 31.8393 61.3374 30.8452 61.3366 29.8513L61.0366 29.8516C61.0374 30.8456 61.0383 31.8393 61.0369 32.8329L61.3369 32.8333ZM53.0123 41.19C57.8239 41.1828 61.3304 37.6573 61.3369 32.8333L61.0369 32.8329C61.0306 37.4927 57.6569 40.883 53.0118 40.89L53.0123 41.19ZM38.804 41.19C43.5403 41.1978 48.276 41.1971 53.0123 41.19L53.0118 40.89C48.2758 40.8971 43.5405 40.8978 38.8044 40.89L38.804 41.19ZM30.5042 32.8833C30.5165 37.6762 34.0147 41.182 38.804 41.19L38.8045 40.89C34.181 40.8823 30.8161 37.5108 30.8042 32.8825L30.5042 32.8833ZM30.5031 29.4003C30.5023 30.5611 30.5014 31.7223 30.5042 32.8833L30.8042 32.8825C30.8014 31.7221 30.8023 30.5614 30.8031 29.4005L30.5031 29.4003ZM30.5031 29.4004V29.4004H30.8031V29.4004H30.5031ZM30.5031 29.4004V29.4004H30.8031V29.4004H30.5031ZM30.5031 29.4004V29.4004H30.8031V29.4004H30.5031ZM30.5031 29.4004V29.4004H30.8031V29.4004H30.5031ZM30.5031 29.4004V29.4004H30.8031V29.4004H30.5031ZM30.4985 24.8866C30.5054 26.3908 30.5043 27.8953 30.5031 29.4002L30.8031 29.4005C30.8043 27.8956 30.8054 26.3903 30.7985 24.8852L30.4985 24.8866ZM28.8961 23.1223C29.8081 23.1378 30.4939 23.8501 30.4985 24.8865L30.7985 24.8852C30.7932 23.705 29.9951 22.841 28.9012 22.8224L28.8961 23.1223ZM27.2588 24.8991C27.2615 23.8304 27.9654 23.1068 28.8961 23.1223L28.9011 22.8224C27.7788 22.8037 26.9619 23.6877 26.9588 24.8983L27.2588 24.8991ZM27.2543 26.4188C27.2559 25.9123 27.2575 25.4057 27.2588 24.8991L26.9588 24.8983C26.9575 25.4048 26.9559 25.9113 26.9543 26.4179L27.2543 26.4188ZM27.2543 26.4186V26.4184H26.9543V26.4186H27.2543ZM27.2543 26.4188V26.4186H26.9543V26.4188H27.2543ZM27.2543 26.4191V26.4188H26.9543V26.4191H27.2543ZM27.2543 26.4193V26.4191H26.9543V26.4193H27.2543ZM27.2543 26.4195V26.4193H26.9543V26.4195H27.2543ZM27.2543 26.4197V26.4195H26.9543V26.4197H27.2543ZM27.2624 33.2634C27.2397 30.9831 27.247 28.7021 27.2543 26.4202L26.9543 26.4193C26.947 28.7008 26.9397 30.9837 26.9624 33.2664L27.2624 33.2634ZM38.3638 44.4318C32.2906 44.3188 27.3228 39.3314 27.2624 33.2634L26.9624 33.2664C27.0244 39.4977 32.1236 44.6158 38.3582 44.7318L38.3638 44.4318ZM40.0575 46.1588C40.0571 45.5751 39.9554 45.1352 39.6689 44.8435C39.3824 44.5518 38.945 44.4427 38.3638 44.4318L38.3582 44.7318C38.918 44.7423 39.2535 44.8487 39.4549 45.0537C39.6562 45.2587 39.7572 45.5967 39.7575 46.159L40.0575 46.1588ZM40.0585 52.7515C40.0587 50.5541 40.059 48.3565 40.0575 46.1588L39.7575 46.159C39.759 48.3565 39.7587 50.5541 39.7585 52.7514L40.0585 52.7515ZM40.0582 55.3859L40.0585 52.7515L39.7585 52.7515L39.7582 55.3858L40.0582 55.3859ZM40.0582 56.0446V55.3858H39.7582V56.0446H40.0582ZM51.9785 55.8953C47.9216 55.8953 43.9658 55.8953 39.9082 55.8946L39.9082 56.1946C43.9658 56.1953 47.9216 56.1953 51.9785 56.1953V55.8953ZM51.096 32.6748V32.6749H51.396V32.6748H51.096ZM51.096 32.6746V32.6748H51.396V32.6746H51.096ZM51.096 32.6745V32.6746H51.396V32.6745H51.096ZM51.096 32.6744V32.6745H51.396V32.6744H51.096ZM51.096 32.6743V32.6744H51.396V32.6743H51.096ZM51.096 32.6742V32.6743H51.396V32.6742H51.096ZM51.0931 32.3041C51.0996 32.424 51.0979 32.5451 51.0961 32.672L51.396 32.6764C51.3979 32.5512 51.3998 32.4198 51.3927 32.2879L51.0931 32.3041ZM47.8867 27.6684C48.8997 28.0903 49.6701 28.6982 50.2023 29.4717C50.7348 30.2456 51.0346 31.1935 51.0931 32.3039L51.3927 32.2881C51.3318 31.1322 51.0184 30.1285 50.4495 29.3017C49.8804 28.4745 49.0612 27.8325 48.002 27.3915L47.8867 27.6684ZM42.3055 28.7336C43.1216 27.9708 44.0057 27.4936 44.9374 27.3114C45.8686 27.1292 46.8574 27.2398 47.8867 27.6684L48.002 27.3915C46.925 26.943 45.8761 26.8221 44.8798 27.0169C43.8839 27.2117 42.9505 27.7201 42.1006 28.5144L42.3055 28.7336ZM40.7693 33.926C40.5372 31.9488 40.8056 30.135 42.3055 28.7336L42.1006 28.5144C40.5018 30.0083 40.2338 31.9376 40.4713 33.961L40.7693 33.926ZM47.0654 38.335C44.1017 39.0078 41.1229 36.9429 40.7693 33.9261L40.4713 33.961C40.8461 37.1586 43.9978 39.339 47.1318 38.6275L47.0654 38.335ZM51.0945 32.857C51.2538 36.036 49.0186 37.8923 47.0654 38.335L47.1317 38.6275C49.1963 38.1596 51.5622 36.196 51.3942 32.842L51.0945 32.857ZM51.0961 32.673C51.0952 32.731 51.0943 32.7902 51.0943 32.8495H51.3943C51.3943 32.7927 51.3952 32.7357 51.396 32.6774L51.0961 32.673ZM51.096 32.6752V32.6752H51.396V32.6752H51.096ZM51.096 32.6751V32.6752H51.396V32.6751H51.096ZM51.096 32.675V32.6751H51.396V32.675H51.096ZM51.096 32.6749V32.675H51.396V32.6749H51.096ZM61.4013 66.6436C60.4341 68.4831 58.2224 69.1232 56.3908 68.0756L56.2418 68.3361C58.2188 69.4667 60.6195 68.7752 61.6668 66.7832L61.4013 66.6436ZM64.1578 61.1647C63.2626 63.0035 62.3521 64.8345 61.4013 66.6437L61.6669 66.7832C62.6196 64.9702 63.5316 63.1362 64.4276 61.296L64.1578 61.1647ZM64.1102 60.5475C64.1545 60.6182 64.1886 60.7324 64.1984 60.8577C64.2082 60.9838 64.1913 61.096 64.1579 61.1646L64.4275 61.2961C64.493 61.1619 64.5096 60.9902 64.4975 60.8345C64.4853 60.6779 64.4422 60.5122 64.3643 60.388L64.1102 60.5475ZM60.3162 60.6529C61.1739 59.2185 63.2385 59.1651 64.1103 60.5478L64.3641 60.3878C63.3665 58.8055 61.025 58.883 60.0587 60.4989L60.3162 60.6529ZM59.8166 61.602C59.9771 61.2763 60.1348 60.9565 60.3163 60.6528L60.0587 60.499C59.87 60.8148 59.7071 61.1455 59.5475 61.4694L59.8166 61.602ZM59.6434 61.9503C59.702 61.8344 59.7595 61.7178 59.8166 61.602L59.5475 61.4694C59.4903 61.5854 59.4335 61.7006 59.3757 61.8149L59.6434 61.9503ZM56.8498 67.482C57.7879 65.6237 58.7151 63.787 59.6434 61.9503L59.3757 61.815C58.4473 63.6517 57.5201 65.4885 56.582 67.3468L56.8498 67.482ZM56.8479 67.4857L56.8498 67.4819L56.5819 67.3468L56.5801 67.3505L56.8479 67.4857ZM56.4502 68.2735L56.8479 67.4857L56.5801 67.3505L56.1824 68.1383L56.4502 68.2735ZM70.7732 25.2284C70.6757 25.2284 70.5784 25.2305 70.4829 25.2325L70.4892 25.5324C70.5852 25.5304 70.6794 25.5284 70.7732 25.5284V25.2284ZM71.066 25.2324C70.9696 25.2305 70.8715 25.2284 70.7732 25.2284V25.5284C70.8679 25.5284 70.963 25.5304 71.0598 25.5324L71.066 25.2324ZM71.68 25.2253C71.4804 25.2408 71.2776 25.2367 71.066 25.2324L71.0598 25.5324C71.2689 25.5366 71.4864 25.5412 71.7031 25.5244L71.68 25.2253ZM72.706 24.1687C72.6967 24.7158 72.2638 25.1786 71.6796 25.2254L71.7035 25.5244C72.4353 25.4659 72.994 24.8816 73.006 24.1738L72.706 24.1687ZM71.7165 23.0896C72.2837 23.1244 72.7154 23.6221 72.7061 24.1687L73.006 24.1739C73.018 23.4741 72.4695 22.8352 71.7349 22.7902L71.7165 23.0896ZM69.836 23.089C70.461 23.0516 71.0917 23.0516 71.7166 23.0897L71.7348 22.7902C71.0978 22.7514 70.4551 22.7514 69.8181 22.7895L69.836 23.089ZM68.8496 24.1653C68.8433 23.606 69.2626 23.123 69.836 23.089L69.8182 22.7895C69.0756 22.8336 68.5416 23.4589 68.5496 24.1687L68.8496 24.1653ZM69.8664 25.2247C69.2767 25.1761 68.8564 24.7213 68.8496 24.1652L68.5496 24.1689C68.5584 24.8846 69.1028 25.4627 69.8418 25.5237L69.8664 25.2247ZM70.4829 25.2325C70.2704 25.2369 70.0669 25.2411 69.8663 25.2247L69.8419 25.5237C70.0604 25.5415 70.2793 25.5368 70.4892 25.5324L70.4829 25.2325ZM76.2256 28.5206L76.2256 28.5202L75.9257 28.5275L75.9257 28.5279L76.2256 28.5206ZM76.2257 28.5243V28.5243H75.9257V28.5243H76.2257ZM76.2257 28.5244V28.5243H75.9257V28.5244H76.2257ZM76.2257 28.5244V28.5244H75.9257V28.5244H76.2257ZM76.2165 29.168C76.2354 28.9494 76.2304 28.7305 76.2256 28.521L75.9257 28.5278C75.9305 28.74 75.9349 28.9426 75.9176 29.1421L76.2165 29.168ZM74.8512 30.4503C75.5654 30.4479 76.1531 29.9041 76.2165 29.1679L75.9176 29.1422C75.8672 29.7277 75.405 30.1485 74.8502 30.1503L74.8512 30.4503ZM73.4817 29.1707C73.5241 29.9133 74.1398 30.4527 74.8512 30.4503L74.8502 30.1503C74.291 30.1522 73.8141 29.7299 73.7812 29.1536L73.4817 29.1707ZM73.4839 27.2541C73.4436 27.891 73.4458 28.5344 73.4817 29.1706L73.7812 29.1537C73.7459 28.528 73.7438 27.8967 73.7833 27.273L73.4839 27.2541ZM74.8787 25.9932C74.1824 25.9757 73.5306 26.5238 73.4839 27.254L73.7832 27.2731C73.8191 26.7129 74.3267 26.2794 74.8711 26.2931L74.8787 25.9932ZM76.2128 27.2417C76.1434 26.5414 75.5579 26.0108 74.8788 25.9932L74.871 26.2931C75.3997 26.3068 75.8599 26.7223 75.9143 27.2713L76.2128 27.2417ZM76.2243 27.9348C76.2299 27.7105 76.2359 27.4755 76.2128 27.2417L75.9143 27.2712C75.9353 27.4834 75.93 27.6998 75.9244 27.9273L76.2243 27.9348ZM76.2192 28.2367C76.2192 28.1371 76.2217 28.037 76.2243 27.9348L75.9244 27.9273C75.9218 28.0289 75.9192 28.1328 75.9192 28.2367H76.2192ZM75.9803 28.1159L75.9797 28.1163L76.1587 28.3571L76.1593 28.3566L75.9803 28.1159ZM76.0137 28.0972L76.0133 28.0973L76.1264 28.3752L76.1267 28.375L76.0137 28.0972ZM76.057 28.0867L76.0559 28.0868L76.0845 28.3854L76.0857 28.3853L76.057 28.0867ZM76.2256 28.5205C76.2235 28.4242 76.2214 28.3299 76.2214 28.236H75.9214C75.9214 28.3338 75.9236 28.4315 75.9257 28.5272L76.2256 28.5205ZM25.2302 71.0713V71.0713H25.5302V71.0713H25.2302ZM25.2302 71.0712V71.0713H25.5302V71.0712H25.2302ZM25.2261 70.7836C25.2261 70.8813 25.2282 70.9789 25.2303 71.0745L25.5302 71.068C25.5281 70.9718 25.5261 70.8775 25.5261 70.7836H25.2261ZM25.3856 70.9333L25.3866 70.9332L25.3656 70.6339L25.3646 70.634L25.3856 70.9333ZM25.48 70.8904C25.4703 70.9 25.4586 70.9091 25.4447 70.9164C25.4308 70.9238 25.4174 70.9281 25.4056 70.9305L25.3445 70.6368C25.3172 70.6425 25.2901 70.656 25.2679 70.6782L25.48 70.8904ZM25.2292 70.4742C25.2266 70.576 25.2239 70.6801 25.2239 70.7843H25.5239C25.5239 70.6846 25.5265 70.5844 25.5291 70.4819L25.2292 70.4742ZM25.219 69.8191C25.2404 70.0309 25.2351 70.2469 25.2292 70.4742L25.5291 70.4819C25.5349 70.2579 25.5411 70.0228 25.5175 69.789L25.219 69.8191ZM24.1736 68.8493C24.709 68.8605 25.1627 69.2658 25.219 69.8192L25.5175 69.7889C25.4457 69.0831 24.8651 68.5637 24.1799 68.5493L24.1736 68.8493ZM23.088 69.8256C23.1238 69.2561 23.6138 68.838 24.1737 68.8493L24.1797 68.5493C23.4705 68.535 22.8352 69.0658 22.7885 69.8067L23.088 69.8256ZM23.0866 71.7061C23.0506 71.0805 23.0485 70.4492 23.088 69.8256L22.7885 69.8067C22.7483 70.4436 22.7505 71.087 22.7871 71.7233L23.0866 71.7061ZM24.1572 72.7065C23.6123 72.7102 23.1189 72.2742 23.0866 71.7062L22.7871 71.7232C22.8288 72.457 23.4607 73.0113 24.1593 73.0065L24.1572 72.7065ZM25.2223 71.6899C25.1725 72.2735 24.705 72.7027 24.1572 72.7065L24.1592 73.0065C24.8677 73.0016 25.4587 72.4478 25.5212 71.7154L25.2223 71.6899ZM25.2303 71.0746C25.2349 71.287 25.2391 71.49 25.2223 71.6901L25.5213 71.7152C25.5396 71.4967 25.5347 71.2777 25.5302 71.0681L25.2303 71.0746ZM27.9268 76.2261L27.9273 76.2261L27.92 75.9262L27.9195 75.9262L27.9268 76.2261ZM27.9231 76.2261H27.9231V75.9261H27.9231V76.2261ZM27.2795 76.217C27.4981 76.2359 27.717 76.2308 27.9265 76.2261L27.9197 75.9262C27.7075 75.9309 27.5049 75.9354 27.3053 75.9181L27.2795 76.217ZM25.9928 74.8502C25.9952 75.5547 26.5507 76.1543 27.2795 76.217L27.3052 75.9181C26.7266 75.8684 26.2947 75.3939 26.2928 74.8492L25.9928 74.8502ZM27.2796 73.4821C26.5435 73.5238 25.9912 74.1487 25.9928 74.8501L26.2928 74.8494C26.2916 74.3016 26.7253 73.814 27.2966 73.7816L27.2796 73.4821ZM29.1962 73.4843C28.5593 73.4441 27.9159 73.4462 27.2797 73.4821L27.2966 73.7816C27.9223 73.7464 28.5536 73.7443 29.1773 73.7837L29.1962 73.4843ZM30.4499 74.8107C30.4309 74.1298 29.9099 73.5294 29.1962 73.4843L29.1773 73.7837C29.724 73.8183 30.135 74.2807 30.15 74.8191L30.4499 74.8107ZM29.2061 76.2132C29.9381 76.1392 30.4691 75.5223 30.4499 74.8108L30.15 74.8189C30.165 75.3736 29.7514 75.8565 29.1759 75.9147L29.2061 76.2132ZM28.5131 76.2249C28.7371 76.2306 28.9722 76.2369 29.2061 76.2132L29.1759 75.9147C28.9641 75.9362 28.7481 75.9308 28.5208 75.925L28.5131 76.2249ZM28.2107 76.2197C28.3104 76.2197 28.4107 76.2222 28.5131 76.2249L28.5208 75.925C28.419 75.9224 28.3149 75.9197 28.2107 75.9197V76.2197ZM28.3614 76.0718C28.3614 76.0688 28.3641 76.0111 28.3169 75.9638L28.1045 76.1756C28.0853 76.1563 28.0722 76.1325 28.0658 76.1071C28.0607 76.0867 28.0614 76.0687 28.0614 76.0718H28.3614ZM27.927 76.2261C28.0232 76.2239 28.1176 76.2218 28.2114 76.2218V75.9218C28.1136 75.9218 28.0159 75.924 27.9203 75.9262L27.927 76.2261ZM40.1396 69.705C40.7385 69.7043 41.2354 70.2115 41.2223 70.8094L41.5222 70.8159C41.539 70.0494 40.9063 69.4042 40.1393 69.405L40.1396 69.705ZM39.0666 70.7551C39.0779 70.1697 39.5509 69.705 40.1395 69.705V69.405C39.3878 69.405 38.7811 70.0002 38.7667 70.7493L39.0666 70.7551ZM40.1433 71.8641C39.5484 71.866 39.0554 71.3619 39.0666 70.755L38.7667 70.7494C38.7523 71.521 39.3776 72.1665 40.1442 72.1641L40.1433 71.8641ZM41.2223 70.8094C41.2098 71.3848 40.7232 71.8622 40.1433 71.8641L40.1442 72.1641C40.886 72.1617 41.5062 71.555 41.5222 70.8159L41.2223 70.8094Z" fill="#E16464" mask="url(#path-4-outside-1_1710_3092)"/>
</svg>
