<svg width="96" height="96" viewBox="0 0 96 96" fill="none" xmlns="http://www.w3.org/2000/svg">
<path d="M88 48C88 70.0914 70.0914 88 48 88C25.9086 88 8 70.0914 8 48C8 25.9086 25.9086 8 48 8C70.0914 8 88 25.9086 88 48Z" fill="#F7BC9C"/>
<path fill-rule="evenodd" clip-rule="evenodd" d="M96 48C96 74.5097 74.5097 96 48 96C21.4903 96 0 74.5097 0 48C0 21.4903 21.4903 0 48 0C74.5097 0 96 21.4903 96 48ZM48 88C70.0914 88 88 70.0914 88 48C88 25.9086 70.0914 8 48 8C25.9086 8 8 25.9086 8 48C8 70.0914 25.9086 88 48 88Z" fill="#FFA78A"/>
<mask id="path-3-inside-1_1692_453" fill="white">
<path fill-rule="evenodd" clip-rule="evenodd" d="M14.3108 45.7485C13.8964 46.1629 13.8964 46.8428 14.3108 47.2572L19.6233 52.5697C19.822 52.761 20.093 52.8779 20.3745 52.8779H22.4995C22.6735 52.8779 22.8434 52.8332 22.9948 52.754L26.749 56.5011V59.6886L27.9189 60.859C27.5366 61.3274 26.7482 62.4243 26.7482 63.5029C26.7482 65.8511 28.6522 67.7529 30.9982 67.7529H30.9989V67.7531C30.9989 70.1013 32.9029 72.0032 35.249 72.0032H35.2498C35.2499 74.3512 37.1539 76.253 39.4999 76.253H39.5002V76.2531C39.5002 78.6013 41.4031 80.5032 43.7502 80.5032C44.8415 80.5032 45.9471 79.7003 46.4059 79.3235C46.8646 79.7003 47.9703 80.5032 49.0617 80.5032C50.9851 80.5032 52.6114 79.2248 53.1349 77.4702C53.6881 77.8681 54.5671 78.3782 55.437 78.3782C57.5052 78.3782 59.23 76.9 59.6094 74.941C59.9715 75.0889 60.3616 75.1905 60.7498 75.1905C63.0959 75.1905 64.9999 73.2886 64.9999 70.9405C64.9999 70.0728 64.4896 69.1933 64.0911 68.6387C65.8444 68.1152 67.1236 66.4904 67.1236 64.5657C67.1236 63.4905 66.3401 62.3971 65.9565 61.9262L70.3121 57.5635V55.4385L73.0042 52.7533C73.1559 52.833 73.3263 52.8779 73.5008 52.8779H75.6258C75.9073 52.8779 76.1783 52.761 76.377 52.5697L81.6895 47.2572C82.1039 46.8428 82.1039 46.1629 81.6895 45.7485C81.2751 45.3341 80.6015 45.3341 80.1871 45.7485L75.1859 50.7529H73.9406L57.5631 34.3797V33.1257L67.8769 22.8195C68.2913 22.4051 68.2913 21.7252 67.8769 21.3108C67.4625 20.8964 66.7889 20.8964 66.3745 21.3108L55.7494 31.9359C55.5497 32.1377 55.4381 32.414 55.4381 32.6902V34.8152C55.4381 35.0915 55.5497 35.3677 55.7494 35.5696L56.0577 35.8778H44.8846C44.8356 35.8745 44.7863 35.8745 44.7372 35.8778H39.9426L40.2509 35.5696C40.4506 35.3677 40.5622 35.0915 40.5622 34.8152V32.6902C40.5622 32.414 40.4506 32.1377 40.2509 31.9359L29.6258 21.3108C29.2114 20.8964 28.5378 20.8964 28.1234 21.3108C27.709 21.7252 27.709 22.4051 28.1234 22.8195L38.4372 33.1257V34.3797L22.0597 50.7529H20.8144L15.8132 45.7485C15.3988 45.3341 14.7252 45.3341 14.3108 45.7485ZM37.8176 38.0029L24.5358 51.2847L28.874 55.63V58.8175L47.6878 77.6239C47.6878 77.6239 47.9779 77.9107 48.3816 78.1445C48.5846 78.2614 48.8194 78.3782 49.0617 78.3782C50.2347 78.3782 51.1867 77.4326 51.1867 76.2532C51.1867 76.0088 51.0687 75.7752 50.9529 75.5733C50.7224 75.1695 50.4355 74.8825 50.4355 74.8825L50.4221 74.8689L41.9357 66.3825C41.5213 65.9681 41.5213 65.2882 41.9357 64.8738C42.35 64.4594 43.0237 64.4594 43.438 64.8738L54.0631 75.4989C54.0631 75.4989 54.3532 75.7857 54.757 76.0195C54.9599 76.1364 55.1947 76.2532 55.437 76.2532C56.61 76.2532 57.562 75.3076 57.562 74.1282C57.562 73.8838 57.444 73.6502 57.3282 73.4483C57.0977 73.0445 56.8108 72.7575 56.8108 72.7575L56.8011 72.7477L56.7918 72.738L46.186 62.1323C45.7716 61.7179 45.7716 61.038 46.186 60.6236C46.6004 60.2092 47.274 60.2092 47.6884 60.6236L59.376 72.3112C59.376 72.3112 59.6661 72.598 60.0698 72.8318C60.2728 72.9487 60.5076 73.0655 60.7498 73.0655C61.9228 73.0655 62.8748 72.1199 62.8748 70.9405C62.8748 70.6961 62.7569 70.4625 62.6411 70.2606C62.4105 69.8569 62.1237 69.5698 62.1237 69.5698L60.017 67.4631L60.0061 67.4531L59.9973 67.445C59.9861 67.4337 59.9751 67.4223 59.9644 67.4106L50.4361 57.8822C50.0217 57.4678 50.0217 56.7879 50.4361 56.3735C50.8504 55.9592 51.5241 55.9592 51.9384 56.3735L61.5304 65.9655C61.615 66.0442 61.8671 66.2679 62.1936 66.457C62.3965 66.5738 62.6313 66.6907 62.8736 66.6907C64.0466 66.6907 64.9986 65.745 64.9986 64.5657C64.9986 64.3213 64.8806 64.0876 64.7648 63.8858C64.5343 63.482 64.2474 63.195 64.2474 63.195L50.1235 49.0636V43.3155H48.4383L43.4371 48.3199C43.4371 48.3199 41.9868 49.6905 40.5609 49.6905C38.2149 49.6905 36.3108 47.7886 36.3108 45.4405C36.3108 44.0167 37.6847 42.5611 37.6847 42.5611L42.2429 38.0029H37.8176ZM58.1827 38.0029L71.4637 51.2838L68.187 54.5674V56.6924L64.4676 60.4048L55.8734 51.8154H56.4993C58.8453 51.8154 60.7493 49.9135 60.7493 47.5654H58.6243C58.6243 48.7447 57.6723 49.6904 56.4993 49.6904H53.7472L52.2485 48.1925V41.1905H47.5586L41.9347 46.8112C41.9347 46.8112 41.6446 47.098 41.2409 47.3318C41.0379 47.4487 40.8031 47.5655 40.5609 47.5655C39.3879 47.5655 38.4359 46.6199 38.4359 45.4405C38.4359 45.1961 38.5538 44.9625 38.6696 44.7606C38.9002 44.3569 39.1871 44.0698 39.1871 44.0698L45.254 38.0029H58.1827ZM44.885 77.8316L42.1713 75.1169C42.0764 75.2355 41.962 75.3927 41.859 75.5732C41.7431 75.7751 41.6252 76.0087 41.6252 76.2531C41.6252 77.4325 42.5762 78.3781 43.7502 78.3781C43.9925 78.3781 44.2273 78.2613 44.4302 78.1444C44.6093 78.0407 44.7661 77.9266 44.885 77.8316ZM37.6086 71.3231C37.712 71.1421 37.8267 70.9845 37.9218 70.8657L40.6357 73.5807C40.5166 73.6758 40.3595 73.7903 40.1799 73.8943C39.9769 74.0112 39.7421 74.128 39.4999 74.128C38.3269 74.128 37.3748 73.1824 37.3748 72.003C37.3748 71.7586 37.4928 71.525 37.6086 71.3231ZM36.3863 69.3296L33.6721 66.6144C33.5768 66.7333 33.4615 66.8914 33.3577 67.0732C33.2419 67.2751 33.1239 67.5088 33.1239 67.7531C33.1239 68.9325 34.076 69.8782 35.249 69.8782C35.4912 69.8782 35.726 69.7613 35.929 69.6444C36.1094 69.54 36.267 69.425 36.3863 69.3296ZM29.4223 62.363L32.1368 65.0785C32.0174 65.174 31.8592 65.2894 31.6782 65.3942C31.4753 65.5111 31.2405 65.6279 30.9982 65.6279C29.8252 65.6279 28.8732 64.6823 28.8732 63.5029C28.8732 63.2585 28.9912 63.0249 29.107 62.823C29.2111 62.6406 29.3268 62.482 29.4223 62.363Z"/>
</mask>
<path fill-rule="evenodd" clip-rule="evenodd" d="M14.3108 45.7485C13.8964 46.1629 13.8964 46.8428 14.3108 47.2572L19.6233 52.5697C19.822 52.761 20.093 52.8779 20.3745 52.8779H22.4995C22.6735 52.8779 22.8434 52.8332 22.9948 52.754L26.749 56.5011V59.6886L27.9189 60.859C27.5366 61.3274 26.7482 62.4243 26.7482 63.5029C26.7482 65.8511 28.6522 67.7529 30.9982 67.7529H30.9989V67.7531C30.9989 70.1013 32.9029 72.0032 35.249 72.0032H35.2498C35.2499 74.3512 37.1539 76.253 39.4999 76.253H39.5002V76.2531C39.5002 78.6013 41.4031 80.5032 43.7502 80.5032C44.8415 80.5032 45.9471 79.7003 46.4059 79.3235C46.8646 79.7003 47.9703 80.5032 49.0617 80.5032C50.9851 80.5032 52.6114 79.2248 53.1349 77.4702C53.6881 77.8681 54.5671 78.3782 55.437 78.3782C57.5052 78.3782 59.23 76.9 59.6094 74.941C59.9715 75.0889 60.3616 75.1905 60.7498 75.1905C63.0959 75.1905 64.9999 73.2886 64.9999 70.9405C64.9999 70.0728 64.4896 69.1933 64.0911 68.6387C65.8444 68.1152 67.1236 66.4904 67.1236 64.5657C67.1236 63.4905 66.3401 62.3971 65.9565 61.9262L70.3121 57.5635V55.4385L73.0042 52.7533C73.1559 52.833 73.3263 52.8779 73.5008 52.8779H75.6258C75.9073 52.8779 76.1783 52.761 76.377 52.5697L81.6895 47.2572C82.1039 46.8428 82.1039 46.1629 81.6895 45.7485C81.2751 45.3341 80.6015 45.3341 80.1871 45.7485L75.1859 50.7529H73.9406L57.5631 34.3797V33.1257L67.8769 22.8195C68.2913 22.4051 68.2913 21.7252 67.8769 21.3108C67.4625 20.8964 66.7889 20.8964 66.3745 21.3108L55.7494 31.9359C55.5497 32.1377 55.4381 32.414 55.4381 32.6902V34.8152C55.4381 35.0915 55.5497 35.3677 55.7494 35.5696L56.0577 35.8778H44.8846C44.8356 35.8745 44.7863 35.8745 44.7372 35.8778H39.9426L40.2509 35.5696C40.4506 35.3677 40.5622 35.0915 40.5622 34.8152V32.6902C40.5622 32.414 40.4506 32.1377 40.2509 31.9359L29.6258 21.3108C29.2114 20.8964 28.5378 20.8964 28.1234 21.3108C27.709 21.7252 27.709 22.4051 28.1234 22.8195L38.4372 33.1257V34.3797L22.0597 50.7529H20.8144L15.8132 45.7485C15.3988 45.3341 14.7252 45.3341 14.3108 45.7485ZM37.8176 38.0029L24.5358 51.2847L28.874 55.63V58.8175L47.6878 77.6239C47.6878 77.6239 47.9779 77.9107 48.3816 78.1445C48.5846 78.2614 48.8194 78.3782 49.0617 78.3782C50.2347 78.3782 51.1867 77.4326 51.1867 76.2532C51.1867 76.0088 51.0687 75.7752 50.9529 75.5733C50.7224 75.1695 50.4355 74.8825 50.4355 74.8825L50.4221 74.8689L41.9357 66.3825C41.5213 65.9681 41.5213 65.2882 41.9357 64.8738C42.35 64.4594 43.0237 64.4594 43.438 64.8738L54.0631 75.4989C54.0631 75.4989 54.3532 75.7857 54.757 76.0195C54.9599 76.1364 55.1947 76.2532 55.437 76.2532C56.61 76.2532 57.562 75.3076 57.562 74.1282C57.562 73.8838 57.444 73.6502 57.3282 73.4483C57.0977 73.0445 56.8108 72.7575 56.8108 72.7575L56.8011 72.7477L56.7918 72.738L46.186 62.1323C45.7716 61.7179 45.7716 61.038 46.186 60.6236C46.6004 60.2092 47.274 60.2092 47.6884 60.6236L59.376 72.3112C59.376 72.3112 59.6661 72.598 60.0698 72.8318C60.2728 72.9487 60.5076 73.0655 60.7498 73.0655C61.9228 73.0655 62.8748 72.1199 62.8748 70.9405C62.8748 70.6961 62.7569 70.4625 62.6411 70.2606C62.4105 69.8569 62.1237 69.5698 62.1237 69.5698L60.017 67.4631L60.0061 67.4531L59.9973 67.445C59.9861 67.4337 59.9751 67.4223 59.9644 67.4106L50.4361 57.8822C50.0217 57.4678 50.0217 56.7879 50.4361 56.3735C50.8504 55.9592 51.5241 55.9592 51.9384 56.3735L61.5304 65.9655C61.615 66.0442 61.8671 66.2679 62.1936 66.457C62.3965 66.5738 62.6313 66.6907 62.8736 66.6907C64.0466 66.6907 64.9986 65.745 64.9986 64.5657C64.9986 64.3213 64.8806 64.0876 64.7648 63.8858C64.5343 63.482 64.2474 63.195 64.2474 63.195L50.1235 49.0636V43.3155H48.4383L43.4371 48.3199C43.4371 48.3199 41.9868 49.6905 40.5609 49.6905C38.2149 49.6905 36.3108 47.7886 36.3108 45.4405C36.3108 44.0167 37.6847 42.5611 37.6847 42.5611L42.2429 38.0029H37.8176ZM58.1827 38.0029L71.4637 51.2838L68.187 54.5674V56.6924L64.4676 60.4048L55.8734 51.8154H56.4993C58.8453 51.8154 60.7493 49.9135 60.7493 47.5654H58.6243C58.6243 48.7447 57.6723 49.6904 56.4993 49.6904H53.7472L52.2485 48.1925V41.1905H47.5586L41.9347 46.8112C41.9347 46.8112 41.6446 47.098 41.2409 47.3318C41.0379 47.4487 40.8031 47.5655 40.5609 47.5655C39.3879 47.5655 38.4359 46.6199 38.4359 45.4405C38.4359 45.1961 38.5538 44.9625 38.6696 44.7606C38.9002 44.3569 39.1871 44.0698 39.1871 44.0698L45.254 38.0029H58.1827ZM44.885 77.8316L42.1713 75.1169C42.0764 75.2355 41.962 75.3927 41.859 75.5732C41.7431 75.7751 41.6252 76.0087 41.6252 76.2531C41.6252 77.4325 42.5762 78.3781 43.7502 78.3781C43.9925 78.3781 44.2273 78.2613 44.4302 78.1444C44.6093 78.0407 44.7661 77.9266 44.885 77.8316ZM37.6086 71.3231C37.712 71.1421 37.8267 70.9845 37.9218 70.8657L40.6357 73.5807C40.5166 73.6758 40.3595 73.7903 40.1799 73.8943C39.9769 74.0112 39.7421 74.128 39.4999 74.128C38.3269 74.128 37.3748 73.1824 37.3748 72.003C37.3748 71.7586 37.4928 71.525 37.6086 71.3231ZM36.3863 69.3296L33.6721 66.6144C33.5768 66.7333 33.4615 66.8914 33.3577 67.0732C33.2419 67.2751 33.1239 67.5088 33.1239 67.7531C33.1239 68.9325 34.076 69.8782 35.249 69.8782C35.4912 69.8782 35.726 69.7613 35.929 69.6444C36.1094 69.54 36.267 69.425 36.3863 69.3296ZM29.4223 62.363L32.1368 65.0785C32.0174 65.174 31.8592 65.2894 31.6782 65.3942C31.4753 65.5111 31.2405 65.6279 30.9982 65.6279C29.8252 65.6279 28.8732 64.6823 28.8732 63.5029C28.8732 63.2585 28.9912 63.0249 29.107 62.823C29.2111 62.6406 29.3268 62.482 29.4223 62.363Z" fill="#E16464"/>
<path d="M14.3108 47.2572L13.9572 47.6107L13.9572 47.6107L14.3108 47.2572ZM14.3108 45.7485L13.9572 45.3949L13.9572 45.3949L14.3108 45.7485ZM19.6233 52.5697L19.2697 52.9233L19.2766 52.9299L19.6233 52.5697ZM22.9948 52.754L23.348 52.4001L23.0881 52.1407L22.7628 52.311L22.9948 52.754ZM26.749 56.5011H27.249V56.2937L27.1022 56.1472L26.749 56.5011ZM26.749 59.6886H26.249V59.8956L26.3953 60.0421L26.749 59.6886ZM27.9189 60.859L28.3063 61.1751L28.592 60.8251L28.2726 60.5055L27.9189 60.859ZM30.9989 67.7529H31.4989V67.2529H30.9989V67.7529ZM35.2498 72.0032L35.7498 72.0032L35.7498 71.5032H35.2498V72.0032ZM39.5002 76.253H40.0002V75.753H39.5002V76.253ZM46.4059 79.3235L46.7232 78.9371L46.4059 78.6765L46.0886 78.9371L46.4059 79.3235ZM53.1349 77.4702L53.4268 77.0643L52.8566 76.6542L52.6557 77.3273L53.1349 77.4702ZM59.6094 74.941L59.7984 74.4781L59.2343 74.2477L59.1185 74.8459L59.6094 74.941ZM64.0911 68.6387L63.948 68.1596L63.2754 68.3604L63.685 68.9305L64.0911 68.6387ZM65.9565 61.9262L65.6027 61.573L65.2839 61.8922L65.5688 62.242L65.9565 61.9262ZM70.3121 57.5635L70.6659 57.9168L70.8121 57.7704V57.5635H70.3121ZM70.3121 55.4385L69.959 55.0845L69.8121 55.231V55.4385H70.3121ZM73.0042 52.7533L73.2367 52.3107L72.9114 52.1398L72.6511 52.3993L73.0042 52.7533ZM76.377 52.5697L76.7238 52.93L76.7305 52.9233L76.377 52.5697ZM81.6895 47.2572L81.336 46.9036L81.336 46.9036L81.6895 47.2572ZM81.6895 45.7485L81.336 46.102L81.336 46.102L81.6895 45.7485ZM80.1871 45.7485L79.8336 45.3949L79.8335 45.395L80.1871 45.7485ZM75.1859 50.7529V51.2529H75.3931L75.5396 51.1063L75.1859 50.7529ZM73.9406 50.7529L73.5871 51.1065L73.7336 51.2529H73.9406V50.7529ZM57.5631 34.3797H57.0631V34.5868L57.2096 34.7333L57.5631 34.3797ZM57.5631 33.1257L57.2097 32.7721L57.0631 32.9185V33.1257H57.5631ZM67.8769 22.8195L68.2303 23.1731L68.2305 23.173L67.8769 22.8195ZM67.8769 21.3108L68.2305 20.9572L68.2305 20.9572L67.8769 21.3108ZM66.3745 21.3108L66.021 20.9572L66.021 20.9572L66.3745 21.3108ZM55.7494 31.9359L55.3959 31.5823L55.394 31.5842L55.7494 31.9359ZM55.7494 35.5696L55.394 35.9213L55.3959 35.9231L55.7494 35.5696ZM56.0577 35.8778V36.3778H57.2648L56.4113 35.5243L56.0577 35.8778ZM44.8846 35.8778L44.8502 36.3767L44.8674 36.3778H44.8846V35.8778ZM44.7372 35.8778V36.3778H44.7544L44.7716 36.3767L44.7372 35.8778ZM39.9426 35.8778L39.589 35.5243L38.7355 36.3778H39.9426V35.8778ZM40.2509 35.5696L40.6044 35.9231L40.6063 35.9212L40.2509 35.5696ZM40.2509 31.9359L40.6063 31.5842L40.6044 31.5823L40.2509 31.9359ZM29.6258 21.3108L29.2722 21.6643L29.2722 21.6643L29.6258 21.3108ZM28.1234 21.3108L28.477 21.6643L28.1234 21.3108ZM28.1234 22.8195L27.7698 23.173L27.77 23.1731L28.1234 22.8195ZM38.4372 33.1257H38.9372V32.9185L38.7906 32.7721L38.4372 33.1257ZM38.4372 34.3797L38.7907 34.7333L38.9372 34.5868V34.3797H38.4372ZM22.0597 50.7529V51.2529H22.2667L22.4132 51.1065L22.0597 50.7529ZM20.8144 50.7529L20.4607 51.1063L20.6072 51.2529H20.8144V50.7529ZM15.8132 45.7485L16.1668 45.395L16.1667 45.3949L15.8132 45.7485ZM37.8176 38.0029V37.5029H37.6105L37.464 37.6493L37.8176 38.0029ZM24.5358 51.2847L24.1822 50.9311L23.829 51.2844L24.1819 51.6379L24.5358 51.2847ZM28.874 55.63H29.374V55.4231L29.2278 55.2767L28.874 55.63ZM28.874 58.8175H28.374V59.0247L28.5205 59.1711L28.874 58.8175ZM47.6878 77.6239L47.3343 77.9775L47.3362 77.9794L47.6878 77.6239ZM48.3816 78.1445L48.1311 78.5772L48.1321 78.5778L48.3816 78.1445ZM50.9529 75.5733L50.5187 75.8212L50.5192 75.8221L50.9529 75.5733ZM50.4355 74.8825L50.0788 75.2329L50.0818 75.236L50.4355 74.8825ZM50.4221 74.8689L50.7788 74.5185L50.7757 74.5154L50.4221 74.8689ZM41.9357 66.3825L42.2892 66.0289L42.2892 66.0289L41.9357 66.3825ZM41.9357 64.8738L41.5821 64.5202L41.5821 64.5202L41.9357 64.8738ZM43.438 64.8738L43.7916 64.5202L43.7916 64.5202L43.438 64.8738ZM54.0631 75.4989L53.7096 75.8524L53.7115 75.8544L54.0631 75.4989ZM54.757 76.0195L54.5064 76.4522L54.5074 76.4528L54.757 76.0195ZM57.3282 73.4483L56.894 73.6962L56.8945 73.6971L57.3282 73.4483ZM56.8108 72.7575L56.455 73.1088L56.4571 73.111L56.8108 72.7575ZM56.8011 72.7477L56.4408 73.0945L56.4454 73.0991L56.8011 72.7477ZM56.7918 72.738L57.1522 72.3913L57.1454 72.3845L56.7918 72.738ZM47.6884 60.6236L48.042 60.27L48.042 60.27L47.6884 60.6236ZM59.376 72.3112L59.0224 72.6647L59.0244 72.6667L59.376 72.3112ZM60.0698 72.8318L59.8193 73.2645L59.8203 73.2651L60.0698 72.8318ZM62.6411 70.2606L62.2069 70.5086L62.2074 70.5094L62.6411 70.2606ZM62.1237 69.5698L62.4773 69.2164L62.4772 69.2163L62.1237 69.5698ZM60.017 67.4631L60.3705 67.1096L60.3629 67.102L60.355 67.0947L60.017 67.4631ZM60.0061 67.4531L59.6653 67.819L59.668 67.8215L60.0061 67.4531ZM59.9973 67.445L59.6438 67.7986L59.6501 67.8049L59.6566 67.8109L59.9973 67.445ZM59.9644 67.4106L60.3334 67.0732L60.3259 67.0649L60.318 67.0571L59.9644 67.4106ZM50.4361 57.8822L50.7896 57.5287L50.7896 57.5287L50.4361 57.8822ZM61.5304 65.9655L61.1768 66.319L61.1832 66.3254L61.1897 66.3314L61.5304 65.9655ZM62.1936 66.457L61.943 66.8897L61.944 66.8902L62.1936 66.457ZM64.7648 63.8858L64.3306 64.1337L64.3311 64.1346L64.7648 63.8858ZM64.2474 63.195L64.601 62.8415L64.601 62.8415L64.2474 63.195ZM50.1235 49.0636H49.6235V49.2706L49.7698 49.417L50.1235 49.0636ZM50.1235 43.3155H50.6235V42.8155H50.1235V43.3155ZM48.4383 43.3155V42.8155H48.2311L48.0847 42.962L48.4383 43.3155ZM43.4371 48.3199L43.7805 48.6832L43.7857 48.6783L43.7908 48.6733L43.4371 48.3199ZM37.6847 42.5611L37.3311 42.2076L37.326 42.2127L37.321 42.218L37.6847 42.5611ZM42.2429 38.0029L42.5965 38.3564L43.45 37.5029H42.2429V38.0029ZM71.4637 51.2838L71.8176 51.637L72.1704 51.2834L71.8172 50.9302L71.4637 51.2838ZM58.1827 38.0029L58.5363 37.6493L58.3898 37.5029H58.1827V38.0029ZM68.187 54.5674L67.8331 54.2142L67.687 54.3606V54.5674H68.187ZM68.187 56.6924L68.5403 57.0463L68.687 56.8998V56.6924H68.187ZM64.4676 60.4048L64.1141 60.7585L64.4673 61.1115L64.8208 60.7587L64.4676 60.4048ZM55.8734 51.8154V51.3154H54.6658L55.5199 52.169L55.8734 51.8154ZM60.7493 47.5654H61.2493V47.0654H60.7493V47.5654ZM58.6243 47.5654V47.0654H58.1243V47.5654H58.6243ZM53.7472 49.6904L53.3937 50.044L53.5402 50.1904H53.7472V49.6904ZM52.2485 48.1925H51.7485V48.3997L51.895 48.5461L52.2485 48.1925ZM52.2485 41.1905H52.7485V40.6905H52.2485V41.1905ZM47.5586 41.1905V40.6905H47.3515L47.2051 40.8368L47.5586 41.1905ZM41.9347 46.8112L42.2863 47.1667L42.2882 47.1648L41.9347 46.8112ZM41.2409 47.3318L41.4904 47.7651L41.4914 47.7645L41.2409 47.3318ZM38.6696 44.7606L39.1033 45.0094L39.1038 45.0086L38.6696 44.7606ZM39.1871 44.0698L38.8335 43.7163L38.8334 43.7164L39.1871 44.0698ZM45.254 38.0029V37.5029H45.0469L44.9005 37.6493L45.254 38.0029ZM42.1713 75.1169L42.5249 74.7634L42.13 74.3683L41.7809 74.8045L42.1713 75.1169ZM44.885 77.8316L45.1969 78.2225L45.634 77.8737L45.2387 77.4782L44.885 77.8316ZM41.859 75.5732L42.2927 75.822L42.2932 75.8212L41.859 75.5732ZM44.4302 78.1444L44.6798 78.5777L44.6807 78.5771L44.4302 78.1444ZM37.9218 70.8657L38.2754 70.5122L37.8806 70.1172L37.5315 70.5532L37.9218 70.8657ZM37.6086 71.3231L38.0423 71.5719L38.0428 71.571L37.6086 71.3231ZM40.6357 73.5807L40.9477 73.9714L41.3846 73.6226L40.9893 73.2272L40.6357 73.5807ZM40.1799 73.8943L40.4294 74.3276L40.4304 74.327L40.1799 73.8943ZM33.6721 66.6144L34.0257 66.2609L33.6311 65.8661L33.2819 66.3016L33.6721 66.6144ZM36.3863 69.3296L36.6985 69.7202L37.135 69.3714L36.7399 68.9762L36.3863 69.3296ZM33.3577 67.0732L33.7914 67.3221L33.7919 67.3212L33.3577 67.0732ZM35.929 69.6444L36.1785 70.0777L36.1795 70.0771L35.929 69.6444ZM32.1368 65.0785L32.4491 65.4689L32.8853 65.12L32.4904 64.725L32.1368 65.0785ZM29.4223 62.363L29.7759 62.0095L29.3814 61.6148L29.0323 62.0501L29.4223 62.363ZM31.6782 65.3942L31.9278 65.8275L31.9288 65.8269L31.6782 65.3942ZM29.107 62.823L29.5407 63.0718L29.5412 63.071L29.107 62.823ZM14.6643 46.9036C14.4452 46.6845 14.4452 46.3212 14.6643 46.102L13.9572 45.3949C13.3476 46.0046 13.3476 47.0011 13.9572 47.6107L14.6643 46.9036ZM19.9769 52.2162L14.6643 46.9036L13.9572 47.6107L19.2698 52.9233L19.9769 52.2162ZM20.3745 52.3779C20.23 52.3779 20.0814 52.3166 19.9701 52.2095L19.2766 52.9299C19.5627 53.2053 19.9559 53.3779 20.3745 53.3779V52.3779ZM22.4995 52.3779H20.3745V53.3779H22.4995V52.3779ZM22.7628 52.311C22.6788 52.3551 22.588 52.3779 22.4995 52.3779V53.3779C22.759 53.3779 23.0081 53.3114 23.2267 53.197L22.7628 52.311ZM22.6416 53.1079L26.3958 56.855L27.1022 56.1472L23.348 52.4001L22.6416 53.1079ZM26.249 56.5011V59.6886H27.249V56.5011H26.249ZM26.3953 60.0421L27.5653 61.2125L28.2726 60.5055L27.1026 59.3351L26.3953 60.0421ZM27.5316 60.5429C27.328 60.7923 27.0132 61.2124 26.7473 61.7202C26.4843 62.2222 26.2482 62.8493 26.2482 63.5029H27.2482C27.2482 63.0779 27.4063 62.6173 27.6331 62.1841C27.857 61.7567 28.1276 61.3942 28.3063 61.1751L27.5316 60.5429ZM26.2482 63.5029C26.2482 66.1274 28.3762 68.2529 30.9982 68.2529V67.2529C28.9282 67.2529 27.2482 65.5747 27.2482 63.5029H26.2482ZM30.9982 68.2529H30.9989V67.2529H30.9982V68.2529ZM30.4989 67.7529V67.7531H31.4989V67.7529H30.4989ZM30.4989 67.7531C30.4989 70.3776 32.627 72.5032 35.249 72.5032V71.5032C33.1789 71.5032 31.4989 69.825 31.4989 67.7531H30.4989ZM35.249 72.5032H35.2498V71.5032H35.249V72.5032ZM34.7498 72.0032C34.7499 74.6276 36.8779 76.753 39.4999 76.753V75.753C37.4299 75.753 35.7499 74.0749 35.7498 72.0032L34.7498 72.0032ZM39.4999 76.753H39.5002V75.753H39.4999V76.753ZM39.0002 76.253V76.2531H40.0002V76.253H39.0002ZM39.0002 76.2531C39.0002 78.8775 41.1271 81.0032 43.7502 81.0032V80.0032C41.6792 80.0032 40.0002 78.325 40.0002 76.2531H39.0002ZM43.7502 81.0032C44.4109 81.0032 45.0438 80.7629 45.5484 80.4969C46.0588 80.2279 46.4787 79.9107 46.7232 79.7099L46.0886 78.9371C45.8743 79.1131 45.512 79.3857 45.0821 79.6123C44.6464 79.842 44.1809 80.0032 43.7502 80.0032V81.0032ZM46.0886 79.7099C46.3331 79.9107 46.753 80.2279 47.2634 80.497C47.768 80.763 48.401 81.0032 49.0617 81.0032V80.0032C48.631 80.0032 48.1654 79.842 47.7297 79.6123C47.2998 79.3857 46.9375 79.113 46.7232 78.9371L46.0886 79.7099ZM49.0617 81.0032C51.2121 81.0032 53.029 79.5739 53.614 77.6132L52.6557 77.3273C52.1937 78.8758 50.758 80.0032 49.0617 80.0032V81.0032ZM52.8429 77.8762C53.4099 78.2839 54.3997 78.8782 55.437 78.8782V77.8782C54.7345 77.8782 53.9663 77.4523 53.4268 77.0643L52.8429 77.8762ZM55.437 78.8782C57.7491 78.8782 59.6762 77.2258 60.1002 75.0361L59.1185 74.8459C58.7838 76.5742 57.2614 77.8782 55.437 77.8782V78.8782ZM59.4203 75.4039C59.8209 75.5675 60.277 75.6905 60.7498 75.6905V74.6905C60.4462 74.6905 60.122 74.6103 59.7984 74.4781L59.4203 75.4039ZM60.7498 75.6905C63.3718 75.6905 65.4999 73.565 65.4999 70.9405H64.4999C64.4999 73.0123 62.8199 74.6905 60.7498 74.6905V75.6905ZM65.4999 70.9405C65.4999 69.9053 64.9053 68.915 64.4971 68.3469L63.685 68.9305C64.074 69.4717 64.4999 70.2404 64.4999 70.9405H65.4999ZM64.2341 69.1178C66.1933 68.5329 67.6236 66.7176 67.6236 64.5657H66.6236C66.6236 66.2631 65.4955 67.6976 63.948 68.1596L64.2341 69.1178ZM67.6236 64.5657C67.6236 63.9141 67.3889 63.2889 67.1271 62.7878C66.8622 62.281 66.5484 61.8611 66.3441 61.6104L65.5688 62.242C65.7483 62.4623 66.0179 62.8245 66.2408 63.2509C66.4665 63.683 66.6236 64.142 66.6236 64.5657H67.6236ZM66.3103 62.2795L70.6659 57.9168L69.9582 57.2102L65.6027 61.573L66.3103 62.2795ZM70.8121 57.5635V55.4385H69.8121V57.5635H70.8121ZM70.6652 55.7925L73.3573 53.1073L72.6511 52.3993L69.959 55.0845L70.6652 55.7925ZM72.7717 53.196C72.9908 53.311 73.2406 53.3779 73.5008 53.3779V52.3779C73.412 52.3779 73.321 52.3549 73.2367 52.3107L72.7717 53.196ZM73.5008 53.3779H75.6258V52.3779H73.5008V53.3779ZM75.6258 53.3779C76.0444 53.3779 76.4376 53.2053 76.7237 52.9299L76.0302 52.2095C75.919 52.3166 75.7703 52.3779 75.6258 52.3779V53.3779ZM76.7305 52.9233L82.0431 47.6107L81.336 46.9036L76.0234 52.2162L76.7305 52.9233ZM82.0431 47.6107C82.6527 47.0011 82.6527 46.0046 82.0431 45.3949L81.336 46.102C81.5551 46.3212 81.5551 46.6845 81.336 46.9036L82.0431 47.6107ZM82.0431 45.3949C81.4334 44.7853 80.4432 44.7853 79.8336 45.3949L80.5407 46.102C80.7598 45.8829 81.1169 45.8829 81.336 46.102L82.0431 45.3949ZM79.8335 45.395L74.8322 50.3994L75.5396 51.1063L80.5408 46.1019L79.8335 45.395ZM75.1859 50.2529H73.9406V51.2529H75.1859V50.2529ZM74.2942 50.3993L57.9166 34.0261L57.2096 34.7333L73.5871 51.1065L74.2942 50.3993ZM58.0631 34.3797V33.1257H57.0631V34.3797H58.0631ZM57.9166 33.4794L68.2303 23.1731L67.5235 22.4658L57.2097 32.7721L57.9166 33.4794ZM68.2305 23.173C68.8401 22.5634 68.8401 21.5669 68.2305 20.9572L67.5234 21.6643C67.7425 21.8835 67.7425 22.2468 67.5234 22.4659L68.2305 23.173ZM68.2305 20.9572C67.6208 20.3476 66.6306 20.3476 66.021 20.9572L66.7281 21.6643C66.9472 21.4452 67.3042 21.4452 67.5234 21.6643L68.2305 20.9572ZM66.021 20.9572L55.3959 31.5823L56.103 32.2894L66.7281 21.6643L66.021 20.9572ZM55.394 31.5842C55.1013 31.88 54.9381 32.2827 54.9381 32.6902H55.9381C55.9381 32.5452 55.9981 32.3955 56.1048 32.2875L55.394 31.5842ZM54.9381 32.6902V34.8152H55.9381V32.6902H54.9381ZM54.9381 34.8152C54.9381 35.2227 55.1013 35.6254 55.394 35.9212L56.1048 35.2179C55.9981 35.11 55.9381 34.9603 55.9381 34.8152H54.9381ZM55.3959 35.9231L55.7042 36.2314L56.4113 35.5243L56.103 35.216L55.3959 35.9231ZM56.0577 35.3778H44.8846V36.3778H56.0577V35.3778ZM44.9191 35.379C44.8471 35.3741 44.7748 35.3741 44.7028 35.379L44.7716 36.3767C44.7978 36.3749 44.8241 36.3749 44.8502 36.3767L44.9191 35.379ZM44.7372 35.3778H39.9426V36.3778H44.7372V35.3778ZM39.8973 35.216L39.589 35.5243L40.2961 36.2314L40.6044 35.9231L39.8973 35.216ZM40.0622 34.8152C40.0622 34.9603 40.0022 35.11 39.8955 35.2179L40.6063 35.9212C40.899 35.6254 41.0622 35.2227 41.0622 34.8152H40.0622ZM40.0622 32.6902V34.8152H41.0622V32.6902H40.0622ZM39.8955 32.2875C40.0022 32.3955 40.0622 32.5452 40.0622 32.6902H41.0622C41.0622 32.2827 40.899 31.88 40.6063 31.5842L39.8955 32.2875ZM29.2722 21.6643L39.8973 32.2894L40.6044 31.5823L29.9793 20.9572L29.2722 21.6643ZM28.477 21.6643C28.6961 21.4452 29.0531 21.4452 29.2722 21.6643L29.9793 20.9572C29.3697 20.3476 28.3795 20.3476 27.7698 20.9572L28.477 21.6643ZM28.477 22.4659C28.2578 22.2468 28.2578 21.8835 28.477 21.6643L27.7698 20.9572C27.1602 21.5669 27.1602 22.5634 27.7698 23.173L28.477 22.4659ZM38.7906 32.7721L28.4768 22.4658L27.77 23.1731L38.0837 33.4794L38.7906 32.7721ZM38.9372 34.3797V33.1257H37.9372V34.3797H38.9372ZM22.4132 51.1065L38.7907 34.7333L38.0837 34.0261L21.7062 50.3993L22.4132 51.1065ZM20.8144 51.2529H22.0597V50.2529H20.8144V51.2529ZM15.4595 46.1019L20.4607 51.1063L21.1681 50.3994L16.1668 45.395L15.4595 46.1019ZM14.6643 46.102C14.8835 45.8829 15.2405 45.8829 15.4596 46.102L16.1667 45.3949C15.5571 44.7853 14.5669 44.7853 13.9572 45.3949L14.6643 46.102ZM37.464 37.6493L24.1822 50.9311L24.8893 51.6382L38.1711 38.3564L37.464 37.6493ZM29.2278 55.2767L24.8896 50.9314L24.1819 51.6379L28.5201 55.9833L29.2278 55.2767ZM29.374 58.8175V55.63H28.374V58.8175H29.374ZM48.0413 77.2702L29.2275 58.4639L28.5205 59.1711L47.3343 77.9775L48.0413 77.2702ZM48.6322 77.7118C48.4604 77.6123 48.3096 77.4995 48.2005 77.41C48.1466 77.3657 48.1043 77.3284 48.0763 77.3029C48.0624 77.2901 48.0521 77.2805 48.0458 77.2745C48.0427 77.2715 48.0405 77.2694 48.0395 77.2684C48.0389 77.2679 48.0386 77.2676 48.0386 77.2676C48.0386 77.2676 48.0387 77.2676 48.0388 77.2678C48.0389 77.2678 48.039 77.2679 48.0391 77.268C48.0391 77.2681 48.0392 77.2681 48.0392 77.2682C48.0393 77.2682 48.0393 77.2682 48.0393 77.2683C48.0394 77.2683 48.0394 77.2684 47.6878 77.6239C47.3362 77.9794 47.3363 77.9794 47.3363 77.9795C47.3364 77.9795 47.3364 77.9796 47.3365 77.9796C47.3365 77.9797 47.3366 77.9797 47.3367 77.9798C47.3369 77.98 47.3371 77.9802 47.3373 77.9804C47.3377 77.9808 47.3382 77.9813 47.3387 77.9818C47.3398 77.9829 47.3412 77.9843 47.3429 77.9859C47.3463 77.9892 47.3508 77.9935 47.3563 77.9988C47.3675 78.0094 47.383 78.024 47.4026 78.0418C47.4416 78.0774 47.4971 78.1264 47.5661 78.183C47.7031 78.2954 47.8991 78.4429 48.1311 78.5772L48.6322 77.7118ZM49.0617 77.8782C48.965 77.8782 48.833 77.8274 48.6312 77.7112L48.1321 78.5778C48.3362 78.6953 48.6738 78.8782 49.0617 78.8782V77.8782ZM50.6867 76.2532C50.6867 77.1555 49.9595 77.8782 49.0617 77.8782V78.8782C50.5098 78.8782 51.6867 77.7097 51.6867 76.2532H50.6867ZM50.5192 75.8221C50.6357 76.0251 50.6867 76.155 50.6867 76.2532H51.6867C51.6867 75.8626 51.5018 75.5253 51.3866 75.3245L50.5192 75.8221ZM50.4355 74.8825C50.0818 75.236 50.0818 75.2359 50.0817 75.2359C50.0817 75.2359 50.0817 75.2358 50.0816 75.2358C50.0816 75.2357 50.0815 75.2357 50.0815 75.2356C50.0814 75.2355 50.0813 75.2354 50.0812 75.2353C50.0811 75.2352 50.081 75.2351 50.081 75.2351C50.081 75.2351 50.0812 75.2353 50.0817 75.2358C50.0827 75.2369 50.0847 75.2389 50.0876 75.242C50.0935 75.2481 50.103 75.2581 50.1156 75.2718C50.1408 75.2993 50.1778 75.3409 50.2216 75.3941C50.3101 75.5018 50.4214 75.6509 50.5187 75.8212L51.3871 75.3254C51.2538 75.092 51.1064 74.8957 50.9939 74.7589C50.9371 74.6899 50.888 74.6345 50.8522 74.5955C50.8343 74.576 50.8196 74.5605 50.8089 74.5493C50.8035 74.5437 50.7991 74.5392 50.7958 74.5358C50.7942 74.5341 50.7928 74.5327 50.7916 74.5316C50.7911 74.531 50.7906 74.5305 50.7902 74.5301C50.79 74.5299 50.7898 74.5297 50.7896 74.5295C50.7895 74.5294 50.7894 74.5294 50.7893 74.5293C50.7893 74.5292 50.7893 74.5292 50.7892 74.5292C50.7892 74.5291 50.7891 74.5291 50.4355 74.8825ZM50.0654 75.2193L50.0788 75.2329L50.7922 74.5321L50.7788 74.5185L50.0654 75.2193ZM41.5821 66.736L50.0686 75.2225L50.7757 74.5154L42.2892 66.0289L41.5821 66.736ZM41.5821 64.5202C40.9725 65.1299 40.9725 66.1264 41.5821 66.736L42.2892 66.0289C42.0701 65.8098 42.0701 65.4464 42.2892 65.2273L41.5821 64.5202ZM43.7916 64.5202C43.182 63.9106 42.1917 63.9106 41.5821 64.5202L42.2892 65.2273C42.5083 65.0082 42.8654 65.0082 43.0845 65.2273L43.7916 64.5202ZM54.4167 75.1453L43.7916 64.5202L43.0845 65.2273L53.7096 75.8524L54.4167 75.1453ZM55.0075 75.5868C54.8357 75.4873 54.6849 75.3745 54.5758 75.285C54.5219 75.2407 54.4796 75.2034 54.4516 75.1779C54.4377 75.1651 54.4274 75.1555 54.4211 75.1495C54.418 75.1465 54.4158 75.1444 54.4148 75.1434C54.4142 75.1429 54.4139 75.1426 54.4139 75.1426C54.4139 75.1426 54.414 75.1426 54.4141 75.1428C54.4142 75.1428 54.4143 75.1429 54.4144 75.143C54.4144 75.1431 54.4145 75.1431 54.4145 75.1432C54.4146 75.1432 54.4146 75.1432 54.4146 75.1433C54.4147 75.1433 54.4147 75.1434 54.0631 75.4989C53.7115 75.8544 53.7116 75.8544 53.7116 75.8545C53.7117 75.8545 53.7117 75.8545 53.7118 75.8546C53.7118 75.8547 53.7119 75.8547 53.712 75.8548C53.7122 75.855 53.7124 75.8552 53.7126 75.8554C53.713 75.8558 53.7135 75.8563 53.714 75.8568C53.7151 75.8579 53.7165 75.8593 53.7182 75.8609C53.7216 75.8642 53.7261 75.8685 53.7316 75.8738C53.7428 75.8844 53.7583 75.899 53.7779 75.9168C53.8169 75.9524 53.8724 76.0013 53.9414 76.058C54.0784 76.1704 54.2744 76.3179 54.5064 76.4522L55.0075 75.5868ZM55.437 75.7532C55.3403 75.7532 55.2083 75.7024 55.0065 75.5862L54.5074 76.4528C54.7115 76.5703 55.0491 76.7532 55.437 76.7532V75.7532ZM57.062 74.1282C57.062 75.0305 56.3348 75.7532 55.437 75.7532V76.7532C56.8851 76.7532 58.062 75.5847 58.062 74.1282H57.062ZM56.8945 73.6971C57.011 73.9001 57.062 74.03 57.062 74.1282H58.062C58.062 73.7376 57.8771 73.4003 57.7619 73.1995L56.8945 73.6971ZM56.8108 72.7575C56.4571 73.111 56.4571 73.1109 56.457 73.1109C56.457 73.1108 56.457 73.1108 56.4569 73.1108C56.4569 73.1107 56.4568 73.1107 56.4568 73.1106C56.4567 73.1105 56.4566 73.1104 56.4565 73.1103C56.4564 73.1102 56.4563 73.1101 56.4563 73.1101C56.4563 73.1101 56.4565 73.1103 56.457 73.1108C56.458 73.1119 56.46 73.1139 56.4629 73.117C56.4688 73.1231 56.4783 73.1331 56.4909 73.1468C56.5161 73.1743 56.5531 73.2159 56.5969 73.2691C56.6854 73.3768 56.7967 73.5259 56.894 73.6962L57.7624 73.2004C57.6291 72.967 57.4817 72.7707 57.3692 72.6339C57.3124 72.5649 57.2633 72.5095 57.2275 72.4705C57.2096 72.451 57.1949 72.4355 57.1842 72.4243C57.1788 72.4187 57.1744 72.4142 57.1711 72.4108C57.1695 72.4091 57.1681 72.4077 57.1669 72.4066C57.1664 72.406 57.1659 72.4055 57.1655 72.4051C57.1653 72.4049 57.1651 72.4047 57.1649 72.4045C57.1648 72.4044 57.1647 72.4044 57.1647 72.4043C57.1646 72.4042 57.1646 72.4042 57.1645 72.4042C57.1645 72.4041 57.1644 72.4041 56.8108 72.7575ZM56.4454 73.0991L56.455 73.1088L57.1665 72.4062L57.1569 72.3964L56.4454 73.0991ZM56.4315 73.0847L56.4408 73.0944L57.1614 72.4011L57.1521 72.3914L56.4315 73.0847ZM45.8325 62.4858L56.4383 73.0916L57.1454 72.3845L46.5396 61.7787L45.8325 62.4858ZM45.8325 60.27C45.2228 60.8797 45.2228 61.8762 45.8325 62.4858L46.5396 61.7787C46.3205 61.5596 46.3205 61.1963 46.5396 60.9771L45.8325 60.27ZM48.042 60.27C47.4323 59.6604 46.4421 59.6604 45.8325 60.27L46.5396 60.9771C46.7587 60.758 47.1157 60.758 47.3349 60.9771L48.042 60.27ZM59.7296 71.9576L48.042 60.27L47.3349 60.9771L59.0225 72.6647L59.7296 71.9576ZM60.3203 72.3991C60.1486 72.2997 59.9977 72.1868 59.8887 72.0973C59.8348 72.0531 59.7925 72.0157 59.7645 71.9902C59.7506 71.9775 59.7403 71.9678 59.734 71.9618C59.7309 71.9588 59.7287 71.9568 59.7276 71.9557C59.7271 71.9552 59.7268 71.9549 59.7268 71.9549C59.7268 71.9549 59.7269 71.955 59.727 71.9551C59.7271 71.9551 59.7271 71.9552 59.7272 71.9553C59.7273 71.9554 59.7273 71.9554 59.7274 71.9555C59.7274 71.9555 59.7275 71.9556 59.7275 71.9556C59.7275 71.9556 59.7276 71.9557 59.376 72.3112C59.0244 72.6667 59.0245 72.6667 59.0245 72.6668C59.0245 72.6668 59.0246 72.6669 59.0246 72.6669C59.0247 72.667 59.0248 72.6671 59.0249 72.6671C59.025 72.6673 59.0252 72.6675 59.0254 72.6677C59.0259 72.6681 59.0263 72.6686 59.0269 72.6691C59.028 72.6702 59.0294 72.6716 59.0311 72.6732C59.0345 72.6765 59.0389 72.6808 59.0445 72.6861C59.0557 72.6967 59.0712 72.7113 59.0908 72.7291C59.1298 72.7647 59.1853 72.8137 59.2543 72.8703C59.3912 72.9827 59.5873 73.1302 59.8193 73.2645L60.3203 72.3991ZM60.7498 72.5655C60.6531 72.5655 60.5211 72.5147 60.3194 72.3985L59.8203 73.2651C60.0244 73.3826 60.362 73.5655 60.7498 73.5655V72.5655ZM62.3748 70.9405C62.3748 71.8428 61.6477 72.5655 60.7498 72.5655V73.5655C62.198 73.5655 63.3748 72.397 63.3748 70.9405H62.3748ZM62.2074 70.5094C62.3238 70.7124 62.3748 70.8423 62.3748 70.9405H63.3748C63.3748 70.5499 63.19 70.2126 63.0748 70.0118L62.2074 70.5094ZM62.1237 69.5698C61.77 69.9233 61.77 69.9232 61.7699 69.9232C61.7699 69.9232 61.7698 69.9231 61.7698 69.9231C61.7697 69.923 61.7697 69.923 61.7696 69.9229C61.7695 69.9228 61.7694 69.9227 61.7694 69.9227C61.7692 69.9225 61.7692 69.9224 61.7691 69.9224C61.7691 69.9224 61.7694 69.9227 61.7699 69.9232C61.7709 69.9242 61.7729 69.9262 61.7758 69.9293C61.7817 69.9354 61.7912 69.9454 61.8038 69.9591C61.829 69.9866 61.866 70.0282 61.9098 70.0814C61.9983 70.1891 62.1096 70.3382 62.2069 70.5086L63.0753 70.0127C62.942 69.7793 62.7946 69.583 62.6821 69.4462C62.6253 69.3772 62.5762 69.3218 62.5404 69.2828C62.5225 69.2633 62.5078 69.2478 62.4971 69.2366C62.4917 69.231 62.4873 69.2265 62.484 69.2231C62.4823 69.2214 62.4809 69.22 62.4798 69.2189C62.4793 69.2183 62.4788 69.2178 62.4783 69.2174C62.4781 69.2172 62.4779 69.217 62.4778 69.2168C62.4777 69.2168 62.4776 69.2167 62.4775 69.2166C62.4775 69.2165 62.4774 69.2165 62.4774 69.2165C62.4774 69.2164 62.4773 69.2164 62.1237 69.5698ZM59.6634 67.8167L61.7701 69.9234L62.4772 69.2163L60.3705 67.1096L59.6634 67.8167ZM59.668 67.8215L59.6789 67.8316L60.355 67.0947L60.3441 67.0847L59.668 67.8215ZM59.6566 67.8109L59.6653 67.819L60.3468 67.0872L60.3381 67.0791L59.6566 67.8109ZM59.5955 67.7481C59.6111 67.7652 59.6273 67.782 59.6438 67.7986L60.3509 67.0915C60.3449 67.0854 60.3391 67.0793 60.3334 67.0732L59.5955 67.7481ZM50.0825 58.2358L59.6109 67.7642L60.318 67.0571L50.7896 57.5287L50.0825 58.2358ZM50.0825 56.02C49.4729 56.6296 49.4729 57.6261 50.0825 58.2358L50.7896 57.5287C50.5705 57.3096 50.5705 56.9462 50.7896 56.7271L50.0825 56.02ZM52.292 56.02C51.6824 55.4104 50.6921 55.4104 50.0825 56.02L50.7896 56.7271C51.0087 56.508 51.3658 56.508 51.5849 56.7271L52.292 56.02ZM61.8839 65.6119L52.292 56.02L51.5849 56.7271L61.1768 66.319L61.8839 65.6119ZM62.4441 66.0242C62.1635 65.8618 61.9425 65.666 61.8711 65.5995L61.1897 66.3314C61.2875 66.4225 61.5707 66.6741 61.943 66.8897L62.4441 66.0242ZM62.8736 66.1907C62.7769 66.1907 62.6449 66.1399 62.4431 66.0237L61.944 66.8902C62.1481 67.0078 62.4857 67.1907 62.8736 67.1907V66.1907ZM64.4986 64.5657C64.4986 65.4679 63.7714 66.1907 62.8736 66.1907V67.1907C64.3217 67.1907 65.4986 66.0222 65.4986 64.5657H64.4986ZM64.3311 64.1346C64.4476 64.3375 64.4986 64.4675 64.4986 64.5657H65.4986C65.4986 64.1751 65.3137 63.8377 65.1985 63.637L64.3311 64.1346ZM64.2474 63.195C63.8937 63.5484 63.8937 63.5484 63.8936 63.5483C63.8936 63.5483 63.8936 63.5483 63.8935 63.5482C63.8935 63.5482 63.8934 63.5481 63.8934 63.5481C63.8933 63.548 63.8932 63.5479 63.8931 63.5478C63.893 63.5477 63.8929 63.5476 63.8929 63.5476C63.8929 63.5476 63.8931 63.5478 63.8936 63.5483C63.8946 63.5493 63.8966 63.5514 63.8995 63.5544C63.9054 63.5605 63.9149 63.5706 63.9275 63.5843C63.9527 63.6117 63.9897 63.6534 64.0335 63.7066C64.122 63.8142 64.2334 63.9634 64.3306 64.1337L65.199 63.6378C65.0657 63.4044 64.9183 63.2082 64.8058 63.0713C64.749 63.0023 64.6999 62.947 64.6641 62.908C64.6462 62.8885 64.6315 62.8729 64.6208 62.8618C64.6154 62.8562 64.611 62.8517 64.6077 62.8483C64.6061 62.8466 64.6047 62.8452 64.6035 62.8441C64.603 62.8435 64.6025 62.843 64.6021 62.8426C64.6019 62.8424 64.6017 62.8422 64.6015 62.842C64.6014 62.8419 64.6013 62.8418 64.6012 62.8417C64.6012 62.8417 64.6012 62.8416 64.6011 62.8416C64.6011 62.8416 64.601 62.8415 64.2474 63.195ZM49.7698 49.417L63.8937 63.5484L64.601 62.8415L50.4771 48.7101L49.7698 49.417ZM49.6235 43.3155V49.0636H50.6235V43.3155H49.6235ZM48.4383 43.8155H50.1235V42.8155H48.4383V43.8155ZM43.7908 48.6733L48.792 43.6689L48.0847 42.962L43.0834 47.9664L43.7908 48.6733ZM40.5609 50.1905C41.4176 50.1905 42.2356 49.786 42.8013 49.4276C43.092 49.2434 43.3338 49.0598 43.5034 48.9222C43.5884 48.8531 43.6559 48.7951 43.7029 48.7535C43.7265 48.7328 43.745 48.7161 43.758 48.7041C43.7645 48.6982 43.7697 48.6934 43.7735 48.6899C43.7753 48.6881 43.7769 48.6867 43.7781 48.6856C43.7786 48.685 43.7791 48.6845 43.7796 48.6842C43.7798 48.684 43.7799 48.6838 43.7801 48.6836C43.7802 48.6836 43.7803 48.6835 43.7803 48.6834C43.7804 48.6833 43.7805 48.6832 43.4371 48.3199C43.0937 47.9565 43.0937 47.9564 43.0938 47.9563C43.0938 47.9563 43.0939 47.9562 43.0939 47.9562C43.094 47.9561 43.0941 47.9561 43.0941 47.9561C43.0941 47.956 43.0941 47.956 43.094 47.9561C43.0938 47.9563 43.0932 47.9569 43.0923 47.9577C43.0905 47.9594 43.0874 47.9623 43.0829 47.9664C43.074 47.9745 43.0599 47.9873 43.041 48.004C43.0032 48.0374 42.9462 48.0864 42.873 48.1459C42.7261 48.2652 42.5162 48.4243 42.2661 48.5828C41.7502 48.9097 41.13 49.1905 40.5609 49.1905V50.1905ZM35.8108 45.4405C35.8108 48.065 37.9389 50.1905 40.5609 50.1905V49.1905C38.4908 49.1905 36.8108 47.5123 36.8108 45.4405H35.8108ZM37.6847 42.5611C37.321 42.218 37.321 42.218 37.3209 42.2181C37.3208 42.2182 37.3207 42.2183 37.3207 42.2184C37.3205 42.2185 37.3203 42.2187 37.3201 42.2189C37.3197 42.2193 37.3193 42.2198 37.3187 42.2204C37.3176 42.2216 37.3162 42.2231 37.3144 42.225C37.3109 42.2288 37.3061 42.234 37.3002 42.2405C37.2882 42.2536 37.2715 42.2721 37.2507 42.2957C37.2091 42.3429 37.1509 42.4105 37.0818 42.4958C36.9438 42.6657 36.76 42.9081 36.5754 43.1992C36.2164 43.7657 35.8108 44.5846 35.8108 45.4405H36.8108C36.8108 44.8727 37.0922 44.2519 37.4201 43.7346C37.579 43.4838 37.7386 43.2734 37.8582 43.1259C37.9179 43.0524 37.9671 42.9952 38.0006 42.9572C38.0173 42.9383 38.0301 42.9241 38.0383 42.9152C38.0424 42.9107 38.0453 42.9075 38.047 42.9057C38.0479 42.9048 38.0484 42.9042 38.0486 42.904C38.0487 42.9039 38.0487 42.9038 38.0487 42.9039C38.0487 42.9039 38.0486 42.904 38.0485 42.9041C38.0485 42.9041 38.0484 42.9042 38.0484 42.9042C38.0484 42.9043 38.0483 42.9043 37.6847 42.5611ZM41.8894 37.6493L37.3311 42.2076L38.0382 42.9147L42.5965 38.3564L41.8894 37.6493ZM37.8176 38.5029H42.2429V37.5029H37.8176V38.5029ZM71.8172 50.9302L58.5363 37.6493L57.8292 38.3564L71.1101 51.6373L71.8172 50.9302ZM68.541 54.9206L71.8176 51.637L71.1097 50.9306L67.8331 54.2142L68.541 54.9206ZM68.687 56.6924V54.5674H67.687V56.6924H68.687ZM64.8208 60.7587L68.5403 57.0463L67.8338 56.3385L64.1144 60.0509L64.8208 60.7587ZM55.5199 52.169L64.1141 60.7585L64.821 60.0512L56.2268 51.4617L55.5199 52.169ZM56.4993 51.3154H55.8734V52.3154H56.4993V51.3154ZM60.2493 47.5654C60.2493 49.6372 58.5693 51.3154 56.4993 51.3154V52.3154C59.1213 52.3154 61.2493 50.1898 61.2493 47.5654H60.2493ZM58.6243 48.0654H60.7493V47.0654H58.6243V48.0654ZM56.4993 50.1904C57.9475 50.1904 59.1243 49.0219 59.1243 47.5654H58.1243C58.1243 48.4676 57.3971 49.1904 56.4993 49.1904V50.1904ZM53.7472 50.1904H56.4993V49.1904H53.7472V50.1904ZM51.895 48.5461L53.3937 50.044L54.1006 49.3367L52.6019 47.8388L51.895 48.5461ZM51.7485 41.1905V48.1925H52.7485V41.1905H51.7485ZM47.5586 41.6905H52.2485V40.6905H47.5586V41.6905ZM42.2882 47.1648L47.912 41.5441L47.2051 40.8368L41.5812 46.4575L42.2882 47.1648ZM41.4914 47.7645C41.7234 47.6302 41.9195 47.4827 42.0564 47.3703C42.1254 47.3137 42.1809 47.2647 42.2199 47.2291C42.2395 47.2113 42.255 47.1967 42.2662 47.1861C42.2718 47.1808 42.2763 47.1765 42.2796 47.1732C42.2813 47.1716 42.2827 47.1702 42.2838 47.1691C42.2844 47.1686 42.2849 47.1681 42.2853 47.1677C42.2855 47.1675 42.2857 47.1673 42.2858 47.1671C42.2859 47.1671 42.286 47.167 42.2861 47.1669C42.2861 47.1669 42.2862 47.1668 42.2862 47.1668C42.2862 47.1667 42.2863 47.1667 41.9347 46.8112C41.5831 46.4557 41.5832 46.4556 41.5832 46.4556C41.5832 46.4556 41.5833 46.4555 41.5833 46.4555C41.5834 46.4554 41.5834 46.4554 41.5835 46.4553C41.5836 46.4552 41.5836 46.4551 41.5837 46.4551C41.5838 46.455 41.5839 46.4549 41.5839 46.4549C41.5839 46.4549 41.5836 46.4552 41.5831 46.4557C41.582 46.4568 41.5799 46.4588 41.5767 46.4618C41.5704 46.4678 41.5601 46.4775 41.5462 46.4902C41.5182 46.5157 41.4759 46.5531 41.422 46.5973C41.313 46.6868 41.1621 46.7997 40.9904 46.8991L41.4914 47.7645ZM40.5609 48.0655C40.9487 48.0655 41.2863 47.8826 41.4904 47.7651L40.9913 46.8985C40.7896 47.0147 40.6576 47.0655 40.5609 47.0655V48.0655ZM37.9359 45.4405C37.9359 46.897 39.1127 48.0655 40.5609 48.0655V47.0655C39.663 47.0655 38.9359 46.3428 38.9359 45.4405H37.9359ZM38.2359 44.5118C38.1207 44.7126 37.9359 45.0499 37.9359 45.4405H38.9359C38.9359 45.3423 38.9869 45.2124 39.1033 45.0094L38.2359 44.5118ZM39.1871 44.0698C38.8334 43.7164 38.8333 43.7164 38.8333 43.7165C38.8333 43.7165 38.8332 43.7165 38.8332 43.7166C38.8331 43.7167 38.833 43.7168 38.8329 43.7168C38.8328 43.717 38.8326 43.7172 38.8324 43.7174C38.8319 43.7178 38.8314 43.7183 38.8309 43.7189C38.8298 43.72 38.8284 43.7214 38.8267 43.7231C38.8234 43.7265 38.819 43.731 38.8136 43.7366C38.8029 43.7478 38.7882 43.7633 38.7703 43.7828C38.7345 43.8218 38.6854 43.8772 38.6286 43.9462C38.5161 44.083 38.3687 44.2793 38.2354 44.5127L39.1038 45.0086C39.2011 44.8382 39.3124 44.6891 39.4009 44.5814C39.4447 44.5282 39.4817 44.4866 39.5069 44.4591C39.5195 44.4454 39.529 44.4354 39.5349 44.4293C39.5378 44.4262 39.5398 44.4242 39.5408 44.4232C39.5413 44.4227 39.5416 44.4224 39.5416 44.4224C39.5415 44.4224 39.5415 44.4225 39.5413 44.4227C39.5413 44.4227 39.5412 44.4228 39.5411 44.4229C39.541 44.423 39.541 44.423 39.5409 44.4231C39.5409 44.4231 39.5408 44.4232 39.5408 44.4232C39.5408 44.4232 39.5407 44.4233 39.1871 44.0698ZM44.9005 37.6493L38.8335 43.7163L39.5406 44.4234L45.6076 38.3564L44.9005 37.6493ZM58.1827 37.5029H45.254V38.5029H58.1827V37.5029ZM41.8177 75.4704L44.5314 78.1851L45.2387 77.4782L42.5249 74.7634L41.8177 75.4704ZM42.2932 75.8212C42.38 75.6691 42.4782 75.5336 42.5617 75.4293L41.7809 74.8045C41.6746 74.9374 41.5441 75.1163 41.4248 75.3253L42.2932 75.8212ZM42.1252 76.2531C42.1252 76.1549 42.1762 76.025 42.2927 75.822L41.4253 75.3244C41.3101 75.5252 41.1252 75.8625 41.1252 76.2531H42.1252ZM43.7502 77.8781C42.8515 77.8781 42.1252 77.1555 42.1252 76.2531H41.1252C41.1252 77.7095 42.3008 78.8781 43.7502 78.8781V77.8781ZM44.1807 77.7111C43.9789 77.8273 43.8469 77.8781 43.7502 77.8781V78.8781C44.138 78.8781 44.4757 78.6952 44.6798 78.5777L44.1807 77.7111ZM44.5732 77.4408C44.4678 77.5249 44.3318 77.6236 44.1797 77.7117L44.6807 78.5771C44.8869 78.4578 45.0643 78.3283 45.1969 78.2225L44.5732 77.4408ZM37.5315 70.5532C37.425 70.6862 37.2941 70.8656 37.1744 71.0752L38.0428 71.571C38.1299 71.4185 38.2284 71.2827 38.3121 71.1782L37.5315 70.5532ZM40.9893 73.2272L38.2754 70.5122L37.5682 71.2192L40.2821 73.9342L40.9893 73.2272ZM40.4304 74.327C40.6371 74.2073 40.815 74.0774 40.9477 73.9714L40.3238 73.19C40.2183 73.2742 40.0819 73.3733 39.9293 73.4616L40.4304 74.327ZM39.4999 74.628C39.8877 74.628 40.2253 74.4451 40.4294 74.3276L39.9303 73.461C39.7286 73.5772 39.5965 73.628 39.4999 73.628V74.628ZM36.8748 72.003C36.8748 73.4595 38.0517 74.628 39.4999 74.628V73.628C38.602 73.628 37.8748 72.9053 37.8748 72.003H36.8748ZM37.1749 71.0743C37.0597 71.2751 36.8748 71.6124 36.8748 72.003H37.8748C37.8748 71.9048 37.9259 71.7749 38.0423 71.5719L37.1749 71.0743ZM33.3185 66.9679L36.0327 69.6831L36.7399 68.9762L34.0257 66.2609L33.3185 66.9679ZM33.7919 67.3212C33.8794 67.168 33.9783 67.0317 34.0622 66.9271L33.2819 66.3016C33.1752 66.4349 33.0437 66.6149 32.9235 66.8253L33.7919 67.3212ZM33.6239 67.7531C33.6239 67.655 33.675 67.525 33.7914 67.322L32.924 66.8244C32.8088 67.0252 32.6239 67.3626 32.6239 67.7531H33.6239ZM35.249 69.3782C34.3511 69.3782 33.6239 68.6554 33.6239 67.7531H32.6239C32.6239 69.2096 33.8008 70.3782 35.249 70.3782V69.3782ZM35.6794 69.2112C35.4777 69.3274 35.3456 69.3782 35.249 69.3782V70.3782C35.6368 70.3782 35.9744 70.1953 36.1785 70.0777L35.6794 69.2112ZM36.0742 68.9391C35.9685 69.0235 35.8316 69.123 35.6784 69.2117L36.1795 70.0771C36.3871 69.957 36.5656 69.8264 36.6985 69.7202L36.0742 68.9391ZM32.4904 64.725L29.7759 62.0095L29.0687 62.7164L31.7832 65.432L32.4904 64.725ZM31.9288 65.8269C32.137 65.7064 32.316 65.5754 32.4491 65.4689L31.8245 64.688C31.7187 64.7726 31.5814 64.8725 31.4277 64.9615L31.9288 65.8269ZM30.9982 66.1279C31.386 66.1279 31.7237 65.945 31.9278 65.8275L31.4287 64.9609C31.2269 65.0771 31.0949 65.1279 30.9982 65.1279V66.1279ZM28.3732 63.5029C28.3732 64.9594 29.5501 66.1279 30.9982 66.1279V65.1279C30.1004 65.1279 29.3732 64.4052 29.3732 63.5029H28.3732ZM28.6733 62.5742C28.5581 62.775 28.3732 63.1123 28.3732 63.5029H29.3732C29.3732 63.4047 29.4242 63.2748 29.5407 63.0718L28.6733 62.5742ZM29.0323 62.0501C28.9253 62.1834 28.7933 62.3639 28.6728 62.5751L29.5412 63.071C29.6289 62.9173 29.7283 62.7806 29.8123 62.6758L29.0323 62.0501Z" fill="#E16464" mask="url(#path-3-inside-1_1692_453)"/>
</svg>
