<svg width="14" height="14" viewBox="0 0 14 14" fill="none" xmlns="http://www.w3.org/2000/svg">
<path fill-rule="evenodd" clip-rule="evenodd" d="M4.03109 3.01904e-07H9.96891C10.5324 -8.62687e-06 10.9974 -1.59696e-05 11.3763 0.0309362C11.7697 0.0630838 12.1314 0.132079 12.4712 0.305182C12.998 0.573628 13.4264 1.00197 13.6948 1.52883C13.8679 1.86856 13.9369 2.23025 13.9691 2.62372C14 3.00255 14 3.4676 14 4.03107V9.96893C14 10.5324 14 10.9974 13.9691 11.3763C13.9369 11.7697 13.8679 12.1314 13.6948 12.4712C13.4264 12.998 12.998 13.4264 12.4712 13.6948C12.1314 13.8679 11.7697 13.9369 11.3763 13.9691C10.9974 14 10.5324 14 9.96893 14H4.03107C3.4676 14 3.00255 14 2.62372 13.9691C2.23025 13.9369 1.86856 13.8679 1.52883 13.6948C1.00197 13.4264 0.573628 12.998 0.305182 12.4712C0.132079 12.1314 0.0630838 11.7697 0.0309362 11.3763C-1.59696e-05 10.9974 -8.62687e-06 10.5324 3.01904e-07 9.96891V4.03109C-8.62687e-06 3.46761 -1.59696e-05 3.00256 0.0309362 2.62372C0.0630838 2.23025 0.132079 1.86856 0.305182 1.52883C0.573628 1.00197 1.00197 0.573628 1.52883 0.305182C1.86856 0.132079 2.23025 0.0630838 2.62372 0.0309362C3.00256 -1.59696e-05 3.46761 -8.62687e-06 4.03109 3.01904e-07ZM2.73773 1.42629C2.43084 1.45136 2.27389 1.49681 2.16441 1.55259C1.90099 1.68681 1.68681 1.90099 1.55259 2.16441C1.49681 2.27389 1.45136 2.43084 1.42629 2.73773C1.40054 3.05279 1.4 3.46039 1.4 4.06V9.94C1.4 10.5396 1.40054 10.9472 1.42629 11.2623C1.45136 11.5692 1.49681 11.7261 1.55259 11.8356C1.68681 12.099 1.90099 12.3132 2.16441 12.4474C2.27389 12.5032 2.43084 12.5486 2.73773 12.5737C3.05279 12.5995 3.46039 12.6 4.06 12.6H9.94C10.5396 12.6 10.9472 12.5995 11.2623 12.5737C11.5692 12.5486 11.7261 12.5032 11.8356 12.4474C12.099 12.3132 12.3132 12.099 12.4474 11.8356C12.5032 11.7261 12.5486 11.5692 12.5737 11.2623C12.5995 10.9472 12.6 10.5396 12.6 9.94V4.06C12.6 3.46039 12.5995 3.05279 12.5737 2.73773C12.5486 2.43084 12.5032 2.27389 12.4474 2.16441C12.3132 1.90099 12.099 1.68681 11.8356 1.55259C11.7261 1.49681 11.5692 1.45136 11.2623 1.42629C10.9472 1.40054 10.5396 1.4 9.94 1.4H4.06C3.46039 1.4 3.05279 1.40054 2.73773 1.42629ZM6.50503 3.70503C6.77839 3.43166 7.22161 3.43166 7.49497 3.70503L10.295 6.50503C10.5683 6.77839 10.5683 7.22161 10.295 7.49497L7.49497 10.295C7.22161 10.5683 6.77839 10.5683 6.50503 10.295C6.23166 10.0216 6.23166 9.57839 6.50503 9.30503L8.11005 7.7H4.2C3.8134 7.7 3.5 7.3866 3.5 7C3.5 6.6134 3.8134 6.3 4.2 6.3H8.11005L6.50503 4.69497C6.23166 4.42161 6.23166 3.97839 6.50503 3.70503Z" fill="#9954C4"/>
</svg>
