<svg fill="none" height="96" viewBox="0 0 96 96" width="96" xmlns="http://www.w3.org/2000/svg"><circle cx="48" cy="48" fill="#f7bc9c" r="43.8425" stroke="#ffa78a" stroke-width="8" transform="matrix(.97270748 -.23203482 .23203482 .97270748 -9.827631 12.447713)"/><g style="fill-rule:evenodd;clip-rule:evenodd;fill:#e16464;stroke:#e16464;stroke-width:.5;stroke-miterlimit:2"><path d="m44.7298 74.4843v5.1302h10.2605v-5.1302h2.0521v5.1302c0 1.1296-.9177 2.0521-2.0521 2.0521h-10.2605c-1.1344 0-2.0521-.9225-2.0521-2.0521v-5.1302z"/><path d="m48.8333 74.4843v6.1562h-2.0521v-6.1562z"/><path d="m52.9383 74.4843v6.1562h-2.0521v-6.1562z"/><path d="m27.2881 36.5209c0-12.6 10.247-20.5209 22.573-20.5209 12.3259 0 22.573 7.9209 22.573 20.5209 0 9.0452-3.7424 15.1619-7.3749 20.2215-.4917.6849-.9764 1.344-1.4478 1.9852-1.2876 1.751-2.4763 3.3675-3.4388 5.0062-1.2974 2.2085-2.1032 4.3339-2.1032 6.6466v1.026h-16.4167v-1.026c0-2.3127-.8058-4.4381-2.1031-6.6466-.9626-1.6387-2.1512-3.2552-3.4388-5.0062-.4714-.6412-.9561-1.3003-1.4478-1.9852-3.6326-5.0596-7.3749-11.1763-7.3749-20.2215zm22.573-18.4688c-11.4742 0-20.5209 7.2645-20.5209 18.4688 0 8.3976 3.44 14.0804 6.9897 19.0247.456.6352.9186 1.2642 1.3778 1.8886 1.3094 1.7805 2.5907 3.5229 3.6113 5.2602 1.2242 2.0841 2.136 4.2567 2.3419 6.6599h12.4003c.206-2.4032 1.1178-4.5758 2.342-6.6599 1.0205-1.7373 2.3019-3.4797 3.6112-5.2602.4592-.6244.9218-1.2534 1.3778-1.8886 3.5498-4.9443 6.9898-10.6271 6.9898-19.0247 0-11.2043-9.0468-18.4688-20.5209-18.4688z"/><path d="m35.4966 36.521c0-12.1323 6.3296-20.5209 14.3646-20.5209v2.0521c-6.3296 0-12.3125 6.7969-12.3125 18.4688 0 8.5222 2.2504 14.7864 4.5306 19.9802.4144.9438.8374 1.8684 1.2501 2.7703.7091 1.5495 1.3876 3.0324 1.9393 4.4322.8844 2.2436 1.5144 4.4359 1.5144 6.6768h-2.0521c0-1.8633-.5243-3.7752-1.3714-5.9243-.5349-1.3569-1.1705-2.7451-1.8597-4.2501-.4171-.9109-.8538-1.8646-1.2996-2.88-2.337-5.3232-4.7037-11.8845-4.7037-20.8051z" stroke-linejoin="round"/><path d="m62.1719 36.521c0-11.6719-5.9829-18.4688-12.3125-18.4688v-2.0521c8.035 0 14.3646 8.3886 14.3646 20.5209 0 8.9206-2.3667 15.4819-4.7038 20.8051-.4457 1.0154-.8824 1.9691-1.2995 2.8799-.6892 1.5051-1.3248 2.8933-1.8597 4.2502-.8471 2.1491-1.3714 4.061-1.3714 5.9243h-2.0521c0-2.2409.63-4.4332 1.5144-6.6768.5517-1.3998 1.2302-2.8827 1.9392-4.4322.4128-.9019.8358-1.8265 1.2502-2.7703 2.2802-5.1938 4.5306-11.458 4.5306-19.9802z" stroke-linejoin="round"/><path d="m47.4249 22.189c-.9596 3.1163-1.6697 7.8809-1.6697 14.332 0 6.4224 1.0125 13.2748 2.0377 19.3366.1883 1.113.3776 2.2028.5609 3.2583.313 1.8022.6086 3.5042.8518 5.0498.3849 2.4454.6538 4.5874.6538 6.2148h-2.0521c0-1.4508-.2441-3.4514-.6288-5.8958-.2411-1.532-.5315-3.2037-.8421-4.9919-.1839-1.0585-.3748-2.1578-.5668-3.293-1.0269-6.0712-2.0665-13.0704-2.0665-19.6788 0-6.5797.7218-11.5625 1.7606-14.9359.5178-1.6813 1.1294-3.0131 1.8073-3.9477.6497-.8957 1.5206-1.6373 2.5884-1.6373v2.0521c-.0655 0-.4025.0665-.9272.79-.4965.6846-1.0258 1.7832-1.5073 3.3468z" stroke-linejoin="round"/><path d="m54.255 21.5851c1.0389 3.3734 1.7606 8.3562 1.7606 14.9359 0 6.6084-1.0396 13.6076-2.0664 19.6788-.192 1.1352-.383 2.2345-.5668 3.293-.3106 1.7882-.601 3.4599-.8421 4.9919-.3847 2.4444-.6288 4.445-.6288 5.8958h-2.0521c0-1.6274.2689-3.7694.6537-6.2148.2433-1.5456.5389-3.2476.8519-5.0498.1833-1.0555.3726-2.1453.5608-3.2583 1.0253-6.0618 2.0378-12.9142 2.0378-19.3366 0-6.4511-.7101-11.2157-1.6698-14.332-.4815-1.5636-1.0107-2.6622-1.5072-3.3468-.5248-.7235-.8617-.79-.9272-.79v-2.0521c1.0678 0 1.9387.7416 2.5883 1.6373.6779.9346 1.2896 2.2664 1.8073 3.9477z" stroke-linejoin="round"/><path d="m58.0695 75.5102h-16.4167v-2.0521h16.4167z"/><path d="m22.2333 55.0522c.4626-2.9412 3.0094-5.1927 6.0812-5.1927v2.0521c-2.2661 0-4.1042 1.8388-4.1042 4.1042v1.026h-1.026c-2.8323 0-5.1303 2.3004-5.1303 5.1302 0 2.8299 2.298 5.1303 5.1303 5.1303h15.3906v2.052h-15.3906c-3.9663 0-7.1823-3.2197-7.1823-7.1823 0-3.6404 2.7144-6.6539 6.2313-7.1198z"/><path d="m22.6196 23.7974c-.536-.7146-1.7381-1.6417-4.5659-1.6417v-2.0521c3.2726 0 5.141 1.0876 6.1563 2.3953 1.0152-1.3077 2.8837-2.3953 6.1562-2.3953v2.0521c-2.8277 0-4.0299.9271-4.5659 1.6417-.2857.381-.4281.7615-.4987 1.044-.0352.1408-.0517.2539-.0594.3254-.0038.0356-.0054.0603-.006.0722-.0002.0051-.0003.0079-.0003.008v-.0001l.0001-.0038v-.0039-.0025-.0014c0-.0007 0-.0014-1.026-.0014-1.0261 0-1.0261.0007-1.0261.0014v.0014.0025l.0001.0039v.0038.0001c0-.0001 0-.0029-.0003-.008-.0006-.0119-.0021-.0366-.006-.0722-.0076-.0715-.0241-.1846-.0593-.3254-.0707-.2825-.213-.663-.4988-1.044z"/><path d="m77.4546 46.8632c-.4262-1.8137-2.0536-3.1598-3.9953-3.1598v2.0521c1.1342 0 2.0521.9162 2.0521 2.052 0 .5667.4594 1.0261 1.0261 1.0261 1.7 0 3.0781 1.3774 3.0781 3.0781s-1.3781 3.0782-3.0781 3.0782h-8.2084v2.0521h8.2084c2.833 0 5.1302-2.2959 5.1302-5.1303 0-2.5212-1.8176-4.6162-4.2131-5.0485z" stroke-linejoin="round"/></g></svg>