<svg fill="none" height="12" viewBox="0 0 11 12" width="11" xmlns="http://www.w3.org/2000/svg"><path clip-rule="evenodd" d="m3.3 0c.30376 0 .55.244208.55.545455v.545455h3.3v-.545455c0-.301247.24624-.545455.55-.545455s.55.244208.55.545455v.546345c.26151.00178.49006.00714.6885.02321.30916.02505.59334.07882.86028.2137.41392.20918.75052.54296.96142.95349.136.26473.1902.54657.2155.85317.0243.29519.0243.65757.0243 1.09664v4.6269c0 .43906 0 .80144-.0243 1.09663-.0253.30656-.0795.58846-.2155.85316-.2109.4105-.5475.7443-.96142.9535-.26694.1349-.55112.1886-.86028.2137-.29765.0241-.66304.0241-1.10577.0241h-4.66546c-.44273 0-.80812 0-1.10577-.0241-.30916-.0251-.59334-.0788-.86028-.2137-.413955-.2092-.750513-.543-.961434-.9535-.13601-.2647-.1902202-.5466-.215479-.85316-.02431955-.2952-.02431378-.65757-.02430676-1.09665v-4.62687c-.00000702-.43908-.00001279-.80145.02430676-1.09665.0252588-.3066.079469-.58844.215479-.85317.210922-.41053.547479-.74431.961434-.95349.26694-.13488.55112-.18865.86028-.2137.19844-.01607.42699-.02143.6885-.02321v-.546345c0-.301247.24624-.545455.55-.545455zm-.55 2.18278c-.24504.00171-.43745.00644-.59893.01952-.24113.01954-.36444.05495-.45046.09842-.20698.10459-.37526.27148-.48072.47675-.04383.0853-.07954.2076-.09924.44673-.02022.24551-.02065.56312-.02065 1.03035v.10909h8.8v-.10909c0-.46723-.00043-.78484-.02065-1.03035-.01971-.23913-.05541-.36143-.09924-.44673-.10546-.20527-.27374-.37216-.48072-.47675-.08602-.04347-.20933-.07888-.45046-.09842-.16148-.01308-.35389-.01781-.59893-.01952v.54449c0 .30125-.24624.54546-.55.54546s-.55-.24421-.55-.54546v-.54545h-3.3v.54545c0 .30125-.24624.54546-.55.54546s-.55-.24421-.55-.54546zm7.15 3.27177h-8.8v3.38181c0 .46723.00043.78484.02065 1.03035.0197.23909.05541.36139.09924.44669.10546.2053.27374.3722.48072.4768.08602.0435.20933.0789.45046.0984.24755.0201.56781.0205 1.03893.0205h4.62c.47112 0 .79138-.0004 1.03893-.0205.24113-.0195.36444-.0549.45046-.0984.20698-.1046.37526-.2715.48072-.4768.04383-.0853.07953-.2076.09924-.44669.02022-.24551.02065-.56312.02065-1.03035z" fill="#222" fill-rule="evenodd"/></svg>