<svg fill="none" height="14" viewBox="0 0 18 14" width="18" xmlns="http://www.w3.org/2000/svg"><path d="m17.1377 5.12109h-16m7.2 3.2h-4m-3.2-4.64v6.08c0 .89611 0 1.34411.17438 1.68641.1534.301.39817.5458.69923.6992.34226.1744.7903.1744 1.68639.1744h10.88c.8961 0 1.3441 0 1.6864-.1744.301-.1534.5458-.3982.6992-.6992.1744-.3423.1744-.7903.1744-1.68641v-6.08c0-.89608 0-1.34412-.1744-1.68638-.1534-.30106-.3982-.54583-.6992-.69923-.3423-.17439-.7903-.17439-1.6864-.17439h-10.88c-.89609 0-1.34413 0-1.68639.17439-.30106.1534-.54583.39817-.69922.69923-.17439.34226-.17439.7903-.17439 1.68638z" stroke="#222" stroke-linecap="round" stroke-linejoin="round" stroke-width="1.5"/></svg>