<svg width="1525" height="858" viewBox="0 0 1525 858" fill="none" xmlns="http://www.w3.org/2000/svg">
<path fill-rule="evenodd" clip-rule="evenodd" d="M1072 329.162C1055.33 192.681 1106.14 61.1485 1215.73 0H1240.27C1122.21 53.4437 1065.68 186.697 1082.91 327.829C1084.39 339.921 1086.33 352.069 1088.72 364.24C1103.66 360.213 1118.66 355.676 1133.73 350.593C1262.34 307.214 1399.87 218.369 1408.16 65.4287C1409.73 36.5278 1402.03 14.6414 1388.41 0H1402.6C1414.59 16.6952 1420.61 39.058 1419.14 66.0245C1410.45 226.258 1266.63 317.375 1137.25 361.016C1121.75 366.244 1106.32 370.902 1090.96 375.029C1112.19 472.534 1161.65 570.904 1229.08 652.995C1307.42 748.387 1409.63 821.326 1519.19 845.631L1524.56 846.822L1522.18 857.561L1516.81 856.369C1404.22 831.393 1300.02 756.704 1220.57 659.977C1152.29 576.844 1102 477.084 1080.31 377.808C881.278 428.203 692.612 390.618 493.374 350.927L493.269 350.906C487.65 349.786 482.022 348.665 476.386 347.544C465.885 345.457 455.282 343.275 444.609 341.078C381.438 328.08 315.847 314.583 255 317.118C184.373 320.061 120.838 344.596 75.8794 416.965C73.4009 420.955 70.2375 426.905 66.4078 434.109C65.4055 435.995 64.3576 437.966 63.2644 440.011C58.069 449.727 51.9783 460.842 45.3044 471.335C38.6557 481.788 31.2772 491.867 23.4423 499.39C16.5247 506.032 8.60621 511.304 0 512.322L0 501.187C4.7478 500.219 10.0455 497.004 15.8237 491.456C22.7297 484.824 29.558 475.595 36.0228 465.431C42.4624 455.307 48.3919 444.496 53.5642 434.824C54.5944 432.897 55.6 431.005 56.5769 429.167L56.5776 429.165C60.4341 421.909 63.8418 415.497 66.5356 411.16C113.87 334.967 181.231 309.182 254.542 306.128C316.864 303.531 383.99 317.357 447.067 330.349L447.07 330.349L447.104 330.357C457.708 332.541 468.198 334.701 478.531 336.756C483.873 337.818 489.206 338.88 494.528 339.94C694.644 379.797 881.356 416.983 1078.06 367.031C1075.56 354.378 1073.53 341.744 1072 329.162Z" fill="#89CBF5"/>
</svg>
