<svg fill="none" height="858" viewBox="0 0 1525 858" width="1525" xmlns="http://www.w3.org/2000/svg"><path clip-rule="evenodd" d="m1072 329.162c-16.67-136.481 34.14-268.0135 143.73-329.162h24.54c-118.06 53.4437-174.59 186.697-157.36 327.829 1.48 12.092 3.42 24.24 5.81 36.411 14.94-4.027 29.94-8.564 45.01-13.647 128.61-43.379 266.14-132.224 274.43-285.1643 1.57-28.9009-6.13-50.7873-19.75-65.4287h14.19c11.99 16.6952 18.01 39.058 16.54 66.0245-8.69 160.2335-152.51 251.3505-281.89 294.9915-15.5 5.228-30.93 9.886-46.29 14.013 21.23 97.505 70.69 195.875 138.12 277.966 78.34 95.392 180.55 168.331 290.11 192.636l5.37 1.191-2.38 10.739-5.37-1.192c-112.59-24.976-216.79-99.665-296.24-196.392-68.28-83.133-118.57-182.893-140.26-282.169-199.032 50.395-387.698 12.81-586.936-26.881l-.105-.021c-5.619-1.12-11.247-2.241-16.883-3.362-10.501-2.087-21.104-4.269-31.777-6.466-63.171-12.998-128.762-26.495-189.609-23.96-70.627 2.943-134.162 27.478-179.1206 99.847-2.4785 3.99-5.6419 9.94-9.4716 17.144-1.0023 1.886-2.0502 3.857-3.1434 5.902-5.1954 9.716-11.2861 20.831-17.96 31.324-6.6487 10.453-14.0272 20.532-21.8621 28.055-6.9176 6.642-14.83609 11.914-23.4423 12.932v-11.135c4.7478-.968 10.0455-4.183 15.8237-9.731 6.906-6.632 13.7343-15.861 20.1991-26.025 6.4396-10.124 12.3691-20.935 17.5414-30.607 1.0302-1.927 2.0358-3.819 3.0127-5.657l.0007-.002c3.8565-7.256 7.2642-13.668 9.958-18.005 47.3344-76.193 114.6954-101.978 188.0064-105.032 62.322-2.597 129.448 11.229 192.525 24.221h.003l.034.008c10.604 2.184 21.094 4.344 31.427 6.399 5.342 1.062 10.675 2.124 15.997 3.184 200.116 39.857 386.828 77.043 583.532 27.091-2.5-12.653-4.53-25.287-6.06-37.869z" fill="#89cbf5" fill-rule="evenodd"/></svg>