<svg width="96" height="96" viewBox="0 0 96 96" fill="none" xmlns="http://www.w3.org/2000/svg">
<circle cx="48" cy="48" r="43.8425" transform="rotate(-13.4169 48 48)" fill="#F7BC9C" stroke="#FFA78A" stroke-width="8"/>
<path fill-rule="evenodd" clip-rule="evenodd" d="M23.1022 23.4388C23.2998 23.1102 23.6557 22.9092 24.0397 22.9092H54.6528V25.091H24.6587L15.5271 40.2767L48.0956 81.1594L64.7323 60.4095L66.4398 61.7725L48.9466 83.5907C48.7387 83.8499 48.4239 84.0006 48.0911 84.0001C47.7584 83.9996 47.444 83.8479 47.237 83.588L13.3439 41.0425C13.0603 40.6866 13.0278 40.1924 13.2623 39.8025L23.1022 23.4388Z" fill="#E16464" stroke="#E16464" stroke-width="0.5" stroke-miterlimit="2" stroke-linejoin="round"/>
<path fill-rule="evenodd" clip-rule="evenodd" d="M72.3672 25.0847H66.4395V22.9091H72.9849C73.3681 22.9091 73.7232 23.1095 73.9204 23.4372L83.7385 39.7548C83.9754 40.1485 83.9389 40.6481 83.6474 41.0034L73.8292 52.9697L72.1406 51.5919L81.4728 40.218L72.3672 25.0847Z" fill="#E16464" stroke="#E16464" stroke-width="0.5" stroke-miterlimit="2" stroke-linejoin="round"/>
<path fill-rule="evenodd" clip-rule="evenodd" d="M81.9552 41.3334H53.834V38.4243H81.9552V41.3334Z" fill="#E16464" stroke="#E16464" stroke-width="0.5" stroke-miterlimit="2" stroke-linejoin="round"/>
<path fill-rule="evenodd" clip-rule="evenodd" d="M42.1974 41.3334H14.0762V38.4243H42.1974V41.3334Z" fill="#E16464" stroke="#E16464" stroke-width="0.5" stroke-miterlimit="2" stroke-linejoin="round"/>
<path fill-rule="evenodd" clip-rule="evenodd" d="M59.6514 39.0879L72.3369 22.9091L74.1968 24.1847L61.5113 40.3636L59.6514 39.0879Z" fill="#E16464" stroke="#E16464" stroke-width="0.5" stroke-miterlimit="2" stroke-linejoin="round"/>
<path fill-rule="evenodd" clip-rule="evenodd" d="M59.7304 40.3636L47.0449 24.1847L48.9049 22.9091L61.5904 39.0879L59.7304 40.3636Z" fill="#E16464" stroke="#E16464" stroke-width="0.5" stroke-miterlimit="2" stroke-linejoin="round"/>
<path fill-rule="evenodd" clip-rule="evenodd" d="M35.4102 39.088L47.25 22.9092L48.9859 24.1849L37.1461 40.3637L35.4102 39.088Z" fill="#E16464" stroke="#E16464" stroke-width="0.5" stroke-miterlimit="2" stroke-linejoin="round"/>
<path fill-rule="evenodd" clip-rule="evenodd" d="M35.4892 40.3637L22.8037 24.1849L24.6636 22.9092L37.3492 39.088L35.4892 40.3637Z" fill="#E16464" stroke="#E16464" stroke-width="0.5" stroke-miterlimit="2" stroke-linejoin="round"/>
<path fill-rule="evenodd" clip-rule="evenodd" d="M47.6439 83.0303L34.4395 39.993L36.7501 39.3939L49.9546 82.4312L47.6439 83.0303Z" fill="#E16464" stroke="#E16464" stroke-width="0.5" stroke-miterlimit="2" stroke-linejoin="round"/>
<path fill-rule="evenodd" clip-rule="evenodd" d="M47.0449 82.4312L59.4241 39.3939L61.5904 39.993L49.2112 83.0303L47.0449 82.4312Z" fill="#E16464" stroke="#E16464" stroke-width="0.5" stroke-miterlimit="2" stroke-linejoin="round"/>
<path fill-rule="evenodd" clip-rule="evenodd" d="M59.9707 23.7879V17H62.8798V23.7879H59.9707Z" fill="#E16464" stroke="#E16464" stroke-width="0.5" stroke-miterlimit="2" stroke-linejoin="round"/>
<path fill-rule="evenodd" clip-rule="evenodd" d="M64.8182 21.8486H59V19.9092H64.8182V21.8486Z" fill="#E16464" stroke="#E16464" stroke-width="0.5" stroke-miterlimit="2" stroke-linejoin="round"/>
<path fill-rule="evenodd" clip-rule="evenodd" d="M47.0449 43.2727V36.4849H49.954V43.2727H47.0449Z" fill="#E16464" stroke="#E16464" stroke-width="0.5" stroke-miterlimit="2" stroke-linejoin="round"/>
<path fill-rule="evenodd" clip-rule="evenodd" d="M51.8933 41.3334H45.1055V38.4243H51.8933V41.3334Z" fill="#E16464" stroke="#E16464" stroke-width="0.5" stroke-miterlimit="2" stroke-linejoin="round"/>
<path fill-rule="evenodd" clip-rule="evenodd" d="M18.9395 69.7879V63H21.8485V69.7879H18.9395Z" fill="#E16464" stroke="#E16464" stroke-width="0.5" stroke-miterlimit="2" stroke-linejoin="round"/>
<path fill-rule="evenodd" clip-rule="evenodd" d="M23.7879 67.8486H17V65.9092H23.7879V67.8486Z" fill="#E16464" stroke="#E16464" stroke-width="0.5" stroke-miterlimit="2" stroke-linejoin="round"/>
<path fill-rule="evenodd" clip-rule="evenodd" d="M68.3794 59.7576V52.9697H70.3188V59.7576H68.3794Z" fill="#E16464" stroke="#E16464" stroke-width="0.5" stroke-miterlimit="2" stroke-linejoin="round"/>
<path fill-rule="evenodd" clip-rule="evenodd" d="M72.2576 57.8183H66.4395V54.9092H72.2576V57.8183Z" fill="#E16464" stroke="#E16464" stroke-width="0.5" stroke-miterlimit="2" stroke-linejoin="round"/>
</svg>
