<svg fill="none" height="96" viewBox="0 0 96 96" width="96" xmlns="http://www.w3.org/2000/svg"><circle cx="48" cy="48" fill="#f7bc9c" r="43.8425" stroke="#ffa78a" stroke-width="8" transform="matrix(.97270748 -.23203482 .23203482 .97270748 -9.827631 12.447713)"/><g style="fill-rule:evenodd;clip-rule:evenodd;fill:#e16464;stroke:#e16464;stroke-width:.5;stroke-miterlimit:2;stroke-linejoin:round"><path d="m23.1022 23.4388c.1976-.3286.5535-.5296.9375-.5296h30.6131v2.1818h-29.9941l-9.1316 15.1857 32.5685 40.8827 16.6367-20.7499 1.7075 1.363-17.4932 21.8182c-.2079.2592-.5227.4099-.8555.4094-.3327-.0005-.6471-.1522-.8541-.4121l-33.8931-42.5455c-.2836-.3559-.3161-.8501-.0816-1.24z"/><path d="m72.3672 25.0847h-5.9277v-2.1756h6.5454c.3832 0 .7383.2004.9355.5281l9.8181 16.3176c.2369.3937.2004.8933-.0911 1.2486l-9.8182 11.9663-1.6886-1.3778 9.3322-11.3739z"/><path d="m81.9552 41.3334h-28.1212v-2.9091h28.1212z"/><path d="m42.1974 41.3334h-28.1212v-2.9091h28.1212z"/><path d="m59.6514 39.0879 12.6855-16.1788 1.8599 1.2756-12.6855 16.1789z"/><path d="m59.7304 40.3636-12.6855-16.1789 1.86-1.2756 12.6855 16.1788z"/><path d="m35.4102 39.088 11.8398-16.1788 1.7359 1.2757-11.8398 16.1788z"/><path d="m35.4892 40.3637-12.6855-16.1788 1.8599-1.2757 12.6856 16.1788z"/><path d="m47.6439 83.0303-13.2044-43.0373 2.3106-.5991 13.2045 43.0373z"/><path d="m47.0449 82.4312 12.3792-43.0373 2.1663.5991-12.3792 43.0373z"/><path d="m59.9707 23.7879v-6.7879h2.9091v6.7879z"/><path d="m64.8182 21.8486h-5.8182v-1.9394h5.8182z"/><path d="m47.0449 43.2727v-6.7878h2.9091v6.7878z"/><path d="m51.8933 41.3334h-6.7878v-2.9091h6.7878z"/><path d="m18.9395 69.7879v-6.7879h2.909v6.7879z"/><path d="m23.7879 67.8486h-6.7879v-1.9394h6.7879z"/><path d="m68.3794 59.7576v-6.7879h1.9394v6.7879z"/><path d="m72.2576 57.8183h-5.8181v-2.9091h5.8181z"/></g></svg>