<svg fill="none" height="22" viewBox="0 0 22 22" width="22" xmlns="http://www.w3.org/2000/svg"><path d="m10.5 4h.4344c3.0472 0 4.5709 0 5.1492.54729.5.47308.7215 1.16999.5866 1.84492-.1562.78081-1.4001 1.66064-3.8879 3.42032l-4.06458 2.87497c-2.48782 1.7596-3.73173 2.6395-3.88788 3.4203-.13498.6749.08658 1.3718.58652 1.8449.57838.5473 2.102.5473 5.14924.5473h.9344m-4.5-14.5c0 1.65685-1.34315 3-3 3s-3-1.34315-3-3 1.34315-3 3-3 3 1.34315 3 3zm14 14c0 1.6569-1.3431 3-3 3s-3-1.3431-3-3 1.3431-3 3-3 3 1.3431 3 3z" stroke="#222" stroke-linecap="round" stroke-linejoin="round" stroke-width="2"/></svg>