<svg fill="none" height="22" viewBox="0 0 18 22" width="18" xmlns="http://www.w3.org/2000/svg"><path clip-rule="evenodd" d="m10 2.01991c-.1857-.01692-.46085-.01985-.98822-.01985h-3.21178c-.85658 0-1.43887.00078-1.88896.03755-.43842.03582-.66262.10075-.81902.18044-.37632.19175-.68229.49771-.87403.87403-.07969.1564-.14462.38061-.18044.81902-.03677.45009-.03755 1.03238-.03755 1.88896v10.40004c0 .8565.00078 1.4388.03755 1.8889.03582.4384.10075.6626.18044.819.19174.3764.49771.6823.87403.8741.1564.0797.3806.1446.81902.1804.45009.0368 1.03238.0376 1.88896.0376h6.4c.8566 0 1.4389-.0008 1.889-.0376.4384-.0358.6626-.1007.819-.1804.3763-.1918.6823-.4977.874-.8741.0797-.1564.1446-.3806.1804-.819.0368-.4501.0376-1.0324.0376-1.8889v-7.21181c0-.5273-.0029-.80246-.0198-.98816l-3.4121.00001c-.2524.00003-.4982.00006-.7063-.01695-.2286-.01868-.4984-.06275-.7698-.20104-.3763-.19175-.6823-.49771-.874-.87403-.1383-.27143-.1824-.54116-.2011-.76976-.01696-.20816-.01693-.45396-.0169-.70634zm1.3936-1.669881c-.2259-.10126-.461-.181485-.7025-.239446-.4627-.11108259-.94245-.11085419-1.57744-.11055211-.03352.00001597-.06748.00003219-.10188.00003219l-3.25308-.00000048c-.80497-.00001276-1.46933-.00002325-2.01053.0441941-.56209.0459252-1.0788.1444893-1.56413.3917803-.75265.383493-1.364572.995413-1.748065 1.748063-.247291.48534-.3458553 1.00204-.3917805 1.56414-.04421731.54119-.04420682 1.20555-.04419407 2.01052v10.48264c-.00001275.8049-.00002324 1.4693.04419407 2.0105.0459252.5621.1444895 1.0788.3917805 1.5641.383493.7527.995415 1.3646 1.748065 1.7481.48533.2473 1.00204.3458 1.56413.3918.54119.0442 1.20555.0442 2.01051.0442h6.48262c.805 0 1.4693 0 2.0105-.0442.5621-.046 1.0788-.1445 1.5642-.3918.7526-.3835 1.3645-.9954 1.748-1.7481.2473-.4853.3459-1.002.3918-1.5641.0442-.5412.0442-1.2056.0442-2.0105v-7.25311c0-.0344 0-.06835 0-.10187.0003-.635.0006-1.1148-.1105-1.5775-.0578-.24073-.1377-.4752-.2386-.70049-.0062-.01468-.0128-.02918-.0198-.04349-.0653-.14139-.1389-.27905-.2205-.41223-.2487-.40573-.5881-.74483-1.0373-1.19364-.0237-.02368-.0478-.04768-.0721-.072l-3.1882-3.18823c-.0243-.02432-.0483-.04834-.072-.07206-.4488-.44922-.7879-.788651-1.1936-1.037278-.1338-.081946-.272-.155837-.414-.221363-.0131-.006317-.0264-.012356-.0398-.01811zm.6064 3.064251v1.98586c0 .29652.0008.45878.0103.57536.0004.00464.0008.00904.0011.01319.0042.00038.0086.00076.0132.00114.1166.00953.2789.0103.5754.0103h1.9859z" fill="#222" fill-rule="evenodd"/></svg>