<svg fill="none" height="96" viewBox="0 0 96 96" width="96" xmlns="http://www.w3.org/2000/svg"><path d="m88 48c0 22.0914-17.9086 40-40 40s-40-17.9086-40-40 17.9086-40 40-40 40 17.9086 40 40z" fill="#f7bc9c"/><path clip-rule="evenodd" d="m96 48c0 26.5097-21.4903 48-48 48s-48-21.4903-48-48 21.4903-48 48-48 48 21.4903 48 48zm-48 40c22.0914 0 40-17.9086 40-40s-17.9086-40-40-40-40 17.9086-40 40 17.9086 40 40 40z" fill="#ffa78a" fill-rule="evenodd"/><path clip-rule="evenodd" d="m24.7467 27.7001c0-6.4575 5.2706-11.7001 11.7722-11.7001 4.7985 0 9.4082 2.8886 11.424 7.0849 2.0157-4.1963 6.6255-7.0849 11.424-7.0849 6.5007 0 11.7726 5.2425 11.7726 11.7001 0 9.2771-5.7634 17.8673-11.3393 24.0347-2.8077 3.1054-5.6121 5.645-7.7137 7.4081-1.0516.8822-1.9293 1.5716-2.546 2.0419-.3084.2352-.5518.4157-.7192.5383-.0837.0612-.1484.108-.1928.1399-.0222.016-.0394.0282-.0512.0367l-.0139.0098-.0039.0028-.0012.0008c-.0004.0003-.0008.0005-.6154-.8603-.6147.8608-.615.8606-.6154.8603l-.0052-.0036-.0138-.0098c-.0076-.0055-.0174-.0125-.0293-.021-.0067-.0047-.014-.01-.0219-.0157-.0444-.0319-.1092-.0787-.1929-.1399-.1674-.1226-.4107-.3031-.7191-.5383-.6168-.4703-1.4944-1.1597-2.5459-2.0419-2.1016-1.7631-4.906-4.3027-7.7136-7.4081-5.5758-6.1674-11.3391-14.7576-11.3391-24.0347zm23.1962 33.3527-.6147.8608.6147.4336.6146-.4336zm0-1.3125c.0921-.0691.1939-.146.3046-.2304.5937-.4528 1.4453-1.1217 2.4688-1.9803 2.0487-1.7186 4.7779-4.1908 7.5039-7.2059 5.4913-6.0738 10.7952-14.16 10.7952-22.6236 0-5.2919-4.3212-9.5889-9.6485-9.5889-5.4179 0-10.3619 4.3825-10.3619 9.5889h-2.1242c0-5.2064-4.944-9.5889-10.3619-9.5889-5.328 0-9.648 4.2969-9.648 9.5889 0 8.4636 5.3037 16.5498 10.795 22.6236 2.7259 3.0151 5.455 5.4873 7.5036 7.2059 1.0235.8587 1.8751 1.5275 2.4688 1.9803.1107.0844.2124.1613.3046.2304zm-11.424-37.3713c-2.9626 0-5.364 2.3885-5.364 5.3311h-2.1241c0-4.1081 3.3519-7.4423 7.4881-7.4423zm28.2125 5.3311c0-2.9426-2.4012-5.3311-5.3645-5.3311v-2.1112c4.1369 0 7.4886 3.3341 7.4886 7.4423zm-46.4818 7.9466c-1.1735 0-2.1254.9446-2.1254 2.1124v16.8881c.0001.0049.0006.0162.0018.0334.0024.037.0081.1013.0207.1889.0252.1755.0781.443.1886.7724.2197.6552.6702 1.5648 1.6032 2.4928l7.437 7.3899.0004.0004c1.1921 1.1857 1.8042 2.3885 2.1158 3.3174.1552.4626.2351.8549.2763 1.1414.0206.1433.0315.2604.0373.3471.003.0434.0046.0791.0055.1068.0002.0064.0004.0124.0005.0179.0002.0064.0003.0123.0004.0175l.0001.013v.0054l.0001.0023v.0011c0 .0006 0 .0011-1.0621.0011h1.0621v1.0555h9.5632v-7.3893c0-.0013 0-.0037-.0001-.0069 0-.0024-.0001-.0052-.0001-.0085-.0004-.0157-.0011-.0424-.0028-.0791-.0034-.0735-.0104-.1864-.0249-.3307-.0291-.2896-.088-.6999-.206-1.1689-.239-.9501-.7021-2.0687-1.5798-2.9407l-10.3142-10.2518h-.6226c-1.174 0-2.1254.9427-2.1254 2.1124v.6195l7.1264 7.0811-1.5018 1.493-7.7488-7.6995v-1.4941c0-2.3379 1.9046-4.2236 4.2496-4.2236h1.5025l10.9361 10.8699c1.2472 1.2391 1.8465 2.76 2.1388 3.9218.1476.5869.2216 1.1006.2588 1.4709.0187.1856.0283.3368.0333.4448.0024.0541.0037.0975.0044.1292.0004.0158.0006.0287.0007.0386l.0001.0125v.0045.0027c0 .0003 0 .0007-1.0621.0007h1.0621v7.3915h.0005c1.1778 0 2.1244.9528 2.1244 2.1125v6.336h-2.1241v-6.3357c-.0002-.0002-.0004-.0005-.0006-.0007s-.0004-.0005-.0006-.0007c-.0001-.0001-.0002-.0001-.0002-.0002h-13.8105c-.0001.0001-.0002.0002-.0004.0004-.0004.0004-.0008.0009-.0011.0013v6.3356h-2.1242v-6.336c0-1.16.9472-2.1125 2.1247-2.1125h.0005v-1.0467c-.0002-.0049-.0006-.0162-.0018-.0334-.0025-.0371-.0081-.1013-.0207-.189-.0253-.1755-.0782-.443-.1886-.7724-.2198-.6551-.6702-1.5648-1.6033-2.4928l-7.437-7.3899-.0003-.0004c-1.1922-1.1856-1.8043-2.3884-2.1158-3.3173-.1552-.4626-.2351-.855-.2763-1.1414-.0206-.1433-.0316-.2605-.0374-.3471-.0029-.0434-.0045-.0792-.0054-.1068-.0005-.0139-.0007-.0257-.0009-.0354l-.0002-.0131v-.0053-.0024-.0011c0-.0005 0-.001 1.0389-.001h-1.0389v-16.8969c0-2.3348 1.9041-4.2236 4.2496-4.2236s4.2496 1.8888 4.2496 4.2236v8.4497h-2.1242v-8.4497c0-1.1678-.9519-2.1124-2.1254-2.1124zm55.2512 2.1124c0-2.3348 1.9041-4.2236 4.2496-4.2236s4.2496 1.8888 4.2496 4.2236v16.8969h-1.0389c1.0389 0 1.0389.0005 1.0389.001v.0011.0024.0053l-.0002.0131c-.0002.0097-.0004.0215-.0009.0354-.0004.0139-.0011.0299-.002.0478-.0008.0178-.002.0375-.0034.059-.0058.0867-.0168.2039-.0374.3472-.0412.2865-.1212.6789-.2765 1.1415-.3118.929-.9244 2.1318-2.1174 3.3174l-7.4358 7.3903c-.9338.928-1.3845 1.8377-1.6044 2.4927-.1105.3294-.1635.5969-.1887.7723-.0126.0876-.0182.1519-.0207.1889-.0012.0173-.0017.0286-.0018.0335v1.0466h.0013c1.1748 0 2.1254.9509 2.1254 2.1125v6.336h-2.1242v-6.3348c-.0003-.0005-.0008-.001-.0013-.0015-.0004-.0004-.0008-.0008-.0011-.001h-13.8101c0 .0001-.0001.0001-.0002.0002-.0005.0005-.0009.001-.0012.0014v6.3357h-2.1241v-6.336c0-1.1597.9466-2.1125 2.1244-2.1125h.0005v-7.3915h1.0621c-1.0621 0-1.0621-.0004-1.0621-.0007v-.0008-.0018-.0046l.0001-.0125c.0001-.0055.0002-.012.0003-.0194.0001-.0058.0002-.0123.0004-.0192.0007-.0317.002-.0751.0044-.1292.005-.108.0146-.2591.0332-.4448.0373-.3703.1112-.8839.2588-1.4708.292-1.1617.8911-2.6826 2.1377-3.9218l10.937-10.87h1.5033c2.345 0 4.2496 1.8857 4.2496 4.2236v1.4941l-7.7496 7.6995-1.5017-1.493 7.1271-7.0811v-.6195c0-1.1697-.9514-2.1124-2.1254-2.1124h-.6234l-10.3148 10.2516c-.8772.8719-1.3402 1.9907-1.579 2.9408-.118.469-.1768.8793-.2059 1.169-.0145.1443-.0215.2572-.0249.3306-.0017.0367-.0024.0635-.0028.0792-.0002.0079-.0002.013-.0002.0153l-.0001.0011v7.3883h9.5623v-1.0555h1.039c-1.039 0-1.039-.0005-1.039-.0011v-.0011-.0023l.0001-.0054.0001-.013c.0002-.0097.0004-.0216.0009-.0354.0009-.0277.0025-.0635.0054-.1068.0058-.0867.0168-.2039.0374-.3472.0413-.2865.1212-.6789.2765-1.1416.3118-.9289.9244-2.1318 2.1174-3.3174l7.4358-7.3903c.9338-.928 1.3845-1.8376 1.6044-2.4927.1105-.3293.1635-.5968.1887-.7723.0126-.0876.0183-.1518.0207-.1889.0012-.0172.0017-.0285.0018-.0334v-16.888c0-1.1678-.9519-2.1124-2.1254-2.1124s-2.1254.9446-2.1254 2.1124v8.4497h-2.1242z" fill="#e16464" fill-rule="evenodd"/><path d="m47.9429 61.0528c.6146.8608.615.8606.6153.8603l.0013-.0008.0039-.0028.0139-.0098c.0118-.0085.029-.0207.0512-.0367.0444-.0319.1091-.0787.1928-.1399.1674-.1226.4108-.3031.7192-.5383.6167-.4703 1.4944-1.1597 2.546-2.0419 2.1016-1.7631 4.906-4.3027 7.7137-7.4081 5.5759-6.1674 11.3393-14.7576 11.3393-24.0347 0-6.4576-5.2719-11.7001-11.7726-11.7001-4.7985 0-9.4083 2.8886-11.424 7.0849-2.0158-4.1963-6.6255-7.0849-11.424-7.0849-6.5016 0-11.7722 5.2426-11.7722 11.7001 0 9.2771 5.7633 17.8673 11.3391 24.0347 2.8076 3.1054 5.612 5.645 7.7136 7.4081 1.0515.8822 1.9291 1.5716 2.5459 2.0419.3084.2352.5517.4157.7191.5383.0837.0612.1485.108.1929.1399.0079.0057.0152.011.0219.0157.0119.0085.0217.0155.0293.021l.0138.0098.0052.0036c.0004.0003.0007.0005.6154-.8603zm0 0-.6147.8608.6147.4336.6146-.4336zm12.4943-1.4256 10.3148-10.2516h.6234c1.174 0 2.1254.9427 2.1254 2.1124v.6195l-7.1271 7.0811 1.5017 1.493 7.7496-7.6995v-1.4941c0-2.3379-1.9046-4.2236-4.2496-4.2236h-1.5033l-10.937 10.8701c-1.2466 1.2391-1.8457 2.76-2.1377 3.9217-.1476.5869-.2215 1.1005-.2588 1.4708-.0186.1857-.0282.3368-.0332.4448-.0024.0541-.0037.0975-.0044.1292-.0002.0069-.0003.0134-.0004.0192-.0001.0074-.0002.0139-.0003.0194l-.0001.0125v.0046.0018.0008c0 .0003 0 .0007 1.0621.0007h-1.0621v7.3915h-.0005c-1.1778 0-2.1244.9528-2.1244 2.1125v6.336h2.1241v-6.3357c.0003-.0004.0007-.0009.0012-.0014.0001-.0001.0002-.0001.0002-.0002h13.8101c.0003.0002.0007.0006.0011.001.0005.0005.001.001.0013.0015v6.3348h2.1242v-6.336c0-1.1616-.9506-2.1125-2.1254-2.1125h-.0013v-1.0466c.0001-.0049.0006-.0162.0018-.0335.0025-.037.0081-.1013.0207-.1889.0252-.1754.0782-.4429.1887-.7723.2199-.655.6706-1.5647 1.6044-2.4927l7.4358-7.3903c1.193-1.1856 1.8056-2.3884 2.1174-3.3174.1553-.4626.2353-.855.2765-1.1415.0206-.1433.0316-.2605.0374-.3472.0014-.0215.0026-.0412.0034-.059.0009-.0179.0016-.0339.002-.0478.0005-.0139.0007-.0257.0009-.0354l.0002-.0131v-.0053-.0024-.0011c0-.0005 0-.001-1.0389-.001h1.0389v-16.8969c0-2.3348-1.9041-4.2236-4.2496-4.2236s-4.2496 1.8888-4.2496 4.2236v8.4497h2.1242v-8.4497c0-1.1678.9519-2.1124 2.1254-2.1124s2.1254.9446 2.1254 2.1124v16.888c-.0001.0049-.0006.0162-.0018.0334-.0024.0371-.0081.1013-.0207.1889-.0252.1755-.0782.443-.1887.7723-.2199.6551-.6706 1.5647-1.6044 2.4927l-7.4358 7.3903c-1.193 1.1856-1.8056 2.3885-2.1174 3.3174-.1553.4627-.2352.8551-.2765 1.1416-.0206.1433-.0316.2605-.0374.3472-.0029.0433-.0045.0791-.0054.1068-.0005.0138-.0007.0257-.0009.0354l-.0001.013-.0001.0054v.0023.0011c0 .0006 0 .0011 1.0389.0011h-1.0389v1.0555h-9.5623v-7.3883l.0001-.0011c0-.0023 0-.0074.0002-.0153.0004-.0157.0011-.0425.0028-.0792.0034-.0734.0104-.1863.0249-.3306.0291-.2897.0879-.7.2059-1.169.2388-.9501.7018-2.0689 1.579-2.9408zm-12.1897-.1173c-.1107.0844-.2124.1613-.3046.2304-.0922-.0691-.1939-.146-.3046-.2304-.5937-.4528-1.4453-1.1216-2.4688-1.9803-2.0486-1.7186-4.7777-4.1908-7.5036-7.2059-5.4913-6.0738-10.795-14.16-10.795-22.6236 0-5.292 4.32-9.5889 9.648-9.5889 5.4179 0 10.3619 4.3825 10.3619 9.5889h2.1242c0-5.2064 4.944-9.5889 10.3619-9.5889 5.3273 0 9.6485 4.297 9.6485 9.5889 0 8.4636-5.3039 16.5498-10.7952 22.6236-2.726 3.0151-5.4552 5.4873-7.5039 7.2059-1.0235.8586-1.8751 1.5275-2.4688 1.9803zm-17.0926-31.8098c0-2.9427 2.4014-5.3311 5.364-5.3311v-2.1112c-4.1362 0-7.4881 3.3342-7.4881 7.4423zm28.212-5.3311c2.9633 0 5.3645 2.3885 5.3645 5.3311h2.1241c0-4.1082-3.3517-7.4423-7.4886-7.4423zm-43.2427 15.3901c0-1.1678.9519-2.1124 2.1254-2.1124s2.1254.9446 2.1254 2.1124v8.4497h2.1242v-8.4497c0-2.3348-1.9041-4.2236-4.2496-4.2236s-4.2496 1.8888-4.2496 4.2236v16.8969h1.0389c-1.0389 0-1.0389.0005-1.0389.001v.0011.0024.0053l.0002.0131c.0002.0097.0004.0215.0009.0354.0009.0276.0025.0634.0054.1068.0058.0866.0168.2038.0374.3471.0412.2864.1211.6788.2763 1.1414.3115.9289.9236 2.1317 2.1158 3.3173l.0003.0004 7.437 7.3899c.9331.928 1.3835 1.8377 1.6033 2.4928.1104.3294.1633.5969.1886.7724.0126.0877.0182.1519.0207.189.0012.0172.0016.0285.0018.0334v1.0467h-.0005c-1.1775 0-2.1247.9525-2.1247 2.1125v6.336h2.1242v-6.3356c.0003-.0004.0007-.0009.0011-.0013l.0004-.0004h13.8105c0 .0001.0001.0001.0002.0002.0002.0002.0004.0005.0006.0007s.0004.0005.0006.0007v6.3357h2.1241v-6.336c0-1.1597-.9466-2.1125-2.1244-2.1125h-.0005v-7.3915h-1.0621c1.0621 0 1.0621-.0004 1.0621-.0007v-.0027-.0045l-.0001-.0125c-.0001-.0099-.0003-.0228-.0007-.0386-.0007-.0317-.002-.0751-.0044-.1292-.005-.108-.0146-.2592-.0333-.4448-.0372-.3704-.1112-.884-.2588-1.4709-.2923-1.1618-.8916-2.6827-2.1388-3.9218l-10.9361-10.8699h-1.5025c-2.345 0-4.2496 1.8857-4.2496 4.2236v1.4941l7.7488 7.6995 1.5018-1.493-7.1264-7.0811v-.6195c0-1.1697.9514-2.1124 2.1254-2.1124h.6226l10.3142 10.2518c.8777.872 1.3408 1.9906 1.5798 2.9407.118.469.1769.8793.206 1.1689.0145.1443.0215.2572.0249.3307.0017.0367.0024.0634.0028.0791 0 .0033.0001.0061.0001.0085.0001.0032.0001.0056.0001.0069v7.3893h-9.5632v-1.0555h-1.0621c1.0621 0 1.0621-.0005 1.0621-.0011v-.0011l-.0001-.0023v-.0054l-.0001-.013c-.0001-.0052-.0002-.0111-.0004-.0175-.0001-.0055-.0003-.0115-.0005-.0179-.0009-.0277-.0025-.0634-.0055-.1068-.0058-.0867-.0167-.2038-.0373-.3471-.0412-.2865-.1211-.6788-.2763-1.1414-.3116-.9289-.9237-2.1317-2.1158-3.3174l-.0004-.0004-7.437-7.3899c-.933-.928-1.3835-1.8376-1.6032-2.4928-.1105-.3294-.1634-.5969-.1886-.7724-.0126-.0876-.0183-.1519-.0207-.1889-.0012-.0172-.0017-.0285-.0018-.0334z" stroke="#e16464" stroke-miterlimit="2" stroke-width=".5"/></svg>