<svg width="96" height="96" viewBox="0 0 96 96" fill="none" xmlns="http://www.w3.org/2000/svg">
<path d="M88 48C88 70.0914 70.0914 88 48 88C25.9086 88 8 70.0914 8 48C8 25.9086 25.9086 8 48 8C70.0914 8 88 25.9086 88 48Z" fill="#F7BC9C"/>
<path fill-rule="evenodd" clip-rule="evenodd" d="M96 48C96 74.5097 74.5097 96 48 96C21.4903 96 0 74.5097 0 48C0 21.4903 21.4903 0 48 0C74.5097 0 96 21.4903 96 48ZM48 88C70.0914 88 88 70.0914 88 48C88 25.9086 70.0914 8 48 8C25.9086 8 8 25.9086 8 48C8 70.0914 25.9086 88 48 88Z" fill="#FFA78A"/>
<path fill-rule="evenodd" clip-rule="evenodd" d="M24.7467 27.7001C24.7467 21.2426 30.0173 16 36.5189 16C41.3174 16 45.9271 18.8886 47.9429 23.0849C49.9586 18.8886 54.5684 16 59.3669 16C65.8676 16 71.1395 21.2425 71.1395 27.7001C71.1395 36.9772 65.3761 45.5674 59.8002 51.7348C56.9925 54.8402 54.1881 57.3798 52.0865 59.1429C51.0349 60.0251 50.1572 60.7145 49.5405 61.1848C49.2321 61.42 48.9887 61.6005 48.8213 61.7231C48.7376 61.7843 48.6729 61.8311 48.6285 61.863C48.6063 61.879 48.5891 61.8912 48.5773 61.8997L48.5634 61.9095L48.5595 61.9123L48.5583 61.9131C48.5579 61.9134 48.5575 61.9136 47.9429 61.0528C47.3282 61.9136 47.3279 61.9134 47.3275 61.9131L47.3223 61.9095L47.3085 61.8997C47.3009 61.8942 47.2911 61.8872 47.2792 61.8787C47.2725 61.874 47.2652 61.8687 47.2573 61.863C47.2129 61.8311 47.1481 61.7843 47.0644 61.7231C46.897 61.6005 46.6537 61.42 46.3453 61.1848C45.7285 60.7145 44.8509 60.0251 43.7994 59.1429C41.6978 57.3798 38.8934 54.8402 36.0858 51.7348C30.51 45.5674 24.7467 36.9772 24.7467 27.7001ZM47.9429 61.0528L47.3282 61.9136L47.9429 62.3472L48.5575 61.9136L47.9429 61.0528ZM47.9429 59.7403C48.035 59.6712 48.1368 59.5943 48.2475 59.5099C48.8412 59.0571 49.6928 58.3882 50.7163 57.5296C52.765 55.811 55.4942 53.3388 58.2202 50.3237C63.7115 44.2499 69.0154 36.1637 69.0154 27.7001C69.0154 22.4082 64.6942 18.1112 59.3669 18.1112C53.949 18.1112 49.005 22.4937 49.005 27.7001H46.8808C46.8808 22.4937 41.9368 18.1112 36.5189 18.1112C31.1909 18.1112 26.8709 22.4081 26.8709 27.7001C26.8709 36.1637 32.1746 44.2499 37.6659 50.3237C40.3918 53.3388 43.1209 55.811 45.1695 57.5296C46.193 58.3883 47.0446 59.0571 47.6383 59.5099C47.749 59.5943 47.8507 59.6712 47.9429 59.7403ZM36.5189 22.369C33.5563 22.369 31.1549 24.7575 31.1549 27.7001H29.0308C29.0308 23.592 32.3827 20.2578 36.5189 20.2578V22.369ZM64.7314 27.7001C64.7314 24.7575 62.3302 22.369 59.3669 22.369V20.2578C63.5038 20.2578 66.8555 23.5919 66.8555 27.7001H64.7314ZM18.2496 35.6467C17.0761 35.6467 16.1242 36.5913 16.1242 37.7591V54.6472C16.1243 54.6521 16.1248 54.6634 16.126 54.6806C16.1284 54.7176 16.1341 54.7819 16.1467 54.8695C16.1719 55.045 16.2248 55.3125 16.3353 55.6419C16.555 56.2971 17.0055 57.2067 17.9385 58.1347L25.3755 65.5246L25.3759 65.525C26.568 66.7107 27.1801 67.9135 27.4917 68.8424C27.6469 69.305 27.7268 69.6973 27.768 69.9838C27.7886 70.1271 27.7995 70.2442 27.8053 70.3309C27.8083 70.3743 27.8099 70.41 27.8108 70.4377C27.811 70.4441 27.8112 70.4501 27.8113 70.4556C27.8115 70.462 27.8116 70.4679 27.8117 70.4731L27.8118 70.4861L27.8118 70.4915L27.8119 70.4938L27.8119 70.4949C27.8119 70.4955 27.8119 70.496 26.7498 70.496H27.8119V71.5515H37.3751L37.3751 64.1622C37.3751 64.1609 37.3751 64.1585 37.375 64.1553C37.375 64.1529 37.3749 64.1501 37.3749 64.1468C37.3745 64.1311 37.3738 64.1044 37.3721 64.0677C37.3687 63.9942 37.3617 63.8813 37.3472 63.737C37.3181 63.4474 37.2592 63.0371 37.1412 62.5681C36.9022 61.618 36.4391 60.4994 35.5614 59.6274L25.2472 49.3756H24.6246C23.4506 49.3756 22.4992 50.3183 22.4992 51.488V52.1075L29.6256 59.1886L28.1238 60.6816L20.375 52.9821V51.488C20.375 49.1501 22.2796 47.2644 24.6246 47.2644H26.1271L37.0632 58.1343C38.3104 59.3734 38.9097 60.8943 39.202 62.0561C39.3496 62.643 39.4236 63.1567 39.4608 63.527C39.4795 63.7126 39.4891 63.8638 39.4941 63.9718C39.4965 64.0259 39.4978 64.0693 39.4985 64.101C39.4989 64.1168 39.4991 64.1297 39.4992 64.1396L39.4993 64.1521L39.4993 64.1566L39.4993 64.1593C39.4993 64.1596 39.4993 64.16 38.4372 64.16H39.4993V71.5515H39.4998C40.6776 71.5515 41.6242 72.5043 41.6242 73.664V80H39.5001V73.6643C39.4999 73.6641 39.4997 73.6638 39.4995 73.6636C39.4993 73.6634 39.4991 73.6631 39.4989 73.6629C39.4988 73.6628 39.4987 73.6628 39.4987 73.6627H25.6882C25.6881 73.6628 25.688 73.6629 25.6878 73.6631C25.6874 73.6635 25.687 73.664 25.6867 73.6644V80H23.5625V73.664C23.5625 72.504 24.5097 71.5515 25.6872 71.5515H25.6877V70.5048C25.6875 70.4999 25.6871 70.4886 25.6859 70.4714C25.6834 70.4343 25.6778 70.3701 25.6652 70.2824C25.6399 70.1069 25.587 69.8394 25.4766 69.51C25.2568 68.8549 24.8064 67.9452 23.8733 67.0172L16.4363 59.6273L16.436 59.6269C15.2438 58.4413 14.6317 57.2385 14.3202 56.3096C14.165 55.847 14.0851 55.4546 14.0439 55.1682C14.0233 55.0249 14.0123 54.9077 14.0065 54.8211C14.0036 54.7777 14.002 54.7419 14.0011 54.7143C14.0006 54.7004 14.0004 54.6886 14.0002 54.6789L14 54.6658L14 54.6605L14 54.6581L14 54.657C14 54.6565 14 54.656 15.0389 54.656H14V37.7591C14 35.4243 15.9041 33.5355 18.2496 33.5355C20.5951 33.5355 22.4992 35.4243 22.4992 37.7591V46.2088H20.375V37.7591C20.375 36.5913 19.4231 35.6467 18.2496 35.6467ZM73.5008 37.7591C73.5008 35.4243 75.4049 33.5355 77.7504 33.5355C80.0959 33.5355 82 35.4243 82 37.7591V54.656H80.9611C82 54.656 82 54.6565 82 54.657L82 54.6581V54.6605L82 54.6658L81.9998 54.6789C81.9996 54.6886 81.9994 54.7004 81.9989 54.7143C81.9985 54.7282 81.9978 54.7442 81.9969 54.7621C81.9961 54.7799 81.9949 54.7996 81.9935 54.8211C81.9877 54.9078 81.9767 55.025 81.9561 55.1683C81.9149 55.4548 81.8349 55.8472 81.6796 56.3098C81.3678 57.2388 80.7552 58.4416 79.5622 59.6272L72.1264 67.0175C71.1926 67.9455 70.7419 68.8552 70.522 69.5102C70.4115 69.8396 70.3585 70.1071 70.3333 70.2825C70.3207 70.3701 70.3151 70.4344 70.3126 70.4714C70.3114 70.4887 70.3109 70.5 70.3108 70.5049V71.5515H70.3121C71.4869 71.5515 72.4375 72.5024 72.4375 73.664V80H70.3133V73.6652C70.313 73.6647 70.3125 73.6642 70.312 73.6637C70.3116 73.6633 70.3112 73.6629 70.3109 73.6627H56.5008C56.5008 73.6628 56.5007 73.6628 56.5006 73.6629C56.5001 73.6634 56.4997 73.6639 56.4994 73.6643V80H54.3753V73.664C54.3753 72.5043 55.3219 71.5515 56.4997 71.5515H56.5002V64.16H57.5623C56.5002 64.16 56.5002 64.1596 56.5002 64.1593V64.1585L56.5002 64.1567L56.5002 64.1521L56.5003 64.1396C56.5004 64.1341 56.5005 64.1276 56.5006 64.1202C56.5007 64.1144 56.5008 64.1079 56.501 64.101C56.5017 64.0693 56.503 64.0259 56.5054 63.9718C56.5104 63.8638 56.52 63.7127 56.5386 63.527C56.5759 63.1567 56.6498 62.6431 56.7974 62.0562C57.0894 60.8945 57.6885 59.3736 58.9351 58.1344L69.8721 47.2644H71.3754C73.7204 47.2644 75.625 49.1501 75.625 51.488V52.9821L67.8754 60.6816L66.3737 59.1886L73.5008 52.1075V51.488C73.5008 50.3183 72.5494 49.3756 71.3754 49.3756H70.752L60.4372 59.6272C60.4372 59.6272 60.4372 59.6272 60.4372 59.6272C59.56 60.4991 59.097 61.6179 58.8582 62.568C58.7402 63.037 58.6814 63.4473 58.6523 63.737C58.6378 63.8813 58.6308 63.9942 58.6274 64.0676C58.6257 64.1043 58.625 64.1311 58.6246 64.1468C58.6244 64.1547 58.6244 64.1598 58.6244 64.1621L58.6243 64.1632L58.6243 71.5515H68.1866V70.496H69.2256C68.1866 70.496 68.1866 70.4955 68.1866 70.4949V70.4938L68.1866 70.4915L68.1867 70.4861L68.1868 70.4731C68.187 70.4634 68.1872 70.4515 68.1877 70.4377C68.1886 70.41 68.1902 70.3742 68.1931 70.3309C68.1989 70.2442 68.2099 70.127 68.2305 69.9837C68.2718 69.6972 68.3517 69.3048 68.507 68.8421C68.8188 67.9132 69.4314 66.7103 70.6244 65.5247L78.0602 58.1344C78.994 57.2064 79.4447 56.2968 79.6646 55.6417C79.7751 55.3124 79.8281 55.0449 79.8533 54.8694C79.8659 54.7818 79.8716 54.7176 79.874 54.6805C79.8752 54.6633 79.8757 54.652 79.8758 54.6471V37.7591C79.8758 36.5913 78.9239 35.6467 77.7504 35.6467C76.5769 35.6467 75.625 36.5913 75.625 37.7591V46.2088H73.5008V37.7591Z" fill="#E16464"/>
<path d="M47.9429 61.0528C48.5575 61.9136 48.5579 61.9134 48.5582 61.9131L48.5595 61.9123L48.5634 61.9095L48.5773 61.8997C48.5891 61.8912 48.6063 61.879 48.6285 61.863C48.6729 61.8311 48.7376 61.7843 48.8213 61.7231C48.9887 61.6005 49.2321 61.42 49.5405 61.1848C50.1572 60.7145 51.0349 60.0251 52.0865 59.1429C54.1881 57.3798 56.9925 54.8402 59.8002 51.7348C65.3761 45.5674 71.1395 36.9772 71.1395 27.7001C71.1395 21.2425 65.8676 16 59.3669 16C54.5684 16 49.9586 18.8886 47.9429 23.0849C45.9271 18.8886 41.3174 16 36.5189 16C30.0173 16 24.7467 21.2426 24.7467 27.7001C24.7467 36.9772 30.51 45.5674 36.0858 51.7348C38.8934 54.8402 41.6978 57.3798 43.7994 59.1429C44.8509 60.0251 45.7285 60.7145 46.3453 61.1848C46.6537 61.42 46.897 61.6005 47.0644 61.7231C47.1481 61.7843 47.2129 61.8311 47.2573 61.863C47.2652 61.8687 47.2725 61.874 47.2792 61.8787C47.2911 61.8872 47.3009 61.8942 47.3085 61.8997L47.3223 61.9095L47.3275 61.9131C47.3279 61.9134 47.3282 61.9136 47.9429 61.0528ZM47.9429 61.0528L47.3282 61.9136L47.9429 62.3472L48.5575 61.9136L47.9429 61.0528ZM60.4372 59.6272L70.752 49.3756H71.3754C72.5494 49.3756 73.5008 50.3183 73.5008 51.488V52.1075L66.3737 59.1886L67.8754 60.6816L75.625 52.9821V51.488C75.625 49.1501 73.7204 47.2644 71.3754 47.2644H69.8721L58.9351 58.1345C57.6885 59.3736 57.0894 60.8945 56.7974 62.0562C56.6498 62.6431 56.5759 63.1567 56.5386 63.527C56.52 63.7127 56.5104 63.8638 56.5054 63.9718C56.503 64.0259 56.5017 64.0693 56.501 64.101C56.5008 64.1079 56.5007 64.1144 56.5006 64.1202C56.5005 64.1276 56.5004 64.1341 56.5003 64.1396L56.5002 64.1521L56.5002 64.1567L56.5002 64.1585V64.1593C56.5002 64.1596 56.5002 64.16 57.5623 64.16H56.5002V71.5515H56.4997C55.3219 71.5515 54.3753 72.5043 54.3753 73.664V80H56.4994V73.6643C56.4997 73.6639 56.5001 73.6634 56.5006 73.6629C56.5007 73.6628 56.5008 73.6628 56.5008 73.6627H70.3109C70.3112 73.6629 70.3116 73.6633 70.312 73.6637C70.3125 73.6642 70.313 73.6647 70.3133 73.6652V80H72.4375V73.664C72.4375 72.5024 71.4869 71.5515 70.3121 71.5515H70.3108V70.5049C70.3109 70.5 70.3114 70.4887 70.3126 70.4714C70.3151 70.4344 70.3207 70.3701 70.3333 70.2825C70.3585 70.1071 70.4115 69.8396 70.522 69.5102C70.7419 68.8552 71.1926 67.9455 72.1264 67.0175L79.5622 59.6272C80.7552 58.4416 81.3678 57.2388 81.6796 56.3098C81.8349 55.8472 81.9149 55.4548 81.9561 55.1683C81.9767 55.025 81.9877 54.9078 81.9935 54.8211C81.9949 54.7996 81.9961 54.7799 81.9969 54.7621C81.9978 54.7442 81.9985 54.7282 81.9989 54.7143C81.9994 54.7004 81.9996 54.6886 81.9998 54.6789L82 54.6658L82 54.6605V54.6581L82 54.657C82 54.6565 82 54.656 80.9611 54.656H82V37.7591C82 35.4243 80.0959 33.5355 77.7504 33.5355C75.4049 33.5355 73.5008 35.4243 73.5008 37.7591V46.2088H75.625V37.7591C75.625 36.5913 76.5769 35.6467 77.7504 35.6467C78.9239 35.6467 79.8758 36.5913 79.8758 37.7591V54.6471C79.8757 54.652 79.8752 54.6633 79.874 54.6805C79.8716 54.7176 79.8659 54.7818 79.8533 54.8694C79.8281 55.0449 79.7751 55.3124 79.6646 55.6417C79.4447 56.2968 78.994 57.2064 78.0602 58.1344L70.6244 65.5247C69.4314 66.7103 68.8188 67.9132 68.507 68.8421C68.3517 69.3048 68.2718 69.6972 68.2305 69.9837C68.2099 70.127 68.1989 70.2442 68.1931 70.3309C68.1902 70.3742 68.1886 70.41 68.1877 70.4377C68.1872 70.4515 68.187 70.4634 68.1868 70.4731L68.1867 70.4861L68.1866 70.4915L68.1866 70.4938V70.4949C68.1866 70.4955 68.1866 70.496 69.2255 70.496H68.1866V71.5515H58.6243L58.6243 64.1632L58.6244 64.1621C58.6244 64.1598 58.6244 64.1547 58.6246 64.1468C58.625 64.1311 58.6257 64.1043 58.6274 64.0676C58.6308 63.9942 58.6378 63.8813 58.6523 63.737C58.6814 63.4473 58.7402 63.037 58.8582 62.568C59.097 61.6179 59.56 60.4991 60.4372 59.6272ZM60.4372 59.6272C60.4372 59.6272 60.4372 59.6272 60.4372 59.6272ZM48.2475 59.5099C48.1368 59.5943 48.0351 59.6712 47.9429 59.7403C47.8507 59.6712 47.749 59.5943 47.6383 59.5099C47.0446 59.0571 46.193 58.3883 45.1695 57.5296C43.1209 55.811 40.3918 53.3388 37.6659 50.3237C32.1746 44.2499 26.8709 36.1637 26.8709 27.7001C26.8709 22.4081 31.1909 18.1112 36.5189 18.1112C41.9368 18.1112 46.8808 22.4937 46.8808 27.7001H49.005C49.005 22.4937 53.949 18.1112 59.3669 18.1112C64.6942 18.1112 69.0154 22.4082 69.0154 27.7001C69.0154 36.1637 63.7115 44.2499 58.2202 50.3237C55.4942 53.3388 52.765 55.811 50.7163 57.5296C49.6928 58.3882 48.8412 59.0571 48.2475 59.5099ZM31.1549 27.7001C31.1549 24.7574 33.5563 22.369 36.5189 22.369V20.2578C32.3827 20.2578 29.0308 23.592 29.0308 27.7001H31.1549ZM59.3669 22.369C62.3302 22.369 64.7314 24.7575 64.7314 27.7001H66.8555C66.8555 23.5919 63.5038 20.2578 59.3669 20.2578V22.369ZM16.1242 37.7591C16.1242 36.5913 17.0761 35.6467 18.2496 35.6467C19.4231 35.6467 20.375 36.5913 20.375 37.7591V46.2088H22.4992V37.7591C22.4992 35.4243 20.5951 33.5355 18.2496 33.5355C15.9041 33.5355 14 35.4243 14 37.7591V54.656H15.0389C14 54.656 14 54.6565 14 54.657L14 54.6581L14 54.6605L14 54.6658L14.0002 54.6789C14.0004 54.6886 14.0006 54.7004 14.0011 54.7143C14.002 54.7419 14.0036 54.7777 14.0065 54.8211C14.0123 54.9077 14.0233 55.0249 14.0439 55.1682C14.0851 55.4546 14.165 55.847 14.3202 56.3096C14.6317 57.2385 15.2438 58.4413 16.436 59.6269L16.4363 59.6273L23.8733 67.0172C24.8064 67.9452 25.2568 68.8549 25.4766 69.51C25.587 69.8394 25.6399 70.1069 25.6652 70.2824C25.6778 70.3701 25.6834 70.4343 25.6859 70.4714C25.6871 70.4886 25.6875 70.4999 25.6877 70.5048V71.5515H25.6872C24.5097 71.5515 23.5625 72.504 23.5625 73.664V80H25.6867V73.6644C25.687 73.664 25.6874 73.6635 25.6878 73.6631C25.688 73.6629 25.6881 73.6628 25.6882 73.6627H39.4987C39.4987 73.6628 39.4988 73.6628 39.4989 73.6629C39.4991 73.6631 39.4993 73.6634 39.4995 73.6636C39.4997 73.6638 39.4999 73.6641 39.5001 73.6643V80H41.6242V73.664C41.6242 72.5043 40.6776 71.5515 39.4998 71.5515H39.4993V64.16H38.4372C39.4993 64.16 39.4993 64.1596 39.4993 64.1593L39.4993 64.1566L39.4993 64.1521L39.4992 64.1396C39.4991 64.1297 39.4989 64.1168 39.4985 64.101C39.4978 64.0693 39.4965 64.0259 39.4941 63.9718C39.4891 63.8638 39.4795 63.7126 39.4608 63.527C39.4236 63.1566 39.3496 62.643 39.202 62.0561C38.9097 60.8943 38.3104 59.3734 37.0632 58.1343L26.1271 47.2644H24.6246C22.2796 47.2644 20.375 49.1501 20.375 51.488V52.9821L28.1238 60.6816L29.6256 59.1886L22.4992 52.1075V51.488C22.4992 50.3183 23.4506 49.3756 24.6246 49.3756H25.2472L35.5614 59.6274C36.4391 60.4994 36.9022 61.618 37.1412 62.5681C37.2592 63.0371 37.3181 63.4474 37.3472 63.737C37.3617 63.8813 37.3687 63.9942 37.3721 64.0677C37.3738 64.1044 37.3745 64.1311 37.3749 64.1468C37.3749 64.1501 37.375 64.1529 37.375 64.1553C37.3751 64.1585 37.3751 64.1609 37.3751 64.1622L37.3751 71.5515H27.8119V70.496H26.7498C27.8119 70.496 27.8119 70.4955 27.8119 70.4949L27.8119 70.4938L27.8118 70.4915L27.8118 70.4861L27.8117 70.4731C27.8116 70.4679 27.8115 70.462 27.8113 70.4556C27.8112 70.4501 27.811 70.4441 27.8108 70.4377C27.8099 70.41 27.8083 70.3743 27.8053 70.3309C27.7995 70.2442 27.7886 70.1271 27.768 69.9838C27.7268 69.6973 27.6469 69.305 27.4917 68.8424C27.1801 67.9135 26.568 66.7107 25.3759 65.525L25.3755 65.5246L17.9385 58.1347C17.0055 57.2067 16.555 56.2971 16.3353 55.6419C16.2248 55.3125 16.1719 55.045 16.1467 54.8695C16.1341 54.7819 16.1284 54.7176 16.126 54.6806C16.1248 54.6634 16.1243 54.6521 16.1242 54.6472V37.7591Z" stroke="#E16464" stroke-width="0.5" stroke-miterlimit="2"/>
</svg>
