<svg width="32" height="22" viewBox="0 0 32 22" fill="none" xmlns="http://www.w3.org/2000/svg">
<path fill-rule="evenodd" clip-rule="evenodd" d="M13.2899 11.2443C13.2834 13.9397 12.5429 16.3245 11.4137 17.9999C10.2792 19.683 8.84474 20.5403 7.42067 20.5368C5.9966 20.5333 4.56628 19.6691 3.44007 17.9804C2.86604 17.1197 2.39486 16.0736 2.07258 14.8957C2.11945 14.9356 2.1673 14.9726 2.21604 15.0067C2.68515 15.4786 3.24758 15.7539 3.85277 15.7554C5.5002 15.7594 6.84066 13.7327 6.84677 11.2286C6.85287 8.72446 5.52231 6.69123 3.87487 6.68722C3.1991 6.68557 2.57499 7.02561 2.07343 7.60014C2.40189 6.39852 2.88469 5.33306 3.47303 4.46015C4.60746 2.777 6.04197 1.91976 7.46604 1.92323C8.89011 1.9267 10.3204 2.79093 11.4466 4.47959C12.5677 6.16051 13.2965 8.54886 13.2899 11.2443ZM5.17544 11.5824C5.17159 13.162 4.59342 14.5089 3.78304 15.0372C3.80695 15.0387 3.83078 15.0394 3.85451 15.0395C4.35993 15.0407 4.90998 14.7303 5.36814 14.0376C5.82241 13.3508 6.1281 12.3591 6.13086 11.2268C6.13362 10.0945 5.83276 9.10141 5.38186 8.41237C4.92708 7.71743 4.37854 7.40436 3.87313 7.40312C3.51104 7.40224 3.12605 7.5613 2.76834 7.90629C2.85629 7.88764 2.94587 7.87814 3.03674 7.87836C4.22289 7.88125 5.18042 9.53963 5.17544 11.5824ZM14.4831 11.2472C14.469 17.0462 11.3057 21.7395 7.41776 21.73C3.52981 21.7205 0.389468 17.0118 0.403604 11.2129C0.41774 5.41389 3.581 0.720574 7.46895 0.730051C11.3569 0.739529 14.4972 5.44821 14.4831 11.2472ZM30.4717 11.2862C30.4651 13.9816 29.7247 16.3663 28.5954 18.0418C27.461 19.7249 26.0265 20.5822 24.6024 20.5787C23.1784 20.5752 21.748 19.711 20.6218 18.0223C20.0478 17.1616 19.5766 16.1154 19.2543 14.9375C19.3012 14.9775 19.3491 15.0145 19.3978 15.0486C19.8669 15.5205 20.4293 15.7958 21.0345 15.7973C22.682 15.8013 24.0224 13.7746 24.0285 11.2704C24.0346 8.76635 22.7041 6.73312 21.0566 6.7291C20.3809 6.72745 19.7568 7.0675 19.2552 7.64202C19.5837 6.4404 20.0665 5.37495 20.6548 4.50204C21.7892 2.81889 23.2237 1.96164 24.6478 1.96511C26.0719 1.96858 27.5022 2.83281 28.6284 4.52148C29.7495 6.20239 30.4783 8.59074 30.4717 11.2862ZM20.9648 15.0791C20.9887 15.0805 21.0125 15.0813 21.0363 15.0813C21.5417 15.0826 22.0917 14.7722 22.5499 14.0795C23.0042 13.3926 23.3099 12.401 23.3126 11.2687C23.3154 10.1364 23.0145 9.14329 22.5636 8.45426C22.1088 7.75931 21.5603 7.44624 21.0549 7.44501C20.6928 7.44412 20.3078 7.60318 19.9501 7.94818C20.0381 7.92953 20.1276 7.92002 20.2185 7.92024C21.4047 7.92313 22.3622 9.58151 22.3572 11.6243C22.3534 13.2039 21.7752 14.5508 20.9648 15.0791ZM31.6649 11.2891C31.6507 17.088 28.4875 21.7813 24.5995 21.7719C20.7116 21.7624 17.5712 17.0537 17.5854 11.2547C17.5995 5.45577 20.7628 0.762457 24.6507 0.771935C28.5387 0.781412 31.679 5.49009 31.6649 11.2891Z" fill="#222222"/>
</svg>
