<svg fill="none" height="22" viewBox="0 0 23 22" width="23" xmlns="http://www.w3.org/2000/svg"><path clip-rule="evenodd" d="m16.3666 11.0404-.6196 3.3738h-2.9866v7.5858c-.0001 0-.0001 0-.0001 0 5.4666-.6603 9.7029-5.3149 9.7029-10.9596 0-6.09742-4.943-11.04040095-11.0404-11.04040095-6.0975 0-11.040476 4.94298095-11.040476 11.04040095 0 5.1778 3.564516 9.5223 8.373326 10.7153v-7.3415h-2.27662v-3.3738h.00002 2.2766v-1.45373c0-1.52664.28068-2.72054.86134-3.60009.04467-.06766.09111-.13346.13933-.1974.86808-1.15103 2.31398-1.70214 4.38918-1.70214.6995 0 1.9064.13716 2.4001.27433v3.05833.00009c-.2606-.02743-.7132-.04116-1.2755-.04116-1.0165 0-1.6828.21621-2.0717.72147-.3036.39455-.438.96535-.438 1.74708v1.19322z" fill="#f6f6f6" fill-rule="evenodd" opacity=".8"/></svg>