<svg width="100" height="128" viewBox="0 0 100 128" fill="none" xmlns="http://www.w3.org/2000/svg">
<path fill-rule="evenodd" clip-rule="evenodd" d="M64.5801 127.42L58 120.82L51.42 127.42C50.64 128.2 49.3601 128.2 48.5801 127.42L42 120.82L35.4199 127.42C34.6399 128.2 33.3601 128.2 32.5801 127.42L26 120.82L19.4199 127.42C18.6399 128.2 17.3601 128.2 16.5801 127.42L10 120.82L3.41992 127.42C2.83992 127.98 1.97999 128.16 1.23999 127.84C0.479991 127.54 0 126.8 0 126V50C0 22.4 22.4 0 50 0C77.6001 0 100 22.4 100 50V126C100 126.8 99.5201 127.54 98.7601 127.84C98.0201 128.16 97.1601 127.98 96.5801 127.42L90.0001 120.82L83.42 127.42C82.64 128.2 81.3601 128.2 80.5801 127.42L74.0001 120.82L67.42 127.42C66.64 128.2 65.3601 128.2 64.5801 127.42ZM66 123.18L72.5801 116.58C73.3601 115.8 74.64 115.8 75.42 116.58L82.0001 123.18L88.5801 116.58C89.3601 115.8 90.64 115.8 91.42 116.58L96.0001 121.18V50C96.0001 24.6 75.4001 4 50 4C24.6 4 4 24.6 4 50V121.18L8.58008 116.58C9.36008 115.8 10.6399 115.8 11.4199 116.58L18 123.18L24.5801 116.58C25.3601 115.8 26.6399 115.8 27.4199 116.58L34 123.18L40.5801 116.58C41.3601 115.8 42.64 115.8 43.42 116.58L50 123.18L56.5801 116.58C57.3601 115.8 58.64 115.8 59.42 116.58L66 123.18Z" fill="#94849F"/>
<path fill-rule="evenodd" clip-rule="evenodd" d="M32 90C32 88.8954 32.8954 88 34 88H66C67.1046 88 68 88.8954 68 90V90C68 91.1046 67.1046 92 66 92H34C32.8954 92 32 91.1046 32 90V90Z" fill="#94849F"/>
<path fill-rule="evenodd" clip-rule="evenodd" d="M46 56C46 63.72 39.72 70 32 70C24.28 70 18 63.72 18 56C18 48.28 24.28 42 32 42C39.72 42 46 48.28 46 56ZM42 56C42 50.48 37.52 46 32 46C26.48 46 22 50.48 22 56C22 61.52 26.48 66 32 66C37.52 66 42 61.52 42 56Z" fill="#94849F"/>
<path fill-rule="evenodd" clip-rule="evenodd" d="M34.334 49C35.4386 49 36.334 49.8954 36.334 51V51C36.334 52.1046 35.4386 53 34.334 53L30 53C28.8954 53 28 52.1046 28 51V51C28 49.8954 28.8954 49 30 49L34.334 49Z" fill="#94849F"/>
<path fill-rule="evenodd" clip-rule="evenodd" d="M82 56C82 63.72 75.72 70 68 70C60.28 70 54 63.72 54 56C54 48.28 60.28 42 68 42C75.72 42 82 48.28 82 56ZM78 56C78 50.48 73.52 46 68 46C62.48 46 58 50.48 58 56C58 61.52 62.48 66 68 66C73.52 66 78 61.52 78 56Z" fill="#94849F"/>
<path fill-rule="evenodd" clip-rule="evenodd" d="M70.334 49C71.4386 49 72.334 49.8954 72.334 51V51C72.334 52.1046 71.4386 53 70.334 53L66 53C64.8954 53 64 52.1046 64 51V51C64 49.8954 64.8954 49 66 49L70.334 49Z" fill="#94849F"/>
</svg>
