<svg fill="none" height="128" viewBox="0 0 100 128" width="100" xmlns="http://www.w3.org/2000/svg"><g clip-rule="evenodd" fill="#94849f" fill-rule="evenodd"><path d="m64.5801 127.42-6.5801-6.6-6.58 6.6c-.78.78-2.0599.78-2.8399 0l-6.5801-6.6-6.5801 6.6c-.78.78-2.0598.78-2.8398 0l-6.5801-6.6-6.5801 6.6c-.78.78-2.0598.78-2.8398 0l-6.5801-6.6-6.58008 6.6c-.58.56-1.43993.74-2.17993.42-.759999-.3-1.23999-1.04-1.23999-1.84v-76c0-27.6 22.4-50 50-50 27.6001 0 50 22.4 50 50v76c0 .8-.4799 1.54-1.2399 1.84-.74.32-1.6.14-2.18-.42l-6.58-6.6-6.5801 6.6c-.78.78-2.0599.78-2.8399 0l-6.58-6.6-6.5801 6.6c-.78.78-2.0599.78-2.8399 0zm1.4199-4.24 6.5801-6.6c.78-.78 2.0599-.78 2.8399 0l6.5801 6.6 6.58-6.6c.78-.78 2.0599-.78 2.8399 0l4.5801 4.6v-71.18c0-25.4-20.6-46-46.0001-46-25.4 0-46 20.6-46 46v71.18l4.58008-4.6c.78-.78 2.05982-.78 2.83982 0l6.5801 6.6 6.5801-6.6c.78-.78 2.0598-.78 2.8398 0l6.5801 6.6 6.5801-6.6c.78-.78 2.0599-.78 2.8399 0l6.58 6.6 6.5801-6.6c.78-.78 2.0599-.78 2.8399 0z"/><path d="m32 88.0001h36v4h-36z"/><path d="m46 56.0001c0 7.72-6.28 14-14 14s-14-6.28-14-14 6.28-14 14-14 14 6.28 14 14zm-4 0c0-5.52-4.48-10-10-10s-10 4.48-10 10 4.48 10 10 10 10-4.48 10-10z"/><path d="m25 51.84h4v8.334h-4z"/><path d="m82 56.0001c0 7.72-6.28 14-14 14s-14-6.28-14-14 6.28-14 14-14 14 6.28 14 14zm-4 0c0-5.52-4.48-10-10-10s-10 4.48-10 10 4.48 10 10 10 10-4.48 10-10z"/><path d="m61 51.84h4v8.334h-4z"/></g></svg>