<svg width="38" height="49" viewBox="0 0 38 49" fill="none" xmlns="http://www.w3.org/2000/svg">
<path fill-rule="evenodd" clip-rule="evenodd" d="M13.4596 48.4196L15.96 45.9116L18.4604 48.4196C18.7568 48.716 19.2432 48.716 19.5396 48.4196L22.04 45.9116L24.5404 48.4196C24.8368 48.716 25.3232 48.716 25.6196 48.4196L28.12 45.9116L30.6204 48.4196C30.9168 48.716 31.4032 48.716 31.6996 48.4196L34.2 45.9116L36.7004 48.4196C36.9208 48.6324 37.2476 48.7008 37.5288 48.5792C37.8176 48.4652 38 48.184 38 47.88V19C38 8.512 29.488 0 19 0C8.51196 0 4.76837e-07 8.512 4.76837e-07 19V47.88C4.76837e-07 48.184 0.182362 48.4652 0.471162 48.5792C0.752362 48.7008 1.07916 48.6324 1.29956 48.4196L3.79996 45.9116L6.3004 48.4196C6.5968 48.716 7.08316 48.716 7.37956 48.4196L9.87996 45.9116L12.3804 48.4196C12.6768 48.716 13.1632 48.716 13.4596 48.4196ZM12.92 46.8084L10.4196 44.3004C10.1232 44.004 9.6368 44.004 9.3404 44.3004L6.83996 46.8084L4.33956 44.3004C4.04316 44.004 3.5568 44.004 3.2604 44.3004L1.51996 46.0484V19C1.51996 9.348 9.34796 1.52 19 1.52C28.652 1.52 36.48 9.348 36.48 19V46.0484L34.7396 44.3004C34.4432 44.004 33.9568 44.004 33.6604 44.3004L31.16 46.8084L28.6596 44.3004C28.3632 44.004 27.8768 44.004 27.5804 44.3004L25.08 46.8084L22.5796 44.3004C22.2832 44.004 21.7968 44.004 21.5004 44.3004L19 46.8084L16.4996 44.3004C16.2032 44.004 15.7168 44.004 15.4204 44.3004L12.92 46.8084Z" fill="#222222"/>
<path fill-rule="evenodd" clip-rule="evenodd" d="M25.84 34.1999C25.84 33.7802 25.4997 33.4399 25.08 33.4399H12.92C12.5002 33.4399 12.16 33.7802 12.16 34.1999V34.1999C12.16 34.6197 12.5002 34.9599 12.92 34.9599H25.08C25.4997 34.9599 25.84 34.6197 25.84 34.1999V34.1999Z" fill="#222222"/>
<path fill-rule="evenodd" clip-rule="evenodd" d="M20.52 21.28C20.52 24.2136 22.9064 26.6 25.84 26.6C28.7736 26.6 31.16 24.2136 31.16 21.28C31.16 18.3464 28.7736 15.96 25.84 15.96C22.9064 15.96 20.52 18.3464 20.52 21.28ZM22.04 21.28C22.04 19.1824 23.7424 17.48 25.84 17.48C27.9376 17.48 29.64 19.1824 29.64 21.28C29.64 23.3776 27.9376 25.08 25.84 25.08C23.7424 25.08 22.04 23.3776 22.04 21.28Z" fill="#222222"/>
<path fill-rule="evenodd" clip-rule="evenodd" d="M28.5 20.4592C28.5 20.0395 28.1597 19.6992 27.74 19.6992V19.6992C27.3203 19.6992 26.98 20.0395 26.98 20.4592V22.1061C26.98 22.5259 27.3203 22.8661 27.74 22.8661V22.8661C28.1597 22.8661 28.5 22.5259 28.5 22.1061V20.4592Z" fill="#222222"/>
<path fill-rule="evenodd" clip-rule="evenodd" d="M6.83998 21.28C6.83998 24.2136 9.22638 26.6 12.16 26.6C15.0936 26.6 17.48 24.2136 17.48 21.28C17.48 18.3464 15.0936 15.96 12.16 15.96C9.22638 15.96 6.83998 18.3464 6.83998 21.28ZM8.35998 21.28C8.35998 19.1824 10.0624 17.48 12.16 17.48C14.2576 17.48 15.96 19.1824 15.96 21.28C15.96 23.3776 14.2576 25.08 12.16 25.08C10.0624 25.08 8.35998 23.3776 8.35998 21.28Z" fill="#222222"/>
<path fill-rule="evenodd" clip-rule="evenodd" d="M14.8199 20.4592C14.8199 20.0395 14.4797 19.6992 14.0599 19.6992V19.6992C13.6402 19.6992 13.2999 20.0395 13.2999 20.4592V22.1061C13.2999 22.5259 13.6402 22.8661 14.0599 22.8661V22.8661C14.4797 22.8661 14.8199 22.5259 14.8199 22.1061V20.4592Z" fill="#222222"/>
</svg>
