<svg width="17" height="17" viewBox="0 0 17 17" fill="none" xmlns="http://www.w3.org/2000/svg">
<path fill-rule="evenodd" clip-rule="evenodd" d="M8.04803 5.41947C8.1322 5.50637 8.21843 5.59541 8.30799 5.6873C8.55631 5.4355 8.80164 5.18699 9.04486 4.94062C9.55394 4.42496 10.0538 3.91868 10.5522 3.41127C11.1981 2.75373 11.2688 1.75814 10.7256 1.02828C10.1858 0.302851 9.20758 0.0933356 8.38915 0.521736C8.33858 0.54808 8.25 0.545782 8.1982 0.519438C7.78818 0.310807 7.36049 0.237256 6.91229 0.348643C6.23707 0.516432 5.77861 0.936169 5.582 1.60167C5.3838 2.27264 5.53391 2.88404 6.02278 3.38917C6.33436 3.71116 6.65394 4.02549 6.97355 4.33985C7.15868 4.52193 7.34381 4.70402 7.5274 4.8876C7.69968 5.05977 7.86919 5.23479 8.04803 5.41947ZM8.17547 1.73544C8.21606 1.77819 8.25875 1.82315 8.30499 1.87094C8.34799 1.82449 8.3882 1.7795 8.42705 1.73604C8.5077 1.64582 8.58247 1.56217 8.66408 1.48568C9.02123 1.15063 9.54634 1.15788 9.88828 1.49576C10.2216 1.82515 10.2477 2.36317 9.91816 2.70847C9.55127 3.09306 9.17542 3.46921 8.7994 3.84554C8.64178 4.0033 8.48412 4.16108 8.32709 4.31952C8.31469 4.3131 8.30405 4.30828 8.29489 4.30413C8.27859 4.29674 8.26698 4.29148 8.25849 4.2831C8.12228 4.14856 7.98586 4.01423 7.84944 3.87991C7.46293 3.49932 7.07641 3.11873 6.69482 2.73322C6.44145 2.47739 6.37833 2.16055 6.49679 1.82391C6.61366 1.49169 6.86349 1.29809 7.21162 1.24823C7.49133 1.2081 7.73603 1.30004 7.93918 1.49434C8.01744 1.56904 8.09202 1.64758 8.17547 1.73544ZM0.299066 15.7979C0.298082 15.9642 0.297099 16.1305 0.296875 16.2967C5.62934 16.2967 10.9618 16.2967 16.2946 16.2969V14.4222C16.292 14.4145 16.2889 14.4068 16.2858 14.3992C16.2791 14.3826 16.2725 14.366 16.2704 14.3488C16.1479 13.3331 15.621 12.5654 14.8033 11.9835C14.6572 11.8796 14.5002 11.791 14.3434 11.7026C14.2711 11.6618 14.1988 11.621 14.1277 11.5788C15.5098 10.4252 15.3765 8.51335 14.3597 7.49035C13.3427 6.46718 11.7106 6.37895 10.6169 7.30736C10.0608 7.77925 9.72469 8.37951 9.64955 9.10424C9.54612 10.102 9.9045 10.9268 10.6725 11.5871C9.91387 11.9287 9.31804 12.4278 8.88999 13.1494C8.40855 12.09 7.61133 11.3956 6.57277 10.9527C8.14776 9.75576 8.21194 7.58689 6.99304 6.29921C5.82789 5.06811 3.87666 4.99138 2.63213 6.14185C1.99403 6.73168 1.64714 7.46755 1.62557 8.33672C1.59887 9.41312 2.04283 10.2766 2.88903 10.9451C2.82887 10.9754 2.76939 11.0039 2.71079 11.0321C2.5861 11.092 2.46539 11.1499 2.35065 11.2181C1.02302 12.0067 0.27336 13.1349 0.297759 14.7191C0.303321 15.0785 0.301193 15.4382 0.299066 15.7979ZM8.21763 15.0343C8.21629 15.1389 8.21495 15.2444 8.21495 15.3511C5.88412 15.3511 3.57344 15.3511 1.2633 15.3513C1.1268 14.1665 1.36089 13.1252 2.34517 12.346C3.81814 11.1798 6.12917 11.3003 7.42056 12.6232C7.89139 13.1055 8.17799 13.6784 8.21212 14.3586C8.22339 14.5819 8.22054 14.806 8.21763 15.0343ZM15.3516 15.1546C15.3518 15.2186 15.3519 15.2836 15.3519 15.3501H9.44463C9.33819 14.4464 9.50315 13.6398 10.1975 12.9966C11.3975 11.8849 13.4726 11.9089 14.6357 13.0558C15.1106 13.5242 15.3575 14.09 15.3521 14.7613C15.3511 14.8909 15.3514 15.0205 15.3516 15.1546ZM4.73558 6.2658C5.93079 6.26756 6.89633 7.23398 6.89774 8.43008C6.89916 9.63165 5.92407 10.6089 4.72692 10.6055C3.53543 10.6023 2.56688 9.63182 2.56282 8.43715C2.55875 7.23876 3.53401 6.2642 4.73558 6.2658ZM12.3821 11.2358C11.3821 11.2335 10.5709 10.4167 10.573 9.41365C10.5751 8.41098 11.3886 7.60262 12.3932 7.6051C13.3962 7.6074 14.2046 8.42035 14.203 9.42496C14.2014 10.425 13.3839 11.2379 12.3821 11.2358Z" fill="#222222"/>
</svg>
