<svg width="18" height="18" viewBox="0 0 18 18" fill="none" xmlns="http://www.w3.org/2000/svg">
<path d="M15.2222 17V2.77778C15.2222 1.79594 14.4263 1 13.4444 1H4.55556C3.57372 1 2.77778 1.79594 2.77778 2.77778V17M15.2222 17L17 17M15.2222 17H10.7778M2.77778 17L1 17M2.77778 17H7.22222M6.33333 4.55554H7.22222M6.33333 8.11109H7.22222M10.7778 4.55554H11.6667M10.7778 8.11109H11.6667M7.22222 17V12.5555C7.22222 12.0646 7.62019 11.6666 8.11111 11.6666H9.88889C10.3798 11.6666 10.7778 12.0646 10.7778 12.5555V17M7.22222 17H10.7778" stroke="#222222" stroke-linecap="round" stroke-linejoin="round"/>
</svg>
