<svg width="17" height="17" viewBox="0 0 17 17" fill="none" xmlns="http://www.w3.org/2000/svg">
<path fill-rule="evenodd" clip-rule="evenodd" d="M9.4856 0.301714C9.42631 0.283126 9.36703 0.264538 9.30901 0.243652H8.87134C8.82229 0.261909 8.77326 0.280269 8.72424 0.298629C8.58201 0.351894 8.43978 0.405162 8.29668 0.455908C8.2665 0.466609 8.22598 0.466609 8.19581 0.455908C8.0533 0.405329 7.91157 0.352243 7.76982 0.299152C7.72033 0.280618 7.67084 0.262082 7.62132 0.243652H7.18382C7.17314 0.247066 7.1625 0.250818 7.15186 0.254574C7.12914 0.262592 7.10637 0.270625 7.08296 0.275403C6.23657 0.449944 5.68119 1.26915 5.83398 2.11887C5.91432 2.56548 6.15395 2.92702 6.4511 3.25488C6.94578 3.80025 7.54554 4.21248 8.17178 4.5884C8.21405 4.61366 8.30387 4.60296 8.34895 4.57384C8.36167 4.56563 8.3744 4.55741 8.38713 4.54919C8.67568 4.36286 8.96491 4.17611 9.24078 3.97181C9.68616 3.64202 10.0937 3.27137 10.3919 2.79598C10.929 1.93994 10.7006 0.911468 9.8593 0.446611C9.74346 0.382563 9.61453 0.34214 9.4856 0.301714ZM8.16773 1.7134C8.18258 1.73104 8.19619 1.74721 8.20826 1.76119C8.26113 1.71448 8.31238 1.66851 8.36274 1.62333C8.47316 1.52429 8.57934 1.42904 8.68909 1.33808C8.92379 1.14355 9.20955 1.12916 9.45303 1.29072C9.69142 1.44912 9.82018 1.74225 9.7123 2.01222C9.62371 2.23394 9.5025 2.46392 9.3348 2.62811C9.0947 2.86311 8.82964 3.07264 8.56477 3.282C8.48286 3.34675 8.40096 3.41149 8.31983 3.47696C8.29071 3.50046 8.21721 3.50555 8.18704 3.4852C7.74551 3.18822 7.31398 2.87632 6.99613 2.44094C6.9 2.3092 6.82316 2.15518 6.77335 1.99976C6.68704 1.73067 6.8051 1.44667 7.03858 1.29125C7.2768 1.13267 7.56238 1.14302 7.79252 1.32668C7.87315 1.39099 7.94508 1.46684 8.01642 1.54207C8.0202 1.54606 8.02398 1.55004 8.02776 1.55402C8.07947 1.60854 8.12802 1.66622 8.16773 1.7134ZM0.245606 16.2437H16.2457C16.2457 15.1811 16.2457 14.1186 16.2453 13.056C16.2424 13.0466 16.2391 13.0374 16.2357 13.0281C16.2286 13.0085 16.2214 12.9889 16.2192 12.9688C16.0865 11.8172 15.5717 10.8695 14.6751 10.1402C14.4796 9.981 14.2644 9.84611 14.0511 9.71243C13.9546 9.65193 13.8584 9.59167 13.7647 9.52953C15.1907 8.40195 15.1214 6.37254 13.9735 5.27389C12.8666 4.21454 11.1329 4.21981 10.0374 5.28459C8.88424 6.40551 8.85266 8.41703 10.2821 9.54813C10.2465 9.56743 10.2111 9.58694 10.1759 9.60636C10.0783 9.6602 9.9817 9.71346 9.88219 9.76038C9.85132 9.77512 9.79045 9.76284 9.76168 9.74003C9.05176 9.17677 8.27045 9.04257 7.41353 9.3371C7.38126 9.34833 7.33021 9.34341 7.30285 9.32447C7.01589 9.12518 6.73075 8.9234 6.45006 8.72477C6.38139 8.67618 6.31299 8.62778 6.2449 8.57965C7.65316 7.46627 7.59825 5.43545 6.4326 4.3219C5.33325 3.27167 3.58732 3.28378 2.49657 4.35348C1.35969 5.46843 1.32022 7.46504 2.74426 8.60087C2.74254 8.6031 2.74092 8.6055 2.7393 8.6079C2.73531 8.61382 2.73133 8.61973 2.72584 8.62297C2.71202 8.63107 2.69767 8.63811 2.68332 8.64514C2.67435 8.64954 2.66539 8.65393 2.65655 8.65858C1.07972 9.4855 0.264727 10.7855 0.247711 12.5694C0.240076 13.3752 0.241986 14.1811 0.243897 14.9871C0.244752 15.3476 0.245606 15.7082 0.245606 16.0688V16.2437ZM6.51405 9.89331C6.5211 9.89995 6.52862 9.90702 6.53697 9.91458C5.7218 10.775 5.57463 12.3459 6.75361 13.377C6.05176 13.8359 5.61918 14.4774 5.45955 15.3011H1.18304V15.134C1.18304 14.8681 1.18297 14.6021 1.18291 14.3362C1.18276 13.7379 1.18261 13.1395 1.18322 12.5411C1.18497 10.8601 2.30098 9.51269 3.95622 9.22834C4.87839 9.06994 5.72145 9.29745 6.47277 9.85721C6.48665 9.86753 6.49932 9.87946 6.51405 9.89331ZM15.3088 14.6956C15.3083 14.8964 15.3079 15.0983 15.3079 15.3017C13.8722 15.3017 12.4577 15.3017 11.0317 15.3015C10.8721 14.48 10.4414 13.8373 9.73203 13.3729C10.583 12.5839 10.801 11.653 10.3951 10.5571C10.4164 10.5454 10.4381 10.5328 10.4602 10.52C10.5092 10.4916 10.5605 10.462 10.614 10.437C12.7917 9.422 15.2858 10.9955 15.307 13.3991C15.3108 13.8296 15.3098 14.2601 15.3088 14.6956ZM2.5941 6.41727C2.56218 5.37757 3.39173 4.50662 4.44318 4.47644C5.46254 4.44715 6.3384 5.28337 6.36594 6.31254C6.39295 7.32681 5.57042 8.21197 4.57124 8.24354C3.50435 8.27722 2.62638 7.46627 2.5941 6.41727ZM10.1246 7.29804C10.1271 6.26132 10.98 5.41616 12.0195 5.42054C13.0587 5.42475 13.9047 6.27781 13.8979 7.31453C13.8908 8.35178 13.0374 9.19045 11.9951 9.18449C10.9654 9.17852 10.1222 8.3281 10.1246 7.29804ZM8.24607 12.954C7.46388 12.9546 6.83045 12.3139 6.83518 11.5272C6.83992 10.7499 7.47774 10.1182 8.25273 10.1231C9.03615 10.1281 9.6638 10.7696 9.6559 11.5574C9.64818 12.3271 9.0158 12.9537 8.24607 12.954ZM10.0529 15.2976H6.43856C6.53294 14.718 7.19759 13.8924 8.24572 13.8924C9.29945 13.8924 9.95797 14.7209 10.0529 15.2976Z" fill="#222222"/>
</svg>
