<svg width="12" height="17" viewBox="0 0 12 17" fill="none" xmlns="http://www.w3.org/2000/svg">
<path fill-rule="evenodd" clip-rule="evenodd" d="M8.04502 0.177246C8.10122 0.198357 8.15888 0.217009 8.21655 0.235662C8.34238 0.276365 8.46824 0.317075 8.57894 0.383348C9.01677 0.645276 9.2474 1.04613 9.26076 1.55718C9.26867 1.86173 9.26698 2.16646 9.26529 2.47125C9.26456 2.60389 9.26382 2.73654 9.26388 2.8692V3.03796C9.34382 3.04249 9.42263 3.0449 9.50042 3.04728L9.50043 3.04728C9.66772 3.0524 9.83033 3.05738 9.98963 3.08299C10.6229 3.18439 11.1063 3.74321 11.1362 4.38348C11.1384 4.43034 11.1386 4.4772 11.1386 4.52405L11.1386 5.97895C11.1388 8.88858 11.139 11.7981 11.1384 14.7078C11.1382 15.4055 10.7315 15.9596 10.0934 16.1251C9.964 16.1586 9.82654 16.1745 9.69274 16.1747C7.2197 16.1776 4.74666 16.178 2.27362 16.1761C1.43549 16.1754 0.827614 15.565 0.827248 14.7244C0.825784 11.3142 0.825784 7.90405 0.827431 4.49385C0.827797 3.91032 1.08826 3.46957 1.60608 3.20306C3.47857 2.23955 5.35435 1.28298 7.23123 0.328802C7.32456 0.281327 7.42658 0.251247 7.52863 0.221161L7.52864 0.221159C7.5761 0.207167 7.62356 0.193174 7.67016 0.177429C7.79517 0.177246 7.92019 0.177246 8.04502 0.177246ZM1.76422 9.61711L1.76418 11.3038C1.76414 12.4284 1.7641 13.5529 1.76422 14.6774C1.76422 15.0631 1.94067 15.239 2.32689 15.239C4.76332 15.2391 7.19975 15.2391 9.63618 15.239C10.024 15.239 10.201 15.0638 10.201 14.6794C10.2012 11.3058 10.2012 7.93242 10.201 4.55883C10.201 4.16237 10.0277 3.98976 9.63032 3.98976H2.33659C1.93756 3.98976 1.76404 4.16145 1.76404 4.557L1.76422 9.61711ZM3.97625 3.04217H8.32635L8.32643 2.58107V2.58025C8.32651 2.277 8.32659 1.97663 8.32635 1.67633C8.32598 1.19732 7.98901 0.990122 7.56363 1.20757C6.86948 1.56249 6.17543 1.91759 5.4814 2.27268L5.47883 2.274L4.64819 2.69897L3.97625 3.04217ZM5.97481 12.4267C4.1695 12.4234 2.6997 10.9487 2.70116 9.14228C2.70263 7.33038 4.18286 5.85838 5.99714 5.86497C7.80191 5.87138 9.26823 7.34923 9.2631 9.15692C9.25798 10.9619 7.78159 12.43 5.97481 12.4267ZM6.43589 8.66949C6.3839 8.03764 6.31197 7.42226 5.97829 6.82611C5.65797 7.43251 5.57231 8.0424 5.52984 8.66949H6.43589ZM5.526 9.62111C5.58329 10.2586 5.65065 10.8725 5.98524 11.4607C6.30812 10.861 6.38903 10.2497 6.43442 9.62111H5.526ZM4.803 7.1197C4.21855 7.47992 3.84332 7.98639 3.68774 8.66766H4.5601L4.60581 8.37622L4.803 7.1197ZM3.70128 9.61983C3.76352 10.1986 4.35473 11.0014 4.79934 11.1467L4.55919 9.61983H3.70128ZM8.25859 8.67059C8.23369 8.14307 7.62619 7.30805 7.16365 7.14148L7.40398 8.67059H8.25859ZM7.16072 11.1714C7.74535 10.8129 8.11966 10.3057 8.27671 9.62202H7.40398L7.16072 11.1714ZM6.4997 13.364C6.32739 13.364 6.15509 13.3641 5.98278 13.3641C5.80733 13.3641 5.63188 13.3641 5.45643 13.3642C5.01815 13.3643 4.57987 13.3645 4.14159 13.3637C3.92799 13.3633 3.76783 13.4536 3.67997 13.6479C3.53555 13.9679 3.77551 14.3003 4.15038 14.3008C5.3674 14.3025 6.58443 14.3019 7.80145 14.3012C8.11537 14.301 8.32879 14.1068 8.32623 13.8282C8.32366 13.5502 8.11116 13.3646 7.79267 13.3642C7.36168 13.3638 6.93069 13.3639 6.4997 13.364Z" fill="#222222"/>
</svg>
