<svg width="15" height="16" viewBox="0 0 15 16" fill="none" xmlns="http://www.w3.org/2000/svg">
<path fill-rule="evenodd" clip-rule="evenodd" d="M10.5162 4.26667C10.5162 5.97507 9.13132 7.36 7.42292 7.36C5.71452 7.36 4.32958 5.97507 4.32958 4.26667C4.32958 2.55827 5.71452 1.17333 7.42292 1.17333C9.13132 1.17333 10.5162 2.55827 10.5162 4.26667ZM9.72673 7.85851C10.9074 7.09963 11.6896 5.77449 11.6896 4.26667C11.6896 1.91025 9.77933 0 7.42292 0C5.0665 0 3.15625 1.91025 3.15625 4.26667C3.15625 5.7882 3.95269 7.12372 5.15142 7.87908C2.41865 8.88198 0.370378 11.6118 0.00574296 14.9348C-0.0585147 15.5204 0.425289 16 1.01439 16H13.9206C14.5097 16 14.9935 15.5204 14.9292 14.9348C14.5621 11.5888 12.4879 8.84424 9.72673 7.85851ZM7.46748 8.64C10.5178 8.64 13.2349 11.2075 13.7337 14.8267H1.20129C1.7001 11.2075 4.41716 8.64 7.46748 8.64Z" fill="#222222"/>
</svg>
