<svg width="16" height="17" viewBox="0 0 16 17" fill="none" xmlns="http://www.w3.org/2000/svg">
<path fill-rule="evenodd" clip-rule="evenodd" d="M13.2334 0.873434C13.5116 0.976924 13.605 1.18236 13.6048 1.47097C13.6015 5.3529 13.6017 9.23484 13.6018 13.1168L13.6019 15.7033V15.9354L13.9089 15.9353C14.1937 15.9351 14.4728 15.9348 14.7519 15.9364C14.8239 15.9368 14.8987 15.9401 14.9672 15.9598C15.1937 16.0252 15.3231 16.2264 15.2984 16.4604C15.2754 16.6773 15.0974 16.8496 14.873 16.8705C14.8414 16.8735 14.8096 16.8732 14.7778 16.8728H14.7778H14.7778H14.7777L14.748 16.8727L10.0925 16.8727C6.98876 16.8727 3.88499 16.8728 0.781305 16.8727C0.448782 16.8727 0.241221 16.7051 0.229034 16.4291C0.216847 16.1488 0.420733 15.9385 0.715148 15.9362C0.990332 15.9341 1.26552 15.9345 1.5495 15.935C1.67356 15.9352 1.79929 15.9354 1.92744 15.9354V15.7186L1.92751 13.1279V13.1275C1.92769 9.24188 1.92786 5.35623 1.92453 1.47058C1.92434 1.18158 2.01855 0.976731 2.29613 0.873047C5.94189 0.873434 9.58765 0.873434 13.2334 0.873434ZM12.6566 1.82013H2.87626V15.924H5.231V15.7269L5.23098 14.8817V14.8817V14.8817V14.8817C5.23094 14.0386 5.2309 13.1956 5.23119 12.3525C5.23139 11.9817 5.40529 11.8055 5.77302 11.8053C7.10098 11.8047 8.42876 11.8047 9.75672 11.8053C10.1241 11.8055 10.2978 11.9821 10.298 12.3531C10.2983 13.2007 10.2982 14.0481 10.2982 14.8956L10.2982 15.7432V15.9246H12.6566V1.82013ZM6.18157 12.7503V15.9273H9.35224V12.7503H6.18157ZM3.98799 4.54444L3.9878 4.21276V4.21257V4.21256V4.21254C3.98759 3.96939 3.98738 3.72626 3.98818 3.48323C3.98953 3.13156 4.17678 2.9445 4.52923 2.94392C5.24709 2.94296 5.96514 2.94296 6.68299 2.94392C7.03641 2.94431 7.22636 3.13079 7.22694 3.48053C7.22849 4.2036 7.22849 4.92688 7.22694 5.64995C7.22617 5.99118 7.03486 6.18114 6.69363 6.18153C5.97055 6.18269 5.24728 6.18269 4.5242 6.18153C4.17562 6.18095 3.98915 5.99099 3.98799 5.63699C3.98734 5.39426 3.98756 5.15161 3.98777 4.90893V4.90891V4.90889V4.90866L3.98799 4.54444ZM6.27851 5.24025V3.89371H4.93932V5.24025H6.27851ZM8.30017 4.23229L8.30034 4.54444L8.30019 4.88062C8.30002 5.13274 8.29986 5.38482 8.30053 5.63699C8.30169 5.99118 8.48797 6.18095 8.83674 6.18153C9.55982 6.18269 10.2831 6.18269 11.0062 6.18153C11.3472 6.18095 11.5387 5.99099 11.5395 5.64995C11.541 4.92688 11.5408 4.2036 11.5395 3.48053C11.5389 3.13059 11.3493 2.94431 10.9957 2.94392C10.2779 2.94296 9.55982 2.94296 8.84197 2.94392C8.48952 2.9445 8.30208 3.13175 8.30072 3.48323C8.29977 3.73284 8.29997 3.98254 8.30017 4.23226V4.23228V4.23229ZM10.5934 3.89159V5.23696H9.24974V3.89159H10.5934ZM5.60839 10.5428L5.27723 10.5431C5.02872 10.5434 4.78016 10.5437 4.5317 10.5424C4.16804 10.5405 3.98852 10.358 3.98814 9.99187C3.98736 9.27924 3.98736 8.5666 3.98814 7.85397C3.98852 7.49262 4.17345 7.31002 4.53789 7.30963C5.25053 7.30905 5.96316 7.30905 6.67579 7.30963C7.04778 7.31002 7.2269 7.49108 7.22729 7.8679C7.22787 8.57531 7.22806 9.28272 7.22729 9.99013C7.2269 10.3629 7.04681 10.541 6.6696 10.5424C6.4219 10.5435 6.1743 10.5432 5.92666 10.543L5.60839 10.5428ZM6.28117 8.25536H4.93889V9.59493H6.28117V8.25536ZM10.251 7.30947C10.1416 7.3096 10.0322 7.30974 9.92277 7.30974C9.81569 7.30974 9.7086 7.30966 9.6015 7.30957C9.34446 7.30937 9.08739 7.30917 8.83041 7.31013C8.49557 7.31129 8.30271 7.49796 8.30174 7.82816C8.29942 8.56168 8.29942 9.29501 8.30174 10.0285C8.30271 10.3458 8.4888 10.5396 8.80314 10.5415C9.54691 10.546 10.2909 10.5458 11.0347 10.5417C11.3507 10.54 11.5386 10.3483 11.5397 10.0324C11.5424 9.29366 11.5426 8.55491 11.5395 7.81636C11.5384 7.50279 11.3436 7.31225 11.0308 7.31032C10.7709 7.30882 10.511 7.30914 10.251 7.30947ZM9.24824 8.25779H10.5961V9.59291H9.24824V8.25779Z" fill="#222222"/>
</svg>
