<svg fill="none" height="40" viewBox="0 0 40 40" width="40" xmlns="http://www.w3.org/2000/svg"><path clip-rule="evenodd" d="m20 3.63636c-9.0374 0-16.36364 7.32624-16.36364 16.36364s7.32624 16.3636 16.36364 16.3636 16.3636-7.3262 16.3636-16.3636-7.3262-16.36364-16.3636-16.36364zm-20 16.36364c0-11.04569 8.95431-20 20-20 11.0457 0 20 8.95431 20 20 0 11.0457-8.9543 20-20 20-11.04569 0-20-8.9543-20-20zm13.2598-6.7402c.7101-.71 1.8613-.71 2.5713 0l4.1689 4.1689 4.1689-4.1689c.71-.71 1.8613-.71 2.5713 0 .71.7101.71 1.8613 0 2.5713l-4.1689 4.1689 4.1689 4.1689c.71.71.71 1.8613 0 2.5713s-1.8613.71-2.5713 0l-4.1689-4.1689-4.1689 4.1689c-.71.71-1.8612.71-2.5713 0-.71-.71-.71-1.8613 0-2.5713l4.1689-4.1689-4.1689-4.1689c-.71-.71-.71-1.8612 0-2.5713z" fill="#f6a7b7" fill-rule="evenodd"/></svg>