<svg width="17" height="17" viewBox="0 0 17 17" fill="none" xmlns="http://www.w3.org/2000/svg">
<path fill-rule="evenodd" clip-rule="evenodd" d="M9.40652 2.31926C9.40625 2.25159 9.40598 2.18393 9.40598 2.11628C9.40598 1.89217 9.40598 1.66789 9.40581 1.44377C9.40581 1.44204 9.40583 1.4403 9.40584 1.43857C9.40588 1.43509 9.40592 1.43162 9.40581 1.42815C9.39876 1.14994 9.20091 0.945818 8.93744 0.945313C8.67431 0.94481 8.47058 1.1496 8.46857 1.42664C8.46538 1.87503 8.46538 2.32343 8.46857 2.77182C8.47058 3.04986 8.67246 3.25382 8.9361 3.25432C9.20007 3.25466 9.40077 3.05154 9.4053 2.77317C9.40774 2.62191 9.40713 2.47057 9.40652 2.31926ZM6.41073 3.33634C6.4896 3.50518 6.63426 3.5912 6.82288 3.59691C7.16589 3.60161 7.39563 3.2678 7.25634 2.94372C7.05547 2.47601 6.84268 2.01333 6.62637 1.55251C6.51209 1.30924 6.24208 1.21801 6.00781 1.32638C5.78076 1.43138 5.67034 1.69228 5.77405 1.93084C5.97895 2.40259 6.19341 2.87031 6.41073 3.33634ZM5.18286 16.3143C5.18286 16.7278 5.25989 16.8304 5.65643 16.9453H12.2189C12.6188 16.8291 12.6925 16.7286 12.6925 16.2989V14.1567V13.9692H12.8899C13.1991 13.9692 13.5084 13.9689 13.8177 13.9686C14.6589 13.9677 15.5002 13.9669 16.3414 13.9722C16.6309 13.9741 16.8348 13.8758 16.9375 13.5977V10.5319C16.9346 10.5226 16.9313 10.5133 16.928 10.504C16.9209 10.4839 16.9138 10.4639 16.9105 10.4432C16.724 9.27422 16.0775 8.47201 14.9874 8.02278C14.9595 8.01123 14.9322 7.99831 14.9039 7.9849L14.8659 7.967C15.6056 6.96504 15.3876 5.77442 14.6866 5.08595C13.9733 4.38539 12.8679 4.26577 12.0276 4.80505C11.6005 5.07906 11.299 5.45656 11.1421 5.93973C10.9029 6.67558 11.0471 7.35229 11.4898 7.95961L10.7021 8.34853C10.2619 7.76372 9.67841 7.43444 8.93332 7.43528C8.18907 7.43629 7.6086 7.77078 7.17128 8.34669L6.72796 8.12872L6.38474 7.95995C7.12396 6.96353 6.90043 5.78551 6.21727 5.10191C5.50339 4.38757 4.398 4.26073 3.5487 4.80169C3.12078 5.07419 2.81653 5.45068 2.65946 5.93352C2.42032 6.66852 2.55877 7.34758 3.01421 7.97288L2.97067 7.98948L2.92326 8.00766C1.67943 8.48764 0.938197 9.56805 0.937694 10.9032C0.937358 11.7321 0.937526 12.5608 0.937694 13.3896C0.937862 13.7955 1.11121 13.969 1.51732 13.9692C2.38507 13.9694 3.25281 13.9694 4.12056 13.9694L4.98501 13.9693H5.18286V14.1563V16.3143ZM11.7536 15.8256V15.9803C11.4327 15.9803 11.1328 15.9803 10.815 15.9802V15.6163C10.815 15.5146 10.8152 15.413 10.8155 15.3113C10.8161 15.0741 10.8167 14.8369 10.8133 14.5997C10.8095 14.3314 10.6061 14.1311 10.3487 14.1298C10.0941 14.1286 9.88247 14.3302 9.87828 14.5955C9.87382 14.876 9.87469 15.1565 9.87556 15.4371C9.87594 15.5579 9.87632 15.6788 9.87626 15.7997V15.9786H7.99927V15.8175C7.99922 15.6967 7.99954 15.5758 7.99987 15.455V15.455L7.99987 15.4545C8.00063 15.1689 8.00138 14.8832 7.99726 14.5977C7.99374 14.3499 7.81166 14.157 7.57571 14.1316C7.35336 14.1078 7.14057 14.2519 7.07949 14.4747C7.06321 14.5337 7.06153 14.598 7.06137 14.66C7.06021 14.9549 7.06033 15.2498 7.06045 15.5448V15.5451L7.06053 15.8174V15.9793H6.12178V15.8279C6.12178 15.6241 6.12161 15.4202 6.12144 15.2163C6.12104 14.7529 6.12065 14.2895 6.12228 13.826C6.12648 12.6359 7.01941 11.7437 8.21005 11.7388C8.69436 11.7368 9.17866 11.7369 9.66297 11.7388C10.8541 11.7432 11.7481 12.6342 11.7531 13.8237C11.7549 14.2842 11.7545 14.7448 11.754 15.2053V15.2059C11.7538 15.4124 11.7536 15.619 11.7536 15.8256ZM10.6459 10.9424C10.6387 10.9378 10.6308 10.9327 10.6217 10.9274C10.8281 10.649 10.9875 10.3508 11.039 10.0107C11.0569 9.89259 11.0617 9.77253 11.0665 9.65238L11.0665 9.65233C11.07 9.56475 11.0734 9.47712 11.082 9.39014C11.0882 9.32764 11.1147 9.24801 11.1602 9.21172C11.4953 8.94494 11.88 8.79088 12.3089 8.78181C12.8711 8.76988 13.4337 8.77038 13.9961 8.77828C15.0506 8.79323 15.9456 9.64029 15.9899 10.7005C16.0119 11.227 16.0069 11.7546 16.002 12.2822V12.2822V12.2822C15.9998 12.5109 15.9977 12.7395 15.9978 12.9681C15.9978 12.9774 15.9945 12.9867 15.9905 12.9983C15.9883 13.0047 15.9859 13.0117 15.9837 13.0198H14.9358V12.8533C14.9358 12.6985 14.936 12.5436 14.9363 12.3888V12.3888V12.3887C14.9368 12.017 14.9374 11.6453 14.934 11.2736C14.9315 11.0201 14.7593 10.8328 14.5197 10.8024C14.2951 10.7738 14.0812 10.9119 14.0177 11.1343C13.9996 11.198 13.9979 11.2679 13.9978 11.3349C13.9966 11.7174 13.9967 12.1 13.9968 12.4825V12.4833L13.9969 12.8363V13.0126C13.9831 13.0148 13.9706 13.0173 13.959 13.0196C13.9363 13.0242 13.9169 13.028 13.8974 13.028C13.7549 13.0284 13.6124 13.0284 13.4699 13.0283H13.4696C13.2164 13.0283 12.9633 13.0282 12.7101 13.0304C12.6319 13.0311 12.5901 13.0117 12.5643 12.9309C12.2572 11.9696 11.6287 11.3143 10.6834 10.9631C10.6711 10.9586 10.6598 10.9513 10.6459 10.9424ZM7.25737 10.9344C6.24395 11.3005 5.58327 11.9987 5.2755 13.0198H5.26763C4.80385 13.0198 4.34986 13.0198 3.87862 13.02V12.8436L3.87878 12.4056C3.87899 12.0406 3.8792 11.6756 3.87812 11.3106C3.87711 11.0077 3.68194 10.7965 3.40891 10.7975C3.13739 10.7985 2.94122 11.0122 2.94038 11.3143C2.93919 11.7121 2.93943 12.11 2.93967 12.5126L2.93987 13.0159H1.8845C1.88362 12.9995 1.88247 12.983 1.88132 12.9665C1.87896 12.9327 1.87661 12.8989 1.87661 12.8651L1.87646 12.723C1.87583 12.1081 1.87519 11.4934 1.87644 10.8785C1.87896 9.67205 2.77525 8.77794 3.98283 8.77626L4.16114 8.77601C4.60685 8.77535 5.05267 8.77468 5.49835 8.77794C5.93366 8.78114 6.32332 8.92444 6.67741 9.17493C6.77004 9.24062 6.80679 9.30664 6.79639 9.43113C6.75527 9.92539 6.88533 10.3802 7.15954 10.7933C7.17793 10.821 7.19702 10.8482 7.21857 10.8789L7.21866 10.879L7.21867 10.879L7.25737 10.9344ZM13.1954 5.40734C13.8643 5.41826 14.402 5.97367 14.3884 6.63963C14.3747 7.31197 13.8167 7.8531 13.1572 7.83411C12.4858 7.81463 11.9585 7.26392 11.9701 6.59393C11.9815 5.93721 12.5396 5.39659 13.1954 5.40734ZM4.68094 7.83428C4.01136 7.82235 3.47402 7.26795 3.48711 6.60233C3.5002 5.93016 4.05449 5.39188 4.71752 5.40767C5.38659 5.42363 5.91671 5.97653 5.90547 6.64668C5.89439 7.3034 5.3349 7.84587 4.68094 7.83428ZM10.1493 9.57242C10.1589 10.237 9.61481 10.7884 8.94507 10.7931C8.277 10.7978 7.72758 10.255 7.72523 9.58754C7.72305 8.92864 8.26509 8.37861 8.92208 8.37323C9.59216 8.36769 10.1397 8.90277 10.1493 9.57242ZM11.0438 3.59689C10.7157 3.59521 10.4838 3.2708 10.6139 2.96269C10.8178 2.47951 11.0379 2.00273 11.2643 1.52947C11.3724 1.30351 11.6415 1.22404 11.8659 1.32467C12.0878 1.4243 12.2093 1.68185 12.1108 1.91217C11.9023 2.39921 11.6806 2.8807 11.4534 3.35934C11.3767 3.52095 11.2262 3.59655 11.0438 3.59689Z" fill="#222222"/>
</svg>
