<svg width="18" height="15" viewBox="0 0 18 15" fill="none" xmlns="http://www.w3.org/2000/svg">
<path d="M13 13.8H17V12.2C17 10.8745 15.9255 9.8 14.6 9.8C13.8355 9.8 13.1545 10.1574 12.715 10.7143M13 13.8H5M13 13.8V12.2C13 11.675 12.8989 11.1736 12.715 10.7143M5 13.8H1V12.2C1 10.8745 2.07452 9.8 3.4 9.8C4.16449 9.8 4.84549 10.1574 5.285 10.7143M5 13.8V12.2C5 11.675 5.10114 11.1736 5.285 10.7143M5.285 10.7143C5.8748 9.24082 7.31585 8.2 9 8.2C10.6841 8.2 12.1252 9.24082 12.715 10.7143M11.4 3.4C11.4 4.72548 10.3255 5.8 9 5.8C7.67452 5.8 6.6 4.72548 6.6 3.4C6.6 2.07452 7.67452 1 9 1C10.3255 1 11.4 2.07452 11.4 3.4ZM16.2 5.8C16.2 6.68366 15.4837 7.4 14.6 7.4C13.7163 7.4 13 6.68366 13 5.8C13 4.91634 13.7163 4.2 14.6 4.2C15.4837 4.2 16.2 4.91634 16.2 5.8ZM5 5.8C5 6.68366 4.28366 7.4 3.4 7.4C2.51634 7.4 1.8 6.68366 1.8 5.8C1.8 4.91634 2.51634 4.2 3.4 4.2C4.28366 4.2 5 4.91634 5 5.8Z" stroke="#222222" stroke-linecap="round" stroke-linejoin="round"/>
</svg>
