<svg width="17" height="17" viewBox="0 0 17 17" fill="none" xmlns="http://www.w3.org/2000/svg">
<path fill-rule="evenodd" clip-rule="evenodd" d="M6.78661 0.550293H4.47693C4.19102 0.658703 4.07875 0.865049 4.0883 1.16952C4.10047 1.54504 4.09592 1.92098 4.09137 2.29686C4.09063 2.35797 4.08989 2.41907 4.08922 2.48017C4.08867 2.53419 4.06754 2.61265 4.02895 2.63746C3.69252 2.85263 3.49811 3.17253 3.3502 3.52826C3.13025 4.05708 3.03122 4.61585 2.98601 5.18087C2.93218 5.85411 2.90223 6.52974 2.88073 7.20482C2.86161 7.80541 2.85127 8.40625 2.84094 9.00705C2.83617 9.28396 2.83141 9.56085 2.82579 9.83771C2.82543 9.85401 2.82284 9.8703 2.81955 9.89107C2.81783 9.90192 2.81592 9.914 2.81403 9.92793H2.45389C2.33705 9.92793 2.2202 9.92786 2.10334 9.92779C1.8405 9.92764 1.57763 9.92748 1.31485 9.92812C0.970692 9.92904 0.739724 10.1308 0.740092 10.4277C0.740643 10.7228 0.970876 10.9242 1.31687 10.926C1.63059 10.9277 1.94431 10.9274 2.25802 10.9271C2.3864 10.9269 2.51477 10.9268 2.64314 10.9268H2.81881V11.5816C2.45935 11.4782 2.09595 11.4865 1.73299 11.4947C1.59481 11.4978 1.4567 11.5009 1.31889 11.4979C0.926042 11.4892 0.73954 11.6847 0.739173 12.0825L0.739033 12.2592C0.738334 13.1418 0.737634 14.0242 0.739357 14.9069C0.741378 15.8725 1.40286 16.5327 2.36936 16.5303C2.41457 16.5302 2.4598 16.5301 2.50504 16.5301C2.86008 16.5298 3.21578 16.5295 3.5683 16.4985C3.60481 16.4953 3.64091 16.4911 3.67677 16.4871C3.82248 16.4705 3.96425 16.4543 4.11348 16.4996C4.21529 16.5304 4.32864 16.5304 4.43757 16.5303C4.44286 16.5303 4.44814 16.5303 4.45341 16.5303C6.10343 16.5312 7.75352 16.5313 9.4036 16.5315C10.453 16.5316 11.5024 16.5316 12.5518 16.5319C12.6751 16.532 12.797 16.5203 12.9191 16.5085C13.14 16.4872 13.3616 16.4658 13.5935 16.5141C13.8285 16.5631 14.0762 16.5518 14.3236 16.5406C14.428 16.5358 14.5324 16.531 14.6359 16.5308L14.646 16.5308C14.736 16.5307 14.8272 16.5305 14.9157 16.5167C15.7133 16.3923 16.2512 15.7968 16.2633 14.9861C16.2753 14.1764 16.2717 13.3665 16.2681 12.5568C16.2673 12.3783 16.2665 12.1998 16.2659 12.0213C16.2648 11.704 16.0676 11.4918 15.7528 11.4936C15.6274 11.4944 15.5017 11.4911 15.3757 11.4878C14.9819 11.4775 14.5861 11.4671 14.1906 11.5805V10.9209H14.3569C14.4927 10.9209 14.6284 10.921 14.7641 10.9211C15.0809 10.9213 15.3976 10.9216 15.7144 10.9205C16.0371 10.9194 16.2607 10.7193 16.266 10.4316C16.2714 10.1433 16.0382 9.92536 15.7128 9.92297C15.3977 9.92064 15.0825 9.92114 14.7673 9.92163C14.6352 9.92184 14.503 9.92205 14.3709 9.92205H14.1879C14.1869 9.90273 14.1858 9.88452 14.1847 9.86705C14.1824 9.82937 14.1803 9.79518 14.1802 9.76091C14.1799 9.65097 14.1808 9.54101 14.1817 9.43107C14.1835 9.21319 14.1853 8.99537 14.1781 8.77787C14.1716 8.5829 14.1653 8.38792 14.159 8.19293C14.1295 7.28201 14.1 6.37098 14.0506 5.46108C14.0166 4.83304 13.9167 4.2105 13.6877 3.61737C13.5376 3.2282 13.3393 2.87467 12.9737 2.64022C12.9357 2.61578 12.9173 2.53548 12.9167 2.48091C12.9161 2.41898 12.9154 2.35704 12.9147 2.29511C12.9105 1.92006 12.9063 1.54495 12.9176 1.17025C12.9268 0.866887 12.814 0.659989 12.5296 0.550293H10.2199C9.92829 0.676894 9.83458 0.905289 9.8456 1.2127C9.856 1.5051 9.85367 1.79787 9.85132 2.09343C9.8503 2.22115 9.84928 2.34938 9.84928 2.47834H9.00258C9.00258 2.42685 9.0028 2.37607 9.00303 2.32578C9.0035 2.21831 9.00396 2.11309 9.00221 2.00795C8.99725 1.70789 8.77804 1.48464 8.49562 1.48923C8.2178 1.49383 8.00907 1.71248 8.00447 2.00721C8.00284 2.11267 8.00327 2.21813 8.0037 2.32604C8.0039 2.37625 8.00411 2.427 8.00411 2.47852H7.15741V1.4003C7.15741 1.3724 7.15695 1.34446 7.15649 1.31651C7.15549 1.25612 7.1545 1.19569 7.15814 1.13552C7.17523 0.849798 7.03393 0.666971 6.78661 0.550293ZM5.13308 15.3433V15.5307C5.04886 15.5307 4.96663 15.5315 4.88581 15.5323C4.70177 15.5342 4.52505 15.5359 4.34885 15.5278C4.06662 15.5153 3.85384 15.2907 3.82794 14.9991C3.82486 14.9637 3.82519 14.928 3.82552 14.8922C3.82563 14.8811 3.82573 14.8699 3.82573 14.8587C3.82573 14.0749 3.82571 13.2912 3.82569 12.5074C3.82565 10.9398 3.82561 9.37234 3.82573 7.80475C3.82573 7.34263 4.02895 7.13959 4.49089 7.13941H5.13345C5.13345 7.22193 5.133 7.30331 5.13256 7.38389C5.13158 7.56187 5.13063 7.73595 5.13455 7.90985C5.14264 8.26926 5.48256 8.50409 5.8089 8.38098C6.00312 8.30766 6.12788 8.1298 6.13082 7.90949C6.13311 7.737 6.13258 7.56442 6.13204 7.38809C6.1318 7.3099 6.13155 7.23097 6.13155 7.15099H10.8748V7.66805C10.8748 7.69145 10.8746 7.71485 10.8745 7.73825C10.8742 7.79809 10.8738 7.85792 10.8757 7.91776C10.8847 8.19778 11.1026 8.41424 11.3736 8.41405C11.645 8.41387 11.864 8.19962 11.8721 7.91757C11.8769 7.75014 11.8779 7.58263 11.8788 7.41509C11.8792 7.33312 11.8797 7.25115 11.8806 7.16918C11.8806 7.16676 11.8826 7.16441 11.8865 7.15989C11.8892 7.15685 11.8927 7.15282 11.8969 7.14713C11.9773 7.14713 12.0584 7.14552 12.1401 7.1439C12.329 7.14016 12.5206 7.13637 12.7106 7.15227C12.9759 7.1745 13.1554 7.38967 13.1787 7.65812C13.1821 7.69742 13.1817 7.73713 13.1814 7.77679C13.1813 7.78925 13.1811 7.8017 13.1811 7.81412C13.1811 8.59622 13.1812 9.3783 13.1812 10.1604C13.1812 11.7244 13.1813 13.2885 13.1811 14.8525C13.181 15.3289 12.975 15.5331 12.495 15.5333H11.8734V15.3519C11.8734 15.0788 11.8734 14.8057 11.8734 14.5326C11.8735 13.7133 11.8735 12.8939 11.8732 12.0746C11.8732 11.6809 11.6823 11.4855 11.2928 11.4854C9.43052 11.4846 7.56808 11.4844 5.70582 11.4855C5.32418 11.4857 5.13345 11.6814 5.13326 12.066C5.13299 12.8856 5.13302 13.7051 5.13306 14.5245C5.13307 14.7975 5.13308 15.0704 5.13308 15.3433ZM5.13279 6.01556C5.13312 6.05149 5.13345 6.0881 5.13345 6.12569L5.10921 6.12669C4.70288 6.1436 4.31296 6.15983 3.9029 6.17658C3.90679 6.12012 3.90952 6.0613 3.91233 6.00095C3.91878 5.86176 3.92562 5.71451 3.94792 5.56967C4.01097 5.15991 4.08476 4.75164 4.15854 4.34347C4.17054 4.27704 4.18255 4.21061 4.19451 4.14417C4.20558 4.0833 4.22889 4.0242 4.25192 3.96581C4.25565 3.95634 4.25938 3.94689 4.26305 3.93746C4.42529 3.52017 4.47527 3.48636 4.92141 3.48636C5.43497 3.48636 5.94853 3.48649 6.46209 3.48662C8.38794 3.48711 10.3138 3.4876 12.2396 3.48122C12.4517 3.48048 12.5919 3.55472 12.6516 3.73626C12.6572 3.75341 12.6629 3.77056 12.6685 3.78772C12.784 4.13906 12.9004 4.49315 12.9678 4.85508C13.0247 5.1596 13.0539 5.4692 13.0831 5.77724C13.0957 5.9112 13.1084 6.04486 13.1233 6.17769L11.8732 6.1255C11.8732 6.09269 11.8735 6.05957 11.8737 6.02624C11.8742 5.95338 11.8746 5.87954 11.8729 5.80578C11.8657 5.51308 11.6513 5.29479 11.3734 5.29479C11.0942 5.29479 10.8814 5.51216 10.8753 5.80523C10.8738 5.8757 10.8742 5.94617 10.8746 6.02056C10.8748 6.05557 10.8749 6.09146 10.8749 6.12862H6.13155C6.13155 6.09357 6.13182 6.05847 6.13209 6.02333C6.13268 5.94593 6.13328 5.86837 6.131 5.7909C6.12273 5.50995 5.9061 5.29534 5.63379 5.29497C5.36037 5.2946 5.14447 5.50665 5.13418 5.78906C5.13142 5.86333 5.13209 5.93785 5.13279 6.01556ZM10.8689 12.4971V15.2681H6.14184V12.4971H10.8689ZM2.8687 15.3095C2.87735 15.3821 2.88606 15.4552 2.89322 15.529C2.8283 15.529 2.76194 15.5302 2.69462 15.5313C2.54072 15.534 2.38183 15.5367 2.22384 15.5261C1.95943 15.5081 1.74757 15.2939 1.74408 15.017C1.73646 14.4051 1.73831 13.7931 1.74015 13.1812C1.7408 12.9663 1.74145 12.7515 1.74169 12.5368C1.74169 12.5311 1.74464 12.5255 1.74955 12.5162C1.75266 12.5103 1.75656 12.5029 1.76098 12.493C1.82415 12.4934 1.88775 12.4912 1.95152 12.4891C2.20196 12.4807 2.45484 12.4722 2.69312 12.6128C2.78738 12.6685 2.83056 12.7315 2.82946 12.8475C2.82358 13.513 2.82119 14.1787 2.82965 14.8442C2.83165 14.9986 2.85004 15.1529 2.8687 15.3095ZM15.0272 12.4873C15.107 12.489 15.1875 12.4906 15.2689 12.4877V12.6606C15.2691 12.8729 15.2693 13.0853 15.2695 13.2976C15.2701 13.8292 15.2707 14.3607 15.2709 14.8922C15.2709 15.3223 15.0599 15.5318 14.6285 15.5322C14.5106 15.5323 14.3925 15.5323 14.2764 15.5322C14.219 15.5322 14.162 15.5322 14.1057 15.5322C14.203 14.9338 14.1913 14.3373 14.1797 13.7423C14.174 13.449 14.1682 13.156 14.1756 12.8635C14.1789 12.7348 14.2224 12.6641 14.3262 12.6047C14.5489 12.4773 14.784 12.4822 15.0272 12.4873ZM5.1035 2.47374V1.5563H6.14919V2.47374H5.1035ZM11.9034 2.47778H10.856V1.56034H11.9034V2.47778ZM7.69437 10.9211C7.96125 10.9209 8.22812 10.9208 8.49498 10.9208H11.2398C11.2523 10.9208 11.2649 10.9209 11.2774 10.9209C11.3169 10.9212 11.3565 10.9214 11.3958 10.9193C11.6255 10.907 11.8094 10.7521 11.8614 10.5289C11.9093 10.3231 11.8081 10.0824 11.61 9.99085C11.5104 9.94491 11.3903 9.92507 11.2793 9.92488C9.42892 9.92103 7.57839 9.92195 5.72804 9.92286H5.72703C5.65997 9.92286 5.59161 9.92764 5.52602 9.94087C5.3487 9.97652 5.22872 10.0857 5.16588 10.2525C5.04056 10.5851 5.28292 10.9184 5.65648 10.9197C6.33573 10.9219 7.01507 10.9215 7.69437 10.9211Z" fill="#222222"/>
</svg>
