<svg width="96" height="96" viewBox="0 0 96 96" fill="none" xmlns="http://www.w3.org/2000/svg">
<path d="M88 48C88 70.0914 70.0914 88 48 88C25.9086 88 8 70.0914 8 48C8 25.9086 25.9086 8 48 8C70.0914 8 88 25.9086 88 48Z" fill="#F7BC9C"/>
<path fill-rule="evenodd" clip-rule="evenodd" d="M96 48C96 74.5097 74.5097 96 48 96C21.4903 96 0 74.5097 0 48C0 21.4903 21.4903 0 48 0C74.5097 0 96 21.4903 96 48ZM48 88C70.0914 88 88 70.0914 88 48C88 25.9086 70.0914 8 48 8C25.9086 8 8 25.9086 8 48C8 70.0914 25.9086 88 48 88Z" fill="#FFA78A"/>
<path fill-rule="evenodd" clip-rule="evenodd" d="M28.3903 56.5866L38.4134 66.6097C38.6691 66.4465 39.0003 66.2328 39.3983 65.9706C40.422 65.2965 41.8871 64.3031 43.6466 63.03C47.1672 60.4826 51.8577 56.8213 56.5443 52.3633C63.3939 45.8479 70.1139 37.744 73.2778 29.008C69.4603 28.5695 66.4305 25.5397 65.9923 21.7221C57.2562 24.8859 49.1522 31.606 42.6367 38.4557C38.1787 43.1423 34.5174 47.8329 31.97 51.3534C30.6969 53.1129 29.7035 54.578 29.0294 55.6017C28.7673 55.9997 28.5535 56.3309 28.3903 56.5866ZM67.7913 21.1245C67.971 24.4024 70.5975 27.029 73.8754 27.209C74.6039 24.7955 75.0486 22.3397 75.1391 19.8609C72.6604 19.9514 70.2046 20.396 67.7913 21.1245ZM38.2812 67.7813C38.7612 68.5684 38.7615 68.5681 38.762 68.5679L38.7637 68.5668L38.7696 68.5632L38.7917 68.5497C38.8109 68.5378 38.8391 68.5205 38.8759 68.4976C38.9495 68.4519 39.0579 68.3842 39.1985 68.2952C39.4798 68.1173 39.8906 67.8541 40.4124 67.5105C41.4557 66.8234 42.9434 65.8146 44.7274 64.5237C48.2938 61.9432 53.0525 58.2295 57.8151 53.6992C59.8893 51.7261 61.9753 49.5879 63.9684 47.3115L51.5116 75.1563H43.8122V68.7031H41.9684V76.0781C41.9684 76.5873 42.3812 77 42.8903 77H52.1091C52.4726 77 52.8021 76.7864 52.9506 76.4546L68.5864 41.5039C73.4675 34.6684 77 26.9528 77 18.9219C77 18.4127 76.5873 18 76.0781 18C68.0477 18 60.3325 21.5321 53.4973 26.4128L18.5454 42.0491C18.2136 42.1976 18 42.5271 18 42.8906V52.1094C18 52.6185 18.4127 53.0313 18.9219 53.0313H26.2969V51.1875H19.8438V43.4881L47.6892 31.0309C45.4126 33.0242 43.2741 35.1105 41.3008 37.1849C36.7706 41.9475 33.0568 46.7062 30.4763 50.2726C29.1854 52.0566 28.1766 53.5443 27.4895 54.5877C27.146 55.1094 26.8827 55.5202 26.7048 55.8015C26.6158 55.9421 26.5481 56.0505 26.5024 56.1241C26.4796 56.161 26.4622 56.1891 26.4504 56.2083L26.4368 56.2304L26.4332 56.2363L26.4321 56.238C26.4319 56.2385 26.4317 56.2388 27.2187 56.7188L26.4317 56.2388C26.2101 56.6021 26.266 57.0698 26.5669 57.3706L27.7586 58.5624L25.6447 60.6763C25.2847 61.0363 25.2847 61.62 25.6447 61.98L33.0197 69.355C33.3797 69.715 33.9634 69.715 34.3234 69.355L36.4373 67.2411L37.6294 68.4331C37.9302 68.734 38.3979 68.7899 38.7612 68.5684L38.2812 67.7813ZM27.6003 61.3281L29.0623 59.8661L35.1336 65.9374L33.6716 67.3994L27.6003 61.3281ZM23.8013 63.4419C20.9056 66.3375 19.4556 69.4777 18.7303 71.8953C18.3677 73.1038 18.1854 74.1345 18.0935 74.8691C18.0476 75.2366 18.0242 75.5308 18.0123 75.7369C18.0064 75.8401 18.0033 75.9213 18.0017 75.9787C18.0009 76.0074 18.0005 76.0302 18.0003 76.0469C18.0001 76.0552 18.0001 76.062 18 76.0672L18 76.0738L18 76.0763L18 76.0773C18 76.0777 18 76.0781 18.9219 76.0781H18C18 76.5873 18.4127 77 18.9219 77V76.0781C18.9219 77 18.9223 77 18.9227 77L18.9237 77L18.9262 77L18.9328 77C18.938 76.9999 18.9448 76.9999 18.9531 76.9997C18.9698 76.9995 18.9926 76.9991 19.0213 76.9983C19.0787 76.9967 19.1599 76.9936 19.2631 76.9877C19.4692 76.9758 19.7634 76.9524 20.1309 76.9064C20.8655 76.8146 21.8962 76.6323 23.1047 76.2697C25.5223 75.5444 28.6625 74.0944 31.5581 71.1987L30.2544 69.895C27.6188 72.5306 24.7668 73.8462 22.5749 74.5037C21.4921 74.8286 20.5731 74.9919 19.9261 75.0739C20.0081 74.4269 20.1714 73.5078 20.4963 72.425C21.1538 70.2332 22.4694 67.3812 25.105 64.7456L23.8013 63.4419ZM60.4059 31.8281C58.8787 31.8281 57.6403 33.0665 57.6403 34.5938C57.6403 36.121 58.8787 37.3594 60.4059 37.3594C61.9332 37.3594 63.1716 36.121 63.1716 34.5938C63.1716 33.0665 61.9332 31.8281 60.4059 31.8281ZM55.7966 34.5938C55.7966 32.0482 57.8604 29.9844 60.4059 29.9844C62.9515 29.9844 65.0153 32.0482 65.0153 34.5938C65.0153 37.1393 62.9515 39.2031 60.4059 39.2031C57.8604 39.2031 55.7966 37.1393 55.7966 34.5938ZM49.3434 42.8906C49.3434 41.3633 50.5818 40.125 52.1091 40.125C53.6364 40.125 54.8747 41.3633 54.8747 42.8906C54.8747 44.4179 53.6364 45.6563 52.1091 45.6563C50.5818 45.6563 49.3434 44.4179 49.3434 42.8906ZM52.1091 38.2813C49.5635 38.2813 47.4997 40.3451 47.4997 42.8906C47.4997 45.4362 49.5635 47.5 52.1091 47.5C54.6546 47.5 56.7184 45.4362 56.7184 42.8906C56.7184 40.3451 54.6546 38.2813 52.1091 38.2813ZM43.8122 48.4219C42.2849 48.4219 41.0466 49.6602 41.0466 51.1875C41.0466 52.7148 42.2849 53.9531 43.8122 53.9531C45.3395 53.9531 46.5778 52.7148 46.5778 51.1875C46.5778 49.6602 45.3395 48.4219 43.8122 48.4219ZM39.2028 51.1875C39.2028 48.6419 41.2666 46.5781 43.8122 46.5781C46.3578 46.5781 48.4216 48.6419 48.4216 51.1875C48.4216 53.7331 46.3578 55.7969 43.8122 55.7969C41.2666 55.7969 39.2028 53.7331 39.2028 51.1875Z" fill="#E16464"/>
<path d="M18.9219 76.0781C18 76.0781 18 76.0777 18 76.0773L18 76.0763L18 76.0738L18 76.0672C18.0001 76.062 18.0001 76.0552 18.0003 76.0469C18.0005 76.0302 18.0009 76.0074 18.0017 75.9787C18.0033 75.9213 18.0064 75.8401 18.0123 75.7369C18.0242 75.5308 18.0476 75.2366 18.0935 74.8691C18.1854 74.1345 18.3677 73.1038 18.7303 71.8953C19.4556 69.4777 20.9056 66.3375 23.8013 63.4419L25.105 64.7456C22.4694 67.3812 21.1538 70.2332 20.4963 72.425C20.1714 73.5078 20.0081 74.4269 19.9261 75.0739C20.5731 74.9919 21.4921 74.8286 22.5749 74.5037C24.7668 73.8462 27.6188 72.5306 30.2544 69.895L31.5581 71.1987C28.6625 74.0944 25.5223 75.5444 23.1047 76.2697C21.8962 76.6323 20.8655 76.8146 20.1309 76.9064C19.7634 76.9524 19.4692 76.9758 19.2631 76.9877C19.1599 76.9936 19.0787 76.9967 19.0213 76.9983C18.9926 76.9991 18.9698 76.9995 18.9531 76.9997C18.9448 76.9999 18.938 76.9999 18.9328 77L18.9262 77L18.9237 77L18.9227 77C18.9223 77 18.9219 77 18.9219 76.0781ZM18.9219 76.0781H18C18 76.5873 18.4127 77 18.9219 77V76.0781ZM38.4134 66.6097L28.3903 56.5866C28.5535 56.3309 28.7673 55.9997 29.0294 55.6017C29.7035 54.578 30.6969 53.1129 31.97 51.3534C34.5174 47.8329 38.1787 43.1423 42.6367 38.4557C49.1522 31.606 57.2562 24.8859 65.9923 21.7221C66.4305 25.5397 69.4603 28.5695 73.2778 29.008C70.1139 37.744 63.3939 45.8479 56.5443 52.3633C51.8577 56.8213 47.1672 60.4826 43.6466 63.03C41.8871 64.3031 40.422 65.2965 39.3983 65.9706C39.0003 66.2328 38.6691 66.4465 38.4134 66.6097ZM67.7913 21.1245C67.971 24.4024 70.5975 27.029 73.8754 27.209C74.6039 24.7955 75.0486 22.3397 75.1391 19.8609C72.6604 19.9514 70.2046 20.396 67.7913 21.1245ZM38.762 68.5679C38.7615 68.5681 38.7612 68.5684 38.2812 67.7813L38.7612 68.5684C38.3979 68.7899 37.9302 68.734 37.6294 68.4331L36.4373 67.2411L34.3234 69.355C33.9634 69.715 33.3797 69.715 33.0197 69.355L25.6447 61.98C25.2847 61.62 25.2847 61.0363 25.6447 60.6763L27.7586 58.5624L26.5669 57.3706C26.266 57.0698 26.2101 56.6021 26.4317 56.2388L27.2187 56.7188C26.4317 56.2388 26.4319 56.2385 26.4321 56.238L26.4332 56.2363L26.4368 56.2304L26.4504 56.2083C26.4622 56.1891 26.4796 56.161 26.5024 56.1241C26.5481 56.0505 26.6158 55.9421 26.7048 55.8015C26.8827 55.5202 27.146 55.1094 27.4895 54.5877C28.1766 53.5443 29.1854 52.0566 30.4763 50.2726C33.0568 46.7062 36.7706 41.9475 41.3008 37.1849C43.2741 35.1105 45.4126 33.0242 47.6892 31.0309L19.8438 43.4881V51.1875H26.2969V53.0313H18.9219C18.4127 53.0313 18 52.6185 18 52.1094V42.8906C18 42.5271 18.2136 42.1976 18.5454 42.0491L53.4973 26.4128C60.3325 21.5321 68.0477 18 76.0781 18C76.5873 18 77 18.4127 77 18.9219C77 26.9528 73.4675 34.6684 68.5864 41.5039L52.9506 76.4546C52.8021 76.7864 52.4726 77 52.1091 77H42.8903C42.3812 77 41.9684 76.5873 41.9684 76.0781V68.7031H43.8122V75.1563H51.5116L63.9684 47.3115C61.9753 49.5879 59.8893 51.7261 57.8151 53.6992C53.0525 58.2295 48.2938 61.9432 44.7274 64.5237C42.9434 65.8146 41.4557 66.8234 40.4124 67.5105C39.8906 67.8541 39.4798 68.1173 39.1985 68.2952C39.0579 68.3842 38.9495 68.4519 38.8759 68.4976C38.8391 68.5205 38.8109 68.5378 38.7917 68.5497L38.7696 68.5632L38.7637 68.5668L38.762 68.5679ZM29.0623 59.8661L27.6003 61.3281L33.6716 67.3994L35.1336 65.9374L29.0623 59.8661ZM57.6403 34.5938C57.6403 33.0665 58.8787 31.8281 60.4059 31.8281C61.9332 31.8281 63.1716 33.0665 63.1716 34.5938C63.1716 36.121 61.9332 37.3594 60.4059 37.3594C58.8787 37.3594 57.6403 36.121 57.6403 34.5938ZM60.4059 29.9844C57.8604 29.9844 55.7966 32.0482 55.7966 34.5938C55.7966 37.1393 57.8604 39.2031 60.4059 39.2031C62.9515 39.2031 65.0153 37.1393 65.0153 34.5938C65.0153 32.0482 62.9515 29.9844 60.4059 29.9844ZM52.1091 40.125C50.5818 40.125 49.3434 41.3633 49.3434 42.8906C49.3434 44.4179 50.5818 45.6563 52.1091 45.6563C53.6364 45.6563 54.8747 44.4179 54.8747 42.8906C54.8747 41.3633 53.6364 40.125 52.1091 40.125ZM47.4997 42.8906C47.4997 40.3451 49.5635 38.2813 52.1091 38.2813C54.6546 38.2813 56.7184 40.3451 56.7184 42.8906C56.7184 45.4362 54.6546 47.5 52.1091 47.5C49.5635 47.5 47.4997 45.4362 47.4997 42.8906ZM41.0466 51.1875C41.0466 49.6602 42.2849 48.4219 43.8122 48.4219C45.3395 48.4219 46.5778 49.6602 46.5778 51.1875C46.5778 52.7148 45.3395 53.9531 43.8122 53.9531C42.2849 53.9531 41.0466 52.7148 41.0466 51.1875ZM43.8122 46.5781C41.2666 46.5781 39.2028 48.6419 39.2028 51.1875C39.2028 53.7331 41.2666 55.7969 43.8122 55.7969C46.3578 55.7969 48.4216 53.7331 48.4216 51.1875C48.4216 48.6419 46.3578 46.5781 43.8122 46.5781Z" stroke="#E16464" stroke-width="0.5" stroke-miterlimit="2" stroke-linejoin="round"/>
</svg>
