<svg fill="none" height="22" viewBox="0 0 23 22" width="23" xmlns="http://www.w3.org/2000/svg"><path d="m11.1775 1.982c2.937 0 3.285.011 4.445.064.6974.00842 1.3881.13662 2.042.379.4779.17635.9101.45758 1.265.823.3654.35486.6467.78713.823 1.265.2424.65393.3706 1.34465.379 2.042.053 1.16.064 1.508.064 4.445s-.011 3.285-.064 4.445c-.0084.6974-.1366 1.3881-.379 2.042-.183.4745-.4633.9054-.823 1.265-.3596.3597-.7905.64-1.265.823-.6539.2424-1.3446.3706-2.042.379-1.16.053-1.508.064-4.445.064-2.93701 0-3.28501-.011-4.44501-.064-.69769-.0083-1.38876-.1365-2.043-.379-.47751-.1765-.90942-.4577-1.264-.823-.36542-.3549-.64665-.7871-.823-1.265-.24238-.6539-.37058-1.3446-.379-2.042-.053-1.16-.064-1.508-.064-4.445s.011-3.285.064-4.445c.00842-.69735.13662-1.38807.379-2.042.17635-.47787.45758-.91014.823-1.265.35486-.36542.78713-.64665 1.265-.823.65393-.24238 1.34465-.37058 2.042-.379 1.16-.053 1.508-.064 4.44501-.064zm0-1.982c-2.98701 0-3.36201.013-4.53501.066-.91248.0182-1.81528.19099-2.67.511-.73433.27648-1.39948.7099-1.949 1.27-.55962.54933-.99269 1.21411-1.269 1.948-.31967.85478-.49212 1.75757-.51 2.67-.055 1.173-.067 1.548-.067 4.535s.013 3.362.066 4.535c.0182.9125.19099 1.8153.511 2.67.27648.7343.7099 1.3995 1.27 1.949.54933.5596 1.21411.9927 1.948 1.269.85478.3197 1.75757.4921 2.67.51 1.173.055 1.548.067 4.53501.067 2.987 0 3.362-.013 4.535-.066.9125-.0182 1.8153-.191 2.67-.511.731-.2826 1.3948-.7149 1.949-1.269.5541-.5542.9864-1.218 1.269-1.949.3197-.8548.4921-1.7576.51-2.67.055-1.173.067-1.548.067-4.535s-.013-3.362-.066-4.535c-.0182-.91248-.191-1.81528-.511-2.67-.2765-.73433-.7099-1.39948-1.27-1.949-.5493-.55962-1.2141-.99269-1.948-1.269-.8548-.31967-1.7576-.49212-2.67-.51-1.173-.055-1.548-.067-4.535-.067zm0 5.351c-1.1173 0-2.20945.33131-3.13843.95203-.92897.62072-1.65302 1.50297-2.08058 2.53519-.42755 1.03218-.53942 2.16808-.32146 3.26388.21797 1.0958.75599 2.1023 1.54601 2.8923.79003.7901 1.79659 1.3281 2.89236 1.5461 1.0958.2179 2.2317.1061 3.2639-.3215s1.9145-1.1516 2.5352-2.0806.952-2.0211.952-3.1384c0-1.4982-.5952-2.93505-1.6546-3.99445-1.0593-1.05939-2.4962-1.65455-3.9944-1.65455zm0 9.316c-.7253 0-1.43421-.2151-2.03729-.618-.60303-.4029-1.07304-.9756-1.35059-1.6457-.27754-.6701-.35016-1.4074-.20867-2.1187s.49074-1.36472 1.00358-1.87756 1.16626-.86209 1.87757-1.00358c.7113-.14149 1.4486-.06887 2.1187.20867.6701.27755 1.2428.74756 1.6457 1.35059.4029.60308.618 1.31198.618 2.03728 0 .9725-.3863 1.9053-1.074 2.593s-1.6205 1.074-2.593 1.074zm5.872-10.859c-.2611 0-.5163.07742-.7334.22246-.217.14504-.3862.3512-.4861.5924s-.1261.5066-.0751.76266c.0509.25605.1766.49126.3612.67586.1846.18461.4198.31032.6759.36126.256.05093.5214.02479.7626-.07512s.4474-.26909.5924-.48617c.1451-.21707.2225-.47228.2225-.73335 0-.35009-.1391-.68583-.3866-.93338-.2476-.24755-.5833-.38662-.9334-.38662z" fill="#222" opacity=".8"/></svg>