<svg fill="none" height="22" viewBox="0 0 23 22" width="23" xmlns="http://www.w3.org/2000/svg"><path clip-rule="evenodd" d="m.463135 1.57594c0-.870132.723265-1.57594 1.615505-1.57594h18.63026c.8922 0 1.6155.705808 1.6155 1.57594v18.84806c0 .8705-.7233 1.576-1.6155 1.576h-18.63026c-.89224 0-1.615505-.7055-1.615505-1.576zm6.626815 16.84036v-9.93422h-3.30195v9.93422zm-1.65099-11.29057c1.15145 0 1.86814-.76283 1.86814-1.71616-.02146-.97479-.71668-1.71646-1.8463-1.71646-1.1295 0-1.868.74167-1.868 1.71646 0 .95333.71654 1.71616 1.82464 1.71616zm6.78004 11.29057h-3.30196s.04341-9.00205.00008-9.93422h3.30188v1.4065c-.0074.01149-.0148.0229-.022.03422h.022v-.03422c.4389-.67691 1.2242-1.63961 2.9758-1.63961 2.1724 0 3.8014 1.41985 3.8014 4.47123v5.6961h-3.3016v-5.3146c0-1.3354-.478-2.2464-1.6728-2.2464-.9122 0-1.4555.6143-1.6942 1.2076-.0872.2122-.1086.5088-.1086.8057z" fill="#f6f6f6" fill-rule="evenodd" opacity=".8"/></svg>