<svg fill="none" height="45" viewBox="0 0 136 45" width="136" xmlns="http://www.w3.org/2000/svg" xmlns:xlink="http://www.w3.org/1999/xlink"><clipPath id="a"><path d="m0 0h136v45h-136z"/></clipPath><g clip-path="url(#a)" fill="#f6f6f6"><path clip-rule="evenodd" d="m110.645 39.3249c-7.116 7.1162-18.6535 7.1161-25.7699-.0004-1.0214-1.0214-1.0214-2.6774 0-3.6987 1.0214-1.0214 2.6774-1.0214 3.6988 0 5.0737 5.0737 13.2991 5.0736 18.3721.0003 1.022-1.0214 2.678-1.0214 3.699 0s1.021 2.6774 0 3.6988z" fill-rule="evenodd"/><path d="m10.6797 29.9721c2.3038 0 4.4762-.7247 6.2681-2.1318.9375-.7247 1.107-2.0461.384-2.9414-.7264-.8953-2.0029-1.0659-2.8988-.3839-1.1104.8527-2.3454 1.2792-3.7533 1.2792-3.28286 0-6.00879-2.6859-6.00879-6.0539 0-3.283 2.72593-6.0116 6.00879-6.0116 1.4079 0 2.6429.4265 3.7533 1.2365.8959.7247 2.1724.5541 2.8988-.3412.723-.8953.5535-2.2167-.384-2.9414-1.7919-1.4071-3.9643-2.13182-6.2681-2.13182-5.62823 0-10.187512 4.56182-10.187512 10.18952 0 5.67 4.559282 10.2318 10.187512 10.2318z"/><path d="m23.385 7.2487c1.3629 0 2.3868-1.1512 2.3868-2.47265 0-1.36445-1.0239-2.43035-2.3868-2.43035-1.363 0-2.4319 1.0659-2.4319 2.43035 0 1.32145 1.0689 2.47265 2.4319 2.47265zm-.0415 22.5955c1.1485 0 2.1309-.938 2.1309-2.0888v-16.0302c0-1.1512-.9824-2.08914-2.1309-2.08914-1.1519 0-2.0479.93794-2.0479 2.08914v16.0302c0 1.1508.896 2.0888 2.0479 2.0888z"/><path d="m39.7129 25.7089-.595-.0427c-3.4973 0-5.4587-2.558-5.4587-6.0539v-6.0112h5.1578c1.0654 0 1.9198-.8526 1.9198-1.9612 0-1.0659-.8544-1.91854-1.9198-1.91854h-5.1578v-7.67389c0-1.108549-.9375-2.04649344-2.0894-2.04649344s-2.0893.93794444-2.0893 2.04649344v17.56483c0 7.2477 5.0746 10.2319 9.6374 10.2319h.595c1.1519 0 2.0894-.938 2.0894-2.0888 0-1.1513-.9375-2.0465-2.0894-2.0465z"/><path d="m60.1778 9.89193c-1.1104-.5118-2.3454-.04266-2.8159 1.06587l-5.3272 12.0225-5.6282-12.1078c-.4705-1.02322-1.747-1.49237-2.7709-.98057-1.0654.46877-1.491 1.74797-.979 2.81387l7.1192 15.3904-2.8574 6.4377c-.4704 1.0232-.0415 2.302 1.024 2.7712.2975.1279.5535.1706.8959.1706.8095 0 1.5325-.4265 1.9165-1.2365l10.4469-23.5334c.467-1.1086 0-2.3451-1.0239-2.81387z"/><path d="m73.8211 4.17894.595-.04264c1.1519 0 2.0894-.8953 2.0894-2.04616 0-1.151203-.9375-2.08916344-2.0894-2.08916344h-.595c-4.5627 0-9.6375 2.94180344-9.6375 10.23182344v17.5652c0 1.1082.9375 2.0462 2.0894 2.0462s2.0894-.938 2.0894-2.0462v-14.1969h5.1577c1.0689 0 1.9199-.8953 1.9199-1.9612s-.851-1.91854-1.9199-1.91854h-5.1577c.2145-3.28266 2.1309-5.54242 5.4587-5.54242z"/><path d="m102.17 29.8443c1.197 0 2.089-.938 2.089-2.0888v-9.2516c0-2.6006 2.176-4.7324 4.778-4.7324 2.598 0 4.732 2.1318 4.732 4.7324v9.2516c0 1.1508.937 2.0888 2.086 2.0888 1.152 0 2.089-.938 2.089-2.0888v-9.2516c0-4.9027-4.006-8.91039-8.907-8.91039-4.947 0-8.956 4.00769-8.956 8.91039v9.2516c0 1.1508.982 2.0888 2.089 2.0888z"/><path d="m128.858 29.9721c5.289-.128 7.631-3.1547 7.631-6.0112 0-1.7906-.938-4.5618-7.33-6.1818-3.072-.6821-3.667-1.9613-3.581-2.5154.128-1.4924 3.792-2.5152 7.289-.3411 1.024.5114 2.217-.0001 2.684-1.0233.471-.9806 0-2.2168-1.02-2.6859-1.622-.938-3.456-1.57737-5.756-1.57737-4.051-.12795-7.462 2.13177-7.676 5.24387-.17 2.1744 1.024 5.0733 7.25 6.651 2.173.4688 3.622 1.3641 3.622 2.43-.041 2.1314-4.902 2.7285-8.824.2985-1.024-.4265-2.218.0423-2.643 1.1082-.384 1.0233.086 2.2171 1.107 2.6433 1.577.81 4.265 2.0038 7.247 1.9612z"/><path d="m76.5967 19.5349c.1569-5.4107 4.6135-9.81395 10.1476-9.81395 2.3539 0 4.5403.82645 6.2665 2.20215v-.0293c0-1.1487.8056-2.04208 1.9145-2.04208 1.0148 0 1.8727.89338 1.8727 2.04208v6.8994c.0314.3389.0523.6831.0523 1.0325v8.0575c0 1.1508-.8579 2.0463-1.8831 2.0463-1.1089 0-1.9145-.8955-1.9145-2.0463v-.1392c-1.7367 1.4144-3.9441 2.266-6.3398 2.266-5.6074 0-10.1162-4.5497-10.1162-10.0786 0-.1328 0-.2647 0-.3965zm15.2425 3.4188c.5231-.8882.8265-1.9217.8265-3.0223 0-3.3173-2.6783-5.9965-5.9528-5.9965-2.9815 0-5.5131 2.2262-5.9316 5.1324-.0314.249-.0524.5011-.0524.7584 0 3.3247 2.7305 6.0112 6.0154 6.0112 2.1446 0 4.0488-1.1539 5.0949-2.8832z"/></g></svg>