<svg width="136" height="53" viewBox="0 0 136 53" fill="none" xmlns="http://www.w3.org/2000/svg">
<g clip-path="url(#clip0_393_3341)">
<path fill-rule="evenodd" clip-rule="evenodd" d="M110.145 39.3251C103.029 46.4413 91.4913 46.4412 84.3748 39.3248C83.3534 38.3034 83.3534 36.6474 84.3748 35.626C85.3962 34.6046 87.0522 34.6046 88.0736 35.626C93.1473 40.6997 101.373 40.6997 106.446 35.6263C107.467 34.605 109.123 34.605 110.145 35.6263C111.166 36.6477 111.166 38.3037 110.145 39.3251Z" fill="#222222"/>
<path d="M10.1794 29.9721C12.4833 29.9721 14.6557 29.2474 16.4476 27.8403C17.385 27.1156 17.5546 25.7942 16.8316 24.8989C16.1051 24.0036 14.8287 23.833 13.9328 24.515C12.8223 25.3677 11.5873 25.7942 10.1794 25.7942C6.8966 25.7942 4.17067 23.1083 4.17067 19.7403C4.17067 16.4573 6.8966 13.7287 10.1794 13.7287C11.5873 13.7287 12.8223 14.1552 13.9328 14.9652C14.8287 15.6899 16.1051 15.5193 16.8316 14.624C17.5546 13.7287 17.385 12.4073 16.4476 11.6826C14.6557 10.2755 12.4833 9.55078 10.1794 9.55078C4.55122 9.55078 -0.00805664 14.1126 -0.00805664 19.7403C-0.00805664 25.4103 4.55122 29.9721 10.1794 29.9721Z" fill="#222222"/>
<path d="M22.8852 7.2487C24.2482 7.2487 25.2721 6.0975 25.2721 4.77605C25.2721 3.4116 24.2482 2.3457 22.8852 2.3457C21.5223 2.3457 20.4534 3.4116 20.4534 4.77605C20.4534 6.0975 21.5223 7.2487 22.8852 7.2487ZM22.8438 29.8442C23.9922 29.8442 24.9746 28.9062 24.9746 27.7554V11.7252C24.9746 10.574 23.9922 9.63606 22.8438 9.63606C21.6918 9.63606 20.7958 10.574 20.7958 11.7252V27.7554C20.7958 28.9062 21.6918 29.8442 22.8438 29.8442Z" fill="#222222"/>
<path d="M39.2129 25.7089L38.6179 25.6662C35.1206 25.6662 33.1592 23.1082 33.1592 19.6123V13.6011H38.317C39.3824 13.6011 40.2368 12.7485 40.2368 11.6399C40.2368 10.574 39.3824 9.72136 38.317 9.72136H33.1592V2.04747C33.1592 0.938921 32.2217 0.000976562 31.0698 0.000976562C29.9179 0.000976562 28.9805 0.938921 28.9805 2.04747V19.6123C28.9805 26.86 34.0551 29.8442 38.6179 29.8442H39.2129C40.3648 29.8442 41.3023 28.9062 41.3023 27.7554C41.3023 26.6041 40.3648 25.7089 39.2129 25.7089Z" fill="#222222"/>
<path d="M59.678 9.89217C58.5676 9.38037 57.3326 9.84951 56.8621 10.9581L51.5349 22.9805L45.9067 10.8728C45.4363 9.84952 44.1598 9.38037 43.1359 9.89217C42.0704 10.361 41.6449 11.6401 42.1569 12.706L49.276 28.0964L46.4187 34.5341C45.9482 35.5574 46.3772 36.8362 47.4426 37.3053C47.7401 37.4333 47.9961 37.4759 48.3386 37.4759C49.148 37.4759 49.871 37.0494 50.255 36.2394L60.702 12.706C61.169 11.5975 60.702 10.361 59.678 9.89217Z" fill="#222222"/>
<path d="M73.3214 4.17894L73.9163 4.1363C75.0683 4.1363 76.0057 3.241 76.0057 2.09014C76.0057 0.938937 75.0683 0.000976562 73.9163 0.000976562H73.3214C68.7586 0.000976562 63.6838 2.94278 63.6838 10.2328V27.798C63.6838 28.9062 64.6213 29.8442 65.7732 29.8442C66.9252 29.8442 67.8626 28.9062 67.8626 27.798V13.6011H73.0204C74.0893 13.6011 74.9403 12.7058 74.9403 11.6399C74.9403 10.574 74.0893 9.72136 73.0204 9.72136H67.8626C68.0771 6.4387 69.9936 4.17894 73.3214 4.17894Z" fill="#222222"/>
<path d="M101.67 29.844C102.867 29.844 103.759 28.9061 103.759 27.7552V18.5036C103.759 15.903 105.935 13.7712 108.537 13.7712C111.135 13.7712 113.269 15.903 113.269 18.5036V27.7552C113.269 28.9061 114.206 29.844 115.355 29.844C116.507 29.844 117.444 28.9061 117.444 27.7552V18.5036C117.444 13.601 113.438 9.59326 108.537 9.59326C103.59 9.59326 99.5806 13.601 99.5806 18.5036V27.7552C99.5806 28.9061 100.563 29.844 101.67 29.844Z" fill="#222222"/>
<path d="M128.358 29.9721C133.647 29.8441 135.989 26.8174 135.989 23.9609C135.989 22.1703 135.051 19.3991 128.659 17.7791C125.587 17.097 124.992 15.8178 125.078 15.2637C125.206 13.7713 128.87 12.7485 132.367 14.9226C133.391 15.434 134.584 14.9225 135.051 13.8993C135.522 12.9187 135.051 11.6825 134.031 11.2134C132.409 10.2754 130.575 9.63603 128.275 9.63603C124.224 9.50808 120.813 11.7678 120.599 14.8799C120.429 17.0543 121.623 19.9532 127.849 21.5309C130.022 21.9997 131.471 22.895 131.471 23.9609C131.43 26.0923 126.569 26.6894 122.647 24.2594C121.623 23.8329 120.429 24.3017 120.004 25.3676C119.62 26.3909 120.09 27.5847 121.111 28.0109C122.688 28.8209 125.376 30.0147 128.358 29.9721Z" fill="#222222"/>
<path d="M76.0969 19.5351C76.2538 14.1244 80.7104 9.72119 86.2446 9.72119C88.5984 9.72119 90.7849 10.5476 92.511 11.9233V11.894C92.511 10.7453 93.3166 9.85196 94.4256 9.85196C95.4403 9.85196 96.2982 10.7453 96.2982 11.894V18.7934C96.3296 19.1324 96.3506 19.4766 96.3506 19.826V27.8835C96.3506 29.0343 95.4927 29.9298 94.4674 29.9298C93.3585 29.9298 92.5529 29.0343 92.5529 27.8835V27.7443C90.8163 29.1587 88.6088 30.0103 86.2131 30.0103C80.6058 30.0103 76.0969 25.4606 76.0969 19.9317C76.0969 19.7988 76.0969 19.667 76.0969 19.5351ZM91.3395 22.954C91.8625 22.0658 92.166 21.0322 92.166 19.9317C92.166 16.6143 89.4876 13.9351 86.2131 13.9351C83.2316 13.9351 80.7 16.1613 80.2815 19.0676C80.2502 19.3165 80.2292 19.5686 80.2292 19.826C80.2292 23.1507 82.9596 25.8372 86.2446 25.8372C88.3892 25.8372 90.2933 24.6833 91.3395 22.954Z" fill="#222222"/>
</g>
<defs>
<clipPath id="clip0_393_3341">
<rect width="136" height="52.3077" fill="white"/>
</clipPath>
</defs>
</svg>
