<svg width="136" height="53" viewBox="0 0 136 53" fill="none" xmlns="http://www.w3.org/2000/svg">
<g clip-path="url(#clip0_378_1870)">
<path fill-rule="evenodd" clip-rule="evenodd" d="M110.145 39.3249C103.029 46.4411 91.4914 46.441 84.375 39.3245C83.3536 38.3031 83.3536 36.6471 84.375 35.6258C85.3963 34.6044 87.0523 34.6044 88.0737 35.6258C93.1475 40.6995 101.373 40.6994 106.446 35.6261C107.468 34.6047 109.124 34.6047 110.145 35.6261C111.166 36.6475 111.166 38.3035 110.145 39.3249Z" fill="#9954C4"/>
<path d="M10.1796 29.972C12.4834 29.972 14.6558 29.2473 16.4477 27.8402C17.3851 27.1155 17.5547 25.7941 16.8317 24.8988C16.1052 24.0034 14.8288 23.8329 13.9329 24.5149C12.8225 25.3676 11.5875 25.794 10.1796 25.794C6.89672 25.794 4.17079 23.1081 4.17079 19.7402C4.17079 16.4572 6.89672 13.7286 10.1796 13.7286C11.5875 13.7286 12.8225 14.1551 13.9329 14.9651C14.8288 15.6898 16.1052 15.5192 16.8317 14.6239C17.5547 13.7286 17.3851 12.4072 16.4477 11.6825C14.6558 10.2754 12.4834 9.55066 10.1796 9.55066C4.55135 9.55066 -0.00793457 14.1125 -0.00793457 19.7402C-0.00793457 25.4102 4.55135 29.972 10.1796 29.972Z" fill="#9954C4"/>
<path d="M22.8852 7.24858C24.2482 7.24858 25.2721 6.09738 25.2721 4.77593C25.2721 3.41147 24.2482 2.34558 22.8852 2.34558C21.5223 2.34558 20.4534 3.41147 20.4534 4.77593C20.4534 6.09738 21.5223 7.24858 22.8852 7.24858ZM22.8438 29.844C23.9922 29.844 24.9746 28.9061 24.9746 27.7552V11.7251C24.9746 10.5739 23.9922 9.63594 22.8438 9.63594C21.6918 9.63594 20.7958 10.5739 20.7958 11.7251V27.7552C20.7958 28.9061 21.6918 29.844 22.8438 29.844Z" fill="#9954C4"/>
<path d="M39.2129 25.7087L38.6179 25.6661C35.1206 25.6661 33.1592 23.1081 33.1592 19.6122V13.601H38.317C39.3824 13.601 40.2368 12.7483 40.2368 11.6398C40.2368 10.5739 39.3824 9.72124 38.317 9.72124H33.1592V2.04735C33.1592 0.938799 32.2217 0.000854492 31.0698 0.000854492C29.9179 0.000854492 28.9805 0.938799 28.9805 2.04735V19.6122C28.9805 26.8599 34.0551 29.844 38.6179 29.844H39.2129C40.3648 29.844 41.3023 28.9061 41.3023 27.7552C41.3023 26.604 40.3648 25.7087 39.2129 25.7087Z" fill="#9954C4"/>
<path d="M59.678 9.89193C58.5676 9.38013 57.3326 9.84927 56.8621 10.9578L51.5349 22.9803L45.9067 10.8725C45.4363 9.84928 44.1598 9.38013 43.1359 9.89193C42.0704 10.3607 41.6449 11.6399 42.1569 12.7058L49.276 28.0962L46.4187 34.5339C45.9482 35.5571 46.3772 36.8359 47.4426 37.3051C47.7401 37.433 47.9961 37.4757 48.3386 37.4757C49.148 37.4757 49.871 37.0492 50.255 36.2392L60.702 12.7058C61.169 11.5972 60.702 10.3607 59.678 9.89193Z" fill="#9954C4"/>
<path d="M73.3214 4.17882L73.9163 4.13618C75.0683 4.13618 76.0057 3.24087 76.0057 2.09002C76.0057 0.938815 75.0683 0.000854492 73.9163 0.000854492H73.3214C68.7586 0.000854492 63.6838 2.94266 63.6838 10.2327V27.7979C63.6838 28.9061 64.6213 29.844 65.7732 29.844C66.9252 29.844 67.8626 28.9061 67.8626 27.7979V13.601H73.0204C74.0893 13.601 74.9403 12.7057 74.9403 11.6398C74.9403 10.5739 74.0893 9.72124 73.0204 9.72124H67.8626C68.0771 6.43858 69.9936 4.17882 73.3214 4.17882Z" fill="#9954C4"/>
<path d="M101.67 29.844C102.867 29.844 103.759 28.9061 103.759 27.7552V18.5036C103.759 15.903 105.935 13.7712 108.537 13.7712C111.134 13.7712 113.269 15.903 113.269 18.5036V27.7552C113.269 28.9061 114.206 29.844 115.355 29.844C116.507 29.844 117.444 28.9061 117.444 27.7552V18.5036C117.444 13.601 113.438 9.59326 108.537 9.59326C103.59 9.59326 99.5805 13.601 99.5805 18.5036V27.7552C99.5805 28.9061 100.563 29.844 101.67 29.844Z" fill="#9954C4"/>
<path d="M128.358 29.972C133.647 29.844 135.989 26.8173 135.989 23.9608C135.989 22.1701 135.052 19.3989 128.659 17.7789C125.587 17.0969 124.992 15.8177 125.078 15.2636C125.206 13.7712 128.87 12.7483 132.367 14.9224C133.391 15.4339 134.585 14.9224 135.052 13.8992C135.522 12.9186 135.052 11.6824 134.031 11.2133C132.409 10.2753 130.575 9.63591 128.275 9.63591C124.224 9.50796 120.813 11.7677 120.599 14.8798C120.429 17.0542 121.623 19.953 127.849 21.5307C130.022 21.9996 131.471 22.8949 131.471 23.9608C131.43 26.0922 126.569 26.6893 122.647 24.2593C121.623 23.8328 120.429 24.3016 120.004 25.3675C119.62 26.3908 120.09 27.5846 121.111 28.0108C122.688 28.8208 125.376 30.0146 128.358 29.972Z" fill="#9954C4"/>
<path d="M76.0969 19.5348C76.2538 14.1241 80.7104 9.72083 86.2446 9.72083C88.5984 9.72083 90.7849 10.5473 92.511 11.923V11.8937C92.511 10.745 93.3166 9.85159 94.4256 9.85159C95.4403 9.85159 96.2982 10.745 96.2982 11.8937V18.7931C96.3296 19.132 96.3506 19.4762 96.3506 19.8256V27.8831C96.3506 29.0339 95.4927 29.9294 94.4674 29.9294C93.3585 29.9294 92.5529 29.0339 92.5529 27.8831V27.7439C90.8163 29.1583 88.6088 30.0099 86.2131 30.0099C80.6058 30.0099 76.0969 25.4602 76.0969 19.9313C76.0969 19.7984 76.0969 19.6666 76.0969 19.5348ZM91.3395 22.9536C91.8625 22.0654 92.166 21.0319 92.166 19.9313C92.166 16.6139 89.4876 13.9347 86.2131 13.9347C83.2316 13.9347 80.7 16.161 80.2815 19.0672C80.2502 19.3162 80.2292 19.5683 80.2292 19.8256C80.2292 23.1503 82.9596 25.8368 86.2446 25.8368C88.3892 25.8368 90.2933 24.6829 91.3395 22.9536Z" fill="#9954C4"/>
</g>
<defs>
<clipPath id="clip0_378_1870">
<rect width="136" height="52.3077" fill="white"/>
</clipPath>
</defs>
</svg>
