<svg fill="none" height="18" viewBox="0 0 18 18" width="18" xmlns="http://www.w3.org/2000/svg"><path clip-rule="evenodd" d="m9 2c-3.86599 0-7 3.13401-7 7 0 3.866 3.13401 7 7 7 3.866 0 7-3.134 7-7 0-3.86599-3.134-7-7-7zm-9 7c0-4.97056 4.02944-9 9-9 4.9706 0 9 4.02944 9 9 0 4.9706-4.0294 9-9 9-4.97056 0-9-4.0294-9-9zm5.89289-3.10711c.39053-.39052 1.02369-.39052 1.41422 0l1.69289 1.6929 1.6929-1.6929c.3905-.39052 1.0237-.39052 1.4142 0 .3905.39053.3905 1.02369 0 1.41422l-1.6929 1.69289 1.6929 1.6929c.3905.3905.3905 1.0237 0 1.4142s-1.0237.3905-1.4142 0l-1.6929-1.6929-1.69289 1.6929c-.39053.3905-1.02369.3905-1.41422 0-.39052-.3905-.39052-1.0237 0-1.4142l1.6929-1.6929-1.6929-1.69289c-.39052-.39053-.39052-1.02369 0-1.41422z" fill="#ea395b" fill-rule="evenodd"/></svg>