<svg fill="none" height="17" viewBox="0 0 102 17" width="102" xmlns="http://www.w3.org/2000/svg"><g stroke="#222" stroke-linecap="round" stroke-linejoin="round" stroke-width="1.5"><path d="m92.3911 1.69908c.1957-.3963.2935-.59446.4263-.65777.1155-.055081.2497-.055081.3652 0 .1328.06331.2306.26147.4263.65777l1.8559 3.75987c.0577.117.0866.1755.1288.22092.0374.04021.0822.0728.1319.09594.0563.02615.1208.03558.2499.05445l4.1516.60679c.437.0639.656.09585.757.20262.088.0929.129.22055.112.34742-.019.14581-.177.29995-.494.60821l-3.0025 2.9248c-.0936.0911-.1404.1367-.1706.191-.0267.048-.0439.1008-.0505.1553-.0075.0617.0036.1261.0256.2548l.7086 4.1312c.0747.4357.1121.6535.0419.7828-.0611.1125-.1697.1914-.2956.2147-.1447.0268-.3403-.076-.7316-.2818l-3.7113-1.9517c-.1156-.0609-.1734-.0913-.2343-.1032-.054-.0106-.1094-.0106-.1634 0-.0609.0119-.1187.0423-.2343.1032l-3.7113 1.9517c-.3913.2058-.5869.3086-.7316.2818-.1259-.0233-.2345-.1022-.2956-.2147-.0702-.1293-.0328-.3471.0419-.7828l.7086-4.1312c.022-.1287.0331-.1931.0256-.2548-.0066-.0545-.0238-.1073-.0505-.1553-.0302-.0543-.077-.0999-.1706-.191l-3.0029-2.9248c-.3164-.30826-.4747-.4624-.4939-.60821-.0168-.12687.0246-.25452.1126-.34742.1012-.10677.3197-.13872.7569-.20262l4.1514-.60679c.1291-.01887.1936-.0283.2499-.05445.0497-.02314.0945-.05573.1319-.09594.0422-.04542.0711-.10392.1288-.22092z"/><g fill="#fffa66"><path d="m8.39115 1.69908c.19562-.3963.29343-.59446.42621-.65777.11553-.055081.24975-.055081.36528 0 .13278.06331.23059.26147.42621.65777l1.85595 3.75987c.0577.117.0866.1755.1288.22092.0374.04021.0822.0728.1319.09594.0563.02615.1208.03558.2499.05445l4.1514.60679c.4372.0639.6557.09585.7569.20262.088.0929.1294.22055.1126.34742-.0192.14581-.1775.29995-.4939.60821l-3.0029 2.9248c-.0936.0911-.1404.1367-.1706.191-.0267.048-.0439.1008-.0505.1553-.0075.0617.0036.1261.0256.2548l.7086 4.1312c.0747.4357.1121.6535.0419.7828-.0611.1125-.1697.1914-.2956.2147-.1447.0268-.3403-.076-.7316-.2818l-3.71126-1.9517c-.11564-.0609-.17346-.0913-.23437-.1032-.05393-.0106-.10941-.0106-.16334 0-.06091.0119-.11873.0423-.23436.1032l-3.71129 1.9517c-.39128.2058-.58691.3086-.73157.2818-.12586-.0233-.23446-.1022-.29556-.2147-.07022-.1293-.03286-.3471.04187-.7828l.70854-4.1312c.02209-.1287.03313-.1931.02566-.2548-.00662-.0545-.02377-.1073-.05051-.1553-.03021-.0543-.07701-.0999-.17062-.191l-3.00284-2.9248c-.31649-.30826-.47474-.4624-.49399-.60821-.016758-.12687.02463-.25452.11264-.34742.10116-.10677.31974-.13872.7569-.20262l4.15139-.60679c.1291-.01887.19365-.0283.24987-.05445.04977-.02314.09459-.05573.13195-.09594.0422-.04542.07108-.10392.12883-.22092z"/><path d="m29.3911 1.69908c.1957-.3963.2935-.59446.4263-.65777.1155-.055081.2497-.055081.3652 0 .1328.06331.2306.26147.4263.65777l1.8559 3.75987c.0577.117.0866.1755.1288.22092.0374.04021.0822.0728.1319.09594.0563.02615.1208.03558.2499.05445l4.1514.60679c.4372.0639.6557.09585.7569.20262.088.0929.1294.22055.1126.34742-.0192.14581-.1775.29995-.4939.60821l-3.0029 2.9248c-.0936.0911-.1404.1367-.1706.191-.0267.048-.0439.1008-.0505.1553-.0075.0617.0036.1261.0256.2548l.7086 4.1312c.0747.4357.1121.6535.0419.7828-.0611.1125-.1697.1914-.2956.2147-.1447.0268-.3403-.076-.7316-.2818l-3.7113-1.9517c-.1156-.0609-.1734-.0913-.2343-.1032-.054-.0106-.1094-.0106-.1634 0-.0609.0119-.1187.0423-.2343.1032l-3.7113 1.9517c-.3913.2058-.5869.3086-.7316.2818-.1259-.0233-.2345-.1022-.2956-.2147-.0702-.1293-.0328-.3471.0419-.7828l.7086-4.1312c.022-.1287.0331-.1931.0256-.2548-.0066-.0545-.0238-.1073-.0505-.1553-.0302-.0543-.077-.0999-.1706-.191l-3.0029-2.9248c-.3164-.30826-.4747-.4624-.4939-.60821-.0168-.12687.0246-.25452.1126-.34742.1012-.10677.3197-.13872.7569-.20262l4.1514-.60679c.1291-.01887.1936-.0283.2499-.05445.0497-.02314.0945-.05573.1319-.09594.0422-.04542.0711-.10392.1288-.22092z"/><path d="m50.3911 1.69908c.1957-.3963.2935-.59446.4263-.65777.1155-.055081.2497-.055081.3652 0 .1328.06331.2306.26147.4263.65777l1.8559 3.75987c.0577.117.0866.1755.1288.22092.0374.04021.0822.0728.1319.09594.0563.02615.1208.03558.2499.05445l4.1514.60679c.4372.0639.6557.09585.7569.20262.088.0929.1294.22055.1126.34742-.0192.14581-.1775.29995-.4939.60821l-3.0029 2.9248c-.0936.0911-.1404.1367-.1706.191-.0267.048-.0439.1008-.0505.1553-.0075.0617.0036.1261.0256.2548l.7086 4.1312c.0747.4357.1121.6535.0419.7828-.0611.1125-.1697.1914-.2956.2147-.1447.0268-.3403-.076-.7316-.2818l-3.7113-1.9517c-.1156-.0609-.1734-.0913-.2343-.1032-.054-.0106-.1094-.0106-.1634 0-.0609.0119-.1187.0423-.2343.1032l-3.7113 1.9517c-.3913.2058-.5869.3086-.7316.2818-.1259-.0233-.2345-.1022-.2956-.2147-.0702-.1293-.0328-.3471.0419-.7828l.7086-4.1312c.022-.1287.0331-.1931.0256-.2548-.0066-.0545-.0238-.1073-.0505-.1553-.0302-.0543-.077-.0999-.1706-.191l-3.0029-2.9248c-.3164-.30826-.4747-.4624-.4939-.60821-.0168-.12687.0246-.25452.1126-.34742.1012-.10677.3197-.13872.7569-.20262l4.1514-.60679c.1291-.01887.1936-.0283.2499-.05445.0497-.02314.0945-.05573.1319-.09594.0422-.04542.0711-.10392.1288-.22092z"/><path d="m71.3911 1.69908c.1957-.3963.2935-.59446.4263-.65777.1155-.055081.2497-.055081.3652 0 .1328.06331.2306.26147.4263.65777l1.8559 3.75987c.0577.117.0866.1755.1288.22092.0374.04021.0822.0728.1319.09594.0563.02615.1208.03558.2499.05445l4.1514.60679c.4372.0639.6557.09585.7569.20262.088.0929.1294.22055.1126.34742-.0192.14581-.1775.29995-.4939.60821l-3.0029 2.9248c-.0936.0911-.1404.1367-.1706.191-.0267.048-.0439.1008-.0505.1553-.0075.0617.0036.1261.0256.2548l.7086 4.1312c.0747.4357.1121.6535.0419.7828-.0611.1125-.1697.1914-.2956.2147-.1447.0268-.3403-.076-.7316-.2818l-3.7113-1.9517c-.1156-.0609-.1734-.0913-.2343-.1032-.054-.0106-.1094-.0106-.1634 0-.0609.0119-.1187.0423-.2343.1032l-3.7113 1.9517c-.3913.2058-.5869.3086-.7316.2818-.1259-.0233-.2345-.1022-.2956-.2147-.0702-.1293-.0328-.3471.0419-.7828l.7086-4.1312c.022-.1287.0331-.1931.0256-.2548-.0066-.0545-.0238-.1073-.0505-.1553-.0302-.0543-.077-.0999-.1706-.191l-3.0029-2.9248c-.3164-.30826-.4747-.4624-.4939-.60821-.0168-.12687.0246-.25452.1126-.34742.1012-.10677.3197-.13872.7569-.20262l4.1514-.60679c.1291-.01887.1936-.0283.2499-.05445.0497-.02314.0945-.05573.1319-.09594.0422-.04542.0711-.10392.1288-.22092z"/></g></g></svg>