<svg width="24" height="21" viewBox="0 0 24 21" fill="none" xmlns="http://www.w3.org/2000/svg">
<path d="M3.93304 1.01967C4.15331 0.432543 4.26345 0.138978 4.4234 0.054739C4.56198 -0.0182463 4.72762 -0.0182464 4.8662 0.0547389C5.02615 0.138978 5.13629 0.432542 5.35656 1.01967L5.74413 2.05271C5.89822 2.46343 5.97527 2.66879 6.09508 2.84153C6.20127 2.99462 6.33174 3.12838 6.48108 3.23724C6.64958 3.36007 6.84989 3.43906 7.25053 3.59703L8.31517 4.01681C8.87401 4.23716 9.15343 4.34733 9.23535 4.50543C9.30638 4.64251 9.30638 4.80555 9.23535 4.94263C9.15343 5.10072 8.87401 5.2109 8.31517 5.43124L7.25053 5.85103C6.8499 6.009 6.64958 6.08798 6.48108 6.21081C6.33174 6.31967 6.20127 6.45343 6.09508 6.60653C5.98037 6.77191 5.90487 6.96719 5.76342 7.34396C5.75619 7.3632 5.75258 7.37282 5.74939 7.38257C5.74656 7.39123 5.74397 7.40001 5.74164 7.40882C5.73902 7.41874 5.73683 7.42877 5.73245 7.44883L5.38748 9.02745C5.17269 10.0104 5.06529 10.5019 4.89 10.6075C4.73917 10.6984 4.55044 10.6984 4.3996 10.6075C4.22431 10.5019 4.11692 10.0104 3.90212 9.02745L3.55716 7.44883C3.55278 7.42877 3.55058 7.41874 3.54796 7.40882C3.54563 7.40001 3.54304 7.39123 3.54021 7.38257C3.53702 7.37282 3.53341 7.3632 3.52619 7.34396C3.38474 6.96719 3.30923 6.77191 3.19452 6.60653C3.08834 6.45343 2.95786 6.31967 2.80852 6.21081C2.64003 6.08798 2.43971 6.009 2.03907 5.85103L0.974429 5.43125C0.415591 5.2109 0.136172 5.10072 0.0542495 4.94263C-0.0167811 4.80555 -0.0167811 4.64251 0.0542495 4.50543C0.136172 4.34733 0.415591 4.23716 0.974429 4.01681L2.03907 3.59703C2.43971 3.43906 2.64003 3.36007 2.80852 3.23724C2.95786 3.12838 3.08834 2.99462 3.19452 2.84153C3.31433 2.66879 3.39138 2.46343 3.54547 2.05271L3.93304 1.01967Z" fill="#222222"/>
<path d="M7.26307 13.7436C7.48341 13.185 7.59359 12.9057 7.75167 12.8238C7.88874 12.7528 8.05176 12.7528 8.18882 12.8238C8.3469 12.9057 8.45708 13.185 8.67743 13.7436L8.87839 14.2531C9.00568 14.5758 9.06933 14.7371 9.1683 14.8729C9.25602 14.9932 9.36381 15.0983 9.48717 15.1838C9.62637 15.2803 9.79185 15.3424 10.1228 15.4665L10.586 15.6402C11.1733 15.8605 11.467 15.9706 11.5513 16.1306C11.6243 16.2691 11.6243 16.4348 11.5513 16.5734C11.467 16.7334 11.1733 16.8435 10.586 17.0638L10.1228 17.2375C9.79185 17.3616 9.62637 17.4237 9.48717 17.5202C9.36381 17.6057 9.25602 17.7108 9.1683 17.8311C9.07492 17.9591 9.01299 18.11 8.89937 18.3977C8.89154 18.4175 8.88762 18.4275 8.88414 18.4376C8.88105 18.4466 8.87821 18.4557 8.87567 18.4649C8.8728 18.4752 8.87041 18.4856 8.86561 18.5065L8.71115 19.1788C8.49565 20.1168 8.38789 20.5858 8.21371 20.6897C8.06374 20.7792 7.87676 20.7792 7.72679 20.6897C7.5526 20.5858 7.44485 20.1168 7.22934 19.1788L7.07489 18.5065C7.07009 18.4856 7.06769 18.4752 7.06482 18.4649C7.06228 18.4557 7.05944 18.4466 7.05636 18.4376C7.05288 18.4275 7.04896 18.4175 7.04113 18.3977C6.92751 18.11 6.86558 17.9591 6.77219 17.8311C6.68447 17.7108 6.57669 17.6057 6.45332 17.5202C6.31413 17.4237 6.14865 17.3616 5.81769 17.2375L5.35451 17.0638C4.76716 16.8435 4.47348 16.7334 4.38922 16.5734C4.31622 16.4348 4.31622 16.2691 4.38922 16.1306C4.47348 15.9706 4.76716 15.8605 5.35451 15.6402L5.81769 15.4665C6.14865 15.3424 6.31413 15.2803 6.45332 15.1838C6.57669 15.0983 6.68447 14.9932 6.77219 14.8729C6.87117 14.7371 6.93481 14.5758 7.0621 14.2531L7.26307 13.7436Z" fill="#222222"/>
<path d="M15.8123 1.94022C16.0326 1.36139 16.1427 1.07197 16.3022 0.9884C16.4403 0.915976 16.6052 0.915976 16.7434 0.9884C16.9028 1.07197 17.0129 1.36139 17.2333 1.94022L18.1957 4.46882C18.4302 5.0849 18.5474 5.39294 18.7297 5.65205C18.8913 5.88169 19.0899 6.08233 19.3171 6.24562C19.5735 6.42986 19.8783 6.54834 20.488 6.78529L23.0144 7.76723C23.5814 7.98756 23.8648 8.09773 23.9474 8.25638C24.019 8.39389 24.019 8.5577 23.9474 8.69522C23.8648 8.85386 23.5814 8.96403 23.0144 9.18437L20.488 10.1663C19.8783 10.4033 19.5735 10.5217 19.3171 10.706C19.0899 10.8693 18.8913 11.0699 18.7297 11.2995C18.5526 11.5513 18.4369 11.8492 18.2154 12.4309C18.208 12.4503 18.2043 12.4601 18.201 12.4699C18.1981 12.4787 18.1955 12.4875 18.1931 12.4964C18.1904 12.5065 18.1882 12.5166 18.1837 12.5369L17.265 16.681C17.05 17.6509 16.9425 18.1358 16.7675 18.2409C16.6169 18.3314 16.4287 18.3314 16.2781 18.2409C16.1031 18.1358 15.9956 17.6509 15.7806 16.681L14.8619 12.5369C14.8574 12.5166 14.8551 12.5065 14.8524 12.4964C14.8501 12.4875 14.8474 12.4787 14.8445 12.4699C14.8412 12.4601 14.8375 12.4503 14.8301 12.4309C14.6087 11.8492 14.493 11.5513 14.3158 11.2995C14.1542 11.0699 13.9557 10.8693 13.7284 10.706C13.472 10.5217 13.1672 10.4033 12.5575 10.1663L10.0311 9.18437C9.46419 8.96403 9.18073 8.85386 9.09813 8.69522C9.02653 8.5577 9.02653 8.39389 9.09813 8.25638C9.18073 8.09773 9.46419 7.98756 10.0311 7.76723L12.5575 6.78529C13.1672 6.54834 13.472 6.42986 13.7284 6.24562C13.9557 6.08233 14.1542 5.88169 14.3158 5.65205C14.4981 5.39294 14.6154 5.0849 14.8499 4.46882L15.8123 1.94022Z" fill="#222222"/>
</svg>
