<svg fill="none" height="18" viewBox="0 0 19 18" width="19" xmlns="http://www.w3.org/2000/svg"><path d="m8.96537 2.32897c.19562-.39631.29343-.59446.42621-.65777.11553-.05509.24975-.05509.36528 0 .13278.06331.23059.26146.42624.65777l1.8559 3.75986c.0577.117.0866.1755.1288.22092.0374.04022.0822.0728.132.09595.0562.02614.1207.03558.2498.05445l4.1514.60678c.4372.0639.6558.09585.7569.20262.088.0929.1294.22055.1127.34742-.0193.14582-.1775.29995-.494.60821l-3.0029 2.92482c-.0936.0911-.1404.1367-.1706.191-.0267.048-.0439.1007-.0505.1553-.0075.0616.0036.126.0257.2548l.7085 4.1311c.0747.4358.1121.6536.0419.7829-.0611.1125-.1697.1914-.2956.2147-.1446.0268-.3403-.0761-.7316-.2818l-3.71125-1.9518c-.11563-.0608-.17345-.0912-.23436-.1031-.05393-.0106-.10941-.0106-.16334 0-.06091.0119-.11873.0423-.23437.1031l-3.71129 1.9518c-.39127.2057-.58691.3086-.73156.2818-.12586-.0233-.23447-.1022-.29556-.2147-.07022-.1293-.03286-.3471.04187-.7829l.70854-4.1311c.02208-.1288.03313-.1932.02566-.2548-.00662-.0546-.02378-.1073-.05052-.1553-.0302-.0543-.077-.0999-.17061-.191l-3.00284-2.92482c-.31649-.30826-.47474-.46239-.494-.60821-.01675-.12687.02464-.25452.11265-.34742.10116-.10677.31974-.13872.7569-.20262l4.15139-.60678c.1291-.01887.19365-.02831.24987-.05445.04977-.02315.09459-.05573.13195-.09595.0422-.04542.07108-.10392.12883-.22092z" fill="#fffa66" stroke="#222" stroke-linecap="round" stroke-linejoin="round" stroke-width="1.5"/></svg>