<svg fill="none" height="21" viewBox="0 0 50 21" width="50" xmlns="http://www.w3.org/2000/svg"><g fill="#b9b8c4"><g clip-rule="evenodd" fill-rule="evenodd"><path d="m49.2307 10.784c0-3.56679-1.6957-6.38117-4.9367-6.38117-3.2547 0-5.2239 2.81438-5.2239 6.35327 0 4.1937 2.3248 6.3115 5.6615 6.3115 1.6274 0 2.8581-.3762 3.788-.9057v-2.7865c-.9299.4737-1.9965.7663-3.3504.7663-1.3265 0-2.5026-.4737-2.653-2.1177h6.6872c0-.1812.0273-.9057.0273-1.24zm-6.7555-1.32364c0-1.57438.9436-2.22921 1.8051-2.22921.8342 0 1.7231.65483 1.7231 2.22921z"/><path d="m33.7915 4.40283c-1.3402 0-2.2017.6409-2.6804 1.08674l-.1777-.86382h-3.0086v16.24535l3.4188-.7384.0137-3.9429c.4923.3622 1.2171.8778 2.4205.8778 2.4479 0 4.6769-2.0063 4.6769-6.423-.0137-4.04042-2.2701-6.24177-4.6632-6.24177zm-.8205 9.59957c-.8069 0-1.2855-.2926-1.6137-.6548l-.0137-5.16904c.3556-.40404.8479-.68269 1.6274-.68269 1.2444 0 2.1059 1.42112 2.1059 3.24633 0 1.8669-.8478 3.2602-2.1059 3.2602z"/><path d="m23.2205 3.58067 3.4325-.75236v-2.82831l-3.4325.738427z"/></g><path d="m26.653 4.63965h-3.4325v12.19105h3.4325z"/><path clip-rule="evenodd" d="m19.5419 5.67063-.2189-1.03101h-2.9538v12.19098h3.4188v-8.26199c.8068-1.07281 2.1744-.87775 2.5983-.7245v-3.20449c-.4376-.16719-2.0376-.47371-2.8444 1.03101z" fill-rule="evenodd"/><path clip-rule="evenodd" d="m12.7042 1.61621-3.3367.7245-.01368 11.15999c0 2.062 1.51798 3.5807 3.54188 3.5807 1.1214 0 1.9419-.209 2.3932-.4598v-2.8283c-.4376.1811-2.5983.822-2.5983-1.24v-4.94608h2.5983v-2.96764h-2.5983z" fill-rule="evenodd"/><path clip-rule="evenodd" d="m3.45983 8.17856c0-.54337.43761-.75236 1.16239-.75236 1.03932 0 2.35214.32045 3.39146.89169v-3.27416c-1.13505-.45977-2.25641-.6409-3.39146-.6409-2.77607 0-4.62222 1.47686-4.62222 3.94292 0 3.84535 5.19658 3.23235 5.19658 4.89035 0 .6409-.54701.8499-1.31282.8499-1.13504 0-2.58461-.4737-3.733333-1.1146v3.3159c1.271793.5573 2.557263.7942 3.733333.7942 2.84445 0 4.8-1.4351 4.8-3.929-.01367-4.15192-5.22393-3.41349-5.22393-4.97394z" fill-rule="evenodd"/></g></svg>