<svg width="96" height="96" viewBox="0 0 96 96" fill="none" xmlns="http://www.w3.org/2000/svg">
<path d="M88 48C88 70.0914 70.0914 88 48 88C25.9086 88 8 70.0914 8 48C8 25.9086 25.9086 8 48 8C70.0914 8 88 25.9086 88 48Z" fill="#F7BC9C"/>
<path fill-rule="evenodd" clip-rule="evenodd" d="M96 48C96 74.5097 74.5097 96 48 96C21.4903 96 0 74.5097 0 48C0 21.4903 21.4903 0 48 0C74.5097 0 96 21.4903 96 48ZM48 88C70.0914 88 88 70.0914 88 48C88 25.9086 70.0914 8 48 8C25.9086 8 8 25.9086 8 48C8 70.0914 25.9086 88 48 88Z" fill="#FFA78A"/>
<path fill-rule="evenodd" clip-rule="evenodd" d="M61.7839 19.8451C59.6498 21.4382 58.6249 23.2863 58.6249 24.5625C58.6249 24.9871 58.7543 25.4428 58.9944 25.8785L61.0617 23.8112L62.5643 25.3138L60.4972 27.3809C60.9326 27.6208 61.3881 27.7501 61.8124 27.7501C63.0903 27.7501 64.9384 26.725 66.5309 24.5911C67.9173 22.7335 68.9954 20.1702 69.2106 17.1643C66.2049 17.3797 63.6416 18.4584 61.7839 19.8451ZM56.4998 24.5625C56.4998 25.6009 56.8769 26.5909 57.4543 27.4186L54.6867 30.1862L55.438 30.9375C54.6867 30.1862 54.6864 30.1865 54.6861 30.1868L54.6855 30.1874L54.6841 30.1888L54.6807 30.1922L54.6717 30.2014L54.6622 30.2111C54.6571 30.2165 54.6513 30.2225 54.6447 30.2294C54.623 30.2522 54.5938 30.2835 54.5582 30.3228C54.5088 30.3776 54.4469 30.4482 54.3755 30.534V24.5625H52.2505V36.25V39.0347C52.1788 38.9486 52.1167 38.8777 52.0671 38.8228C52.0316 38.7834 52.0024 38.7522 51.9806 38.7293C51.9697 38.7179 51.9607 38.7086 51.9537 38.7014L51.9446 38.6921L51.9412 38.6887L51.9398 38.6873L51.9392 38.6867C51.9389 38.6864 51.9386 38.6861 51.1873 39.4374L51.9386 38.6861L49.1709 35.9184C49.7482 35.0907 50.1252 34.1008 50.1252 33.0625C50.1252 30.8218 48.4938 28.42 46.1123 26.6422C43.6775 24.8247 40.2685 23.5 36.3126 23.5H35.2501V24.5625C35.2501 28.5182 36.5739 31.9272 38.3911 34.362C40.1686 36.7438 42.5705 38.375 44.8126 38.375C45.8508 38.375 46.8406 37.9981 47.6682 37.4209L50.4331 40.1858L50.4332 40.1859L50.4336 40.1863C50.4349 40.1876 50.4376 40.1905 50.4418 40.1948C50.4512 40.2047 50.4676 40.2222 50.4902 40.2472C50.5353 40.2971 50.6044 40.3764 50.6897 40.483C50.8608 40.6969 51.0936 41.0166 51.3273 41.4255C51.7972 42.2478 52.2498 43.394 52.2498 44.75H52.2505V45.8409C47.7371 46.0817 43.7213 47.8378 41.0065 50.2524L37.7385 49.064L37.5626 49.0001H37.3754H28.8751C28.875 47.831 27.9265 46.8751 26.7501 46.8751H14V49.0001H26.7501V68.1252H14V70.2503H26.7501C27.9265 70.2503 28.8751 69.2943 28.8751 68.1252L32.9428 68.1252L50.8337 74.4397L51.0053 74.5003H51.1873H53.3124H53.5721L53.8025 74.3804L80.3652 60.5679L80.5105 60.4923L80.6263 60.3765L79.875 59.6252C80.6263 60.3765 80.6265 60.3763 80.6267 60.3761L80.6271 60.3757L80.628 60.3748L80.63 60.3727L80.6353 60.3674L80.6422 60.3604L80.6504 60.3519C80.6624 60.3395 80.6783 60.3229 80.6974 60.3024C80.7355 60.2615 80.7872 60.2047 80.8477 60.134C80.9679 59.9938 81.1283 59.7935 81.2903 59.5505C81.5912 59.0991 82 58.3508 82 57.5002C82 55.1487 80.0954 53.2502 77.75 53.2502H77.5878L77.4331 53.2985L69.1037 55.9015C68.6055 53.2046 66.8703 50.854 64.4483 49.1237C61.7964 47.2291 58.2626 46.0248 54.3755 45.838V36.25C54.3755 34.894 54.8281 33.7479 55.298 32.9256C55.5317 32.5166 55.7646 32.1969 55.9357 31.9831C56.0209 31.8765 56.0901 31.7972 56.1352 31.7472C56.1577 31.7223 56.1742 31.7047 56.1835 31.6949L56.1893 31.6889L56.1917 31.6864L56.1921 31.686L56.1922 31.6859L56.1925 31.6856L58.957 28.9211C59.7845 29.4982 60.7743 29.8751 61.8124 29.8751C64.0545 29.8751 66.4564 28.2439 68.2339 25.8621C70.0511 23.4272 71.3749 20.0183 71.3749 16.0625V15H70.3124C66.3565 15 62.9475 16.3248 60.5127 18.1422C58.1312 19.92 56.4998 22.3219 56.4998 24.5625ZM28.8751 66.0002H33.1248H33.3068L33.4784 66.0608L51.3693 72.3753H53.0526L79.2192 58.7687L79.2343 58.7511C79.3133 58.6589 79.4185 58.5272 79.5222 58.3718C79.7525 58.0262 79.875 57.7121 79.875 57.5002C79.875 56.3734 79.0017 55.4551 77.8963 55.3801L61.6917 60.444C60.918 61.2495 59.8299 61.7501 58.6256 61.7501H46.938C45.7644 61.7501 44.813 62.6991 44.813 63.8751H42.688C42.688 61.5236 44.5926 59.6251 46.938 59.6251H58.6256C59.3901 59.6251 60.0603 59.2224 60.4347 58.6165L60.433 58.6111L60.4392 58.6091C60.6367 58.2865 60.7506 57.9069 60.7506 57.5001C60.7506 56.3241 59.7992 55.3751 58.6256 55.3751H49.063H48.8758L48.6999 55.3111L37.1883 51.1251H28.8751V66.0002ZM67.0551 56.5416L62.8612 57.8522C62.8707 57.7361 62.8756 57.6187 62.8756 57.5001C62.8756 55.1486 60.9709 53.2501 58.6256 53.2501H49.2502L43.3333 51.0985C45.8445 49.2389 49.3791 47.9376 53.3123 47.9376C57.2239 47.9376 60.721 49.0724 63.213 50.8527C65.3859 52.4051 66.7418 54.4002 67.0551 56.5416ZM47.6307 34.3782L45.5636 32.3111L44.061 33.8137L46.128 35.8807C45.6926 36.1207 45.237 36.25 44.8126 36.25C43.5347 36.25 41.6866 35.2249 40.0941 33.0911C38.7077 31.2334 37.6296 28.6701 37.4144 25.6643C40.4201 25.8796 42.9834 26.9583 44.8411 28.3451C46.9752 29.9381 48.0002 31.7863 48.0002 33.0625C48.0002 33.487 47.8707 33.9427 47.6307 34.3782ZM24.6247 63.875H22.4997V66.0001H24.6247V63.875ZM18.2504 63.875H20.3754V66.0001H18.2504V63.875Z" fill="#E16464" stroke="#E16464" stroke-width="0.5" stroke-miterlimit="2"/>
</svg>
