<svg width="24" height="24" viewBox="0 0 24 24" fill="none" xmlns="http://www.w3.org/2000/svg">
<path fill-rule="evenodd" clip-rule="evenodd" d="M11.9999 0C12.6024 0 13.0908 0.488417 13.0908 1.09091V2.30303C13.0908 2.90552 12.6024 3.39394 11.9999 3.39394C11.3974 3.39394 10.909 2.90552 10.909 2.30303V1.09091C10.909 0.488417 11.3974 0 11.9999 0ZM3.51465 3.51472C3.94068 3.08869 4.63141 3.08869 5.05743 3.51472L5.91453 4.37182C6.34056 4.79784 6.34056 5.48857 5.91453 5.9146C5.4885 6.34062 4.79778 6.34062 4.37175 5.9146L3.51465 5.0575C3.08863 4.63147 3.08863 3.94074 3.51465 3.51472ZM20.4852 3.51472C20.9112 3.94075 20.9112 4.63147 20.4852 5.0575L19.6281 5.9146C19.2021 6.34062 18.5114 6.34062 18.0853 5.9146C17.6593 5.48857 17.6593 4.79785 18.0853 4.37182L18.9424 3.51472C19.3685 3.08869 20.0592 3.08869 20.4852 3.51472ZM8.48583 8.48592C6.54504 10.4267 6.54504 13.5733 8.48583 15.5141L9.14898 16.1773C9.39284 16.4211 9.60988 16.6868 9.79821 16.9697H14.2017C14.39 16.6868 14.607 16.4211 14.8509 16.1773L15.514 15.5141C17.4548 13.5733 17.4548 10.4267 15.514 8.48592C13.5733 6.54513 10.4266 6.54513 8.48583 8.48592ZM15.8232 18.517C15.967 18.2246 16.1589 17.9549 16.3937 17.7201L17.0568 17.0569C19.8497 14.2641 19.8497 9.73598 17.0568 6.94314C14.264 4.1503 9.73589 4.1503 6.94305 6.94314C4.15021 9.73598 4.15021 14.2641 6.94305 17.0569L7.6062 17.7201C7.841 17.9549 8.03285 18.2246 8.1767 18.517C8.18228 18.5291 8.18807 18.5411 8.19408 18.5529C8.38369 18.9517 8.48478 19.3912 8.48478 19.8412V20.4849C8.48478 22.4262 10.0586 24 11.9999 24C13.9413 24 15.5151 22.4262 15.5151 20.4849V19.8412C15.5151 19.3912 15.6162 18.9517 15.8058 18.5529C15.8118 18.5411 15.8176 18.5291 15.8232 18.517ZM13.3793 19.1515H10.6205C10.6511 19.3789 10.6666 19.6092 10.6666 19.8412V20.4849C10.6666 21.2212 11.2636 21.8182 11.9999 21.8182C12.7363 21.8182 13.3333 21.2212 13.3333 20.4849V19.8412C13.3333 19.6092 13.3488 19.3789 13.3793 19.1515ZM0 11.9999C0 11.3974 0.488417 10.909 1.09091 10.909H2.30303C2.90552 10.909 3.39394 11.3974 3.39394 11.9999C3.39394 12.6024 2.90552 13.0908 2.30303 13.0908H1.09091C0.488417 13.0908 0 12.6024 0 11.9999ZM20.6061 11.9999C20.6061 11.3974 21.0945 10.909 21.697 10.909H22.9091C23.5116 10.909 24 11.3974 24 11.9999C24 12.6024 23.5116 13.0908 22.9091 13.0908H21.697C21.0945 13.0908 20.6061 12.6024 20.6061 11.9999Z" fill="#222222"/>
</svg>
