<svg width="19" height="22" viewBox="0 0 19 22" fill="none" xmlns="http://www.w3.org/2000/svg">
<path opacity="0.8" d="M14.7282 10.1966C14.6334 10.1512 14.5372 10.1074 14.4397 10.0656C14.2699 6.93667 12.5602 5.14536 9.68938 5.12703C9.67638 5.12695 9.66344 5.12695 9.65044 5.12695C7.93334 5.12695 6.50525 5.85989 5.62627 7.19362L7.20511 8.27668C7.86175 7.28043 8.89226 7.06805 9.65119 7.06805C9.65996 7.06805 9.66876 7.06805 9.67743 7.06813C10.6227 7.07416 11.336 7.34899 11.7976 7.88494C12.1336 8.27513 12.3583 8.81432 12.4695 9.49481C11.6315 9.35237 10.7251 9.30858 9.7562 9.36413C7.02679 9.52135 5.27211 11.1132 5.38995 13.3251C5.44976 14.4471 6.00872 15.4124 6.9638 16.0429C7.77132 16.576 8.81134 16.8366 9.89224 16.7776C11.3197 16.6994 12.4395 16.1548 13.2207 15.1589C13.8141 14.4027 14.1893 13.4226 14.355 12.1878C15.0353 12.5983 15.5394 13.1386 15.8179 13.788C16.2913 14.8921 16.319 16.7062 14.8387 18.1853C13.5417 19.481 11.9827 20.0415 9.62655 20.0588C7.01298 20.0395 5.03637 19.2013 3.75124 17.5676C2.54782 16.0378 1.92588 13.8281 1.90268 11C1.92588 8.17183 2.54782 5.96218 3.75124 4.43239C5.03637 2.79869 7.01295 1.96052 9.62651 1.9411C12.259 1.96067 14.2701 2.80287 15.6044 4.44446C16.2587 5.24947 16.752 6.26184 17.0772 7.44222L18.9273 6.94859C18.5332 5.49567 17.9129 4.24367 17.0689 3.20535C15.3583 1.10077 12.8565 0.0223607 9.63296 0H9.62006C6.4031 0.022283 3.9293 1.10479 2.26741 3.21742C0.788551 5.0974 0.0257125 7.71326 8.0208e-05 10.9923L0 11L8.0208e-05 11.0077C0.0257125 14.2867 0.788551 16.9026 2.26741 18.7826C3.9293 20.8952 6.4031 21.9778 9.62006 22H9.63296C12.493 21.9802 14.509 21.2314 16.1698 19.5721C18.3426 17.4013 18.2772 14.6803 17.561 13.0099C17.0472 11.8121 16.0677 10.8391 14.7282 10.1966ZM9.79006 14.8393C8.59381 14.9067 7.35102 14.3698 7.28975 13.2197C7.24432 12.367 7.8966 11.4155 9.86347 11.3021C10.0887 11.2891 10.3098 11.2828 10.5269 11.2828C11.2413 11.2828 11.9097 11.3522 12.5173 11.485C12.2907 14.3155 10.9613 14.7751 9.79006 14.8393Z" fill="#F6F6F6"/>
</svg>
