<svg width="20" height="24" viewBox="0 0 20 24" fill="none" xmlns="http://www.w3.org/2000/svg">
<g opacity="0.8">
<path d="M15.1177 4.98343C14.3442 4.09707 13.9187 2.95925 13.9207 1.78198H12.9836C13.103 2.43303 13.3538 3.05282 13.7206 3.60343C14.0874 4.15403 14.5626 4.62387 15.117 4.98418L15.1177 4.98343ZM6.44882 11.8998C5.66834 11.9011 4.92024 12.2124 4.36856 12.7654C3.81688 13.3184 3.50664 14.0679 3.50586 14.8497C3.50586 15.9834 4.14956 16.9701 5.0866 17.4635C4.72298 16.9633 4.5274 16.3603 4.52808 15.7415C4.52886 14.9598 4.83911 14.2102 5.39079 13.6572C5.94247 13.1042 6.69056 12.7929 7.47105 12.7916C7.77401 12.7916 8.06734 12.8435 8.34141 12.9288V9.34305C8.05298 9.30315 7.76221 9.28258 7.47105 9.28147C7.41919 9.28147 7.37179 9.28592 7.31993 9.28592V12.037C7.03803 11.948 6.7444 11.9017 6.44882 11.8998Z" fill="#F6F6F6"/>
<path d="M18.2939 9.6623C18.2865 9.66184 18.2791 9.66136 18.2717 9.66087V9.28595V7.14288C18.2791 7.14361 18.2865 7.14432 18.2939 7.14502V9.6623ZM13.3976 8.63001C13.4053 8.63436 13.4129 8.6387 13.4206 8.64303V15.746C13.4206 18.9619 10.8693 21.5874 7.69691 21.707C10.9379 21.1158 13.3976 18.2654 13.3976 14.8542V8.63001Z" stroke="#F6F6F6"/>
<path d="M12.8988 14.8549V7.71598C14.3187 8.73857 16.0239 9.28781 17.7728 9.28592V6.55856C16.7408 6.3358 15.809 5.78297 15.118 4.98343C14.5641 4.62207 14.0891 4.15212 13.7214 3.60191C13.3537 3.0517 13.1011 2.43262 12.9788 1.78198H10.4151L10.4106 15.855C10.3823 16.6172 10.0605 17.3388 9.51266 17.8685C8.96485 18.3983 8.23356 18.695 7.47209 18.6966C7.00508 18.6956 6.54496 18.5837 6.12946 18.3701C5.71396 18.1565 5.35491 17.8474 5.08172 17.468C4.606 17.2173 4.2075 16.8415 3.92911 16.381C3.65071 15.9204 3.50295 15.3925 3.50172 14.8541C3.5027 14.0725 3.81303 13.3232 4.36469 12.7704C4.91634 12.2175 5.66433 11.9063 6.44468 11.9049C6.74765 11.9049 7.04098 11.9569 7.31505 12.0422V9.29111C3.83283 9.36753 1.02246 12.2321 1.02246 15.7467C1.02246 17.4457 1.68024 18.9912 2.75431 20.1486C3.83598 20.9112 5.12638 21.3206 6.44913 21.3209C10.0032 21.3209 12.8988 18.4177 12.8988 14.8556V14.8549Z" fill="#F6F6F6"/>
</g>
</svg>
