<svg fill="none" height="22" viewBox="0 0 20 22" width="20" xmlns="http://www.w3.org/2000/svg"><path clip-rule="evenodd" d="m19.1775 5.26938v.80143c-.0017-.00036-.0034-.00073-.0051-.0011-.4195-.09002-.8239-.23039-1.2051-.41645.3785.18498.7824.32601 1.2051.41645.0017.00037.0034.00074.0051.0011v2.96395c-1.9576 0-3.77-.62201-5.2501-1.67909v7.68423c0 3.844-3.1177 6.9601-6.96354 6.9601-1.43495 0-2.76867-.4337-3.8766-1.1772-.0002-.0002-.00039-.0004-.00059-.0006-1.86163-1.2493-3.08667-3.3729-3.08667-5.7824 0-3.8437 3.11779-6.95983 6.96395-6.95975.31963-.00016.63886.02155.9555.06481v.85318c-.00006 0-.00011 0-.00017 0v2.99636c-.30476-.0967-.62966-.1491-.96675-.1491-1.75937 0-3.18535 1.4255-3.18535 3.1837 0 1.2431.71279 2.3196 1.75221 2.8439.00004 0 .00007.0001.0001.0001.43098.2173.91762.3396 1.43305.3396 1.75576 0 3.17926-1.4197 3.18536-3.1728v-15.0398h3.7894v.484319c.0134.144792.0327.289033.0578.432331v-.000006c.263 1.499356 1.1599 2.780386 2.405 3.556886.0107.01177.0216.0235.0325.03518-.0109-.0117-.0217-.02345-.0325-.03525.836.5216 1.802.79742 2.7874.79592zm-12.87276 13.33662c.5023.3308 1.10378.5233 1.75037.5233.87779 0 1.67258-.3549 2.24869-.929-.57614.5741-1.37096.9289-2.24868.9289-.64659 0-1.24808-.1925-1.75038-.5232z" fill="#222" fill-rule="evenodd" opacity=".8"/></svg>