<svg fill="none" height="20" viewBox="0 0 22 20" width="22" xmlns="http://www.w3.org/2000/svg"><path d="m16.9461 13.8369c1.4559.7314 2.7042 1.9051 3.6153 3.3727.1804.2907.2706.436.3018.6372.0634.409-.2163.9117-.5971 1.0736-.1875.0796-.3983.0796-.82.0796m-4.5-9.46776c1.4817-.73635 2.5-2.26538 2.5-4.03224s-1.0183-3.29589-2.5-4.03224m-2 4.03224c0 2.48528-2.0147 4.5-4.49997 4.5-2.48529 0-4.5-2.01472-4.5-4.5s2.01471-4.5 4.5-4.5c2.48527 0 4.49997 2.01472 4.49997 4.5zm-11.44074 11.4383c1.5943-2.3937 4.11014-3.9383 6.94077-3.9383 2.83067 0 5.34647 1.5446 6.94077 3.9383.3493.5245.5239.7867.5038 1.1216-.0157.2608-.1866.5801-.395.7377-.2677.2024-.6357.2024-1.3719.2024h-11.35532c-.73618 0-1.10428 0-1.37192-.2024-.20839-.1576-.37935-.4769-.395-.7377-.020106-.3349.15453-.5971.5038-1.1216z" stroke="#222" stroke-linecap="round" stroke-linejoin="round" stroke-width="2"/></svg>