<svg width="59" height="20" viewBox="0 0 59 20" fill="none" xmlns="http://www.w3.org/2000/svg">
<g opacity="0.8" clip-path="url(#clip0_1045_1352)">
<path d="M3.60243 13.0036L0.394531 1.41846H3.19323L4.31743 6.6701C4.60433 7.96361 4.81363 9.06662 4.95003 9.97913H5.03233C5.12643 9.32532 5.33813 8.22937 5.66503 6.68892L6.82913 1.41846H9.62783L6.37993 13.0036V18.561H3.60013V13.0036H3.60243Z" fill="#F6F6F6"/>
<path d="M10.4697 18.1937C9.90526 17.8127 9.50306 17.22 9.26316 16.4157C9.02566 15.6114 8.90576 14.5437 8.90576 13.2078V11.3898C8.90576 10.0422 9.04216 8.95805 9.31496 8.14196C9.58776 7.32588 10.0135 6.72851 10.592 6.35457C11.1706 5.98063 11.9302 5.79248 12.871 5.79248C13.7976 5.79248 14.5384 5.98298 15.0981 6.36398C15.6555 6.74497 16.0647 7.34234 16.3234 8.15137C16.5821 8.96275 16.7115 10.0422 16.7115 11.3898V13.2078C16.7115 14.5437 16.5845 15.6161 16.3329 16.4251C16.0812 17.2365 15.672 17.8292 15.1075 18.2031C14.5431 18.5771 13.7764 18.7652 12.8098 18.7652C11.8126 18.7675 11.0342 18.5747 10.4697 18.1937ZM13.6353 16.2323C13.7905 15.8231 13.8705 15.1575 13.8705 14.2309V10.3292C13.8705 9.43077 13.7929 8.77225 13.6353 8.35833C13.4777 7.94206 13.2026 7.7351 12.8074 7.7351C12.4265 7.7351 12.156 7.94206 12.0008 8.35833C11.8432 8.77461 11.7656 9.43077 11.7656 10.3292V14.2309C11.7656 15.1575 11.8408 15.8254 11.9914 16.2323C12.1419 16.6415 12.4123 16.8461 12.8074 16.8461C13.2026 16.8461 13.4777 16.6415 13.6353 16.2323Z" fill="#F6F6F6"/>
<path d="M25.8154 18.5634H23.6094L23.3648 17.03H23.3037C22.7039 18.1871 21.8055 18.7656 20.6061 18.7656C19.7759 18.7656 19.1621 18.4928 18.767 17.9496C18.3719 17.4039 18.1743 16.5526 18.1743 15.3955V6.03751H20.9942V15.2308C20.9942 15.7906 21.0553 16.188 21.1776 16.4256C21.2999 16.6631 21.5045 16.783 21.7914 16.783C22.036 16.783 22.2712 16.7078 22.497 16.5573C22.7228 16.4067 22.8874 16.2162 22.9979 15.9858V6.03516H25.8154V18.5634Z" fill="#F6F6F6"/>
<path d="M33.4757 3.68758H30.677V18.5629H27.9183V3.68758H25.1196V1.42041H33.4757V3.68758Z" fill="#F6F6F6"/>
<path d="M40.2768 18.5634H38.0708L37.8262 17.03H37.7651C37.1654 18.1871 36.267 18.7656 35.0675 18.7656C34.2373 18.7656 33.6235 18.4928 33.2284 17.9496C32.8333 17.4039 32.6357 16.5526 32.6357 15.3955V6.03751H35.4556V15.2308C35.4556 15.7906 35.5167 16.188 35.639 16.4256C35.7613 16.6631 35.9659 16.783 36.2529 16.783C36.4974 16.783 36.7326 16.7078 36.9584 16.5573C37.1842 16.4067 37.3488 16.2162 37.4593 15.9858V6.03516H40.2768V18.5634Z" fill="#F6F6F6"/>
<path d="M49.6092 8.0387C49.4375 7.24849 49.1623 6.67699 48.7814 6.32186C48.4004 5.96674 47.8759 5.79035 47.208 5.79035C46.6906 5.79035 46.2061 5.93616 45.7569 6.23014C45.3077 6.52412 44.9596 6.90747 44.715 7.38489H44.6939V0.785645H41.9775V18.5608H44.3058L44.5927 17.3755H44.6539C44.8726 17.7988 45.1995 18.1304 45.6346 18.3774C46.0697 18.622 46.5542 18.7443 47.0857 18.7443C48.0382 18.7443 48.7414 18.3045 49.1906 17.4272C49.6398 16.5476 49.8655 15.1765 49.8655 13.3092V11.3266C49.8655 9.92722 49.7785 8.82892 49.6092 8.0387ZM47.0245 13.1492C47.0245 14.0617 46.9869 14.7767 46.9116 15.2941C46.8364 15.8115 46.7117 16.1808 46.533 16.3971C46.3566 16.6158 46.1167 16.724 45.818 16.724C45.5852 16.724 45.3712 16.6699 45.1736 16.5594C44.9761 16.4512 44.8162 16.2866 44.6939 16.0702V8.96062C44.7879 8.6196 44.9526 8.34209 45.1854 8.12337C45.4159 7.90465 45.6699 7.79646 45.9403 7.79646C46.2273 7.79646 46.4483 7.90935 46.6036 8.13278C46.7611 8.35855 46.8693 8.73485 46.9305 9.26636C46.9916 9.79787 47.0222 10.5528 47.0222 11.5335V13.1492H47.0245Z" fill="#F6F6F6"/>
<path d="M53.8657 13.8712C53.8657 14.6755 53.8892 15.2776 53.9363 15.6798C53.9833 16.0819 54.0821 16.3736 54.2326 16.5594C54.3831 16.7428 54.6136 16.8345 54.9264 16.8345C55.3474 16.8345 55.639 16.6699 55.7942 16.343C55.9518 16.0161 56.0365 15.4705 56.0506 14.7085L58.4824 14.8519C58.4965 14.9601 58.5035 15.1106 58.5035 15.3011C58.5035 16.4582 58.186 17.3237 57.5534 17.8952C56.9208 18.4667 56.0247 18.7536 54.8676 18.7536C53.4777 18.7536 52.504 18.3185 51.9466 17.446C51.3869 16.5735 51.1094 15.2259 51.1094 13.4008V11.2136C51.1094 9.33452 51.3987 7.96105 51.9772 7.09558C52.5558 6.2301 53.5459 5.79736 54.9499 5.79736C55.9165 5.79736 56.6597 5.97375 57.1771 6.32888C57.6945 6.684 58.059 7.23433 58.2707 7.98457C58.4824 8.7348 58.5882 9.76961 58.5882 11.0913V13.2362H53.8657V13.8712ZM54.2232 7.96811C54.0797 8.14449 53.9857 8.43377 53.9363 8.83593C53.8892 9.2381 53.8657 9.84722 53.8657 10.6657V11.5641H55.9283V10.6657C55.9283 9.86133 55.9001 9.25221 55.846 8.83593C55.7919 8.41966 55.6931 8.12803 55.5496 7.95635C55.4062 7.78702 55.1851 7.7 54.8864 7.7C54.5854 7.70235 54.3643 7.79172 54.2232 7.96811Z" fill="#F6F6F6"/>
</g>
<defs>
<clipPath id="clip0_1045_1352">
<rect width="59" height="20" fill="white"/>
</clipPath>
</defs>
</svg>
